%TF.GenerationSoftware,KiCad,Pcbnew,9.0.7*%
%TF.CreationDate,2026-03-24T09:02:28-05:00*%
%TF.ProjectId,full-keyboard,66756c6c-2d6b-4657-9962-6f6172642e6b,1*%
%TF.SameCoordinates,Original*%
%TF.FileFunction,Copper,L1,Top*%
%TF.FilePolarity,Positive*%
%FSLAX46Y46*%
G04 Gerber Fmt 4.6, Leading zero omitted, Abs format (unit mm)*
G04 Created by KiCad (PCBNEW 9.0.7) date 2026-03-24 09:02:28*
%MOMM*%
%LPD*%
G01*
G04 APERTURE LIST*
G04 Aperture macros list*
%AMRoundRect*
0 Rectangle with rounded corners*
0 $1 Rounding radius*
0 $2 $3 $4 $5 $6 $7 $8 $9 X,Y pos of 4 corners*
0 Add a 4 corners polygon primitive as box body*
4,1,4,$2,$3,$4,$5,$6,$7,$8,$9,$2,$3,0*
0 Add four circle primitives for the rounded corners*
1,1,$1+$1,$2,$3*
1,1,$1+$1,$4,$5*
1,1,$1+$1,$6,$7*
1,1,$1+$1,$8,$9*
0 Add four rect primitives between the rounded corners*
20,1,$1+$1,$2,$3,$4,$5,0*
20,1,$1+$1,$4,$5,$6,$7,0*
20,1,$1+$1,$6,$7,$8,$9,0*
20,1,$1+$1,$8,$9,$2,$3,0*%
%AMFreePoly0*
4,1,37,0.603843,0.796157,0.639018,0.796157,0.711114,0.766294,0.766294,0.711114,0.796157,0.639018,0.796157,0.603843,0.800000,0.600000,0.800000,-0.600000,0.796157,-0.603843,0.796157,-0.639018,0.766294,-0.711114,0.711114,-0.766294,0.639018,-0.796157,0.603843,-0.796157,0.600000,-0.800000,0.000000,-0.800000,0.000000,-0.796148,-0.078414,-0.796148,-0.232228,-0.765552,-0.377117,-0.705537,
-0.507515,-0.618408,-0.618408,-0.507515,-0.705537,-0.377117,-0.765552,-0.232228,-0.796148,-0.078414,-0.796148,0.078414,-0.765552,0.232228,-0.705537,0.377117,-0.618408,0.507515,-0.507515,0.618408,-0.377117,0.705537,-0.232228,0.765552,-0.078414,0.796148,0.000000,0.796148,0.000000,0.800000,0.600000,0.800000,0.603843,0.796157,0.603843,0.796157,$1*%
%AMFreePoly1*
4,1,37,0.000000,0.796148,0.078414,0.796148,0.232228,0.765552,0.377117,0.705537,0.507515,0.618408,0.618408,0.507515,0.705537,0.377117,0.765552,0.232228,0.796148,0.078414,0.796148,-0.078414,0.765552,-0.232228,0.705537,-0.377117,0.618408,-0.507515,0.507515,-0.618408,0.377117,-0.705537,0.232228,-0.765552,0.078414,-0.796148,0.000000,-0.796148,0.000000,-0.800000,-0.600000,-0.800000,
-0.603843,-0.796157,-0.639018,-0.796157,-0.711114,-0.766294,-0.766294,-0.711114,-0.796157,-0.639018,-0.796157,-0.603843,-0.800000,-0.600000,-0.800000,0.600000,-0.796157,0.603843,-0.796157,0.639018,-0.766294,0.711114,-0.711114,0.766294,-0.639018,0.796157,-0.603843,0.796157,-0.600000,0.800000,0.000000,0.800000,0.000000,0.796148,0.000000,0.796148,$1*%
G04 Aperture macros list end*
%TA.AperFunction,ComponentPad*%
%ADD10C,2.500000*%
%TD*%
%TA.AperFunction,ComponentPad*%
%ADD11RoundRect,0.250000X0.550000X-0.550000X0.550000X0.550000X-0.550000X0.550000X-0.550000X-0.550000X0*%
%TD*%
%TA.AperFunction,ComponentPad*%
%ADD12C,1.600000*%
%TD*%
%TA.AperFunction,ComponentPad*%
%ADD13R,1.700000X1.700000*%
%TD*%
%TA.AperFunction,ComponentPad*%
%ADD14O,1.700000X1.700000*%
%TD*%
%TA.AperFunction,ComponentPad*%
%ADD15O,2.300000X4.000000*%
%TD*%
%TA.AperFunction,ComponentPad*%
%ADD16C,1.800000*%
%TD*%
%TA.AperFunction,ComponentPad*%
%ADD17RoundRect,0.200000X-0.600000X0.600000X-0.600000X-0.600000X0.600000X-0.600000X0.600000X0.600000X0*%
%TD*%
%TA.AperFunction,ComponentPad*%
%ADD18FreePoly0,270.000000*%
%TD*%
%TA.AperFunction,ComponentPad*%
%ADD19FreePoly1,270.000000*%
%TD*%
%TA.AperFunction,ComponentPad*%
%ADD20C,1.400000*%
%TD*%
%TA.AperFunction,ViaPad*%
%ADD21C,0.600000*%
%TD*%
%TA.AperFunction,Conductor*%
%ADD22C,0.200000*%
%TD*%
G04 APERTURE END LIST*
D10*
%TO.P,SW52,1,1*%
%TO.N,/COL1*%
X242090000Y-111560000D03*
%TO.P,SW52,2,2*%
%TO.N,Net-(D52-A)*%
X248440000Y-109020000D03*
%TD*%
D11*
%TO.P,D106,1,K*%
%TO.N,/ROW10*%
X384100000Y-173810000D03*
D12*
%TO.P,D106,2,A*%
%TO.N,Net-(D106-A)*%
X384100000Y-166190000D03*
%TD*%
D11*
%TO.P,D42,1,K*%
%TO.N,/ROW4*%
X59800000Y-116720000D03*
D12*
%TO.P,D42,2,A*%
%TO.N,Net-(D42-A)*%
X59800000Y-109100000D03*
%TD*%
D11*
%TO.P,D38,1,K*%
%TO.N,/ROW3*%
X408100000Y-97720000D03*
D12*
%TO.P,D38,2,A*%
%TO.N,Net-(D38-A)*%
X408100000Y-90100000D03*
%TD*%
D10*
%TO.P,SW47,1,1*%
%TO.N,/COL6*%
X146832500Y-111560000D03*
%TO.P,SW47,2,2*%
%TO.N,Net-(D47-A)*%
X153182500Y-109020000D03*
%TD*%
D11*
%TO.P,D40,1,K*%
%TO.N,/ROW3*%
X446200000Y-97710000D03*
D12*
%TO.P,D40,2,A*%
%TO.N,Net-(D40-A)*%
X446200000Y-90090000D03*
%TD*%
D10*
%TO.P,SW20,1,1*%
%TO.N,/COL9*%
X451851169Y-64012685D03*
%TO.P,SW20,2,2*%
%TO.N,Net-(D20-A)*%
X458201169Y-61472685D03*
%TD*%
%TO.P,SW66,1,1*%
%TO.N,/COL5*%
X113390000Y-130660000D03*
%TO.P,SW66,2,2*%
%TO.N,Net-(D66-A)*%
X119740000Y-128120000D03*
%TD*%
%TO.P,SW64,1,1*%
%TO.N,/COL3*%
X75332500Y-130660000D03*
%TO.P,SW64,2,2*%
%TO.N,Net-(D64-A)*%
X81682500Y-128120000D03*
%TD*%
%TO.P,SW8,1,1*%
%TO.N,/COL7*%
X204230583Y-64025221D03*
%TO.P,SW8,2,2*%
%TO.N,Net-(D8-A)*%
X210580583Y-61485221D03*
%TD*%
D11*
%TO.P,D56,1,K*%
%TO.N,/ROW5*%
X346200000Y-116710000D03*
D12*
%TO.P,D56,2,A*%
%TO.N,Net-(D56-A)*%
X346200000Y-109090000D03*
%TD*%
D11*
%TO.P,D88,1,K*%
%TO.N,/ROW8*%
X250800000Y-154810000D03*
D12*
%TO.P,D88,2,A*%
%TO.N,Net-(D88-A)*%
X250800000Y-147190000D03*
%TD*%
D10*
%TO.P,SW73,1,1*%
%TO.N,/COL2*%
X246932500Y-130660000D03*
%TO.P,SW73,2,2*%
%TO.N,Net-(D73-A)*%
X253282500Y-128120000D03*
%TD*%
D11*
%TO.P,D55,1,K*%
%TO.N,/ROW5*%
X317800000Y-116600000D03*
D12*
%TO.P,D55,2,A*%
%TO.N,Net-(D55-A)*%
X317800000Y-108980000D03*
%TD*%
D11*
%TO.P,D98,1,K*%
%TO.N,/ROW9*%
X105600000Y-173910000D03*
D12*
%TO.P,D98,2,A*%
%TO.N,Net-(D98-A)*%
X105600000Y-166290000D03*
%TD*%
D11*
%TO.P,D97,1,K*%
%TO.N,/ROW9*%
X81800000Y-173910000D03*
D12*
%TO.P,D97,2,A*%
%TO.N,Net-(D97-A)*%
X81800000Y-166290000D03*
%TD*%
D13*
%TO.P,J1,1,Pin_1*%
%TO.N,GND*%
X370100000Y-128980000D03*
D14*
%TO.P,J1,2,Pin_2*%
%TO.N,+3.3V*%
X370100000Y-131520000D03*
%TO.P,J1,3,Pin_3*%
%TO.N,SCL*%
X370100000Y-134060000D03*
%TO.P,J1,4,Pin_4*%
%TO.N,SDA*%
X370100000Y-136600000D03*
%TD*%
D11*
%TO.P,D67,1,K*%
%TO.N,/ROW6*%
X145900000Y-135710000D03*
D12*
%TO.P,D67,2,A*%
%TO.N,Net-(D67-A)*%
X145900000Y-128090000D03*
%TD*%
D11*
%TO.P,D74,1,K*%
%TO.N,/ROW7*%
X279400000Y-135810000D03*
D12*
%TO.P,D74,2,A*%
%TO.N,Net-(D74-A)*%
X279400000Y-128190000D03*
%TD*%
D11*
%TO.P,D96,1,K*%
%TO.N,/ROW9*%
X57900000Y-174010000D03*
D12*
%TO.P,D96,2,A*%
%TO.N,Net-(D96-A)*%
X57900000Y-166390000D03*
%TD*%
D10*
%TO.P,SW98,1,1*%
%TO.N,/COL7*%
X92050000Y-168840000D03*
%TO.P,SW98,2,2*%
%TO.N,Net-(D98-A)*%
X98400000Y-166300000D03*
%TD*%
D11*
%TO.P,D82,1,K*%
%TO.N,/ROW8*%
X136300000Y-154810000D03*
D12*
%TO.P,D82,2,A*%
%TO.N,Net-(D82-A)*%
X136300000Y-147190000D03*
%TD*%
D10*
%TO.P,SW106,1,1*%
%TO.N,/COL5*%
X370696845Y-168765288D03*
%TO.P,SW106,2,2*%
%TO.N,Net-(D106-A)*%
X377046845Y-166225288D03*
%TD*%
D11*
%TO.P,D86,1,K*%
%TO.N,/ROW8*%
X212600000Y-154810000D03*
D12*
%TO.P,D86,2,A*%
%TO.N,Net-(D86-A)*%
X212600000Y-147190000D03*
%TD*%
D11*
%TO.P,D41,1,K*%
%TO.N,/ROW4*%
X465200000Y-97710000D03*
D12*
%TO.P,D41,2,A*%
%TO.N,Net-(D41-A)*%
X465200000Y-90090000D03*
%TD*%
D11*
%TO.P,D91,1,K*%
%TO.N,/ROW9*%
X365100000Y-154810000D03*
D12*
%TO.P,D91,2,A*%
%TO.N,Net-(D91-A)*%
X365100000Y-147190000D03*
%TD*%
D10*
%TO.P,SW76,1,1*%
%TO.N,/COL5*%
X394679492Y-130629059D03*
%TO.P,SW76,2,2*%
%TO.N,Net-(D76-A)*%
X401029492Y-128089059D03*
%TD*%
%TO.P,SW28,1,1*%
%TO.N,/COL7*%
X175550628Y-92516953D03*
%TO.P,SW28,2,2*%
%TO.N,Net-(D28-A)*%
X181900628Y-89976953D03*
%TD*%
%TO.P,SW31,1,1*%
%TO.N,/COL0*%
X232759228Y-92519152D03*
%TO.P,SW31,2,2*%
%TO.N,Net-(D31-A)*%
X239109228Y-89979152D03*
%TD*%
D11*
%TO.P,D26,1,K*%
%TO.N,/ROW2*%
X150800000Y-97620000D03*
D12*
%TO.P,D26,2,A*%
%TO.N,Net-(D26-A)*%
X150800000Y-90000000D03*
%TD*%
D10*
%TO.P,SW19,1,1*%
%TO.N,/COL8*%
X432803202Y-64004770D03*
%TO.P,SW19,2,2*%
%TO.N,Net-(D19-A)*%
X439153202Y-61464770D03*
%TD*%
D11*
%TO.P,D39,1,K*%
%TO.N,/ROW3*%
X427100000Y-97720000D03*
D12*
%TO.P,D39,2,A*%
%TO.N,Net-(D39-A)*%
X427100000Y-90100000D03*
%TD*%
D10*
%TO.P,SW25,1,1*%
%TO.N,/COL4*%
X118373388Y-92509899D03*
%TO.P,SW25,2,2*%
%TO.N,Net-(D25-A)*%
X124723388Y-89969899D03*
%TD*%
D11*
%TO.P,D83,1,K*%
%TO.N,/ROW8*%
X155400000Y-154810000D03*
D12*
%TO.P,D83,2,A*%
%TO.N,Net-(D83-A)*%
X155400000Y-147190000D03*
%TD*%
D11*
%TO.P,D11,1,K*%
%TO.N,/ROW1*%
X284200000Y-69310000D03*
D12*
%TO.P,D11,2,A*%
%TO.N,Net-(D11-A)*%
X284200000Y-61690000D03*
%TD*%
D10*
%TO.P,SW97,1,1*%
%TO.N,/COL6*%
X68250000Y-168840000D03*
%TO.P,SW97,2,2*%
%TO.N,Net-(D97-A)*%
X74600000Y-166300000D03*
%TD*%
D11*
%TO.P,D22,1,K*%
%TO.N,/ROW2*%
X74600000Y-97620000D03*
D12*
%TO.P,D22,2,A*%
%TO.N,Net-(D22-A)*%
X74600000Y-90000000D03*
%TD*%
D11*
%TO.P,D15,1,K*%
%TO.N,/ROW1*%
X365200000Y-69120000D03*
D12*
%TO.P,D15,2,A*%
%TO.N,Net-(D15-A)*%
X365200000Y-61500000D03*
%TD*%
D11*
%TO.P,D5,1,K*%
%TO.N,/ROW0*%
X151000000Y-69310000D03*
D12*
%TO.P,D5,2,A*%
%TO.N,Net-(D5-A)*%
X151000000Y-61690000D03*
%TD*%
D11*
%TO.P,D51,1,K*%
%TO.N,/ROW5*%
X236400000Y-116610000D03*
D12*
%TO.P,D51,2,A*%
%TO.N,Net-(D51-A)*%
X236400000Y-108990000D03*
%TD*%
D10*
%TO.P,SW54,1,1*%
%TO.N,/COL3*%
X280190000Y-111560000D03*
%TO.P,SW54,2,2*%
%TO.N,Net-(D54-A)*%
X286540000Y-109020000D03*
%TD*%
D11*
%TO.P,D58,1,K*%
%TO.N,/ROW5*%
X384300000Y-116610000D03*
D12*
%TO.P,D58,2,A*%
%TO.N,Net-(D58-A)*%
X384300000Y-108990000D03*
%TD*%
D10*
%TO.P,SW12,1,1*%
%TO.N,/COL1*%
X289952838Y-64021771D03*
%TO.P,SW12,2,2*%
%TO.N,Net-(D12-A)*%
X296302838Y-61481771D03*
%TD*%
D11*
%TO.P,D28,1,K*%
%TO.N,/ROW2*%
X188900000Y-97620000D03*
D12*
%TO.P,D28,2,A*%
%TO.N,Net-(D28-A)*%
X188900000Y-90000000D03*
%TD*%
D11*
%TO.P,D107,1,K*%
%TO.N,/ROW10*%
X417800000Y-173810000D03*
D12*
%TO.P,D107,2,A*%
%TO.N,Net-(D107-A)*%
X417800000Y-166190000D03*
%TD*%
D10*
%TO.P,SW1,1,1*%
%TO.N,/COL0*%
X42110000Y-63960000D03*
%TO.P,SW1,2,2*%
%TO.N,Net-(D1-A)*%
X48460000Y-61420000D03*
%TD*%
D11*
%TO.P,D19,1,K*%
%TO.N,/ROW1*%
X446100000Y-69310000D03*
D12*
%TO.P,D19,2,A*%
%TO.N,Net-(D19-A)*%
X446100000Y-61690000D03*
%TD*%
D10*
%TO.P,SW101,1,1*%
%TO.N,/COL0*%
X258810000Y-168760000D03*
%TO.P,SW101,2,2*%
%TO.N,Net-(D101-A)*%
X265160000Y-166220000D03*
%TD*%
%TO.P,SW11,1,1*%
%TO.N,/COL0*%
X270910794Y-64020145D03*
%TO.P,SW11,2,2*%
%TO.N,Net-(D11-A)*%
X277260794Y-61480145D03*
%TD*%
D11*
%TO.P,D8,1,K*%
%TO.N,/ROW0*%
X217600000Y-69310000D03*
D12*
%TO.P,D8,2,A*%
%TO.N,Net-(D8-A)*%
X217600000Y-61690000D03*
%TD*%
D10*
%TO.P,SW57,1,1*%
%TO.N,/COL6*%
X351842827Y-111637603D03*
%TO.P,SW57,2,2*%
%TO.N,Net-(D57-A)*%
X358192827Y-109097603D03*
%TD*%
%TO.P,SW37,1,1*%
%TO.N,/COL6*%
X370883584Y-92533693D03*
%TO.P,SW37,2,2*%
%TO.N,Net-(D37-A)*%
X377233584Y-89993693D03*
%TD*%
D11*
%TO.P,D70,1,K*%
%TO.N,/ROW6*%
X203000000Y-135710000D03*
D12*
%TO.P,D70,2,A*%
%TO.N,Net-(D70-A)*%
X203000000Y-128090000D03*
%TD*%
D11*
%TO.P,D72,1,K*%
%TO.N,/ROW7*%
X241200000Y-135710000D03*
D12*
%TO.P,D72,2,A*%
%TO.N,Net-(D72-A)*%
X241200000Y-128090000D03*
%TD*%
D10*
%TO.P,SW62,1,1*%
%TO.N,/COL1*%
X451814731Y-121111498D03*
%TO.P,SW62,2,2*%
%TO.N,Net-(D62-A)*%
X458164731Y-118571498D03*
%TD*%
D11*
%TO.P,D33,1,K*%
%TO.N,/ROW3*%
X284200000Y-97620000D03*
D12*
%TO.P,D33,2,A*%
%TO.N,Net-(D33-A)*%
X284200000Y-90000000D03*
%TD*%
D10*
%TO.P,SW18,1,1*%
%TO.N,/COL7*%
X413758740Y-64004870D03*
%TO.P,SW18,2,2*%
%TO.N,Net-(D18-A)*%
X420108740Y-61464870D03*
%TD*%
D11*
%TO.P,D37,1,K*%
%TO.N,/ROW3*%
X384300000Y-97720000D03*
D12*
%TO.P,D37,2,A*%
%TO.N,Net-(D37-A)*%
X384300000Y-90100000D03*
%TD*%
D10*
%TO.P,SW49,1,1*%
%TO.N,/COL8*%
X184932500Y-111560000D03*
%TO.P,SW49,2,2*%
%TO.N,Net-(D49-A)*%
X191282500Y-109020000D03*
%TD*%
D11*
%TO.P,D44,1,K*%
%TO.N,/ROW4*%
X103200000Y-116710000D03*
D12*
%TO.P,D44,2,A*%
%TO.N,Net-(D44-A)*%
X103200000Y-109090000D03*
%TD*%
D10*
%TO.P,SW78,1,1*%
%TO.N,/COL7*%
X432791238Y-130670224D03*
%TO.P,SW78,2,2*%
%TO.N,Net-(D78-A)*%
X439141238Y-128130224D03*
%TD*%
%TO.P,SW96,1,1*%
%TO.N,/COL5*%
X44457764Y-168864810D03*
%TO.P,SW96,2,2*%
%TO.N,Net-(D96-A)*%
X50807764Y-166324810D03*
%TD*%
%TO.P,SW27,1,1*%
%TO.N,/COL6*%
X156503179Y-92520614D03*
%TO.P,SW27,2,2*%
%TO.N,Net-(D27-A)*%
X162853179Y-89980614D03*
%TD*%
%TO.P,SW29,1,1*%
%TO.N,/COL8*%
X194626464Y-92516112D03*
%TO.P,SW29,2,2*%
%TO.N,Net-(D29-A)*%
X200976464Y-89976112D03*
%TD*%
D11*
%TO.P,D13,1,K*%
%TO.N,/ROW1*%
X322300000Y-69310000D03*
D12*
%TO.P,D13,2,A*%
%TO.N,Net-(D13-A)*%
X322300000Y-61690000D03*
%TD*%
D10*
%TO.P,SW107,1,1*%
%TO.N,/COL6*%
X404177041Y-168719077D03*
%TO.P,SW107,2,2*%
%TO.N,Net-(D107-A)*%
X410527041Y-166179077D03*
%TD*%
%TO.P,SW89,1,1*%
%TO.N,/COL8*%
X256463588Y-149739275D03*
%TO.P,SW89,2,2*%
%TO.N,Net-(D89-A)*%
X262813588Y-147199275D03*
%TD*%
%TO.P,SW70,1,1*%
%TO.N,/COL9*%
X189732500Y-130660000D03*
%TO.P,SW70,2,2*%
%TO.N,Net-(D70-A)*%
X196082500Y-128120000D03*
%TD*%
D11*
%TO.P,D73,1,K*%
%TO.N,/ROW7*%
X260300000Y-135710000D03*
D12*
%TO.P,D73,2,A*%
%TO.N,Net-(D73-A)*%
X260300000Y-128090000D03*
%TD*%
D10*
%TO.P,SW90,1,1*%
%TO.N,/COL9*%
X292178670Y-149739275D03*
%TO.P,SW90,2,2*%
%TO.N,Net-(D90-A)*%
X298528670Y-147199275D03*
%TD*%
D11*
%TO.P,D85,1,K*%
%TO.N,/ROW8*%
X193500000Y-154810000D03*
D12*
%TO.P,D85,2,A*%
%TO.N,Net-(D85-A)*%
X193500000Y-147190000D03*
%TD*%
D10*
%TO.P,SW71,1,1*%
%TO.N,/COL0*%
X208817290Y-130603301D03*
%TO.P,SW71,2,2*%
%TO.N,Net-(D71-A)*%
X215167290Y-128063301D03*
%TD*%
%TO.P,SW104,1,1*%
%TO.N,/COL3*%
X332629316Y-168763761D03*
%TO.P,SW104,2,2*%
%TO.N,Net-(D104-A)*%
X338979316Y-166223761D03*
%TD*%
D11*
%TO.P,D48,1,K*%
%TO.N,/ROW4*%
X179200000Y-116710000D03*
D12*
%TO.P,D48,2,A*%
%TO.N,Net-(D48-A)*%
X179200000Y-109090000D03*
%TD*%
D11*
%TO.P,D79,1,K*%
%TO.N,/ROW7*%
X67500000Y-154810000D03*
D12*
%TO.P,D79,2,A*%
%TO.N,Net-(D79-A)*%
X67500000Y-147190000D03*
%TD*%
D15*
%TO.P,SW109,6,6*%
%TO.N,unconnected-(SW109-Pad6)*%
X367900000Y-42700000D03*
%TO.P,SW109,7,7*%
%TO.N,unconnected-(SW109-Pad7)*%
X356900000Y-42700000D03*
D16*
%TO.P,SW109,A,A*%
%TO.N,/RotEncoder1A*%
X359860000Y-50200000D03*
%TO.P,SW109,B,B*%
%TO.N,/RotEncoder1B*%
X364940000Y-50200000D03*
%TO.P,SW109,C,C*%
%TO.N,GND*%
X362400000Y-50200000D03*
%TO.P,SW109,D,D*%
%TO.N,/RotEncoder1B1*%
X359860000Y-35700000D03*
%TO.P,SW109,E,E*%
%TO.N,/RotEncoder1B2*%
X364940000Y-35700000D03*
%TD*%
D11*
%TO.P,D29,1,K*%
%TO.N,/ROW2*%
X207984428Y-97619391D03*
D12*
%TO.P,D29,2,A*%
%TO.N,Net-(D29-A)*%
X207984428Y-89999391D03*
%TD*%
D11*
%TO.P,D46,1,K*%
%TO.N,/ROW4*%
X141200000Y-116610000D03*
D12*
%TO.P,D46,2,A*%
%TO.N,Net-(D46-A)*%
X141200000Y-108990000D03*
%TD*%
D11*
%TO.P,D75,1,K*%
%TO.N,/ROW7*%
X310200000Y-135810000D03*
D12*
%TO.P,D75,2,A*%
%TO.N,Net-(D75-A)*%
X310200000Y-128190000D03*
%TD*%
D11*
%TO.P,D30,1,K*%
%TO.N,/ROW2*%
X227000000Y-97620000D03*
D12*
%TO.P,D30,2,A*%
%TO.N,Net-(D30-A)*%
X227000000Y-90000000D03*
%TD*%
D10*
%TO.P,SW42,1,1*%
%TO.N,/COL1*%
X46836884Y-111584031D03*
%TO.P,SW42,2,2*%
%TO.N,Net-(D42-A)*%
X53186884Y-109044031D03*
%TD*%
%TO.P,SW80,1,1*%
%TO.N,/COL9*%
X84923426Y-149749712D03*
%TO.P,SW80,2,2*%
%TO.N,Net-(D80-A)*%
X91273426Y-147209712D03*
%TD*%
%TO.P,SW93,1,1*%
%TO.N,/COL2*%
X413730519Y-149707722D03*
%TO.P,SW93,2,2*%
%TO.N,Net-(D93-A)*%
X420080519Y-147167722D03*
%TD*%
%TO.P,SW2,1,1*%
%TO.N,/COL1*%
X80366232Y-63984027D03*
%TO.P,SW2,2,2*%
%TO.N,Net-(D2-A)*%
X86716232Y-61444027D03*
%TD*%
D11*
%TO.P,D90,1,K*%
%TO.N,/ROW8*%
X305800000Y-154810000D03*
D12*
%TO.P,D90,2,A*%
%TO.N,Net-(D90-A)*%
X305800000Y-147190000D03*
%TD*%
D10*
%TO.P,SW77,1,1*%
%TO.N,/COL6*%
X413732500Y-130660000D03*
%TO.P,SW77,2,2*%
%TO.N,Net-(D77-A)*%
X420082500Y-128120000D03*
%TD*%
D11*
%TO.P,D87,1,K*%
%TO.N,/ROW8*%
X231700000Y-154810000D03*
D12*
%TO.P,D87,2,A*%
%TO.N,Net-(D87-A)*%
X231700000Y-147190000D03*
%TD*%
D11*
%TO.P,D69,1,K*%
%TO.N,/ROW6*%
X184000000Y-135710000D03*
D12*
%TO.P,D69,2,A*%
%TO.N,Net-(D69-A)*%
X184000000Y-128090000D03*
%TD*%
D11*
%TO.P,D9,1,K*%
%TO.N,/ROW0*%
X236700000Y-69310000D03*
D12*
%TO.P,D9,2,A*%
%TO.N,Net-(D9-A)*%
X236700000Y-61690000D03*
%TD*%
D11*
%TO.P,D12,1,K*%
%TO.N,/ROW1*%
X303200000Y-69310000D03*
D12*
%TO.P,D12,2,A*%
%TO.N,Net-(D12-A)*%
X303200000Y-61690000D03*
%TD*%
D10*
%TO.P,SW3,1,1*%
%TO.N,/COL2*%
X99446082Y-63984027D03*
%TO.P,SW3,2,2*%
%TO.N,Net-(D3-A)*%
X105796082Y-61444027D03*
%TD*%
D11*
%TO.P,D4,1,K*%
%TO.N,/ROW0*%
X131900000Y-69310000D03*
D12*
%TO.P,D4,2,A*%
%TO.N,Net-(D4-A)*%
X131900000Y-61690000D03*
%TD*%
D10*
%TO.P,SW92,1,1*%
%TO.N,/COL1*%
X394676959Y-149683978D03*
%TO.P,SW92,2,2*%
%TO.N,Net-(D92-A)*%
X401026959Y-147143978D03*
%TD*%
%TO.P,SW95,1,1*%
%TO.N,/COL4*%
X451821832Y-159206246D03*
%TO.P,SW95,2,2*%
%TO.N,Net-(D95-A)*%
X458171832Y-156666246D03*
%TD*%
%TO.P,SW14,1,1*%
%TO.N,/COL3*%
X332829249Y-64017158D03*
%TO.P,SW14,2,2*%
%TO.N,Net-(D14-A)*%
X339179249Y-61477158D03*
%TD*%
D11*
%TO.P,D20,1,K*%
%TO.N,/ROW1*%
X465200000Y-69310000D03*
D12*
%TO.P,D20,2,A*%
%TO.N,Net-(D20-A)*%
X465200000Y-61690000D03*
%TD*%
D11*
%TO.P,D25,1,K*%
%TO.N,/ROW2*%
X131700000Y-97620000D03*
D12*
%TO.P,D25,2,A*%
%TO.N,Net-(D25-A)*%
X131700000Y-90000000D03*
%TD*%
D10*
%TO.P,SW83,1,1*%
%TO.N,/COL2*%
X142081076Y-149728228D03*
%TO.P,SW83,2,2*%
%TO.N,Net-(D83-A)*%
X148431076Y-147188228D03*
%TD*%
D11*
%TO.P,D108,1,K*%
%TO.N,/ROW10*%
X445600000Y-173910000D03*
D12*
%TO.P,D108,2,A*%
%TO.N,Net-(D108-A)*%
X445600000Y-166290000D03*
%TD*%
D11*
%TO.P,D84,1,K*%
%TO.N,/ROW8*%
X174500000Y-154810000D03*
D12*
%TO.P,D84,2,A*%
%TO.N,Net-(D84-A)*%
X174500000Y-147190000D03*
%TD*%
D10*
%TO.P,SW86,1,1*%
%TO.N,/COL5*%
X199269911Y-149710223D03*
%TO.P,SW86,2,2*%
%TO.N,Net-(D86-A)*%
X205619911Y-147170223D03*
%TD*%
D11*
%TO.P,D1,1,K*%
%TO.N,/ROW0*%
X55500000Y-69000000D03*
D12*
%TO.P,D1,2,A*%
%TO.N,Net-(D1-A)*%
X55500000Y-61380000D03*
%TD*%
D11*
%TO.P,D62,1,K*%
%TO.N,/ROW6*%
X465100000Y-126220000D03*
D12*
%TO.P,D62,2,A*%
%TO.N,Net-(D62-A)*%
X465100000Y-118600000D03*
%TD*%
D11*
%TO.P,D101,1,K*%
%TO.N,/ROW10*%
X272200000Y-173820000D03*
D12*
%TO.P,D101,2,A*%
%TO.N,Net-(D101-A)*%
X272200000Y-166200000D03*
%TD*%
D11*
%TO.P,D7,1,K*%
%TO.N,/ROW0*%
X198500000Y-69310000D03*
D12*
%TO.P,D7,2,A*%
%TO.N,Net-(D7-A)*%
X198500000Y-61690000D03*
%TD*%
D11*
%TO.P,D50,1,K*%
%TO.N,/ROW4*%
X217400000Y-116610000D03*
D12*
%TO.P,D50,2,A*%
%TO.N,Net-(D50-A)*%
X217400000Y-108990000D03*
%TD*%
D11*
%TO.P,D99,1,K*%
%TO.N,/ROW9*%
X177100000Y-173910000D03*
D12*
%TO.P,D99,2,A*%
%TO.N,Net-(D99-A)*%
X177100000Y-166290000D03*
%TD*%
D11*
%TO.P,D36,1,K*%
%TO.N,/ROW3*%
X365200000Y-97720000D03*
D12*
%TO.P,D36,2,A*%
%TO.N,Net-(D36-A)*%
X365200000Y-90100000D03*
%TD*%
D11*
%TO.P,D95,1,K*%
%TO.N,/ROW9*%
X465100000Y-164310000D03*
D12*
%TO.P,D95,2,A*%
%TO.N,Net-(D95-A)*%
X465100000Y-156690000D03*
%TD*%
D11*
%TO.P,D105,1,K*%
%TO.N,/ROW10*%
X365100000Y-173820000D03*
D12*
%TO.P,D105,2,A*%
%TO.N,Net-(D105-A)*%
X365100000Y-166200000D03*
%TD*%
D11*
%TO.P,D100,1,K*%
%TO.N,/ROW9*%
X248600000Y-173820000D03*
D12*
%TO.P,D100,2,A*%
%TO.N,Net-(D100-A)*%
X248600000Y-166200000D03*
%TD*%
D11*
%TO.P,D92,1,K*%
%TO.N,/ROW9*%
X408000000Y-154800000D03*
D12*
%TO.P,D92,2,A*%
%TO.N,Net-(D92-A)*%
X408000000Y-147180000D03*
%TD*%
D11*
%TO.P,D2,1,K*%
%TO.N,/ROW0*%
X93700000Y-69310000D03*
D12*
%TO.P,D2,2,A*%
%TO.N,Net-(D2-A)*%
X93700000Y-61690000D03*
%TD*%
D10*
%TO.P,SW10,1,1*%
%TO.N,/COL9*%
X251860582Y-64032622D03*
%TO.P,SW10,2,2*%
%TO.N,Net-(D10-A)*%
X258210582Y-61492622D03*
%TD*%
%TO.P,SW105,1,1*%
%TO.N,/COL4*%
X351656005Y-168763761D03*
%TO.P,SW105,2,2*%
%TO.N,Net-(D105-A)*%
X358006005Y-166223761D03*
%TD*%
%TO.P,SW100,1,1*%
%TO.N,/COL9*%
X235010000Y-168760000D03*
%TO.P,SW100,2,2*%
%TO.N,Net-(D100-A)*%
X241360000Y-166220000D03*
%TD*%
D11*
%TO.P,D31,1,K*%
%TO.N,/ROW3*%
X246100000Y-97620000D03*
D12*
%TO.P,D31,2,A*%
%TO.N,Net-(D31-A)*%
X246100000Y-90000000D03*
%TD*%
D10*
%TO.P,SW85,1,1*%
%TO.N,/COL4*%
X180200000Y-149700000D03*
%TO.P,SW85,2,2*%
%TO.N,Net-(D85-A)*%
X186550000Y-147160000D03*
%TD*%
%TO.P,SW30,1,1*%
%TO.N,/COL9*%
X213709015Y-92519507D03*
%TO.P,SW30,2,2*%
%TO.N,Net-(D30-A)*%
X220059015Y-89979507D03*
%TD*%
D11*
%TO.P,D66,1,K*%
%TO.N,/ROW6*%
X126800000Y-135710000D03*
D12*
%TO.P,D66,2,A*%
%TO.N,Net-(D66-A)*%
X126800000Y-128090000D03*
%TD*%
D10*
%TO.P,SW36,1,1*%
%TO.N,/COL5*%
X351842827Y-92533693D03*
%TO.P,SW36,2,2*%
%TO.N,Net-(D36-A)*%
X358192827Y-89993693D03*
%TD*%
%TO.P,SW108,1,1*%
%TO.N,/COL7*%
X432763438Y-168719077D03*
%TO.P,SW108,2,2*%
%TO.N,Net-(D108-A)*%
X439113438Y-166179077D03*
%TD*%
%TO.P,SW34,1,1*%
%TO.N,/COL3*%
X299461745Y-92527979D03*
%TO.P,SW34,2,2*%
%TO.N,Net-(D34-A)*%
X305811745Y-89987979D03*
%TD*%
%TO.P,SW7,1,1*%
%TO.N,/COL6*%
X185163182Y-64001772D03*
%TO.P,SW7,2,2*%
%TO.N,Net-(D7-A)*%
X191513182Y-61461772D03*
%TD*%
%TO.P,SW102,1,1*%
%TO.N,/COL1*%
X282632500Y-168760000D03*
%TO.P,SW102,2,2*%
%TO.N,Net-(D102-A)*%
X288982500Y-166220000D03*
%TD*%
D12*
%TO.P,C1,1,1*%
%TO.N,Net-(U1-VDD)*%
X395840000Y-49500000D03*
%TO.P,C1,2,2*%
%TO.N,+5V*%
X390760000Y-49500000D03*
%TD*%
D11*
%TO.P,D93,1,K*%
%TO.N,/ROW9*%
X427100000Y-154810000D03*
D12*
%TO.P,D93,2,A*%
%TO.N,Net-(D93-A)*%
X427100000Y-147190000D03*
%TD*%
D11*
%TO.P,D43,1,K*%
%TO.N,/ROW4*%
X84100000Y-116620000D03*
D12*
%TO.P,D43,2,A*%
%TO.N,Net-(D43-A)*%
X84100000Y-109000000D03*
%TD*%
D11*
%TO.P,D103,1,K*%
%TO.N,/ROW10*%
X319900000Y-173820000D03*
D12*
%TO.P,D103,2,A*%
%TO.N,Net-(D103-A)*%
X319900000Y-166200000D03*
%TD*%
D11*
%TO.P,U1,1,GPB0*%
%TO.N,/RotEncoder1B*%
X376140000Y-46820000D03*
D12*
%TO.P,U1,2,GPB1*%
%TO.N,/RotEncoder1A*%
X378680000Y-46820000D03*
%TO.P,U1,3,GPB2*%
%TO.N,/RotEncoder2B*%
X381220000Y-46820000D03*
%TO.P,U1,4,GPB3*%
%TO.N,/RotEncoder2A*%
X383760000Y-46820000D03*
%TO.P,U1,5,GPB4*%
%TO.N,unconnected-(U1-GPB4-Pad5)*%
X386300000Y-46820000D03*
%TO.P,U1,6,GPB5*%
%TO.N,unconnected-(U1-GPB5-Pad6)*%
X388840000Y-46820000D03*
%TO.P,U1,7,GPB6*%
%TO.N,unconnected-(U1-GPB6-Pad7)*%
X391380000Y-46820000D03*
%TO.P,U1,8,GPB7*%
%TO.N,unconnected-(U1-GPB7-Pad8)*%
X393920000Y-46820000D03*
%TO.P,U1,9,VDD*%
%TO.N,Net-(U1-VDD)*%
X396460000Y-46820000D03*
%TO.P,U1,10,VSS*%
%TO.N,Net-(U1-VSS)*%
X399000000Y-46820000D03*
%TO.P,U1,11,NC*%
%TO.N,unconnected-(U1-NC-Pad11)*%
X401540000Y-46820000D03*
%TO.P,U1,12,SCK*%
%TO.N,SCL*%
X404080000Y-46820000D03*
%TO.P,U1,13,SDA*%
%TO.N,SDA*%
X406620000Y-46820000D03*
%TO.P,U1,14,NC__1*%
%TO.N,unconnected-(U1-NC__1-Pad14)*%
X409160000Y-46820000D03*
%TO.P,U1,15,A0*%
%TO.N,GND*%
X409160000Y-39200000D03*
%TO.P,U1,16,A1*%
X406620000Y-39200000D03*
%TO.P,U1,17,A2*%
X404080000Y-39200000D03*
%TO.P,U1,18,~{RESET}*%
%TO.N,Net-(U1-~{RESET})*%
X401540000Y-39200000D03*
%TO.P,U1,19,INTB*%
%TO.N,unconnected-(U1-INTB-Pad19)*%
X399000000Y-39200000D03*
%TO.P,U1,20,INTA*%
%TO.N,unconnected-(U1-INTA-Pad20)*%
X396460000Y-39200000D03*
%TO.P,U1,21,GPA0*%
%TO.N,unconnected-(U1-GPA0-Pad21)*%
X393920000Y-39200000D03*
%TO.P,U1,22,GPA1*%
%TO.N,unconnected-(U1-GPA1-Pad22)*%
X391380000Y-39200000D03*
%TO.P,U1,23,GPA2*%
%TO.N,unconnected-(U1-GPA2-Pad23)*%
X388840000Y-39200000D03*
%TO.P,U1,24,GPA3*%
%TO.N,unconnected-(U1-GPA3-Pad24)*%
X386300000Y-39200000D03*
%TO.P,U1,25,GPA4*%
%TO.N,/RotEncoder2B1*%
X383760000Y-39200000D03*
%TO.P,U1,26,GPA5*%
%TO.N,/RotEncoder2B2*%
X381220000Y-39200000D03*
%TO.P,U1,27,GPA6*%
%TO.N,/RotEncoder1B1*%
X378680000Y-39200000D03*
%TO.P,U1,28,GPA7*%
%TO.N,/RotEncoder1B2*%
X376140000Y-39200000D03*
%TD*%
D11*
%TO.P,D104,1,K*%
%TO.N,/ROW10*%
X346000000Y-173820000D03*
D12*
%TO.P,D104,2,A*%
%TO.N,Net-(D104-A)*%
X346000000Y-166200000D03*
%TD*%
D10*
%TO.P,SW59,1,1*%
%TO.N,/COL8*%
X394700000Y-111600000D03*
%TO.P,SW59,2,2*%
%TO.N,Net-(D59-A)*%
X401050000Y-109060000D03*
%TD*%
D11*
%TO.P,D17,1,K*%
%TO.N,/ROW1*%
X408000000Y-69310000D03*
D12*
%TO.P,D17,2,A*%
%TO.N,Net-(D17-A)*%
X408000000Y-61690000D03*
%TD*%
D10*
%TO.P,SW63,1,1*%
%TO.N,/COL2*%
X49190000Y-130660000D03*
%TO.P,SW63,2,2*%
%TO.N,Net-(D63-A)*%
X55540000Y-128120000D03*
%TD*%
D15*
%TO.P,SW110,6,6*%
%TO.N,unconnected-(SW110-Pad6)*%
X351860000Y-43000000D03*
%TO.P,SW110,7,7*%
%TO.N,unconnected-(SW110-Pad7)*%
X340860000Y-43000000D03*
D16*
%TO.P,SW110,A,A*%
%TO.N,/RotEncoder2A*%
X343820000Y-50500000D03*
%TO.P,SW110,B,B*%
%TO.N,/RotEncoder2B*%
X348900000Y-50500000D03*
%TO.P,SW110,C,C*%
%TO.N,GND*%
X346360000Y-50500000D03*
%TO.P,SW110,D,D*%
%TO.N,/RotEncoder2B1*%
X343820000Y-36000000D03*
%TO.P,SW110,E,E*%
%TO.N,/RotEncoder2B2*%
X348900000Y-36000000D03*
%TD*%
D11*
%TO.P,D32,1,K*%
%TO.N,/ROW3*%
X265200000Y-97620000D03*
D12*
%TO.P,D32,2,A*%
%TO.N,Net-(D32-A)*%
X265200000Y-90000000D03*
%TD*%
D10*
%TO.P,SW75,1,1*%
%TO.N,/COL4*%
X296932500Y-130660000D03*
%TO.P,SW75,2,2*%
%TO.N,Net-(D75-A)*%
X303282500Y-128120000D03*
%TD*%
%TO.P,SW39,1,1*%
%TO.N,/COL8*%
X413739689Y-92533863D03*
%TO.P,SW39,2,2*%
%TO.N,Net-(D39-A)*%
X420089689Y-89993863D03*
%TD*%
%TO.P,SW48,1,1*%
%TO.N,/COL7*%
X165932500Y-111560000D03*
%TO.P,SW48,2,2*%
%TO.N,Net-(D48-A)*%
X172282500Y-109020000D03*
%TD*%
D11*
%TO.P,D65,1,K*%
%TO.N,/ROW6*%
X107800000Y-135710000D03*
D12*
%TO.P,D65,2,A*%
%TO.N,Net-(D65-A)*%
X107800000Y-128090000D03*
%TD*%
D11*
%TO.P,D54,1,K*%
%TO.N,/ROW5*%
X293600000Y-116610000D03*
D12*
%TO.P,D54,2,A*%
%TO.N,Net-(D54-A)*%
X293600000Y-108990000D03*
%TD*%
D11*
%TO.P,D14,1,K*%
%TO.N,/ROW1*%
X346100000Y-69310000D03*
D12*
%TO.P,D14,2,A*%
%TO.N,Net-(D14-A)*%
X346100000Y-61690000D03*
%TD*%
D10*
%TO.P,SW50,1,1*%
%TO.N,/COL9*%
X203932500Y-111560000D03*
%TO.P,SW50,2,2*%
%TO.N,Net-(D50-A)*%
X210282500Y-109020000D03*
%TD*%
D11*
%TO.P,D16,1,K*%
%TO.N,/ROW1*%
X384300000Y-69120000D03*
D12*
%TO.P,D16,2,A*%
%TO.N,Net-(D16-A)*%
X384300000Y-61500000D03*
%TD*%
D10*
%TO.P,SW9,1,1*%
%TO.N,/COL8*%
X223308013Y-64025221D03*
%TO.P,SW9,2,2*%
%TO.N,Net-(D9-A)*%
X229658013Y-61485221D03*
%TD*%
D11*
%TO.P,D34,1,K*%
%TO.N,/ROW3*%
X312600000Y-98110000D03*
D12*
%TO.P,D34,2,A*%
%TO.N,Net-(D34-A)*%
X312600000Y-90490000D03*
%TD*%
D10*
%TO.P,SW44,1,1*%
%TO.N,/COL3*%
X89790000Y-111560000D03*
%TO.P,SW44,2,2*%
%TO.N,Net-(D44-A)*%
X96140000Y-109020000D03*
%TD*%
D17*
%TO.P,A1,1,GPIO0*%
%TO.N,SDA*%
X467317500Y-34500000D03*
D12*
%TO.P,A1,2,GPIO1*%
%TO.N,SCL*%
X464777500Y-34500000D03*
D18*
%TO.P,A1,3,GND*%
%TO.N,GND*%
X462237500Y-34500000D03*
D12*
%TO.P,A1,4,GPIO2*%
%TO.N,/COL0*%
X459697500Y-34500000D03*
%TO.P,A1,5,GPIO3*%
%TO.N,/COL1*%
X457157500Y-34500000D03*
%TO.P,A1,6,GPIO4*%
%TO.N,/COL2*%
X454617500Y-34500000D03*
%TO.P,A1,7,GPIO5*%
%TO.N,/COL3*%
X452077500Y-34500000D03*
D18*
%TO.P,A1,8,GND*%
%TO.N,GND*%
X449537500Y-34500000D03*
D12*
%TO.P,A1,9,GPIO6*%
%TO.N,/COL4*%
X446997500Y-34500000D03*
%TO.P,A1,10,GPIO7*%
%TO.N,/COL5*%
X444457500Y-34500000D03*
%TO.P,A1,11,GPIO8*%
%TO.N,/COL6*%
X441917500Y-34500000D03*
%TO.P,A1,12,GPIO9*%
%TO.N,/COL7*%
X439377500Y-34500000D03*
D18*
%TO.P,A1,13,GND*%
%TO.N,GND*%
X436837500Y-34500000D03*
D12*
%TO.P,A1,14,GPIO10*%
%TO.N,/COL8*%
X434297500Y-34500000D03*
%TO.P,A1,15,GPIO11*%
%TO.N,/COL9*%
X431757500Y-34500000D03*
%TO.P,A1,16,GPIO12*%
%TO.N,/ROW0*%
X429217500Y-34500000D03*
%TO.P,A1,17,GPIO13*%
%TO.N,/ROW1*%
X426677500Y-34500000D03*
D18*
%TO.P,A1,18,GND*%
%TO.N,GND*%
X424137500Y-34500000D03*
D12*
%TO.P,A1,19,GPIO14*%
%TO.N,/ROW2*%
X421597500Y-34500000D03*
%TO.P,A1,20,GPIO15*%
%TO.N,/ROW3*%
X419057500Y-34500000D03*
%TO.P,A1,21,GPIO16*%
%TO.N,/ROW4*%
X419057500Y-52280000D03*
%TO.P,A1,22,GPIO17*%
%TO.N,/ROW5*%
X421597500Y-52280000D03*
D19*
%TO.P,A1,23,GND*%
%TO.N,GND*%
X424137500Y-52280000D03*
D12*
%TO.P,A1,24,GPIO18*%
%TO.N,/ROW6*%
X426677500Y-52280000D03*
%TO.P,A1,25,GPIO19*%
%TO.N,/ROW7*%
X429217500Y-52280000D03*
%TO.P,A1,26,GPIO20*%
%TO.N,/ROW8*%
X431757500Y-52280000D03*
%TO.P,A1,27,GPIO21*%
%TO.N,/ROW9*%
X434297500Y-52280000D03*
D19*
%TO.P,A1,28,GND*%
%TO.N,GND*%
X436837500Y-52280000D03*
D12*
%TO.P,A1,29,GPIO22*%
%TO.N,/ROW10*%
X439377500Y-52280000D03*
%TO.P,A1,30,RUN*%
%TO.N,unconnected-(A1-RUN-Pad30)*%
X441917500Y-52280000D03*
%TO.P,A1,31,GPIO26_ADC0*%
%TO.N,unconnected-(A1-GPIO26_ADC0-Pad31)*%
X444457500Y-52280000D03*
%TO.P,A1,32,GPIO27_ADC1*%
%TO.N,unconnected-(A1-GPIO27_ADC1-Pad32)*%
X446997500Y-52280000D03*
D19*
%TO.P,A1,33,AGND*%
%TO.N,unconnected-(A1-AGND-Pad33)*%
X449537500Y-52280000D03*
D12*
%TO.P,A1,34,GPIO28_ADC2*%
%TO.N,unconnected-(A1-GPIO28_ADC2-Pad34)*%
X452077500Y-52280000D03*
%TO.P,A1,35,ADC_VREF*%
%TO.N,unconnected-(A1-ADC_VREF-Pad35)*%
X454617500Y-52280000D03*
%TO.P,A1,36,3V3*%
%TO.N,+3.3V*%
X457157500Y-52280000D03*
%TO.P,A1,37,3V3_EN*%
%TO.N,unconnected-(A1-3V3_EN-Pad37)*%
X459697500Y-52280000D03*
D19*
%TO.P,A1,38,GND*%
%TO.N,GND*%
X462237500Y-52280000D03*
D12*
%TO.P,A1,39,VSYS*%
%TO.N,unconnected-(A1-VSYS-Pad39)*%
X464777500Y-52280000D03*
%TO.P,A1,40,VBUS*%
%TO.N,+5V*%
X467317500Y-52280000D03*
%TD*%
D10*
%TO.P,SW79,1,1*%
%TO.N,/COL8*%
X53961964Y-149738970D03*
%TO.P,SW79,2,2*%
%TO.N,Net-(D79-A)*%
X60311964Y-147198970D03*
%TD*%
D11*
%TO.P,D23,1,K*%
%TO.N,/ROW2*%
X93700000Y-97620000D03*
D12*
%TO.P,D23,2,A*%
%TO.N,Net-(D23-A)*%
X93700000Y-90000000D03*
%TD*%
D11*
%TO.P,D3,1,K*%
%TO.N,/ROW0*%
X112800000Y-69000000D03*
D12*
%TO.P,D3,2,A*%
%TO.N,Net-(D3-A)*%
X112800000Y-61380000D03*
%TD*%
D11*
%TO.P,D77,1,K*%
%TO.N,/ROW7*%
X427100000Y-135810000D03*
D12*
%TO.P,D77,2,A*%
%TO.N,Net-(D77-A)*%
X427100000Y-128190000D03*
%TD*%
D10*
%TO.P,SW56,1,1*%
%TO.N,/COL5*%
X332796374Y-111637603D03*
%TO.P,SW56,2,2*%
%TO.N,Net-(D56-A)*%
X339146374Y-109097603D03*
%TD*%
%TO.P,SW38,1,1*%
%TO.N,/COL7*%
X394684630Y-92522451D03*
%TO.P,SW38,2,2*%
%TO.N,Net-(D38-A)*%
X401034630Y-89982451D03*
%TD*%
%TO.P,SW74,1,1*%
%TO.N,/COL3*%
X265990000Y-130660000D03*
%TO.P,SW74,2,2*%
%TO.N,Net-(D74-A)*%
X272340000Y-128120000D03*
%TD*%
D20*
%TO.P,R3,1,1*%
%TO.N,Net-(U1-~{RESET})*%
X401700000Y-36825000D03*
%TO.P,R3,2,2*%
%TO.N,+3.3V*%
X401700000Y-34925000D03*
%TD*%
D11*
%TO.P,D102,1,K*%
%TO.N,/ROW10*%
X295600000Y-173810000D03*
D12*
%TO.P,D102,2,A*%
%TO.N,Net-(D102-A)*%
X295600000Y-166190000D03*
%TD*%
D10*
%TO.P,SW35,1,1*%
%TO.N,/COL4*%
X332795641Y-92529136D03*
%TO.P,SW35,2,2*%
%TO.N,Net-(D35-A)*%
X339145641Y-89989136D03*
%TD*%
%TO.P,SW72,1,1*%
%TO.N,/COL1*%
X227890000Y-130660000D03*
%TO.P,SW72,2,2*%
%TO.N,Net-(D72-A)*%
X234240000Y-128120000D03*
%TD*%
D11*
%TO.P,D71,1,K*%
%TO.N,/ROW7*%
X222100000Y-135700000D03*
D12*
%TO.P,D71,2,A*%
%TO.N,Net-(D71-A)*%
X222100000Y-128080000D03*
%TD*%
D10*
%TO.P,SW22,1,1*%
%TO.N,/COL1*%
X61173415Y-92509899D03*
%TO.P,SW22,2,2*%
%TO.N,Net-(D22-A)*%
X67523415Y-89969899D03*
%TD*%
%TO.P,SW6,1,1*%
%TO.N,/COL5*%
X166098687Y-63994126D03*
%TO.P,SW6,2,2*%
%TO.N,Net-(D6-A)*%
X172448687Y-61454126D03*
%TD*%
D11*
%TO.P,D27,1,K*%
%TO.N,/ROW2*%
X169900000Y-97620000D03*
D12*
%TO.P,D27,2,A*%
%TO.N,Net-(D27-A)*%
X169900000Y-90000000D03*
%TD*%
%TO.P,C2,1,1*%
%TO.N,Net-(U1-VSS)*%
X397760000Y-49500000D03*
%TO.P,C2,2,2*%
%TO.N,GND*%
X402840000Y-49500000D03*
%TD*%
D10*
%TO.P,SW21,1,1*%
%TO.N,/COL0*%
X42106758Y-92509899D03*
%TO.P,SW21,2,2*%
%TO.N,Net-(D21-A)*%
X48456758Y-89969899D03*
%TD*%
%TO.P,SW103,1,1*%
%TO.N,/COL2*%
X306490000Y-168760000D03*
%TO.P,SW103,2,2*%
%TO.N,Net-(D103-A)*%
X312840000Y-166220000D03*
%TD*%
%TO.P,SW58,1,1*%
%TO.N,/COL7*%
X370909465Y-111606026D03*
%TO.P,SW58,2,2*%
%TO.N,Net-(D58-A)*%
X377259465Y-109066026D03*
%TD*%
D11*
%TO.P,D35,1,K*%
%TO.N,/ROW3*%
X346200000Y-97720000D03*
D12*
%TO.P,D35,2,A*%
%TO.N,Net-(D35-A)*%
X346200000Y-90100000D03*
%TD*%
D11*
%TO.P,D6,1,K*%
%TO.N,/ROW0*%
X179400000Y-69310000D03*
D12*
%TO.P,D6,2,A*%
%TO.N,Net-(D6-A)*%
X179400000Y-61690000D03*
%TD*%
D11*
%TO.P,D24,1,K*%
%TO.N,/ROW2*%
X112600000Y-97620000D03*
D12*
%TO.P,D24,2,A*%
%TO.N,Net-(D24-A)*%
X112600000Y-90000000D03*
%TD*%
D10*
%TO.P,SW69,1,1*%
%TO.N,/COL8*%
X170640509Y-130622456D03*
%TO.P,SW69,2,2*%
%TO.N,Net-(D69-A)*%
X176990509Y-128082456D03*
%TD*%
%TO.P,SW5,1,1*%
%TO.N,/COL4*%
X137553733Y-63983628D03*
%TO.P,SW5,2,2*%
%TO.N,Net-(D5-A)*%
X143903733Y-61443628D03*
%TD*%
%TO.P,SW87,1,1*%
%TO.N,/COL6*%
X218309430Y-149710223D03*
%TO.P,SW87,2,2*%
%TO.N,Net-(D87-A)*%
X224659430Y-147170223D03*
%TD*%
%TO.P,SW55,1,1*%
%TO.N,/COL4*%
X304132500Y-111560000D03*
%TO.P,SW55,2,2*%
%TO.N,Net-(D55-A)*%
X310482500Y-109020000D03*
%TD*%
D11*
%TO.P,D45,1,K*%
%TO.N,/ROW4*%
X122300000Y-116620000D03*
D12*
%TO.P,D45,2,A*%
%TO.N,Net-(D45-A)*%
X122300000Y-109000000D03*
%TD*%
D10*
%TO.P,SW23,1,1*%
%TO.N,/COL2*%
X80243967Y-92509899D03*
%TO.P,SW23,2,2*%
%TO.N,Net-(D23-A)*%
X86593967Y-89969899D03*
%TD*%
%TO.P,SW17,1,1*%
%TO.N,/COL6*%
X394749361Y-64006744D03*
%TO.P,SW17,2,2*%
%TO.N,Net-(D17-A)*%
X401099361Y-61466744D03*
%TD*%
%TO.P,SW60,1,1*%
%TO.N,/COL9*%
X413732500Y-111560000D03*
%TO.P,SW60,2,2*%
%TO.N,Net-(D60-A)*%
X420082500Y-109020000D03*
%TD*%
%TO.P,SW41,1,1*%
%TO.N,/COL0*%
X451822642Y-92535064D03*
%TO.P,SW41,2,2*%
%TO.N,Net-(D41-A)*%
X458172642Y-89995064D03*
%TD*%
D11*
%TO.P,D18,1,K*%
%TO.N,/ROW1*%
X427100000Y-69310000D03*
D12*
%TO.P,D18,2,A*%
%TO.N,Net-(D18-A)*%
X427100000Y-61690000D03*
%TD*%
D11*
%TO.P,D61,1,K*%
%TO.N,/ROW6*%
X445500000Y-117510000D03*
D12*
%TO.P,D61,2,A*%
%TO.N,Net-(D61-A)*%
X445500000Y-109890000D03*
%TD*%
D11*
%TO.P,D64,1,K*%
%TO.N,/ROW6*%
X88700000Y-135710000D03*
D12*
%TO.P,D64,2,A*%
%TO.N,Net-(D64-A)*%
X88700000Y-128090000D03*
%TD*%
D10*
%TO.P,SW43,1,1*%
%TO.N,/COL2*%
X70690000Y-111560000D03*
%TO.P,SW43,2,2*%
%TO.N,Net-(D43-A)*%
X77040000Y-109020000D03*
%TD*%
D11*
%TO.P,D81,1,K*%
%TO.N,/ROW8*%
X117300000Y-154810000D03*
D12*
%TO.P,D81,2,A*%
%TO.N,Net-(D81-A)*%
X117300000Y-147190000D03*
%TD*%
D10*
%TO.P,SW53,1,1*%
%TO.N,/COL2*%
X261132500Y-111560000D03*
%TO.P,SW53,2,2*%
%TO.N,Net-(D53-A)*%
X267482500Y-109020000D03*
%TD*%
%TO.P,SW33,1,1*%
%TO.N,/COL2*%
X270892197Y-92530082D03*
%TO.P,SW33,2,2*%
%TO.N,Net-(D33-A)*%
X277242197Y-89990082D03*
%TD*%
D11*
%TO.P,D68,1,K*%
%TO.N,/ROW6*%
X164900000Y-135710000D03*
D12*
%TO.P,D68,2,A*%
%TO.N,Net-(D68-A)*%
X164900000Y-128090000D03*
%TD*%
D10*
%TO.P,SW88,1,1*%
%TO.N,/COL7*%
X237400000Y-149700000D03*
%TO.P,SW88,2,2*%
%TO.N,Net-(D88-A)*%
X243750000Y-147160000D03*
%TD*%
D11*
%TO.P,D63,1,K*%
%TO.N,/ROW6*%
X62500000Y-135710000D03*
D12*
%TO.P,D63,2,A*%
%TO.N,Net-(D63-A)*%
X62500000Y-128090000D03*
%TD*%
D10*
%TO.P,SW26,1,1*%
%TO.N,/COL5*%
X137440045Y-92509899D03*
%TO.P,SW26,2,2*%
%TO.N,Net-(D26-A)*%
X143790045Y-89969899D03*
%TD*%
D11*
%TO.P,D47,1,K*%
%TO.N,/ROW4*%
X160300000Y-116610000D03*
D12*
%TO.P,D47,2,A*%
%TO.N,Net-(D47-A)*%
X160300000Y-108990000D03*
%TD*%
D10*
%TO.P,SW40,1,1*%
%TO.N,/COL9*%
X432780280Y-92535861D03*
%TO.P,SW40,2,2*%
%TO.N,Net-(D40-A)*%
X439130280Y-89995861D03*
%TD*%
%TO.P,SW82,1,1*%
%TO.N,/COL1*%
X123016598Y-149719363D03*
%TO.P,SW82,2,2*%
%TO.N,Net-(D82-A)*%
X129366598Y-147179363D03*
%TD*%
%TO.P,SW51,1,1*%
%TO.N,/COL0*%
X223032500Y-111560000D03*
%TO.P,SW51,2,2*%
%TO.N,Net-(D51-A)*%
X229382500Y-109020000D03*
%TD*%
D11*
%TO.P,D89,1,K*%
%TO.N,/ROW8*%
X269900000Y-154810000D03*
D12*
%TO.P,D89,2,A*%
%TO.N,Net-(D89-A)*%
X269900000Y-147190000D03*
%TD*%
D11*
%TO.P,D21,1,K*%
%TO.N,/ROW2*%
X55500000Y-97720000D03*
D12*
%TO.P,D21,2,A*%
%TO.N,Net-(D21-A)*%
X55500000Y-90100000D03*
%TD*%
D10*
%TO.P,SW45,1,1*%
%TO.N,/COL4*%
X108832500Y-111560000D03*
%TO.P,SW45,2,2*%
%TO.N,Net-(D45-A)*%
X115182500Y-109020000D03*
%TD*%
D11*
%TO.P,D53,1,K*%
%TO.N,/ROW5*%
X274500000Y-116700000D03*
D12*
%TO.P,D53,2,A*%
%TO.N,Net-(D53-A)*%
X274500000Y-109080000D03*
%TD*%
D10*
%TO.P,SW46,1,1*%
%TO.N,/COL5*%
X127832500Y-111560000D03*
%TO.P,SW46,2,2*%
%TO.N,Net-(D46-A)*%
X134182500Y-109020000D03*
%TD*%
%TO.P,SW67,1,1*%
%TO.N,/COL6*%
X132490000Y-130660000D03*
%TO.P,SW67,2,2*%
%TO.N,Net-(D67-A)*%
X138840000Y-128120000D03*
%TD*%
%TO.P,SW99,1,1*%
%TO.N,/COL8*%
X163532500Y-168860000D03*
%TO.P,SW99,2,2*%
%TO.N,Net-(D99-A)*%
X169882500Y-166320000D03*
%TD*%
D11*
%TO.P,D78,1,K*%
%TO.N,/ROW7*%
X445900000Y-135800000D03*
D12*
%TO.P,D78,2,A*%
%TO.N,Net-(D78-A)*%
X445900000Y-128180000D03*
%TD*%
D11*
%TO.P,D59,1,K*%
%TO.N,/ROW5*%
X408100000Y-116710000D03*
D12*
%TO.P,D59,2,A*%
%TO.N,Net-(D59-A)*%
X408100000Y-109090000D03*
%TD*%
D10*
%TO.P,SW32,1,1*%
%TO.N,/COL1*%
X251837055Y-92519152D03*
%TO.P,SW32,2,2*%
%TO.N,Net-(D32-A)*%
X258187055Y-89979152D03*
%TD*%
D11*
%TO.P,D49,1,K*%
%TO.N,/ROW4*%
X198200000Y-116610000D03*
D12*
%TO.P,D49,2,A*%
%TO.N,Net-(D49-A)*%
X198200000Y-108990000D03*
%TD*%
D11*
%TO.P,D76,1,K*%
%TO.N,/ROW7*%
X408000000Y-135720000D03*
D12*
%TO.P,D76,2,A*%
%TO.N,Net-(D76-A)*%
X408000000Y-128100000D03*
%TD*%
D11*
%TO.P,D57,1,K*%
%TO.N,/ROW5*%
X365200000Y-116710000D03*
D12*
%TO.P,D57,2,A*%
%TO.N,Net-(D57-A)*%
X365200000Y-109090000D03*
%TD*%
D10*
%TO.P,SW13,1,1*%
%TO.N,/COL2*%
X309048874Y-64021771D03*
%TO.P,SW13,2,2*%
%TO.N,Net-(D13-A)*%
X315398874Y-61481771D03*
%TD*%
D11*
%TO.P,D10,1,K*%
%TO.N,/ROW0*%
X265100000Y-69310000D03*
D12*
%TO.P,D10,2,A*%
%TO.N,Net-(D10-A)*%
X265100000Y-61690000D03*
%TD*%
D10*
%TO.P,SW15,1,1*%
%TO.N,/COL4*%
X351903592Y-64015156D03*
%TO.P,SW15,2,2*%
%TO.N,Net-(D15-A)*%
X358253592Y-61475156D03*
%TD*%
%TO.P,SW61,1,1*%
%TO.N,/COL0*%
X432776395Y-111579686D03*
%TO.P,SW61,2,2*%
%TO.N,Net-(D61-A)*%
X439126395Y-109039686D03*
%TD*%
%TO.P,SW84,1,1*%
%TO.N,/COL3*%
X161110000Y-149760000D03*
%TO.P,SW84,2,2*%
%TO.N,Net-(D84-A)*%
X167460000Y-147220000D03*
%TD*%
%TO.P,SW91,1,1*%
%TO.N,/COL0*%
X351610000Y-149707386D03*
%TO.P,SW91,2,2*%
%TO.N,Net-(D91-A)*%
X357960000Y-147167386D03*
%TD*%
%TO.P,SW81,1,1*%
%TO.N,/COL0*%
X103961487Y-149730105D03*
%TO.P,SW81,2,2*%
%TO.N,Net-(D81-A)*%
X110311487Y-147190105D03*
%TD*%
D11*
%TO.P,D80,1,K*%
%TO.N,/ROW7*%
X98300000Y-154810000D03*
D12*
%TO.P,D80,2,A*%
%TO.N,Net-(D80-A)*%
X98300000Y-147190000D03*
%TD*%
D11*
%TO.P,D60,1,K*%
%TO.N,/ROW5*%
X427100000Y-116610000D03*
D12*
%TO.P,D60,2,A*%
%TO.N,Net-(D60-A)*%
X427100000Y-108990000D03*
%TD*%
D10*
%TO.P,SW16,1,1*%
%TO.N,/COL5*%
X370959413Y-64015156D03*
%TO.P,SW16,2,2*%
%TO.N,Net-(D16-A)*%
X377309413Y-61475156D03*
%TD*%
%TO.P,SW68,1,1*%
%TO.N,/COL7*%
X151550913Y-130596827D03*
%TO.P,SW68,2,2*%
%TO.N,Net-(D68-A)*%
X157900913Y-128056827D03*
%TD*%
%TO.P,SW94,1,1*%
%TO.N,/COL3*%
X432760198Y-149710905D03*
%TO.P,SW94,2,2*%
%TO.N,Net-(D94-A)*%
X439110198Y-147170905D03*
%TD*%
%TO.P,SW4,1,1*%
%TO.N,/COL3*%
X118502082Y-63975570D03*
%TO.P,SW4,2,2*%
%TO.N,Net-(D4-A)*%
X124852082Y-61435570D03*
%TD*%
%TO.P,SW24,1,1*%
%TO.N,/COL3*%
X99306730Y-92509899D03*
%TO.P,SW24,2,2*%
%TO.N,Net-(D24-A)*%
X105656730Y-89969899D03*
%TD*%
%TO.P,SW65,1,1*%
%TO.N,/COL4*%
X94390000Y-130660000D03*
%TO.P,SW65,2,2*%
%TO.N,Net-(D65-A)*%
X100740000Y-128120000D03*
%TD*%
D11*
%TO.P,D94,1,K*%
%TO.N,/ROW9*%
X445400000Y-155410000D03*
D12*
%TO.P,D94,2,A*%
%TO.N,Net-(D94-A)*%
X445400000Y-147790000D03*
%TD*%
D11*
%TO.P,D52,1,K*%
%TO.N,/ROW5*%
X255400000Y-116610000D03*
D12*
%TO.P,D52,2,A*%
%TO.N,Net-(D52-A)*%
X255400000Y-108990000D03*
%TD*%
D21*
%TO.N,/ROW9*%
X253500000Y-161000000D03*
X467000000Y-56000000D03*
X434250000Y-56000000D03*
X336750000Y-155000000D03*
X337000000Y-160000000D03*
X253250000Y-173750000D03*
%TO.N,/ROW10*%
X467500000Y-175000000D03*
X439250000Y-56600000D03*
X468100000Y-56750000D03*
%TO.N,GND*%
X402500000Y-52500000D03*
X388500000Y-71500000D03*
X389000000Y-52500000D03*
X387500000Y-129000000D03*
X388000000Y-78000000D03*
%TO.N,/ROW2*%
X242500000Y-26750000D03*
X242250000Y-65500000D03*
X421250000Y-27500000D03*
X242250000Y-68250000D03*
%TO.N,/ROW8*%
X429250000Y-66000000D03*
X328250000Y-94750000D03*
X431250000Y-76000000D03*
X432000000Y-56250000D03*
X328549265Y-96799265D03*
X430000000Y-67500000D03*
X324750000Y-155000000D03*
X430962511Y-74462511D03*
X328250000Y-80250000D03*
X428750000Y-56250000D03*
X431000000Y-79000000D03*
%TO.N,/COL2*%
X98500000Y-143000000D03*
X95500000Y-143000000D03*
X454500000Y-22600000D03*
X306750000Y-183250000D03*
X100000000Y-23000000D03*
X247000000Y-138000000D03*
X49000000Y-142500000D03*
X141500000Y-142500000D03*
X304750000Y-157250000D03*
X253000000Y-138000000D03*
X253000000Y-157250000D03*
X309000000Y-22600000D03*
X414000000Y-183250000D03*
%TO.N,/ROW7*%
X443500000Y-55250000D03*
X447000000Y-77250000D03*
X429500000Y-55500000D03*
X447750000Y-81250000D03*
%TO.N,/COL8*%
X255500000Y-181800000D03*
X223250000Y-25600000D03*
X434250000Y-25750000D03*
X433500000Y-57750000D03*
X163532500Y-181782500D03*
%TO.N,/COL0*%
X459690000Y-21560000D03*
X270890000Y-21560000D03*
X351500000Y-142000000D03*
X429000000Y-141500000D03*
X429000000Y-111500000D03*
X64000000Y-114000000D03*
X209500000Y-141500000D03*
X42100000Y-21560000D03*
X58500000Y-103500000D03*
X51500000Y-103500000D03*
X64500000Y-116500000D03*
X258500000Y-141500000D03*
X452000000Y-100500000D03*
X70500000Y-141500000D03*
X433500000Y-101000000D03*
X456000000Y-84250000D03*
%TO.N,+3.3V*%
X458000000Y-29000000D03*
X388500000Y-76000000D03*
X388500000Y-73000000D03*
X386500000Y-131500000D03*
X401820000Y-33190000D03*
%TO.N,/ROW3*%
X422250000Y-83000000D03*
X423250000Y-84000000D03*
%TO.N,/COL1*%
X454500000Y-82000000D03*
X79250000Y-22250000D03*
X290000000Y-22160000D03*
X228750000Y-159500000D03*
X67000000Y-157000000D03*
X43500000Y-156000000D03*
X451750000Y-138750000D03*
X394500000Y-138750000D03*
X457000000Y-22160000D03*
X122500000Y-156500000D03*
X454250000Y-85250000D03*
X280500000Y-160250000D03*
X64000000Y-157000000D03*
%TO.N,/COL9*%
X275250000Y-175750000D03*
X451000000Y-36750000D03*
X85250000Y-138250000D03*
X274250000Y-151500000D03*
X431500000Y-26250000D03*
X251750000Y-26100000D03*
X187500000Y-130750000D03*
X432500000Y-37000000D03*
X188500000Y-169000000D03*
X85000000Y-144000000D03*
X235000000Y-176250000D03*
X187000000Y-138500000D03*
%TO.N,/ROW0*%
X268500000Y-26600000D03*
X429250000Y-26600000D03*
%TO.N,/COL3*%
X452000000Y-23100000D03*
X427000000Y-185250000D03*
X332750000Y-140250000D03*
X266500000Y-138250000D03*
X332750000Y-185250000D03*
X118500000Y-24500000D03*
X333000000Y-23100000D03*
X161000000Y-139500000D03*
X75500000Y-138500000D03*
%TO.N,/COL6*%
X442000000Y-24750000D03*
X412750000Y-125250000D03*
X351750000Y-124250000D03*
X392750000Y-43750000D03*
X392750000Y-42400000D03*
X185250000Y-24600000D03*
X68500000Y-176000000D03*
X392750000Y-24600000D03*
X219000000Y-176000000D03*
%TO.N,/COL7*%
X204250000Y-25100000D03*
X159510515Y-163989485D03*
X157911985Y-164088015D03*
X371250000Y-124000000D03*
X393750000Y-110000000D03*
X413750000Y-25100000D03*
X237000000Y-165500000D03*
X432500000Y-124000000D03*
X439500000Y-25250000D03*
%TO.N,/ROW4*%
X219750000Y-116750000D03*
X446500000Y-80000000D03*
X445500000Y-78750000D03*
X431500000Y-57750000D03*
X219750000Y-103250000D03*
X419250000Y-57750000D03*
%TO.N,/COL5*%
X332750000Y-124250000D03*
X45000000Y-177000000D03*
X394250000Y-126750000D03*
X199500000Y-179000000D03*
X371000000Y-24100000D03*
X166000000Y-24100000D03*
X444398000Y-24102000D03*
%TO.N,/ROW5*%
X429000000Y-95500000D03*
X428974923Y-93724923D03*
X428462511Y-76962511D03*
X428750000Y-78500000D03*
%TO.N,/ROW6*%
X205000000Y-122250000D03*
X432250000Y-60000000D03*
X442500000Y-84250000D03*
X442483806Y-81983806D03*
X427250000Y-59250000D03*
%TO.N,SDA*%
X408000000Y-31000000D03*
X406500000Y-56500000D03*
X391000000Y-71500000D03*
X391000000Y-73500000D03*
X467500000Y-31000000D03*
X391100000Y-56500000D03*
X391000000Y-135000000D03*
%TO.N,SCL*%
X390000000Y-74500000D03*
X405500000Y-30500000D03*
X390500000Y-55500000D03*
X388500000Y-133000000D03*
X390000000Y-72000000D03*
X404000000Y-55500000D03*
X465000000Y-30000000D03*
%TO.N,+5V*%
X391000000Y-54500000D03*
X467000000Y-54500000D03*
%TO.N,/COL4*%
X309250000Y-156750000D03*
X137500000Y-25100000D03*
X180000000Y-137500000D03*
X309000000Y-140000000D03*
X94500000Y-137500000D03*
X297000000Y-139000000D03*
X354250000Y-23600000D03*
X447000000Y-23600000D03*
X351750000Y-157500000D03*
%TD*%
D22*
%TO.N,/COL9*%
X433092779Y-92223361D02*
X433059528Y-92255962D01*
X428399000Y-95251057D02*
X428399000Y-95715251D01*
X450467429Y-74837288D02*
X450329001Y-74986479D01*
X431448428Y-92582883D02*
X431323244Y-92613738D01*
X415243976Y-111358954D02*
X415143797Y-111408360D01*
X450600183Y-74683026D02*
X450467429Y-74837288D01*
X451070854Y-74019675D02*
X450962575Y-74192000D01*
X428918241Y-94699722D02*
X428818713Y-94845015D01*
X451172614Y-73843422D02*
X451070854Y-74019675D01*
X451267712Y-73663487D02*
X451172614Y-73843422D01*
X432911904Y-92369242D02*
X432831254Y-92415807D01*
X451356016Y-73480122D02*
X451267712Y-73663487D01*
X431703237Y-92544100D02*
X431575246Y-92559642D01*
X451511756Y-73104132D02*
X451437402Y-73293583D01*
X429255530Y-94293544D02*
X429136883Y-94423693D01*
X451578974Y-72912034D02*
X451511756Y-73104132D01*
X432831254Y-92415807D02*
X432746852Y-92455167D01*
X450257376Y-75058764D02*
X433092779Y-92223361D01*
X451022395Y-62888921D02*
X451052435Y-62991225D01*
X451851169Y-64631169D02*
X451851169Y-71211008D01*
X428322880Y-95967952D02*
X428282557Y-96139387D01*
X451638963Y-72717556D02*
X451578974Y-72912034D01*
X451774762Y-72122582D02*
X451736925Y-72322554D01*
X451827882Y-71719096D02*
X451805095Y-71921336D01*
X450984553Y-62679195D02*
X450999729Y-62784734D01*
X428209612Y-96662286D02*
X428201477Y-96838211D01*
X415040601Y-111451108D02*
X414934830Y-111487015D01*
X450999729Y-62784734D02*
X451022395Y-62888921D01*
X450847929Y-74360156D02*
X450727075Y-74523908D01*
X428201477Y-96838211D02*
X428201000Y-96926267D01*
X451843092Y-71516145D02*
X451827882Y-71719096D01*
X450976500Y-36790117D02*
X450976500Y-62519531D01*
X450976945Y-62572843D02*
X450984553Y-62679195D01*
X451584942Y-63779299D02*
X451642589Y-63868998D01*
X450727075Y-74523908D02*
X450600183Y-74683026D01*
X430737532Y-92877352D02*
X430631425Y-92950594D01*
X451089698Y-63091126D02*
X451133991Y-63188115D01*
X450962575Y-74192000D02*
X450847929Y-74360156D01*
X451851169Y-71211008D02*
X451850702Y-71312768D01*
X450978947Y-36774513D02*
X450976195Y-36784795D01*
X451052435Y-62991225D02*
X451089698Y-63091126D01*
X415522198Y-111173042D02*
X415433583Y-111241043D01*
X451306633Y-63456751D02*
X451376457Y-63537333D01*
X451242736Y-63371394D02*
X451306633Y-63456751D01*
X451451218Y-63613361D02*
X451521043Y-63693942D01*
X451827956Y-64365964D02*
X451843133Y-64471503D01*
X450976500Y-62519531D02*
X450976945Y-62572843D01*
X431575246Y-92559642D02*
X431448428Y-92582883D01*
X432988189Y-92315824D02*
X432911904Y-92369242D01*
X451437402Y-73293583D02*
X451356016Y-73480122D01*
X451850702Y-71312768D02*
X451843092Y-71516145D01*
X428751057Y-94899000D02*
X428399000Y-95251057D01*
X451133991Y-63188115D02*
X451185091Y-63281696D01*
X414826937Y-111515928D02*
X414717384Y-111537721D01*
X451736925Y-72322554D02*
X451691638Y-72520971D01*
X451521043Y-63693942D02*
X451584942Y-63779299D01*
X450976195Y-36784795D02*
X450976500Y-36790117D01*
X451185091Y-63281696D02*
X451242736Y-63371394D01*
X451376457Y-63537333D02*
X451413834Y-63575350D01*
X451850741Y-64577856D02*
X451851169Y-64631169D01*
X450988250Y-36761750D02*
X450984268Y-36765294D01*
X428201013Y-98356646D02*
X428200761Y-98380128D01*
X451691638Y-72520971D02*
X451638963Y-72717556D01*
X450984268Y-36765294D02*
X450978947Y-36774513D01*
X450329001Y-74986479D02*
X450257376Y-75058764D01*
X451805095Y-71921336D02*
X451774762Y-72122582D01*
X451000000Y-36750000D02*
X450988250Y-36761750D01*
X433059528Y-92255962D02*
X432988189Y-92315824D01*
X451642589Y-63868998D02*
X451693690Y-63962580D01*
X451843133Y-64471503D02*
X451850741Y-64577856D01*
X451737985Y-64059568D02*
X451775248Y-64159470D01*
X428209612Y-96934879D02*
X428209612Y-98348047D01*
X451775248Y-64159470D02*
X451805290Y-64261776D01*
X432746852Y-92455167D02*
X432659342Y-92487020D01*
X451413834Y-63575350D02*
X451451218Y-63613361D01*
X451693690Y-63962580D02*
X451737985Y-64059568D01*
X451805290Y-64261776D02*
X451827956Y-64365964D01*
X432659342Y-92487020D02*
X432569388Y-92511126D01*
X432569388Y-92511126D02*
X432477675Y-92527300D01*
X432477675Y-92527300D02*
X432384902Y-92535420D01*
X431079600Y-92697817D02*
X430962029Y-92750732D01*
X414934830Y-111487015D02*
X414826937Y-111515928D01*
X432384902Y-92535420D02*
X432338338Y-92535861D01*
X430387514Y-93160860D02*
X429317445Y-94230929D01*
X432338338Y-92535861D02*
X431896397Y-92535861D01*
X431896397Y-92535861D02*
X431831932Y-92536315D01*
X431831932Y-92536315D02*
X431703237Y-92544100D01*
X431323244Y-92613738D02*
X431200152Y-92652096D01*
X430847867Y-92810651D02*
X430737532Y-92877352D01*
X431200152Y-92652096D02*
X431079600Y-92697817D01*
X430962029Y-92750732D02*
X430847867Y-92810651D01*
X430631425Y-92950594D02*
X430529934Y-93030110D01*
X430529934Y-93030110D02*
X430433429Y-93115608D01*
X430433429Y-93115608D02*
X430387514Y-93160860D01*
X429317445Y-94230929D02*
X429255530Y-94293544D01*
X429136883Y-94423693D02*
X429024373Y-94559182D01*
X428096009Y-98610150D02*
X415645964Y-111060195D01*
X429024373Y-94559182D02*
X428918241Y-94699722D01*
X428818713Y-94845015D02*
X428785286Y-94899000D01*
X428785286Y-94899000D02*
X428751057Y-94899000D01*
X428399000Y-95715251D02*
X428371076Y-95798563D01*
X428371076Y-95798563D02*
X428322880Y-95967952D01*
X428282557Y-96139387D02*
X428250195Y-96312501D01*
X428250195Y-96312501D02*
X428225863Y-96486924D01*
X428225863Y-96486924D02*
X428209612Y-96662286D01*
X415143797Y-111408360D02*
X415040601Y-111451108D01*
X428201000Y-96926267D02*
X428209612Y-96934879D01*
X428209612Y-98348047D02*
X428201013Y-98356646D01*
X428200761Y-98380128D02*
X428194637Y-98426692D01*
X428194637Y-98426692D02*
X428182488Y-98472059D01*
X428182488Y-98472059D02*
X428164521Y-98515451D01*
X428164521Y-98515451D02*
X428141044Y-98556127D01*
X428141044Y-98556127D02*
X428112458Y-98593390D01*
X428112458Y-98593390D02*
X428096009Y-98610150D01*
X415645964Y-111060195D02*
X415606176Y-111099391D01*
X415606176Y-111099391D02*
X415522198Y-111173042D01*
X415433583Y-111241043D02*
X415340709Y-111303102D01*
X415340709Y-111303102D02*
X415243976Y-111358954D01*
X414717384Y-111537721D02*
X414606640Y-111552303D01*
X414606640Y-111552303D02*
X414495180Y-111559611D01*
X414495180Y-111559611D02*
X414439330Y-111560000D01*
X414439330Y-111560000D02*
X413732500Y-111560000D01*
%TO.N,/ROW7*%
X449938749Y-113165699D02*
X450256439Y-112848009D01*
X449318731Y-129327305D02*
X449318731Y-114635073D01*
X449143000Y-95399248D02*
G75*
G02*
X447750037Y-92036248I3363000J3362948D01*
G01*
X446182842Y-134717157D02*
X447724938Y-133175061D01*
X450536000Y-112161723D02*
X450536000Y-98762247D01*
X445900000Y-135400000D02*
G75*
G02*
X446182839Y-134717154I965700J0D01*
G01*
X445900000Y-135800000D02*
X445900000Y-135400000D01*
X450536000Y-98762247D02*
G75*
G03*
X449143024Y-95399224I-4756000J47D01*
G01*
X450256439Y-112848009D02*
X450256439Y-112836633D01*
X450256439Y-112836633D02*
G75*
G03*
X450536033Y-112161723I-674839J674933D01*
G01*
X449318731Y-114635073D02*
G75*
G02*
X449927387Y-113165721I2077969J-27D01*
G01*
X447724938Y-133175061D02*
G75*
G03*
X449318740Y-129327305I-3847738J3847761D01*
G01*
X449927365Y-113165699D02*
X449938749Y-113165699D01*
X447750000Y-92036248D02*
X447750000Y-81250000D01*
%TO.N,/COL1*%
X454683334Y-63373965D02*
X454495364Y-63561931D01*
%TO.N,/COL5*%
X72073515Y-147252504D02*
X72072842Y-147252504D01*
X72145807Y-147180886D02*
X72073515Y-147252504D01*
X51746219Y-167579127D02*
X51605741Y-167708446D01*
X72449260Y-146909705D02*
X72294997Y-147042458D01*
X51460038Y-167831850D02*
X51309361Y-167949127D01*
X72608377Y-146782813D02*
X72449260Y-146909705D01*
X101593637Y-145075281D02*
X101410272Y-145163588D01*
X50830090Y-168262250D02*
X50662164Y-168353127D01*
X72772129Y-146661959D02*
X72608377Y-146782813D01*
X73468797Y-146242175D02*
X73288862Y-146337273D01*
X73288862Y-146337273D02*
X73112609Y-146439033D01*
X50994117Y-168164512D02*
X50830090Y-168262250D01*
X73838699Y-146072485D02*
X73652161Y-146153871D01*
X48834230Y-168856440D02*
X48643454Y-168864330D01*
X74414726Y-145870923D02*
X74220248Y-145930912D01*
X74809727Y-145772959D02*
X74611310Y-145818247D01*
X74611310Y-145818247D02*
X74414726Y-145870923D01*
X49589200Y-168746445D02*
X49402325Y-168785629D01*
X75009698Y-145735122D02*
X74809727Y-145772959D01*
X75413184Y-145682000D02*
X75210944Y-145704788D01*
X73652161Y-146153871D02*
X73468797Y-146242175D01*
X75616134Y-145666790D02*
X75413184Y-145682000D01*
X49957298Y-168645091D02*
X49774297Y-168699573D01*
X48547984Y-168864810D02*
X44457764Y-168864810D01*
X75819511Y-145659180D02*
X75616134Y-145666790D01*
X100647704Y-145446544D02*
X100451119Y-145499221D01*
X99851481Y-145612684D02*
X99649240Y-145635473D01*
X75921271Y-145658712D02*
X75819511Y-145659180D01*
X75210944Y-145704788D02*
X75009698Y-145735122D01*
X99141150Y-145658712D02*
X75921271Y-145658712D01*
X99242910Y-145658296D02*
X99141150Y-145658712D01*
X100052729Y-145582349D02*
X99851481Y-145612684D01*
X101773572Y-144980180D02*
X101593637Y-145075281D01*
X102988906Y-144064919D02*
X102916625Y-144136549D01*
X74220248Y-145930912D02*
X74028150Y-145998130D01*
X112386876Y-134666268D02*
X112327987Y-134725838D01*
X100451119Y-145499221D02*
X100252701Y-145544510D01*
X112596452Y-134426000D02*
X112499738Y-134542466D01*
X72294997Y-147042458D02*
X72145807Y-147180886D01*
X112499738Y-134542466D02*
X112386876Y-134666268D01*
X73112609Y-146439033D02*
X72940284Y-146547312D01*
X113390000Y-132161913D02*
X113389537Y-132245676D01*
X113346000Y-132725647D02*
X113346000Y-133707826D01*
X100252701Y-145544510D02*
X100052729Y-145582349D01*
X74028150Y-145998130D02*
X73838699Y-146072485D01*
X100842183Y-145386553D02*
X100647704Y-145446544D01*
X113366341Y-132579834D02*
X113346000Y-132725647D01*
X113389537Y-132245676D02*
X113381799Y-132413023D01*
X99649240Y-145635473D02*
X99446289Y-145650684D01*
X102290305Y-144655488D02*
X102122150Y-144770137D01*
X102454056Y-144534631D02*
X102290305Y-144655488D01*
X102122150Y-144770137D02*
X101949825Y-144878418D01*
X112327987Y-134725838D02*
X102988906Y-144064919D01*
X49024517Y-168840673D02*
X48834230Y-168856440D01*
X112627826Y-134426000D02*
X112596452Y-134426000D01*
X72940284Y-146547312D02*
X72772129Y-146661959D01*
X113390000Y-130660000D02*
X113390000Y-132161913D01*
X102916625Y-144136549D02*
X102767436Y-144274980D01*
X102613174Y-144407736D02*
X102454056Y-144534631D01*
X50315769Y-168513686D02*
X50137892Y-168583094D01*
X102767436Y-144274980D02*
X102613174Y-144407736D01*
X101949825Y-144878418D02*
X101773572Y-144980180D01*
X101410272Y-145163588D02*
X101223733Y-145244976D01*
X72072842Y-147252504D02*
X51814063Y-167511283D01*
X99446289Y-145650684D02*
X99242910Y-145658296D01*
X101223733Y-145244976D02*
X101034282Y-145319332D01*
X113346000Y-133707826D02*
X112627826Y-134426000D01*
X113381799Y-132413023D02*
X113366341Y-132579834D01*
X101034282Y-145319332D02*
X100842183Y-145386553D01*
X51814063Y-167511283D02*
X51814063Y-167511956D01*
X51814063Y-167511956D02*
X51746219Y-167579127D01*
X51605741Y-167708446D02*
X51460038Y-167831850D01*
X51309361Y-167949127D02*
X51153965Y-168060078D01*
X51153965Y-168060078D02*
X50994117Y-168164512D01*
X50662164Y-168353127D02*
X50490626Y-168436987D01*
X50490626Y-168436987D02*
X50315769Y-168513686D01*
X50137892Y-168583094D02*
X49957298Y-168645091D01*
X48643454Y-168864330D02*
X48547984Y-168864810D01*
X49774297Y-168699573D02*
X49589200Y-168746445D01*
X49402325Y-168785629D02*
X49213990Y-168817056D01*
X49213990Y-168817056D02*
X49024517Y-168840673D01*
%TO.N,/ROW9*%
X434273750Y-55976250D02*
X434250000Y-56000000D01*
X467000000Y-161066497D02*
X467000000Y-56000000D01*
X253375000Y-161125000D02*
X253500000Y-161000000D01*
X466050000Y-163360000D02*
X465100000Y-164310000D01*
X337000000Y-155426776D02*
X337000000Y-160000000D01*
X336875000Y-155125000D02*
X336750000Y-155000000D01*
X434297500Y-55918912D02*
X434297500Y-52280000D01*
X253250000Y-173750000D02*
X253250000Y-161426776D01*
X253375000Y-161125000D02*
G75*
G03*
X253249990Y-161426776I301800J-301800D01*
G01*
X434273750Y-55976250D02*
G75*
G03*
X434297505Y-55918912I-57350J57350D01*
G01*
X467000000Y-161066497D02*
G75*
G02*
X466050001Y-163360001I-3243500J-3D01*
G01*
X337000000Y-155426776D02*
G75*
G03*
X336874993Y-155125007I-426800J-24D01*
G01*
%TO.N,/ROW10*%
X468250000Y-94563712D02*
X468250000Y-99250000D01*
X439250000Y-56600000D02*
X439313750Y-56536250D01*
X468299000Y-154063712D02*
X468299000Y-158750000D01*
X468299000Y-163436288D02*
X468299000Y-173636021D01*
X468250000Y-57006066D02*
X468250000Y-94563712D01*
X439377500Y-56382343D02*
X439377500Y-52280000D01*
X468299000Y-154063712D02*
X468299000Y-128534648D01*
X467899500Y-174600500D02*
X467500000Y-175000000D01*
X468100000Y-56750000D02*
X468175000Y-56825000D01*
X468250000Y-128416351D02*
X468250000Y-103936288D01*
X468250000Y-99250000D02*
X468250000Y-103936288D01*
X468299000Y-158750000D02*
X468299000Y-163436288D01*
X468250000Y-128416351D02*
G75*
G03*
X468274486Y-128475514I83600J-49D01*
G01*
X468250000Y-57006066D02*
G75*
G03*
X468174990Y-56825010I-256100J-34D01*
G01*
X439377500Y-56382343D02*
G75*
G02*
X439313737Y-56536237I-217700J43D01*
G01*
X468274500Y-128475500D02*
G75*
G02*
X468299021Y-128534648I-59200J-59200D01*
G01*
X467899500Y-174600500D02*
G75*
G03*
X468299009Y-173636021I-964500J964500D01*
G01*
%TO.N,GND*%
X402840000Y-51919583D02*
X402840000Y-49500000D01*
X387500000Y-129000000D02*
X387500000Y-78853553D01*
X403460000Y-39820000D02*
X404080000Y-39200000D01*
X388500000Y-71500000D02*
X388500000Y-53353553D01*
X402840000Y-41316812D02*
X402840000Y-49500000D01*
X388750000Y-52750000D02*
X389000000Y-52500000D01*
X402500000Y-52500000D02*
X402670000Y-52330000D01*
X387750000Y-78250000D02*
X388000000Y-78000000D01*
X388750000Y-52750000D02*
G75*
G03*
X388500022Y-53353553I603500J-603500D01*
G01*
X387750000Y-78250000D02*
G75*
G03*
X387500022Y-78853553I603500J-603500D01*
G01*
X402840000Y-51919583D02*
G75*
G02*
X402670005Y-52330005I-580400J-17D01*
G01*
X402840000Y-41316812D02*
G75*
G02*
X403459996Y-39819996I2116800J12D01*
G01*
%TO.N,/ROW2*%
X227000000Y-96852467D02*
X227000000Y-97620000D01*
X421423750Y-27673750D02*
X421250000Y-27500000D01*
X242250000Y-68250000D02*
X242250000Y-78580970D01*
X227542727Y-95542206D02*
X240656207Y-82428726D01*
X421597500Y-28093219D02*
X421597500Y-34500000D01*
X242250000Y-27176776D02*
X242250000Y-65500000D01*
X242500000Y-26750000D02*
X242375000Y-26875000D01*
X421597500Y-28093219D02*
G75*
G03*
X421423756Y-27673744I-593200J19D01*
G01*
X242250000Y-78580970D02*
G75*
G02*
X240656233Y-82428752I-5441600J-30D01*
G01*
X227000000Y-96852467D02*
G75*
G02*
X227542742Y-95542221I1853000J-33D01*
G01*
X242250000Y-27176776D02*
G75*
G02*
X242375007Y-26875007I426800J-24D01*
G01*
%TO.N,/ROW8*%
X429000000Y-56500000D02*
X428750000Y-56250000D01*
X431757500Y-55086026D02*
X431757500Y-52280000D01*
X430962511Y-69143109D02*
X430962511Y-74462511D01*
X328250000Y-80250000D02*
X328250000Y-80000000D01*
X431000000Y-76426776D02*
X431000000Y-79000000D01*
X431125000Y-76125000D02*
X431250000Y-76000000D01*
X430000000Y-67500000D02*
X430481255Y-67981255D01*
X432000000Y-56250000D02*
X432000000Y-55671473D01*
X328549265Y-96799265D02*
X328549265Y-148946771D01*
X429250000Y-66000000D02*
X429250000Y-57103553D01*
X328250000Y-94750000D02*
X328250000Y-80000000D01*
X324750000Y-155000000D02*
X326955472Y-152794527D01*
X328250000Y-80000000D02*
X328250000Y-80000000D01*
X328549265Y-148946771D02*
G75*
G02*
X326955490Y-152794545I-5441565J-29D01*
G01*
X430962511Y-69143109D02*
G75*
G03*
X430481260Y-67981250I-1643111J9D01*
G01*
X431000000Y-76426776D02*
G75*
G02*
X431125007Y-76125007I426800J-24D01*
G01*
X431878750Y-55378750D02*
G75*
G02*
X432000011Y-55671473I-292750J-292750D01*
G01*
X429000000Y-56500000D02*
G75*
G02*
X429250019Y-57103553I-603600J-603600D01*
G01*
X431757500Y-55086026D02*
G75*
G03*
X431878758Y-55378742I414000J26D01*
G01*
%TO.N,/COL2*%
X281290425Y-92530082D02*
X270892197Y-92530082D01*
X253000000Y-157250000D02*
X253000000Y-138000000D01*
X285138181Y-90936289D02*
X308730339Y-67344131D01*
X97852289Y-74901576D02*
X80243967Y-92509899D01*
X304750000Y-165789634D02*
X304750000Y-157250000D01*
X80243967Y-92509899D02*
X80243967Y-99752069D01*
X247000000Y-137297729D02*
X247000000Y-138000000D01*
X99446082Y-23945597D02*
X99446082Y-63984027D01*
X100000000Y-23000000D02*
X99723041Y-23276959D01*
X306490000Y-169990365D02*
X306490000Y-182576152D01*
X49190000Y-130660000D02*
X49190000Y-142175649D01*
X414980518Y-181576151D02*
X414980518Y-151841603D01*
X414490259Y-182759741D02*
X414000000Y-183250000D01*
X306668682Y-182938682D02*
X306620000Y-182890000D01*
X414355518Y-150332721D02*
X413730519Y-149707722D01*
X261132500Y-111560000D02*
X261132500Y-114206036D01*
X261132500Y-111560000D02*
X269298404Y-103394095D01*
X454617500Y-23700585D02*
X454617500Y-34500000D01*
X309000000Y-23465440D02*
X309000000Y-22600000D01*
X246932500Y-130660000D02*
X246932500Y-137134770D01*
X309048874Y-64021771D02*
X309048874Y-23583433D01*
X306750000Y-183135000D02*
X306750000Y-183250000D01*
X49095000Y-142405000D02*
X49000000Y-142500000D01*
X309048874Y-64021771D02*
X309048874Y-66575119D01*
X142081076Y-143491958D02*
X142081076Y-149728228D01*
X246932500Y-130660000D02*
X259538707Y-118053792D01*
X71538528Y-110711471D02*
X78650174Y-103599825D01*
X141790538Y-142790538D02*
X141500000Y-142500000D01*
X98500000Y-143000000D02*
X95500000Y-143000000D01*
X49190000Y-130660000D02*
X67441471Y-112408528D01*
X454500000Y-22600000D02*
X454500000Y-23416914D01*
X270892197Y-92530082D02*
X270892197Y-99546339D01*
X99446082Y-71053820D02*
X99446082Y-63984027D01*
X414355518Y-150332721D02*
G75*
G02*
X414980505Y-151841603I-1508918J-1508879D01*
G01*
X97852289Y-74901576D02*
G75*
G03*
X99446086Y-71053820I-3847789J3847776D01*
G01*
X69490000Y-111560000D02*
G75*
G03*
X67441462Y-112408519I0J-2897100D01*
G01*
X99723041Y-23276959D02*
G75*
G03*
X99446086Y-23945597I668659J-668641D01*
G01*
X141790538Y-142790538D02*
G75*
G02*
X142081100Y-143491958I-701438J-701462D01*
G01*
X281290425Y-92530082D02*
G75*
G03*
X285138176Y-90936284I-25J5441582D01*
G01*
X270892197Y-99546339D02*
G75*
G02*
X269298395Y-103394086I-5441597J39D01*
G01*
X454617500Y-23700585D02*
G75*
G03*
X454558746Y-23558754I-200600J-15D01*
G01*
X306490000Y-182576152D02*
G75*
G03*
X306619986Y-182890014I443800J-48D01*
G01*
X69490000Y-111560000D02*
G75*
G03*
X71538538Y-110711481I0J2897100D01*
G01*
X49190000Y-142175649D02*
G75*
G02*
X49094985Y-142404985I-324400J49D01*
G01*
X306750000Y-183135000D02*
G75*
G03*
X306668675Y-182938689I-277600J0D01*
G01*
X306490000Y-169990365D02*
G75*
G03*
X305619990Y-167890010I-2970400J-35D01*
G01*
X246932500Y-137134770D02*
G75*
G03*
X246966241Y-137216259I115200J-30D01*
G01*
X261132500Y-114206036D02*
G75*
G02*
X259538700Y-118053785I-5441600J36D01*
G01*
X247000000Y-137297729D02*
G75*
G03*
X246966259Y-137216241I-115200J29D01*
G01*
X304750000Y-165789634D02*
G75*
G03*
X305620010Y-167889990I2970400J34D01*
G01*
X309048874Y-66575119D02*
G75*
G02*
X308730335Y-67344127I-1087574J19D01*
G01*
X309048874Y-23583433D02*
G75*
G03*
X309024462Y-23524412I-83474J33D01*
G01*
X414490259Y-182759741D02*
G75*
G03*
X414980563Y-181576151I-1183559J1183641D01*
G01*
X454558750Y-23558750D02*
G75*
G02*
X454499994Y-23416914I141850J141850D01*
G01*
X309000000Y-23465440D02*
G75*
G03*
X309024464Y-23524410I83400J40D01*
G01*
X80243967Y-99752069D02*
G75*
G02*
X78650193Y-103599844I-5441567J-31D01*
G01*
%TO.N,/ROW7*%
X443500000Y-71496036D02*
X443500000Y-55250000D01*
X447000000Y-77250000D02*
X445093792Y-75343792D01*
X429217500Y-55017742D02*
X429217500Y-52280000D01*
X429500000Y-55500000D02*
X429358750Y-55358750D01*
X429217500Y-55017742D02*
G75*
G03*
X429358762Y-55358738I482300J42D01*
G01*
X445093792Y-75343792D02*
G75*
G02*
X443499989Y-71496036I3847808J3847792D01*
G01*
%TO.N,/COL8*%
X197530435Y-89612140D02*
X194626464Y-92516112D01*
X433196500Y-36379524D02*
X433196500Y-57231893D01*
X184932500Y-114076501D02*
X184932500Y-111560000D01*
X170640509Y-147671701D02*
X170640509Y-130622456D01*
X165126292Y-155439881D02*
X169046716Y-151519457D01*
X256463588Y-169961226D02*
X256463588Y-149739275D01*
X163532500Y-159287637D02*
X163532500Y-168860000D01*
X255500000Y-172287533D02*
X255500000Y-181800000D01*
X433747000Y-35050500D02*
X434022250Y-34775250D01*
X223250000Y-25600000D02*
X223279006Y-25629006D01*
X223308013Y-64025221D02*
X223308013Y-66669444D01*
X432803202Y-71216386D02*
X432803202Y-64004770D01*
X434250000Y-25750000D02*
X434250000Y-26216412D01*
X433348250Y-57598250D02*
X433500000Y-57750000D01*
X394700000Y-110416920D02*
X394700000Y-111600000D01*
X193032671Y-103459828D02*
X184932500Y-111560000D01*
X222938520Y-67561479D02*
X203261916Y-87238083D01*
X412569833Y-92533863D02*
X413154761Y-92533863D01*
X434297500Y-34110737D02*
X434297500Y-26331087D01*
X183338707Y-117924257D02*
X170640509Y-130622456D01*
X194626464Y-99612072D02*
X194626464Y-92516112D01*
X163532500Y-168860000D02*
X163532500Y-181782500D01*
X223308013Y-64025221D02*
X223308013Y-25699034D01*
X410572763Y-93361076D02*
X395536563Y-108397276D01*
X431209409Y-75064142D02*
X414153295Y-92120256D01*
X193032671Y-103459828D02*
G75*
G03*
X194626440Y-99612072I-3847771J3847728D01*
G01*
X197530435Y-89612140D02*
G75*
G02*
X200396176Y-88425100I2865765J-2865760D01*
G01*
X434297500Y-34110737D02*
G75*
G02*
X434022239Y-34775239I-939800J37D01*
G01*
X170640509Y-147671701D02*
G75*
G02*
X169046707Y-151519448I-5441509J1D01*
G01*
X394700000Y-110416920D02*
G75*
G02*
X395536555Y-108397268I2856200J20D01*
G01*
X433348250Y-57598250D02*
G75*
G02*
X433196503Y-57231893I366350J366350D01*
G01*
X431209409Y-75064142D02*
G75*
G03*
X432803176Y-71216386I-3847809J3847742D01*
G01*
X223308013Y-25699034D02*
G75*
G03*
X223279019Y-25628993I-99013J34D01*
G01*
X256463588Y-169961226D02*
G75*
G02*
X255981789Y-171124375I-1644988J26D01*
G01*
X433747000Y-35050500D02*
G75*
G03*
X433196510Y-36379524I1329000J-1329000D01*
G01*
X434273750Y-26273750D02*
G75*
G02*
X434249995Y-26216412I57350J57350D01*
G01*
X222938520Y-67561479D02*
G75*
G03*
X223308049Y-66669444I-892020J892079D01*
G01*
X255500000Y-172287533D02*
G75*
G02*
X255981787Y-171124373I1644900J33D01*
G01*
X434297500Y-26331087D02*
G75*
G03*
X434273746Y-26273754I-81100J-13D01*
G01*
X412569833Y-92533863D02*
G75*
G03*
X410572756Y-93361069I-33J-2824237D01*
G01*
X200396176Y-88425112D02*
G75*
G03*
X203261937Y-87238104I24J4052812D01*
G01*
X163532500Y-159287637D02*
G75*
G02*
X165126284Y-155439873I5441500J37D01*
G01*
X414153295Y-92120256D02*
G75*
G02*
X413154761Y-92533828I-998495J998556D01*
G01*
X184932500Y-114076501D02*
G75*
G02*
X183338717Y-117924267I-5441600J1D01*
G01*
%TO.N,/COL0*%
X247009405Y-90925359D02*
X270573618Y-67361146D01*
X459697500Y-49367423D02*
X459697500Y-34500000D01*
X208817290Y-140199961D02*
X208817290Y-130603301D01*
X270910794Y-64020145D02*
X270910794Y-21595497D01*
X243161649Y-92519152D02*
X232759228Y-92519152D01*
X258185000Y-168135000D02*
X258810000Y-168760000D01*
X42100000Y-21560000D02*
X42105000Y-21565000D01*
X258500000Y-141500000D02*
X258500000Y-149231629D01*
X62406207Y-107406207D02*
X58500000Y-103500000D01*
X50823223Y-103323223D02*
X42848109Y-95348109D01*
X351500000Y-142000000D02*
X351555000Y-142055000D01*
X223032500Y-111560000D02*
X231165435Y-103427064D01*
X209452418Y-141317838D02*
X209158645Y-141024065D01*
X458978000Y-51104450D02*
X458580976Y-51501473D01*
X42106758Y-93558328D02*
X42106758Y-93034113D01*
X64500000Y-116500000D02*
X68906207Y-120906207D01*
X270900397Y-21570397D02*
X270890000Y-21560000D01*
X270910794Y-64020145D02*
X270910794Y-66547131D01*
X42110000Y-21577071D02*
X42110000Y-63960000D01*
X42110000Y-63960000D02*
X42110000Y-66107707D01*
X70500000Y-141500000D02*
X70500000Y-124753963D01*
X459697500Y-21852803D02*
X459697500Y-34500000D01*
X223032500Y-111560000D02*
X223032500Y-114134127D01*
X64000000Y-111253963D02*
X64000000Y-114000000D01*
X429000000Y-141500000D02*
X429000000Y-111500000D01*
X457006084Y-83243915D02*
X456000000Y-84250000D01*
X451822642Y-100197230D02*
X451822642Y-92535064D01*
X209500000Y-141432710D02*
X209500000Y-141500000D01*
X452000000Y-100500000D02*
X451911321Y-100411321D01*
X51500000Y-103500000D02*
X51250000Y-103500000D01*
X456634985Y-63227868D02*
X456634985Y-55507563D01*
X257560001Y-151500987D02*
X257560001Y-166626118D01*
X42106758Y-91985684D02*
X42106758Y-93034113D01*
X232759228Y-92519152D02*
X232759228Y-99579308D01*
X42106758Y-66115534D02*
X42106758Y-91985684D01*
X459690000Y-21834696D02*
X459690000Y-21560000D01*
X457936023Y-53058525D02*
X457446742Y-53547807D01*
X221438707Y-117981883D02*
X208817290Y-130603301D01*
X433138197Y-101361802D02*
X433500000Y-101000000D01*
X458012169Y-66552685D02*
X458012169Y-80815012D01*
X351610000Y-142187781D02*
X351610000Y-149707386D01*
X432776395Y-102235271D02*
X432776395Y-111579686D01*
X50823223Y-103323223D02*
G75*
G03*
X51250000Y-103499986I426777J426823D01*
G01*
X458978000Y-51104450D02*
G75*
G03*
X459697524Y-49367423I-1737000J1737050D01*
G01*
X42848109Y-95348109D02*
G75*
G02*
X42106741Y-93558328I1789791J1789809D01*
G01*
X223032500Y-114134127D02*
G75*
G02*
X221438704Y-117981880I-5441600J27D01*
G01*
X70500000Y-124753963D02*
G75*
G03*
X68906204Y-120906210I-5441550J-7D01*
G01*
X247009405Y-90925359D02*
G75*
G02*
X243161649Y-92519185I-3847805J3847759D01*
G01*
X457006084Y-83243915D02*
G75*
G03*
X458012183Y-80815012I-2428884J2428915D01*
G01*
X270900397Y-21570397D02*
G75*
G02*
X270910797Y-21595497I-25097J-25103D01*
G01*
X458012169Y-66552685D02*
G75*
G03*
X457323563Y-64890291I-2350969J-15D01*
G01*
X42108379Y-66111621D02*
G75*
G03*
X42106785Y-66115534I3921J-3879D01*
G01*
X458258500Y-52280000D02*
G75*
G02*
X458580977Y-51501474I1101000J0D01*
G01*
X42108379Y-66111621D02*
G75*
G03*
X42110016Y-66107707I-3879J3921D01*
G01*
X433138197Y-101361802D02*
G75*
G03*
X432776384Y-102235271I873503J-873498D01*
G01*
X208817290Y-140199961D02*
G75*
G03*
X209158615Y-141024095I1165510J-39D01*
G01*
X232759228Y-99579308D02*
G75*
G02*
X231165427Y-103427056I-5441528J8D01*
G01*
X64000000Y-111253963D02*
G75*
G03*
X62406204Y-107406210I-5441550J-7D01*
G01*
X351610000Y-142187781D02*
G75*
G03*
X351554995Y-142055005I-187800J-19D01*
G01*
X458258500Y-52280000D02*
G75*
G02*
X457936024Y-53058526I-1101000J0D01*
G01*
X270573618Y-67361146D02*
G75*
G03*
X270910815Y-66547131I-814018J814046D01*
G01*
X459690000Y-21834696D02*
G75*
G03*
X459693749Y-21843751I12800J-4D01*
G01*
X451911321Y-100411321D02*
G75*
G02*
X451822617Y-100197230I214079J214121D01*
G01*
X456634985Y-55507563D02*
G75*
G02*
X457446760Y-53547825I2771515J-37D01*
G01*
X42110000Y-21577071D02*
G75*
G03*
X42104992Y-21565008I-17100J-29D01*
G01*
X258500000Y-149231629D02*
G75*
G02*
X258029990Y-150366298I-1604700J29D01*
G01*
X209452418Y-141317838D02*
G75*
G02*
X209499979Y-141432710I-114918J-114862D01*
G01*
X258185000Y-168135000D02*
G75*
G02*
X257559993Y-166626118I1508900J1508900D01*
G01*
X457323577Y-64890277D02*
G75*
G02*
X456635011Y-63227868I1662423J1662377D01*
G01*
X459697500Y-21852803D02*
G75*
G03*
X459693751Y-21843749I-12800J3D01*
G01*
X257560001Y-151500987D02*
G75*
G02*
X258030002Y-150366310I1604699J-13D01*
G01*
%TO.N,+3.3V*%
X458250000Y-29250000D02*
X458000000Y-29000000D01*
X397561000Y-39694000D02*
X397561000Y-41188759D01*
X388500000Y-73000000D02*
X388119500Y-72619500D01*
X388500000Y-76000000D02*
X387500000Y-77000000D01*
X401700000Y-33394852D02*
X401700000Y-34925000D01*
X389038108Y-43000000D02*
X395749759Y-43000000D01*
X457828750Y-51608750D02*
X457157500Y-52280000D01*
X386500000Y-79414213D02*
X386500000Y-131500000D01*
X387739000Y-71700891D02*
X387739000Y-44299108D01*
X401820000Y-33190000D02*
X399148454Y-35861545D01*
X458500000Y-29853553D02*
X458500000Y-49988209D01*
X401820000Y-33190000D02*
X401760000Y-33250000D01*
X458250000Y-29250000D02*
G75*
G02*
X458500019Y-29853553I-603600J-603600D01*
G01*
X397561000Y-39694000D02*
G75*
G02*
X399148456Y-35861547I5419900J0D01*
G01*
X401700000Y-33394852D02*
G75*
G02*
X401759985Y-33249985I204800J52D01*
G01*
X397561000Y-41188759D02*
G75*
G02*
X397030512Y-42469512I-1811200J-41D01*
G01*
X457828750Y-51608750D02*
G75*
G03*
X458500004Y-49988209I-1620550J1620550D01*
G01*
X388119500Y-43380500D02*
G75*
G03*
X387739003Y-44299108I918600J-918600D01*
G01*
X389038108Y-43000000D02*
G75*
G03*
X388119498Y-43380498I-8J-1299100D01*
G01*
X388119500Y-72619500D02*
G75*
G02*
X387739003Y-71700891I918600J918600D01*
G01*
X386500000Y-79414213D02*
G75*
G02*
X387499996Y-76999996I3414200J13D01*
G01*
X395749759Y-43000000D02*
G75*
G03*
X397030512Y-42469512I41J1811200D01*
G01*
%TO.N,/ROW3*%
X420656207Y-66307521D02*
X418680292Y-64331606D01*
X417086500Y-37864707D02*
X417086500Y-60483850D01*
X422250000Y-83000000D02*
X422250000Y-70155277D01*
X427100000Y-96660000D02*
X427100000Y-97720000D01*
X426350466Y-94850466D02*
X424843792Y-93343792D01*
X418072000Y-35485500D02*
X419057500Y-34500000D01*
X423250000Y-89496036D02*
X423250000Y-84000000D01*
X418680292Y-64331606D02*
G75*
G02*
X417086479Y-60483850I3847808J3847806D01*
G01*
X426350466Y-94850466D02*
G75*
G02*
X427099990Y-96660000I-1809566J-1809534D01*
G01*
X417086500Y-37864707D02*
G75*
G02*
X418071998Y-35485498I3364700J7D01*
G01*
X420656207Y-66307521D02*
G75*
G02*
X422250001Y-70155277I-3847807J-3847779D01*
G01*
X423250000Y-89496036D02*
G75*
G03*
X424843800Y-93343784I5441600J36D01*
G01*
%TO.N,/COL1*%
X254334262Y-90021944D02*
X251837055Y-92519152D01*
X457157500Y-22953869D02*
X457157500Y-34110737D01*
X258182018Y-88428152D02*
X258392645Y-88428152D01*
X80366232Y-71063118D02*
X80366232Y-64950098D01*
X454500000Y-82000000D02*
X453905084Y-81405084D01*
X122758299Y-156241701D02*
X122500000Y-156500000D01*
X454250000Y-85250000D02*
X454250000Y-92448157D01*
X79000000Y-61651723D02*
X79000000Y-22676776D01*
X242090000Y-111560000D02*
X242090000Y-114206036D01*
X61173415Y-92509899D02*
X61173415Y-94993536D01*
X451814731Y-137268959D02*
X451814731Y-122148760D01*
X456607000Y-35050500D02*
X456882250Y-34775250D01*
X281566250Y-167693750D02*
X282632500Y-168760000D01*
X43500000Y-116135124D02*
X43500000Y-156000000D01*
X228320000Y-130230000D02*
X240496207Y-118053792D01*
X394500000Y-138750000D02*
X394588479Y-138838479D01*
X79250000Y-22250000D02*
X79125000Y-22375000D01*
X44832984Y-112917015D02*
X45928764Y-111821235D01*
X289952838Y-22580510D02*
X289952838Y-64021771D01*
X451750000Y-138750000D02*
X451750000Y-137425233D01*
X251837055Y-99558981D02*
X251837055Y-92519152D01*
X228750000Y-132128111D02*
X228750000Y-159500000D01*
X457000000Y-22573630D02*
X457000000Y-22160000D01*
X453281642Y-94785980D02*
X453281642Y-118607324D01*
X123016598Y-155618112D02*
X123016598Y-149719363D01*
X290000000Y-22466651D02*
X290000000Y-22160000D01*
X394676959Y-139052087D02*
X394676959Y-149683978D01*
X289952838Y-64021771D02*
X287306953Y-64021771D01*
X64000000Y-157000000D02*
X67000000Y-157000000D01*
X280500000Y-165119594D02*
X280500000Y-160250000D01*
X283459197Y-65615563D02*
X262240401Y-86834359D01*
X61173415Y-92509899D02*
X78772439Y-74910874D01*
X242090000Y-111560000D02*
X250243262Y-103406737D01*
X453310169Y-66423202D02*
X453310169Y-79968831D01*
X59579622Y-98841292D02*
X47074088Y-111346826D01*
X456056500Y-60058850D02*
X456056500Y-36379524D01*
X453281642Y-94785980D02*
G75*
G02*
X453765837Y-93617085I1653058J-20D01*
G01*
X79683116Y-63300911D02*
G75*
G02*
X80366225Y-64950098I-1649216J-1649189D01*
G01*
X457157500Y-22953869D02*
G75*
G03*
X457078741Y-22763759I-268900J-31D01*
G01*
X394676959Y-139052087D02*
G75*
G03*
X394588467Y-138838491I-302059J-13D01*
G01*
X46501426Y-111584031D02*
G75*
G03*
X45928751Y-111821222I-26J-809869D01*
G01*
X452548186Y-120378042D02*
G75*
G03*
X453281668Y-118607324I-1770686J1770742D01*
G01*
X44832984Y-112917015D02*
G75*
G03*
X43500019Y-116135124I3218116J-3218085D01*
G01*
X122758299Y-156241701D02*
G75*
G03*
X123016604Y-155618112I-623599J623601D01*
G01*
X79683116Y-63300911D02*
G75*
G02*
X78999983Y-61651723I1649184J1649211D01*
G01*
X290000000Y-22466651D02*
G75*
G02*
X289976391Y-22523553I-80500J51D01*
G01*
X457157500Y-34110737D02*
G75*
G02*
X456882239Y-34775239I-939800J37D01*
G01*
X251837055Y-99558981D02*
G75*
G02*
X250243273Y-103406748I-5441555J-19D01*
G01*
X79000000Y-22676776D02*
G75*
G02*
X79125007Y-22375007I426800J-24D01*
G01*
X452548186Y-120378042D02*
G75*
G03*
X451814701Y-122148760I1770714J-1770758D01*
G01*
X80366232Y-71063118D02*
G75*
G02*
X78772427Y-74910862I-5441532J18D01*
G01*
X454250000Y-92448157D02*
G75*
G02*
X453765844Y-93617092I-1653100J-43D01*
G01*
X46501426Y-111584031D02*
G75*
G03*
X47074068Y-111346806I-26J809831D01*
G01*
X457000000Y-22573630D02*
G75*
G03*
X457078759Y-22763741I268900J30D01*
G01*
X451782365Y-137347096D02*
G75*
G03*
X451814693Y-137268959I-78165J78096D01*
G01*
X456607000Y-35050500D02*
G75*
G03*
X456056510Y-36379524I1329000J-1329000D01*
G01*
X453310169Y-66423202D02*
G75*
G02*
X454495358Y-63561925I4046431J2D01*
G01*
X289952838Y-22580510D02*
G75*
G02*
X289976424Y-22523586I80462J10D01*
G01*
X281566250Y-167693750D02*
G75*
G02*
X280500002Y-165119594I2574150J2574150D01*
G01*
X451782365Y-137347096D02*
G75*
G03*
X451750022Y-137425233I78135J-78104D01*
G01*
X228320000Y-130230000D02*
G75*
G03*
X228320000Y-131090000I430000J-430000D01*
G01*
X242090000Y-114206036D02*
G75*
G02*
X240496200Y-118053785I-5441600J36D01*
G01*
X59579622Y-98841292D02*
G75*
G03*
X61173450Y-94993536I-3847722J3847792D01*
G01*
X454683334Y-63373965D02*
G75*
G03*
X456056529Y-60058850I-3315134J3315165D01*
G01*
X283459197Y-65615563D02*
G75*
G02*
X287306953Y-64021731I3847803J-3847737D01*
G01*
X254334262Y-90021944D02*
G75*
G02*
X258182018Y-88428164I3847738J-3847756D01*
G01*
X453310169Y-79968831D02*
G75*
G03*
X453905107Y-81405061I2031131J31D01*
G01*
X228320000Y-131090000D02*
G75*
G02*
X228749995Y-132128111I-1038100J-1038100D01*
G01*
X258392645Y-88428152D02*
G75*
G03*
X262240379Y-86834337I-45J5441552D01*
G01*
%TO.N,/ROW1*%
X430318500Y-64469680D02*
X430318500Y-40394963D01*
X428724707Y-36547207D02*
X426677500Y-34500000D01*
X429171702Y-67238297D02*
X427100000Y-69310000D01*
X430318500Y-64469680D02*
G75*
G02*
X429171708Y-67238303I-3915400J-20D01*
G01*
X428724707Y-36547207D02*
G75*
G02*
X430318511Y-40394963I-3847807J-3847793D01*
G01*
%TO.N,/COL9*%
X250630291Y-62802331D02*
X251860582Y-64032622D01*
X275250000Y-175750000D02*
X274750000Y-175250000D01*
X432500000Y-37000000D02*
X432128750Y-36628750D01*
X187864000Y-167914280D02*
X187864000Y-149360675D01*
X187000000Y-131603553D02*
X187000000Y-138500000D01*
X213709015Y-92519507D02*
X213709015Y-99529521D01*
X85250000Y-143573223D02*
X85250000Y-138250000D01*
X243503553Y-65626414D02*
X221727277Y-87402690D01*
X187500000Y-130750000D02*
X187250000Y-131000000D01*
X235010000Y-176232928D02*
X235010000Y-168760000D01*
X235005000Y-176245000D02*
X235000000Y-176250000D01*
X431500000Y-26250000D02*
X431628750Y-26378750D01*
X213709015Y-92519507D02*
X216774198Y-89454323D01*
X202338707Y-118053792D02*
X189732500Y-130660000D01*
X188500000Y-169000000D02*
X188182000Y-168682000D01*
X189732500Y-130660000D02*
X189732500Y-144849716D01*
X249400000Y-59832145D02*
X249400000Y-30489251D01*
X203932500Y-114206036D02*
X203932500Y-111560000D01*
X431757500Y-35732473D02*
X431757500Y-34500000D01*
X431757500Y-34500000D02*
X431757500Y-26689579D01*
X251805291Y-26155291D02*
X251750000Y-26100000D01*
X274250000Y-151500000D02*
X274250000Y-174042893D01*
X203932500Y-111560000D02*
X212115222Y-103377277D01*
X85000000Y-144000000D02*
X85125000Y-143875000D01*
X251860582Y-26288775D02*
X250630291Y-27519066D01*
X247351309Y-64032622D02*
X251860582Y-64032622D01*
X431757500Y-26689579D02*
G75*
G03*
X431628744Y-26378756I-439600J-21D01*
G01*
X213709015Y-99529521D02*
G75*
G02*
X212115205Y-103377260I-5441515J21D01*
G01*
X251805291Y-26155291D02*
G75*
G02*
X251860598Y-26288775I-133491J-133509D01*
G01*
X219250738Y-88428507D02*
G75*
G03*
X216774172Y-89454297I-38J-3502393D01*
G01*
X431757500Y-35732473D02*
G75*
G03*
X432128742Y-36628758I1267500J-27D01*
G01*
X219250738Y-88428507D02*
G75*
G03*
X221727269Y-87402682I-38J3502407D01*
G01*
X187864000Y-167914280D02*
G75*
G03*
X188181994Y-168682006I1085700J-20D01*
G01*
X203932500Y-114206036D02*
G75*
G02*
X202338700Y-118053785I-5441600J36D01*
G01*
X188798250Y-147105196D02*
G75*
G03*
X187863974Y-149360675I2255450J-2255504D01*
G01*
X274750000Y-175250000D02*
G75*
G02*
X274250003Y-174042893I1207100J1207100D01*
G01*
X188798250Y-147105196D02*
G75*
G03*
X189732521Y-144849716I-2255450J2255496D01*
G01*
X235010000Y-176232928D02*
G75*
G02*
X235004992Y-176244992I-17100J28D01*
G01*
X187250000Y-131000000D02*
G75*
G03*
X187000022Y-131603553I603500J-603500D01*
G01*
X249400000Y-59832145D02*
G75*
G03*
X250630309Y-62802313I4200500J45D01*
G01*
X250630291Y-27519066D02*
G75*
G03*
X249400043Y-30489251I2970209J-2970134D01*
G01*
X243503553Y-65626414D02*
G75*
G02*
X247351309Y-64032636I3847747J-3847786D01*
G01*
X85250000Y-143573223D02*
G75*
G02*
X85124993Y-143874993I-426800J23D01*
G01*
%TO.N,/ROW0*%
X266906207Y-67503792D02*
X265100000Y-69310000D01*
X429233750Y-26616250D02*
X429250000Y-26600000D01*
X268500000Y-26600000D02*
X268500000Y-63656036D01*
X429217500Y-26655480D02*
X429217500Y-34500000D01*
X429217500Y-26655480D02*
G75*
G02*
X429233756Y-26616256I55500J-20D01*
G01*
X266906207Y-67503792D02*
G75*
G03*
X268500010Y-63656036I-3847807J3847792D01*
G01*
%TO.N,/COL3*%
X431876315Y-149710905D02*
X432760198Y-149710905D01*
X332829249Y-64017158D02*
X331156045Y-64017158D01*
X280190000Y-111560000D02*
X280190000Y-113088042D01*
X161110000Y-139687781D02*
X161110000Y-149760000D01*
X452000000Y-25445199D02*
X452000000Y-23100000D01*
X297068979Y-93152978D02*
X280730244Y-109491713D01*
X75416250Y-138416250D02*
X75500000Y-138500000D01*
X430367432Y-150335904D02*
X429596715Y-151106620D01*
X332829249Y-64017158D02*
X332829249Y-24791490D01*
X428201000Y-154476177D02*
X428201000Y-183199764D01*
X89790000Y-111560000D02*
X89790000Y-113948536D01*
X118502082Y-71060583D02*
X118502082Y-63975570D01*
X75332500Y-130660000D02*
X88196207Y-117796292D01*
X116908289Y-74908339D02*
X99306730Y-92509899D01*
X427600500Y-184649500D02*
X427000000Y-185250000D01*
X280190000Y-114206036D02*
X280190000Y-113088042D01*
X118502082Y-24503554D02*
X118502082Y-63975570D01*
X278596207Y-118053792D02*
X265990000Y-130660000D01*
X265990000Y-130660000D02*
X265990000Y-137379375D01*
X299839314Y-92527979D02*
X299084176Y-92527979D01*
X332750000Y-140250000D02*
X332750000Y-168557740D01*
X452077500Y-25632300D02*
X452077500Y-34500000D01*
X328299708Y-65200291D02*
X301505984Y-91994015D01*
X75332500Y-130660000D02*
X75332500Y-138214059D01*
X97712937Y-103637062D02*
X89790000Y-111560000D01*
X298577862Y-92527979D02*
X299084176Y-92527979D01*
X161055000Y-139555000D02*
X161000000Y-139500000D01*
X118500000Y-24500000D02*
X118501041Y-24501041D01*
X99306730Y-99789306D02*
X99306730Y-92509899D01*
X332689658Y-185189658D02*
X332750000Y-185250000D01*
X280190000Y-111560000D02*
X280190000Y-110795979D01*
X333000000Y-24379260D02*
X333000000Y-23100000D01*
X299839314Y-92527979D02*
X300216883Y-92527979D01*
X332629316Y-185043979D02*
X332629316Y-168849097D01*
X266245000Y-137995000D02*
X266500000Y-138250000D01*
X280190000Y-114206036D02*
G75*
G02*
X278596200Y-118053785I-5441600J36D01*
G01*
X332914624Y-24585375D02*
G75*
G03*
X332999969Y-24379260I-206124J206075D01*
G01*
X75416250Y-138416250D02*
G75*
G02*
X75332517Y-138214059I202150J202150D01*
G01*
X161110000Y-139687781D02*
G75*
G03*
X161054995Y-139555005I-187800J-19D01*
G01*
X280190000Y-110795979D02*
G75*
G02*
X280730257Y-109491726I1844500J-21D01*
G01*
X430367432Y-150335904D02*
G75*
G02*
X431876315Y-149710919I1508868J-1508896D01*
G01*
X332914624Y-24585375D02*
G75*
G03*
X332829230Y-24791490I206076J-206125D01*
G01*
X428201000Y-154476177D02*
G75*
G02*
X429596722Y-151106627I4765300J-23D01*
G01*
X301505984Y-91994015D02*
G75*
G02*
X300216883Y-92527962I-1289084J1289115D01*
G01*
X265990000Y-137379375D02*
G75*
G03*
X266244993Y-137995007I870600J-25D01*
G01*
X118502082Y-71060583D02*
G75*
G02*
X116908305Y-74908355I-5441582J-17D01*
G01*
X328299708Y-65200291D02*
G75*
G02*
X331156045Y-64017181I2856292J-2856309D01*
G01*
X332689658Y-168703419D02*
G75*
G03*
X332750035Y-168557740I-145658J145719D01*
G01*
X452000000Y-25445199D02*
G75*
G03*
X452038750Y-25538750I132300J-1D01*
G01*
X99306730Y-99789306D02*
G75*
G02*
X97712930Y-103637055I-5441530J6D01*
G01*
X298577862Y-92527979D02*
G75*
G03*
X297068990Y-93152989I38J-2133921D01*
G01*
X332689658Y-185189658D02*
G75*
G02*
X332629320Y-185043979I145642J145658D01*
G01*
X89790000Y-113948536D02*
G75*
G02*
X88196200Y-117796285I-5441600J36D01*
G01*
X452077500Y-25632300D02*
G75*
G03*
X452038750Y-25538750I-132300J0D01*
G01*
X332689658Y-168703419D02*
G75*
G03*
X332629304Y-168849097I145642J-145681D01*
G01*
X118502082Y-24503554D02*
G75*
G03*
X118501024Y-24501058I-3582J-46D01*
G01*
X427600500Y-184649500D02*
G75*
G03*
X428200985Y-183199764I-1449700J1449700D01*
G01*
%TO.N,/COL6*%
X74594963Y-164749000D02*
X80834000Y-164749000D01*
X70747207Y-166342792D02*
X68250000Y-168840000D01*
X157280979Y-89542860D02*
X181994359Y-64829480D01*
X351750000Y-124250000D02*
X351796413Y-124203586D01*
X412750000Y-125250000D02*
X412750000Y-126305267D01*
X100604066Y-147232897D02*
X84681756Y-163155207D01*
X441958750Y-24791250D02*
X442000000Y-24750000D01*
X370883584Y-92533693D02*
X370883584Y-95015979D01*
X154909386Y-103483113D02*
X146832500Y-111560000D01*
X413732500Y-130660000D02*
X413732500Y-145258331D01*
X68375000Y-175875000D02*
X68500000Y-176000000D01*
X409101000Y-154397758D02*
X409101000Y-161541154D01*
X183992625Y-64001772D02*
X184577903Y-64001772D01*
X407507207Y-165388910D02*
X404177041Y-168719077D01*
X132138146Y-134015679D02*
X122108513Y-144045312D01*
X156503179Y-91420637D02*
X156503179Y-91970625D01*
X132490000Y-130660000D02*
X145238707Y-117911292D01*
X370514800Y-95906302D02*
X359960787Y-106460315D01*
X185206591Y-24643409D02*
X185250000Y-24600000D01*
X351842827Y-111637603D02*
X354940745Y-108539684D01*
X104451822Y-145639105D02*
X118260757Y-145639105D01*
X156503179Y-99635357D02*
X156503179Y-93070602D01*
X351842827Y-111637603D02*
X351842827Y-124091534D01*
X218934429Y-150335222D02*
X218309430Y-149710223D01*
X392750000Y-24600000D02*
X392750000Y-42400000D01*
X394749361Y-66413952D02*
X394749361Y-65420505D01*
X441917500Y-24890836D02*
X441917500Y-34500000D01*
X185163182Y-24748207D02*
X185163182Y-63416493D01*
X146832500Y-114063536D02*
X146832500Y-111560000D01*
X393155568Y-70261708D02*
X370883584Y-92533693D01*
X219559429Y-175044994D02*
X219559429Y-151844104D01*
X413732500Y-130660000D02*
X413732500Y-128677232D01*
X68250000Y-168840000D02*
X68250000Y-175573223D01*
X156503179Y-91970625D02*
X156503179Y-93070602D01*
X392750000Y-60593621D02*
X392750000Y-43750000D01*
X412138706Y-149106087D02*
X410694792Y-150550002D01*
X219279714Y-175720285D02*
X219000000Y-176000000D01*
X132490000Y-133166229D02*
X132490000Y-130660000D01*
X185206591Y-24643409D02*
G75*
G03*
X185163190Y-24748207I104809J-104791D01*
G01*
X68375000Y-175875000D02*
G75*
G02*
X68249990Y-175573223I301800J301800D01*
G01*
X219279714Y-175720285D02*
G75*
G03*
X219559418Y-175044994I-675314J675285D01*
G01*
X412750000Y-126305267D02*
G75*
G03*
X413241241Y-127491259I1677200J-33D01*
G01*
X70747207Y-166342792D02*
G75*
G02*
X74594963Y-164748959I3847793J-3847708D01*
G01*
X156503179Y-99635357D02*
G75*
G02*
X154909414Y-103483141I-5441579J-43D01*
G01*
X359960787Y-106460315D02*
G75*
G02*
X357450766Y-107499977I-2509987J2510015D01*
G01*
X122108513Y-144045312D02*
G75*
G02*
X118260757Y-145639058I-3847713J3847812D01*
G01*
X409101000Y-161541154D02*
G75*
G02*
X407507191Y-165388894I-5441600J54D01*
G01*
X156503179Y-91420637D02*
G75*
G02*
X157280973Y-89542854I2655521J37D01*
G01*
X100604066Y-147232897D02*
G75*
G02*
X104451822Y-145639134I3847734J-3847803D01*
G01*
X185163182Y-63416493D02*
G75*
G02*
X184577903Y-64001782I-585282J-7D01*
G01*
X394749361Y-65420505D02*
G75*
G03*
X393749691Y-63007052I-3413161J5D01*
G01*
X394749361Y-66413952D02*
G75*
G02*
X393155545Y-70261685I-5441561J52D01*
G01*
X370514800Y-95906302D02*
G75*
G03*
X370883576Y-95015979I-890300J890302D01*
G01*
X354940745Y-108539684D02*
G75*
G02*
X357450766Y-107499974I2510055J-2510016D01*
G01*
X413241250Y-127491250D02*
G75*
G02*
X413732487Y-128677232I-1185950J-1185950D01*
G01*
X441958750Y-24791250D02*
G75*
G03*
X441917515Y-24890836I99550J-99550D01*
G01*
X392750000Y-60593621D02*
G75*
G03*
X393749695Y-63007048I3413100J21D01*
G01*
X410694792Y-150550002D02*
G75*
G03*
X409100956Y-154397758I3847708J-3847798D01*
G01*
X146832500Y-114063536D02*
G75*
G02*
X145238700Y-117911285I-5441600J36D01*
G01*
X412138706Y-149106087D02*
G75*
G03*
X413732506Y-145258331I-3847806J3847787D01*
G01*
X132490000Y-133166229D02*
G75*
G02*
X132138131Y-134015664I-1201300J29D01*
G01*
X84681756Y-163155207D02*
G75*
G02*
X80834000Y-164748985I-3847756J3847807D01*
G01*
X183992625Y-64001772D02*
G75*
G03*
X181994357Y-64829478I-25J-2825928D01*
G01*
X218934429Y-150335222D02*
G75*
G02*
X219559412Y-151844104I-1508929J-1508878D01*
G01*
X351796413Y-124203586D02*
G75*
G03*
X351842862Y-124091534I-112013J112086D01*
G01*
%TO.N,/COL7*%
X439377500Y-25459120D02*
X439377500Y-34500000D01*
X413758740Y-64004870D02*
X413758740Y-25114920D01*
X433551218Y-133485020D02*
X433517725Y-133451527D01*
X413750000Y-25100000D02*
X413754370Y-25104370D01*
X432763438Y-153805922D02*
X432763438Y-168719077D01*
X371225629Y-123906699D02*
X371079732Y-123760802D01*
X175550628Y-99687908D02*
X175550628Y-92516953D01*
X413758740Y-64004870D02*
X413758740Y-71194377D01*
X204240291Y-25109708D02*
X204250000Y-25100000D01*
X164338707Y-117809032D02*
X151550913Y-130596827D01*
X237200000Y-165300000D02*
X237000000Y-165500000D01*
X394684630Y-92522451D02*
X412164947Y-75042133D01*
X237400000Y-164817157D02*
X237400000Y-149700000D01*
X165932500Y-113961276D02*
X165932500Y-111560000D01*
X196443037Y-71624543D02*
X175550628Y-92516953D01*
X393750000Y-110000000D02*
X393750000Y-109808370D01*
X434311198Y-150069299D02*
X434311198Y-135319774D01*
X150227043Y-130596827D02*
X151550913Y-130596827D01*
X98394963Y-164749000D02*
X99852454Y-164749000D01*
X202302543Y-69197456D02*
X203630111Y-67869888D01*
X157961250Y-164038750D02*
X157911985Y-164088015D01*
X371250000Y-124000000D02*
X371250000Y-123965535D01*
X432791238Y-130156520D02*
X432791238Y-131183928D01*
X204230583Y-64025221D02*
X204230583Y-25133146D01*
X370909465Y-123349740D02*
X370909465Y-111606026D01*
X432500000Y-124000000D02*
X432645619Y-124145619D01*
X432791238Y-131183928D02*
X432791238Y-131697632D01*
X204230583Y-64025221D02*
X204230583Y-66420220D01*
X173956835Y-103535664D02*
X165932500Y-111560000D01*
X147967055Y-131532944D02*
X135465429Y-144034570D01*
X103700210Y-163155207D02*
X119633262Y-147222155D01*
X158080186Y-163989485D02*
X159510515Y-163989485D01*
X393885502Y-109481237D02*
X394217314Y-109149424D01*
X439500000Y-25250000D02*
X439438750Y-25311250D01*
X432791238Y-124497174D02*
X432791238Y-130156520D01*
X94547207Y-166342792D02*
X92050000Y-168840000D01*
X394684630Y-92522451D02*
X394684630Y-108021226D01*
X123481018Y-145628363D02*
X131617673Y-145628363D01*
X432791238Y-124497174D02*
G75*
G03*
X432645599Y-124145639I-497138J-26D01*
G01*
X135465429Y-144034570D02*
G75*
G02*
X131617673Y-145628340I-3847729J3847770D01*
G01*
X204240291Y-25109708D02*
G75*
G03*
X204230607Y-25133146I23409J-23392D01*
G01*
X371225629Y-123906699D02*
G75*
G02*
X371249977Y-123965535I-58829J-58801D01*
G01*
X147967055Y-131532944D02*
G75*
G02*
X150227043Y-130596847I2259945J-2259956D01*
G01*
X412164947Y-75042133D02*
G75*
G03*
X413758726Y-71194377I-3847747J3847733D01*
G01*
X370909465Y-123349740D02*
G75*
G03*
X371079751Y-123760783I581335J40D01*
G01*
X393885502Y-109481237D02*
G75*
G03*
X393749968Y-109808370I327098J-327163D01*
G01*
X196443037Y-71624543D02*
G75*
G02*
X199372790Y-70410994I2929763J-2929757D01*
G01*
X433537318Y-151937611D02*
G75*
G03*
X432763445Y-153805922I1868282J-1868289D01*
G01*
X98394963Y-164749000D02*
G75*
G03*
X94547236Y-166342821I37J-5441500D01*
G01*
X99852454Y-164749000D02*
G75*
G03*
X103700194Y-163155191I-54J5441600D01*
G01*
X237400000Y-164817157D02*
G75*
G02*
X237200033Y-165300033I-682900J-43D01*
G01*
X439438750Y-25311250D02*
G75*
G03*
X439377509Y-25459120I147850J-147850D01*
G01*
X175550628Y-99687908D02*
G75*
G02*
X173956827Y-103535656I-5441528J8D01*
G01*
X434311198Y-150069299D02*
G75*
G02*
X433537320Y-151937613I-2642198J-1D01*
G01*
X413758740Y-25114920D02*
G75*
G03*
X413754384Y-25104356I-14940J20D01*
G01*
X157961250Y-164038750D02*
G75*
G02*
X158080186Y-163989479I118950J-118950D01*
G01*
X123481018Y-145628363D02*
G75*
G03*
X119633256Y-147222149I-18J-5441537D01*
G01*
X394217314Y-109149424D02*
G75*
G03*
X394684643Y-108021226I-1128214J1128224D01*
G01*
X165932500Y-113961276D02*
G75*
G02*
X164338730Y-117809055I-5441600J-24D01*
G01*
X204230583Y-66420220D02*
G75*
G02*
X203630110Y-67869887I-2050183J20D01*
G01*
X433517725Y-133451527D02*
G75*
G02*
X432791209Y-131697632I1753875J1753927D01*
G01*
X433551218Y-133485020D02*
G75*
G02*
X434311227Y-135319774I-1834718J-1834780D01*
G01*
X199372790Y-70411000D02*
G75*
G03*
X202302549Y-69197462I10J4143300D01*
G01*
%TO.N,/ROW4*%
X440467202Y-68971165D02*
X440467202Y-71463238D01*
X419057500Y-56921381D02*
X419057500Y-52280000D01*
X465200000Y-96269488D02*
X465200000Y-97710000D01*
X448435512Y-80000000D02*
X446500000Y-80000000D01*
X431500000Y-57750000D02*
X438873409Y-65123409D01*
X419250000Y-57386118D02*
X419250000Y-57750000D01*
X219750000Y-103250000D02*
X219750000Y-116750000D01*
X451739637Y-81368613D02*
X464181404Y-93810380D01*
X445500000Y-78750000D02*
X442060994Y-75310994D01*
X465200000Y-96269488D02*
G75*
G03*
X464181397Y-93810387I-3477700J-12D01*
G01*
X419250000Y-57386118D02*
G75*
G03*
X419153755Y-57153745I-328600J18D01*
G01*
X448435512Y-80000000D02*
G75*
G02*
X451739623Y-81368627I-12J-4672700D01*
G01*
X419057500Y-56921381D02*
G75*
G03*
X419153745Y-57153755I328600J-19D01*
G01*
X442060994Y-75310994D02*
G75*
G02*
X440467189Y-71463238I3847806J3847794D01*
G01*
X438873409Y-65123409D02*
G75*
G02*
X440467211Y-68971165I-3847809J-3847791D01*
G01*
%TO.N,/COL5*%
X199384955Y-149825267D02*
X199269911Y-149710223D01*
X332796374Y-111037568D02*
X332796374Y-112237637D01*
X394679492Y-127483188D02*
X394679492Y-130629059D01*
X127832500Y-111560000D02*
X127832500Y-113963536D01*
X137440045Y-92509899D02*
X137440045Y-92284927D01*
X137599124Y-91900875D02*
X165296282Y-64203717D01*
X370979706Y-24120293D02*
X371000000Y-24100000D01*
X44686646Y-176771118D02*
X44885662Y-176970134D01*
X444457500Y-24203572D02*
X444457500Y-34500000D01*
X394464746Y-126964746D02*
X394250000Y-126750000D01*
X44957764Y-177000000D02*
X45000000Y-177000000D01*
X350671487Y-92533693D02*
X351257157Y-92533693D01*
X137440045Y-92959843D02*
X137440045Y-99698491D01*
X372290637Y-156021739D02*
X394395155Y-133917221D01*
X333644950Y-108388889D02*
X348671884Y-93361955D01*
X166098687Y-63697719D02*
X166098687Y-24268469D01*
X332750000Y-124250000D02*
X332773187Y-124226813D01*
X370959413Y-71163143D02*
X370959413Y-64015156D01*
X444398000Y-24102000D02*
X444427750Y-24131750D01*
X332796374Y-124170834D02*
X332796374Y-112237637D01*
X332796374Y-111037568D02*
X332796374Y-110437534D01*
X370959413Y-24169286D02*
X370959413Y-64015156D01*
X166049343Y-24149343D02*
X166000000Y-24100000D01*
X369365620Y-75010899D02*
X352256958Y-92119561D01*
X127832500Y-111560000D02*
X135846252Y-103546247D01*
X113390000Y-130660000D02*
X126238707Y-117811292D01*
X44457764Y-168864810D02*
X44457764Y-176218547D01*
X137440045Y-92509899D02*
X137440045Y-92959843D01*
X370696845Y-159869495D02*
X370696845Y-168765288D01*
X394679492Y-130629059D02*
X394679492Y-133230770D01*
X199500000Y-150103009D02*
X199500000Y-179000000D01*
X165802280Y-63994126D02*
G75*
G03*
X165296295Y-64203730I20J-715574D01*
G01*
X166049343Y-24149343D02*
G75*
G02*
X166098704Y-24268469I-119143J-119157D01*
G01*
X394464746Y-126964746D02*
G75*
G02*
X394679499Y-127483188I-518446J-518454D01*
G01*
X332796374Y-124170834D02*
G75*
G02*
X332773171Y-124226797I-79174J34D01*
G01*
X444457500Y-24203572D02*
G75*
G03*
X444427742Y-24131758I-101600J-28D01*
G01*
X370979706Y-24120293D02*
G75*
G03*
X370959403Y-24169286I48994J-49007D01*
G01*
X199500000Y-150103009D02*
G75*
G03*
X199384963Y-149825259I-392800J9D01*
G01*
X137599124Y-91900875D02*
G75*
G03*
X137440071Y-92284927I384076J-384025D01*
G01*
X333644950Y-108388889D02*
G75*
G03*
X332796399Y-110437534I2048650J-2048611D01*
G01*
X350671487Y-92533693D02*
G75*
G03*
X348671882Y-93361953I13J-2827907D01*
G01*
X394395155Y-133917221D02*
G75*
G03*
X394679470Y-133230770I-686455J686421D01*
G01*
X44686646Y-176771118D02*
G75*
G02*
X44457725Y-176218547I552554J552618D01*
G01*
X370696845Y-159869495D02*
G75*
G02*
X372290639Y-156021741I5441555J-5D01*
G01*
X370959413Y-71163143D02*
G75*
G02*
X369365591Y-75010870I-5441513J43D01*
G01*
X135846252Y-103546247D02*
G75*
G03*
X137440040Y-99698491I-3847752J3847747D01*
G01*
X352256958Y-92119561D02*
G75*
G02*
X351257157Y-92533673I-999758J999761D01*
G01*
X44957764Y-177000000D02*
G75*
G02*
X44885673Y-176970123I36J102000D01*
G01*
X127832500Y-113963536D02*
G75*
G02*
X126238700Y-117811285I-5441600J36D01*
G01*
X165802280Y-63994126D02*
G75*
G03*
X166098726Y-63697719I20J296426D01*
G01*
%TO.N,/ROW5*%
X428462511Y-76962511D02*
X425468532Y-73968532D01*
X427749500Y-115960500D02*
X427100000Y-116610000D01*
X423874740Y-56167491D02*
X423874740Y-70120776D01*
X428974923Y-78883967D02*
X428974923Y-93724923D01*
X428399000Y-114392468D02*
X428399000Y-99299231D01*
X428750000Y-78500000D02*
X428862461Y-78612461D01*
X422736120Y-53418620D02*
X421597500Y-52280000D01*
X429000000Y-95500000D02*
X429000000Y-97848288D01*
X428399000Y-114392468D02*
G75*
G02*
X427749509Y-115960509I-2217500J-32D01*
G01*
X428699500Y-98573760D02*
G75*
G03*
X428999984Y-97848288I-725500J725460D01*
G01*
X423874740Y-56167491D02*
G75*
G03*
X422736126Y-53418614I-3887540J-9D01*
G01*
X428974923Y-78883967D02*
G75*
G03*
X428862436Y-78612486I-383923J-33D01*
G01*
X425468532Y-73968532D02*
G75*
G02*
X423874760Y-70120776I3847768J3847732D01*
G01*
X428699500Y-98573760D02*
G75*
G03*
X428399030Y-99299231I725500J-725440D01*
G01*
%TO.N,/ROW6*%
X427250000Y-59250000D02*
X426963750Y-58963750D01*
X205000000Y-122250000D02*
X205000000Y-132295786D01*
X442483806Y-81983806D02*
X435855994Y-75355994D01*
X434354202Y-63375709D02*
X434354202Y-64582162D01*
X434262202Y-71508238D02*
X434262202Y-64804269D01*
X444411441Y-116421441D02*
X445500000Y-117510000D01*
X204000000Y-134710000D02*
X203000000Y-135710000D01*
X432250000Y-60000000D02*
X433455110Y-61205110D01*
X426677500Y-58272681D02*
X426677500Y-52280000D01*
X442500000Y-84250000D02*
X442911441Y-84661441D01*
X443322883Y-85654749D02*
X443322883Y-113793428D01*
X434308202Y-64693216D02*
G75*
G03*
X434354161Y-64582162I-111102J111016D01*
G01*
X433455110Y-61205110D02*
G75*
G02*
X434354192Y-63375709I-2170610J-2170590D01*
G01*
X434262202Y-71508238D02*
G75*
G03*
X435856003Y-75355985I5441598J38D01*
G01*
X443322883Y-85654749D02*
G75*
G03*
X442911423Y-84661459I-1404783J-51D01*
G01*
X434308202Y-64693216D02*
G75*
G03*
X434262194Y-64804269I111098J-111084D01*
G01*
X426677500Y-58272681D02*
G75*
G03*
X426963745Y-58963755I977300J-19D01*
G01*
X444411441Y-116421441D02*
G75*
G02*
X443322876Y-113793428I2628059J2628041D01*
G01*
X204000000Y-134710000D02*
G75*
G03*
X204999994Y-132295786I-2414200J2414200D01*
G01*
%TO.N,SDA*%
X391100000Y-56500000D02*
X391050000Y-56550000D01*
X391000000Y-122813712D02*
X391000000Y-73500000D01*
X467500000Y-31000000D02*
X467500000Y-31870953D01*
X391000000Y-71500000D02*
X391000000Y-56670710D01*
X408000000Y-31000000D02*
X408000000Y-44464192D01*
X407310000Y-46130000D02*
X406965000Y-46475000D01*
X391000000Y-132186288D02*
X391000000Y-135000000D01*
X391000000Y-127500000D02*
X391000000Y-132186288D01*
X467317500Y-32311546D02*
X467317500Y-34500000D01*
X406620000Y-55295147D02*
X406620000Y-47307903D01*
X406500000Y-55584852D02*
X406500000Y-56500000D01*
X391000000Y-122813712D02*
X391000000Y-127500000D01*
X406500000Y-55584852D02*
G75*
G02*
X406559985Y-55439985I204800J52D01*
G01*
X406620000Y-55295147D02*
G75*
G02*
X406559986Y-55439986I-204900J47D01*
G01*
X467500000Y-31870953D02*
G75*
G02*
X467408734Y-32091234I-311600J53D01*
G01*
X391050000Y-56550000D02*
G75*
G03*
X391000004Y-56670710I120700J-120700D01*
G01*
X406965000Y-46475000D02*
G75*
G03*
X406620002Y-47307903I832900J-832900D01*
G01*
X407310000Y-46130000D02*
G75*
G03*
X407999997Y-44464192I-1665800J1665800D01*
G01*
X467317500Y-32311546D02*
G75*
G02*
X467408736Y-32091236I311500J46D01*
G01*
%TO.N,SCL*%
X388500000Y-133000000D02*
X389250000Y-132250000D01*
X390000000Y-72000000D02*
X390000000Y-56353553D01*
X465000000Y-30000000D02*
X465000000Y-30842668D01*
X464777500Y-31379831D02*
X464777500Y-34500000D01*
X404080000Y-47824091D02*
X404080000Y-54863431D01*
X390250000Y-55750000D02*
X390500000Y-55500000D01*
X390000000Y-74500000D02*
X390000000Y-130439339D01*
X405500000Y-30500000D02*
X405500000Y-44395908D01*
X404000000Y-55500000D02*
X404000000Y-55056568D01*
X404040000Y-54960000D02*
G75*
G03*
X403999987Y-55056568I96600J-96600D01*
G01*
X390250000Y-55750000D02*
G75*
G03*
X390000022Y-56353553I603500J-603500D01*
G01*
X404040000Y-54960000D02*
G75*
G03*
X404080013Y-54863431I-96600J96600D01*
G01*
X389250000Y-132250000D02*
G75*
G03*
X390000016Y-130439339I-1810700J1810700D01*
G01*
X464888750Y-31111250D02*
G75*
G03*
X464999987Y-30842668I-268550J268550D01*
G01*
X464777500Y-31379831D02*
G75*
G02*
X464888741Y-31111241I379800J31D01*
G01*
X404790000Y-46110000D02*
G75*
G03*
X405500003Y-44395908I-1714100J1714100D01*
G01*
X404080000Y-47824091D02*
G75*
G02*
X404790002Y-46110002I2424100J-9D01*
G01*
%TO.N,+5V*%
X467000000Y-54500000D02*
X467000000Y-52822006D01*
X390880000Y-54380000D02*
X391000000Y-54500000D01*
X390760000Y-54090294D02*
X390760000Y-49500000D01*
X467158750Y-52438750D02*
X467317500Y-52280000D01*
X390880000Y-54380000D02*
G75*
G02*
X390760002Y-54090294I289700J289700D01*
G01*
X467000000Y-52822006D02*
G75*
G02*
X467158748Y-52438748I542000J6D01*
G01*
%TO.N,/COL4*%
X296932500Y-130660000D02*
X296932500Y-138884770D01*
X350309799Y-75014977D02*
X333087243Y-92237533D01*
X446997500Y-25104267D02*
X446997500Y-34500000D01*
X309250000Y-156750000D02*
X309543000Y-156457000D01*
X137526866Y-25126866D02*
X137500000Y-25100000D01*
X108832500Y-111560000D02*
X108832500Y-113963536D01*
X305075000Y-111560000D02*
X304132500Y-111560000D01*
X116779595Y-103612904D02*
X108832500Y-111560000D01*
X137553733Y-63983628D02*
X137553733Y-71075590D01*
X351656005Y-157660459D02*
X351656005Y-168763761D01*
X94390000Y-130660000D02*
X107238707Y-117811292D01*
X310686036Y-111560000D02*
X305075000Y-111560000D01*
X352490194Y-63428554D02*
X353076796Y-62841952D01*
X94500000Y-137500000D02*
X94500000Y-136577781D01*
X351703002Y-157546997D02*
X351750000Y-157500000D01*
X331679261Y-92820738D02*
X314533792Y-109966207D01*
X303661250Y-111560000D02*
X304132500Y-111560000D01*
X302856775Y-111893224D02*
X298526292Y-116223707D01*
X354250000Y-23600000D02*
X354250000Y-60009586D01*
X137553733Y-63983628D02*
X137553733Y-25191727D01*
X447000000Y-25098232D02*
X447000000Y-23600000D01*
X351903592Y-64844736D02*
X351903592Y-71167221D01*
X296932500Y-130660000D02*
X296932500Y-120071463D01*
X297000000Y-139000000D02*
X296966250Y-138966250D01*
X180200000Y-137841421D02*
X180200000Y-149700000D01*
X94390000Y-130660000D02*
X94390000Y-136312218D01*
X309836000Y-155749635D02*
X309836000Y-141427141D01*
X309000000Y-140000000D02*
X309418000Y-140418000D01*
X180000000Y-137500000D02*
X180100000Y-137600000D01*
X118373388Y-92509899D02*
X118373388Y-99765148D01*
X118373388Y-92509899D02*
X135959940Y-74923346D01*
X350309799Y-75014977D02*
G75*
G03*
X351903594Y-71167221I-3847799J3847777D01*
G01*
X351656005Y-157660459D02*
G75*
G02*
X351703015Y-157547010I160495J-41D01*
G01*
X118373388Y-99765148D02*
G75*
G02*
X116779579Y-103612888I-5441588J48D01*
G01*
X446997500Y-25104267D02*
G75*
G02*
X446998759Y-25101259I4300J-33D01*
G01*
X352490194Y-63428554D02*
G75*
G03*
X351903625Y-64844736I1416206J-1416146D01*
G01*
X302856775Y-111893224D02*
G75*
G02*
X303661250Y-111560035I804425J-804476D01*
G01*
X94390000Y-136312218D02*
G75*
G03*
X94445005Y-136444995I187800J18D01*
G01*
X309836000Y-141427141D02*
G75*
G03*
X309418012Y-140417988I-1427100J41D01*
G01*
X314533792Y-109966207D02*
G75*
G02*
X310686036Y-111560010I-3847792J3847807D01*
G01*
X298526292Y-116223707D02*
G75*
G03*
X296932459Y-120071463I3847708J-3847793D01*
G01*
X107238707Y-117811292D02*
G75*
G03*
X108832510Y-113963536I-3847807J3847792D01*
G01*
X296966250Y-138966250D02*
G75*
G02*
X296932512Y-138884770I81450J81450D01*
G01*
X135959940Y-74923346D02*
G75*
G03*
X137553730Y-71075590I-3847740J3847746D01*
G01*
X180200000Y-137841421D02*
G75*
G03*
X180100006Y-137599994I-341400J21D01*
G01*
X94500000Y-136577781D02*
G75*
G03*
X94444995Y-136445005I-187800J-19D01*
G01*
X309836000Y-155749635D02*
G75*
G02*
X309542990Y-156456990I-1000400J35D01*
G01*
X447000000Y-25098232D02*
G75*
G02*
X446998741Y-25101241I-4300J32D01*
G01*
X332383252Y-92529136D02*
G75*
G03*
X333087226Y-92237516I-52J995636D01*
G01*
X331679261Y-92820738D02*
G75*
G02*
X332383252Y-92529164I703939J-703962D01*
G01*
X354250000Y-60009586D02*
G75*
G02*
X353076809Y-62841965I-4005600J-14D01*
G01*
X137526866Y-25126866D02*
G75*
G02*
X137553712Y-25191727I-64866J-64834D01*
G01*
%TO.N,Net-(U1-~{RESET})*%
X401540000Y-37098137D02*
X401540000Y-39200000D01*
X401620000Y-36905000D02*
X401700000Y-36825000D01*
X401540000Y-37098137D02*
G75*
G02*
X401619989Y-36904989I273100J37D01*
G01*
%TO.N,Net-(U1-VDD)*%
X395840000Y-47878406D02*
X395840000Y-49500000D01*
X396150000Y-47130000D02*
X396460000Y-46820000D01*
X395840000Y-47878406D02*
G75*
G02*
X396149998Y-47129998I1058400J6D01*
G01*
%TO.N,Net-(U1-VSS)*%
X397760000Y-48780000D02*
X397760000Y-49500000D01*
X398269116Y-47550883D02*
X399000000Y-46820000D01*
X397760000Y-48780000D02*
G75*
G02*
X398269123Y-47550890I1738200J0D01*
G01*
%TD*%
M02*
