%TF.GenerationSoftware,KiCad,Pcbnew,9.0.6*%
%TF.CreationDate,2026-01-05T13:45:50-06:00*%
%TF.ProjectId,full-keyboard,66756c6c-2d6b-4657-9962-6f6172642e6b,1*%
%TF.SameCoordinates,Original*%
%TF.FileFunction,Copper,L1,Top*%
%TF.FilePolarity,Positive*%
%FSLAX46Y46*%
G04 Gerber Fmt 4.6, Leading zero omitted, Abs format (unit mm)*
G04 Created by KiCad (PCBNEW 9.0.6) date 2026-01-05 13:45:50*
%MOMM*%
%LPD*%
G01*
G04 APERTURE LIST*
G04 Aperture macros list*
%AMRoundRect*
0 Rectangle with rounded corners*
0 $1 Rounding radius*
0 $2 $3 $4 $5 $6 $7 $8 $9 X,Y pos of 4 corners*
0 Add a 4 corners polygon primitive as box body*
4,1,4,$2,$3,$4,$5,$6,$7,$8,$9,$2,$3,0*
0 Add four circle primitives for the rounded corners*
1,1,$1+$1,$2,$3*
1,1,$1+$1,$4,$5*
1,1,$1+$1,$6,$7*
1,1,$1+$1,$8,$9*
0 Add four rect primitives between the rounded corners*
20,1,$1+$1,$2,$3,$4,$5,0*
20,1,$1+$1,$4,$5,$6,$7,0*
20,1,$1+$1,$6,$7,$8,$9,0*
20,1,$1+$1,$8,$9,$2,$3,0*%
%AMFreePoly0*
4,1,37,0.603843,0.796157,0.639018,0.796157,0.711114,0.766294,0.766294,0.711114,0.796157,0.639018,0.796157,0.603843,0.800000,0.600000,0.800000,-0.600000,0.796157,-0.603843,0.796157,-0.639018,0.766294,-0.711114,0.711114,-0.766294,0.639018,-0.796157,0.603843,-0.796157,0.600000,-0.800000,0.000000,-0.800000,0.000000,-0.796148,-0.078414,-0.796148,-0.232228,-0.765552,-0.377117,-0.705537,
-0.507515,-0.618408,-0.618408,-0.507515,-0.705537,-0.377117,-0.765552,-0.232228,-0.796148,-0.078414,-0.796148,0.078414,-0.765552,0.232228,-0.705537,0.377117,-0.618408,0.507515,-0.507515,0.618408,-0.377117,0.705537,-0.232228,0.765552,-0.078414,0.796148,0.000000,0.796148,0.000000,0.800000,0.600000,0.800000,0.603843,0.796157,0.603843,0.796157,$1*%
%AMFreePoly1*
4,1,37,0.000000,0.796148,0.078414,0.796148,0.232228,0.765552,0.377117,0.705537,0.507515,0.618408,0.618408,0.507515,0.705537,0.377117,0.765552,0.232228,0.796148,0.078414,0.796148,-0.078414,0.765552,-0.232228,0.705537,-0.377117,0.618408,-0.507515,0.507515,-0.618408,0.377117,-0.705537,0.232228,-0.765552,0.078414,-0.796148,0.000000,-0.796148,0.000000,-0.800000,-0.600000,-0.800000,
-0.603843,-0.796157,-0.639018,-0.796157,-0.711114,-0.766294,-0.766294,-0.711114,-0.796157,-0.639018,-0.796157,-0.603843,-0.800000,-0.600000,-0.800000,0.600000,-0.796157,0.603843,-0.796157,0.639018,-0.766294,0.711114,-0.711114,0.766294,-0.639018,0.796157,-0.603843,0.796157,-0.600000,0.800000,0.000000,0.800000,0.000000,0.796148,0.000000,0.796148,$1*%
G04 Aperture macros list end*
%TA.AperFunction,ComponentPad*%
%ADD10C,1.400000*%
%TD*%
%TA.AperFunction,ComponentPad*%
%ADD11C,2.500000*%
%TD*%
%TA.AperFunction,ComponentPad*%
%ADD12RoundRect,0.250000X0.550000X-0.550000X0.550000X0.550000X-0.550000X0.550000X-0.550000X-0.550000X0*%
%TD*%
%TA.AperFunction,ComponentPad*%
%ADD13C,1.600000*%
%TD*%
%TA.AperFunction,ComponentPad*%
%ADD14R,1.700000X1.700000*%
%TD*%
%TA.AperFunction,ComponentPad*%
%ADD15O,1.700000X1.700000*%
%TD*%
%TA.AperFunction,ComponentPad*%
%ADD16O,2.300000X4.000000*%
%TD*%
%TA.AperFunction,ComponentPad*%
%ADD17C,1.800000*%
%TD*%
%TA.AperFunction,ComponentPad*%
%ADD18RoundRect,0.200000X-0.600000X0.600000X-0.600000X-0.600000X0.600000X-0.600000X0.600000X0.600000X0*%
%TD*%
%TA.AperFunction,ComponentPad*%
%ADD19FreePoly0,270.000000*%
%TD*%
%TA.AperFunction,ComponentPad*%
%ADD20FreePoly1,270.000000*%
%TD*%
%TA.AperFunction,ViaPad*%
%ADD21C,0.600000*%
%TD*%
%TA.AperFunction,Conductor*%
%ADD22C,0.200000*%
%TD*%
G04 APERTURE END LIST*
D10*
%TO.P,R3,1,1*%
%TO.N,Net-(U1-~{RESET})*%
X401700000Y-36825000D03*
%TO.P,R3,2,2*%
%TO.N,+3.3V*%
X401700000Y-34925000D03*
%TD*%
D11*
%TO.P,SW63,1,1*%
%TO.N,/COL2*%
X49190000Y-130660000D03*
%TO.P,SW63,2,2*%
%TO.N,Net-(D63-A)*%
X55540000Y-128120000D03*
%TD*%
%TO.P,SW99,1,1*%
%TO.N,/COL8*%
X163532500Y-168860000D03*
%TO.P,SW99,2,2*%
%TO.N,Net-(D99-A)*%
X169882500Y-166320000D03*
%TD*%
%TO.P,SW42,1,1*%
%TO.N,/COL1*%
X46836884Y-111584031D03*
%TO.P,SW42,2,2*%
%TO.N,Net-(D42-A)*%
X53186884Y-109044031D03*
%TD*%
%TO.P,SW55,1,1*%
%TO.N,/COL4*%
X304132500Y-111560000D03*
%TO.P,SW55,2,2*%
%TO.N,Net-(D55-A)*%
X310482500Y-109020000D03*
%TD*%
%TO.P,SW75,1,1*%
%TO.N,/COL4*%
X296932500Y-130660000D03*
%TO.P,SW75,2,2*%
%TO.N,Net-(D75-A)*%
X303282500Y-128120000D03*
%TD*%
%TO.P,SW79,1,1*%
%TO.N,/COL8*%
X53961964Y-149738970D03*
%TO.P,SW79,2,2*%
%TO.N,Net-(D79-A)*%
X60311964Y-147198970D03*
%TD*%
%TO.P,SW90,1,1*%
%TO.N,/COL9*%
X292178670Y-149739275D03*
%TO.P,SW90,2,2*%
%TO.N,Net-(D90-A)*%
X298528670Y-147199275D03*
%TD*%
%TO.P,SW98,1,1*%
%TO.N,/COL7*%
X92050000Y-168840000D03*
%TO.P,SW98,2,2*%
%TO.N,Net-(D98-A)*%
X98400000Y-166300000D03*
%TD*%
%TO.P,SW97,1,1*%
%TO.N,/COL6*%
X68250000Y-168840000D03*
%TO.P,SW97,2,2*%
%TO.N,Net-(D97-A)*%
X74600000Y-166300000D03*
%TD*%
%TO.P,SW101,1,1*%
%TO.N,/COL0*%
X258810000Y-168760000D03*
%TO.P,SW101,2,2*%
%TO.N,Net-(D101-A)*%
X265160000Y-166220000D03*
%TD*%
%TO.P,SW96,1,1*%
%TO.N,/COL5*%
X44457764Y-168864810D03*
%TO.P,SW96,2,2*%
%TO.N,Net-(D96-A)*%
X50807764Y-166324810D03*
%TD*%
%TO.P,SW100,1,1*%
%TO.N,/COL9*%
X235010000Y-168760000D03*
%TO.P,SW100,2,2*%
%TO.N,Net-(D100-A)*%
X241360000Y-166220000D03*
%TD*%
%TO.P,SW102,1,1*%
%TO.N,/COL1*%
X282632500Y-168760000D03*
%TO.P,SW102,2,2*%
%TO.N,Net-(D102-A)*%
X288982500Y-166220000D03*
%TD*%
%TO.P,SW103,1,1*%
%TO.N,/COL2*%
X306490000Y-168760000D03*
%TO.P,SW103,2,2*%
%TO.N,Net-(D103-A)*%
X312840000Y-166220000D03*
%TD*%
%TO.P,SW107,1,1*%
%TO.N,/COL6*%
X404177041Y-168719077D03*
%TO.P,SW107,2,2*%
%TO.N,Net-(D107-A)*%
X410527041Y-166179077D03*
%TD*%
%TO.P,SW34,1,1*%
%TO.N,/COL3*%
X299461745Y-92527979D03*
%TO.P,SW34,2,2*%
%TO.N,Net-(D34-A)*%
X305811745Y-89987979D03*
%TD*%
%TO.P,SW62,1,1*%
%TO.N,/COL1*%
X451814731Y-121111498D03*
%TO.P,SW62,2,2*%
%TO.N,Net-(D62-A)*%
X458164731Y-118571498D03*
%TD*%
%TO.P,SW95,1,1*%
%TO.N,/COL4*%
X451821832Y-159206246D03*
%TO.P,SW95,2,2*%
%TO.N,Net-(D95-A)*%
X458171832Y-156666246D03*
%TD*%
%TO.P,SW52,1,1*%
%TO.N,/COL1*%
X242090000Y-111560000D03*
%TO.P,SW52,2,2*%
%TO.N,Net-(D52-A)*%
X248440000Y-109020000D03*
%TD*%
D12*
%TO.P,D106,1,K*%
%TO.N,/ROW10*%
X384100000Y-173810000D03*
D13*
%TO.P,D106,2,A*%
%TO.N,Net-(D106-A)*%
X384100000Y-166190000D03*
%TD*%
D12*
%TO.P,D42,1,K*%
%TO.N,/ROW4*%
X59800000Y-116720000D03*
D13*
%TO.P,D42,2,A*%
%TO.N,Net-(D42-A)*%
X59800000Y-109100000D03*
%TD*%
D12*
%TO.P,D38,1,K*%
%TO.N,/ROW3*%
X408100000Y-97720000D03*
D13*
%TO.P,D38,2,A*%
%TO.N,Net-(D38-A)*%
X408100000Y-90100000D03*
%TD*%
D11*
%TO.P,SW47,1,1*%
%TO.N,/COL6*%
X146832500Y-111560000D03*
%TO.P,SW47,2,2*%
%TO.N,Net-(D47-A)*%
X153182500Y-109020000D03*
%TD*%
D12*
%TO.P,D40,1,K*%
%TO.N,/ROW3*%
X446200000Y-97710000D03*
D13*
%TO.P,D40,2,A*%
%TO.N,Net-(D40-A)*%
X446200000Y-90090000D03*
%TD*%
D11*
%TO.P,SW20,1,1*%
%TO.N,/COL9*%
X451851169Y-64012685D03*
%TO.P,SW20,2,2*%
%TO.N,Net-(D20-A)*%
X458201169Y-61472685D03*
%TD*%
%TO.P,SW66,1,1*%
%TO.N,/COL5*%
X113390000Y-130660000D03*
%TO.P,SW66,2,2*%
%TO.N,Net-(D66-A)*%
X119740000Y-128120000D03*
%TD*%
%TO.P,SW64,1,1*%
%TO.N,/COL3*%
X75332500Y-130660000D03*
%TO.P,SW64,2,2*%
%TO.N,Net-(D64-A)*%
X81682500Y-128120000D03*
%TD*%
%TO.P,SW8,1,1*%
%TO.N,/COL7*%
X204230583Y-64025221D03*
%TO.P,SW8,2,2*%
%TO.N,Net-(D8-A)*%
X210580583Y-61485221D03*
%TD*%
D12*
%TO.P,D56,1,K*%
%TO.N,/ROW5*%
X346200000Y-116710000D03*
D13*
%TO.P,D56,2,A*%
%TO.N,Net-(D56-A)*%
X346200000Y-109090000D03*
%TD*%
D12*
%TO.P,D88,1,K*%
%TO.N,/ROW8*%
X250800000Y-154810000D03*
D13*
%TO.P,D88,2,A*%
%TO.N,Net-(D88-A)*%
X250800000Y-147190000D03*
%TD*%
D11*
%TO.P,SW73,1,1*%
%TO.N,/COL2*%
X246932500Y-130660000D03*
%TO.P,SW73,2,2*%
%TO.N,Net-(D73-A)*%
X253282500Y-128120000D03*
%TD*%
D12*
%TO.P,D55,1,K*%
%TO.N,/ROW5*%
X317800000Y-116600000D03*
D13*
%TO.P,D55,2,A*%
%TO.N,Net-(D55-A)*%
X317800000Y-108980000D03*
%TD*%
D12*
%TO.P,D98,1,K*%
%TO.N,/ROW9*%
X105600000Y-173910000D03*
D13*
%TO.P,D98,2,A*%
%TO.N,Net-(D98-A)*%
X105600000Y-166290000D03*
%TD*%
D12*
%TO.P,D97,1,K*%
%TO.N,/ROW9*%
X81800000Y-173910000D03*
D13*
%TO.P,D97,2,A*%
%TO.N,Net-(D97-A)*%
X81800000Y-166290000D03*
%TD*%
D14*
%TO.P,J1,1,Pin_1*%
%TO.N,GND*%
X370100000Y-128980000D03*
D15*
%TO.P,J1,2,Pin_2*%
%TO.N,+3.3V*%
X370100000Y-131520000D03*
%TO.P,J1,3,Pin_3*%
%TO.N,SCL*%
X370100000Y-134060000D03*
%TO.P,J1,4,Pin_4*%
%TO.N,SDA*%
X370100000Y-136600000D03*
%TD*%
D12*
%TO.P,D67,1,K*%
%TO.N,/ROW6*%
X145900000Y-135710000D03*
D13*
%TO.P,D67,2,A*%
%TO.N,Net-(D67-A)*%
X145900000Y-128090000D03*
%TD*%
D12*
%TO.P,D74,1,K*%
%TO.N,/ROW7*%
X279400000Y-135810000D03*
D13*
%TO.P,D74,2,A*%
%TO.N,Net-(D74-A)*%
X279400000Y-128190000D03*
%TD*%
D12*
%TO.P,D96,1,K*%
%TO.N,/ROW9*%
X57900000Y-174010000D03*
D13*
%TO.P,D96,2,A*%
%TO.N,Net-(D96-A)*%
X57900000Y-166390000D03*
%TD*%
D12*
%TO.P,D82,1,K*%
%TO.N,/ROW8*%
X136300000Y-154810000D03*
D13*
%TO.P,D82,2,A*%
%TO.N,Net-(D82-A)*%
X136300000Y-147190000D03*
%TD*%
D11*
%TO.P,SW106,1,1*%
%TO.N,/COL5*%
X370696845Y-168765288D03*
%TO.P,SW106,2,2*%
%TO.N,Net-(D106-A)*%
X377046845Y-166225288D03*
%TD*%
D12*
%TO.P,D86,1,K*%
%TO.N,/ROW8*%
X212600000Y-154810000D03*
D13*
%TO.P,D86,2,A*%
%TO.N,Net-(D86-A)*%
X212600000Y-147190000D03*
%TD*%
D12*
%TO.P,D41,1,K*%
%TO.N,/ROW4*%
X465200000Y-97710000D03*
D13*
%TO.P,D41,2,A*%
%TO.N,Net-(D41-A)*%
X465200000Y-90090000D03*
%TD*%
D12*
%TO.P,D91,1,K*%
%TO.N,/ROW9*%
X365100000Y-154810000D03*
D13*
%TO.P,D91,2,A*%
%TO.N,Net-(D91-A)*%
X365100000Y-147190000D03*
%TD*%
D11*
%TO.P,SW76,1,1*%
%TO.N,/COL5*%
X394679492Y-130629059D03*
%TO.P,SW76,2,2*%
%TO.N,Net-(D76-A)*%
X401029492Y-128089059D03*
%TD*%
%TO.P,SW28,1,1*%
%TO.N,/COL7*%
X175550628Y-92516953D03*
%TO.P,SW28,2,2*%
%TO.N,Net-(D28-A)*%
X181900628Y-89976953D03*
%TD*%
%TO.P,SW31,1,1*%
%TO.N,/COL0*%
X232759228Y-92519152D03*
%TO.P,SW31,2,2*%
%TO.N,Net-(D31-A)*%
X239109228Y-89979152D03*
%TD*%
D12*
%TO.P,D26,1,K*%
%TO.N,/ROW2*%
X150800000Y-97620000D03*
D13*
%TO.P,D26,2,A*%
%TO.N,Net-(D26-A)*%
X150800000Y-90000000D03*
%TD*%
D11*
%TO.P,SW19,1,1*%
%TO.N,/COL8*%
X432803202Y-64004770D03*
%TO.P,SW19,2,2*%
%TO.N,Net-(D19-A)*%
X439153202Y-61464770D03*
%TD*%
D12*
%TO.P,D39,1,K*%
%TO.N,/ROW3*%
X427100000Y-97720000D03*
D13*
%TO.P,D39,2,A*%
%TO.N,Net-(D39-A)*%
X427100000Y-90100000D03*
%TD*%
D11*
%TO.P,SW25,1,1*%
%TO.N,/COL4*%
X118373388Y-92509899D03*
%TO.P,SW25,2,2*%
%TO.N,Net-(D25-A)*%
X124723388Y-89969899D03*
%TD*%
D12*
%TO.P,D83,1,K*%
%TO.N,/ROW8*%
X155400000Y-154810000D03*
D13*
%TO.P,D83,2,A*%
%TO.N,Net-(D83-A)*%
X155400000Y-147190000D03*
%TD*%
D12*
%TO.P,D11,1,K*%
%TO.N,/ROW1*%
X284200000Y-69310000D03*
D13*
%TO.P,D11,2,A*%
%TO.N,Net-(D11-A)*%
X284200000Y-61690000D03*
%TD*%
D12*
%TO.P,D22,1,K*%
%TO.N,/ROW2*%
X74600000Y-97620000D03*
D13*
%TO.P,D22,2,A*%
%TO.N,Net-(D22-A)*%
X74600000Y-90000000D03*
%TD*%
D12*
%TO.P,D15,1,K*%
%TO.N,/ROW1*%
X365200000Y-69120000D03*
D13*
%TO.P,D15,2,A*%
%TO.N,Net-(D15-A)*%
X365200000Y-61500000D03*
%TD*%
D12*
%TO.P,D5,1,K*%
%TO.N,/ROW0*%
X151000000Y-69310000D03*
D13*
%TO.P,D5,2,A*%
%TO.N,Net-(D5-A)*%
X151000000Y-61690000D03*
%TD*%
D12*
%TO.P,D51,1,K*%
%TO.N,/ROW5*%
X236400000Y-116610000D03*
D13*
%TO.P,D51,2,A*%
%TO.N,Net-(D51-A)*%
X236400000Y-108990000D03*
%TD*%
D11*
%TO.P,SW54,1,1*%
%TO.N,/COL3*%
X280190000Y-111560000D03*
%TO.P,SW54,2,2*%
%TO.N,Net-(D54-A)*%
X286540000Y-109020000D03*
%TD*%
D12*
%TO.P,D58,1,K*%
%TO.N,/ROW5*%
X384300000Y-116610000D03*
D13*
%TO.P,D58,2,A*%
%TO.N,Net-(D58-A)*%
X384300000Y-108990000D03*
%TD*%
D11*
%TO.P,SW12,1,1*%
%TO.N,/COL1*%
X289952838Y-64021771D03*
%TO.P,SW12,2,2*%
%TO.N,Net-(D12-A)*%
X296302838Y-61481771D03*
%TD*%
D12*
%TO.P,D28,1,K*%
%TO.N,/ROW2*%
X188900000Y-97620000D03*
D13*
%TO.P,D28,2,A*%
%TO.N,Net-(D28-A)*%
X188900000Y-90000000D03*
%TD*%
D12*
%TO.P,D107,1,K*%
%TO.N,/ROW10*%
X417800000Y-173810000D03*
D13*
%TO.P,D107,2,A*%
%TO.N,Net-(D107-A)*%
X417800000Y-166190000D03*
%TD*%
D11*
%TO.P,SW1,1,1*%
%TO.N,/COL0*%
X42110000Y-63960000D03*
%TO.P,SW1,2,2*%
%TO.N,Net-(D1-A)*%
X48460000Y-61420000D03*
%TD*%
D12*
%TO.P,D19,1,K*%
%TO.N,/ROW1*%
X446100000Y-69310000D03*
D13*
%TO.P,D19,2,A*%
%TO.N,Net-(D19-A)*%
X446100000Y-61690000D03*
%TD*%
D11*
%TO.P,SW11,1,1*%
%TO.N,/COL0*%
X270910794Y-64020145D03*
%TO.P,SW11,2,2*%
%TO.N,Net-(D11-A)*%
X277260794Y-61480145D03*
%TD*%
D12*
%TO.P,D8,1,K*%
%TO.N,/ROW0*%
X217600000Y-69310000D03*
D13*
%TO.P,D8,2,A*%
%TO.N,Net-(D8-A)*%
X217600000Y-61690000D03*
%TD*%
D11*
%TO.P,SW57,1,1*%
%TO.N,/COL6*%
X351842827Y-111637603D03*
%TO.P,SW57,2,2*%
%TO.N,Net-(D57-A)*%
X358192827Y-109097603D03*
%TD*%
%TO.P,SW37,1,1*%
%TO.N,/COL6*%
X370883584Y-92533693D03*
%TO.P,SW37,2,2*%
%TO.N,Net-(D37-A)*%
X377233584Y-89993693D03*
%TD*%
D12*
%TO.P,D70,1,K*%
%TO.N,/ROW6*%
X203000000Y-135710000D03*
D13*
%TO.P,D70,2,A*%
%TO.N,Net-(D70-A)*%
X203000000Y-128090000D03*
%TD*%
D12*
%TO.P,D72,1,K*%
%TO.N,/ROW7*%
X241200000Y-135710000D03*
D13*
%TO.P,D72,2,A*%
%TO.N,Net-(D72-A)*%
X241200000Y-128090000D03*
%TD*%
D12*
%TO.P,D33,1,K*%
%TO.N,/ROW3*%
X284200000Y-97620000D03*
D13*
%TO.P,D33,2,A*%
%TO.N,Net-(D33-A)*%
X284200000Y-90000000D03*
%TD*%
D11*
%TO.P,SW18,1,1*%
%TO.N,/COL7*%
X413758740Y-64004870D03*
%TO.P,SW18,2,2*%
%TO.N,Net-(D18-A)*%
X420108740Y-61464870D03*
%TD*%
D12*
%TO.P,D37,1,K*%
%TO.N,/ROW3*%
X384300000Y-97720000D03*
D13*
%TO.P,D37,2,A*%
%TO.N,Net-(D37-A)*%
X384300000Y-90100000D03*
%TD*%
D11*
%TO.P,SW49,1,1*%
%TO.N,/COL8*%
X184932500Y-111560000D03*
%TO.P,SW49,2,2*%
%TO.N,Net-(D49-A)*%
X191282500Y-109020000D03*
%TD*%
D12*
%TO.P,D44,1,K*%
%TO.N,/ROW4*%
X103200000Y-116710000D03*
D13*
%TO.P,D44,2,A*%
%TO.N,Net-(D44-A)*%
X103200000Y-109090000D03*
%TD*%
D11*
%TO.P,SW78,1,1*%
%TO.N,/COL7*%
X432791238Y-130670224D03*
%TO.P,SW78,2,2*%
%TO.N,Net-(D78-A)*%
X439141238Y-128130224D03*
%TD*%
%TO.P,SW27,1,1*%
%TO.N,/COL6*%
X156503179Y-92520614D03*
%TO.P,SW27,2,2*%
%TO.N,Net-(D27-A)*%
X162853179Y-89980614D03*
%TD*%
%TO.P,SW29,1,1*%
%TO.N,/COL8*%
X194626464Y-92516112D03*
%TO.P,SW29,2,2*%
%TO.N,Net-(D29-A)*%
X200976464Y-89976112D03*
%TD*%
D12*
%TO.P,D13,1,K*%
%TO.N,/ROW1*%
X322300000Y-69310000D03*
D13*
%TO.P,D13,2,A*%
%TO.N,Net-(D13-A)*%
X322300000Y-61690000D03*
%TD*%
D11*
%TO.P,SW89,1,1*%
%TO.N,/COL8*%
X256463588Y-149739275D03*
%TO.P,SW89,2,2*%
%TO.N,Net-(D89-A)*%
X262813588Y-147199275D03*
%TD*%
%TO.P,SW70,1,1*%
%TO.N,/COL9*%
X189732500Y-130660000D03*
%TO.P,SW70,2,2*%
%TO.N,Net-(D70-A)*%
X196082500Y-128120000D03*
%TD*%
D12*
%TO.P,D73,1,K*%
%TO.N,/ROW7*%
X260300000Y-135710000D03*
D13*
%TO.P,D73,2,A*%
%TO.N,Net-(D73-A)*%
X260300000Y-128090000D03*
%TD*%
D12*
%TO.P,D85,1,K*%
%TO.N,/ROW8*%
X193500000Y-154810000D03*
D13*
%TO.P,D85,2,A*%
%TO.N,Net-(D85-A)*%
X193500000Y-147190000D03*
%TD*%
D11*
%TO.P,SW71,1,1*%
%TO.N,/COL0*%
X208817290Y-130603301D03*
%TO.P,SW71,2,2*%
%TO.N,Net-(D71-A)*%
X215167290Y-128063301D03*
%TD*%
%TO.P,SW104,1,1*%
%TO.N,/COL3*%
X332629316Y-168763761D03*
%TO.P,SW104,2,2*%
%TO.N,Net-(D104-A)*%
X338979316Y-166223761D03*
%TD*%
D12*
%TO.P,D48,1,K*%
%TO.N,/ROW4*%
X179200000Y-116710000D03*
D13*
%TO.P,D48,2,A*%
%TO.N,Net-(D48-A)*%
X179200000Y-109090000D03*
%TD*%
D12*
%TO.P,D79,1,K*%
%TO.N,/ROW7*%
X67500000Y-154810000D03*
D13*
%TO.P,D79,2,A*%
%TO.N,Net-(D79-A)*%
X67500000Y-147190000D03*
%TD*%
D16*
%TO.P,SW109,6,6*%
%TO.N,unconnected-(SW109-Pad6)*%
X367900000Y-42700000D03*
%TO.P,SW109,7,7*%
%TO.N,unconnected-(SW109-Pad7)*%
X356900000Y-42700000D03*
D17*
%TO.P,SW109,A,A*%
%TO.N,/RotEncoder1A*%
X359860000Y-50200000D03*
%TO.P,SW109,B,B*%
%TO.N,/RotEncoder1B*%
X364940000Y-50200000D03*
%TO.P,SW109,C,C*%
%TO.N,GND*%
X362400000Y-50200000D03*
%TO.P,SW109,D,D*%
%TO.N,/RotEncoder1B1*%
X359860000Y-35700000D03*
%TO.P,SW109,E,E*%
%TO.N,/RotEncoder1B2*%
X364940000Y-35700000D03*
%TD*%
D12*
%TO.P,D29,1,K*%
%TO.N,/ROW2*%
X207984428Y-97619391D03*
D13*
%TO.P,D29,2,A*%
%TO.N,Net-(D29-A)*%
X207984428Y-89999391D03*
%TD*%
D12*
%TO.P,D46,1,K*%
%TO.N,/ROW4*%
X141200000Y-116610000D03*
D13*
%TO.P,D46,2,A*%
%TO.N,Net-(D46-A)*%
X141200000Y-108990000D03*
%TD*%
D12*
%TO.P,D75,1,K*%
%TO.N,/ROW7*%
X310200000Y-135810000D03*
D13*
%TO.P,D75,2,A*%
%TO.N,Net-(D75-A)*%
X310200000Y-128190000D03*
%TD*%
D12*
%TO.P,D30,1,K*%
%TO.N,/ROW2*%
X227000000Y-97620000D03*
D13*
%TO.P,D30,2,A*%
%TO.N,Net-(D30-A)*%
X227000000Y-90000000D03*
%TD*%
D11*
%TO.P,SW80,1,1*%
%TO.N,/COL9*%
X84923426Y-149749712D03*
%TO.P,SW80,2,2*%
%TO.N,Net-(D80-A)*%
X91273426Y-147209712D03*
%TD*%
%TO.P,SW93,1,1*%
%TO.N,/COL2*%
X413730519Y-149707722D03*
%TO.P,SW93,2,2*%
%TO.N,Net-(D93-A)*%
X420080519Y-147167722D03*
%TD*%
%TO.P,SW2,1,1*%
%TO.N,/COL1*%
X80366232Y-63984027D03*
%TO.P,SW2,2,2*%
%TO.N,Net-(D2-A)*%
X86716232Y-61444027D03*
%TD*%
D12*
%TO.P,D90,1,K*%
%TO.N,/ROW8*%
X305800000Y-154810000D03*
D13*
%TO.P,D90,2,A*%
%TO.N,Net-(D90-A)*%
X305800000Y-147190000D03*
%TD*%
D11*
%TO.P,SW77,1,1*%
%TO.N,/COL6*%
X413732500Y-130660000D03*
%TO.P,SW77,2,2*%
%TO.N,Net-(D77-A)*%
X420082500Y-128120000D03*
%TD*%
D12*
%TO.P,D87,1,K*%
%TO.N,/ROW8*%
X231700000Y-154810000D03*
D13*
%TO.P,D87,2,A*%
%TO.N,Net-(D87-A)*%
X231700000Y-147190000D03*
%TD*%
D12*
%TO.P,D69,1,K*%
%TO.N,/ROW6*%
X184000000Y-135710000D03*
D13*
%TO.P,D69,2,A*%
%TO.N,Net-(D69-A)*%
X184000000Y-128090000D03*
%TD*%
D12*
%TO.P,D9,1,K*%
%TO.N,/ROW0*%
X236700000Y-69310000D03*
D13*
%TO.P,D9,2,A*%
%TO.N,Net-(D9-A)*%
X236700000Y-61690000D03*
%TD*%
D12*
%TO.P,D12,1,K*%
%TO.N,/ROW1*%
X303200000Y-69310000D03*
D13*
%TO.P,D12,2,A*%
%TO.N,Net-(D12-A)*%
X303200000Y-61690000D03*
%TD*%
D11*
%TO.P,SW3,1,1*%
%TO.N,/COL2*%
X99446082Y-63984027D03*
%TO.P,SW3,2,2*%
%TO.N,Net-(D3-A)*%
X105796082Y-61444027D03*
%TD*%
D12*
%TO.P,D4,1,K*%
%TO.N,/ROW0*%
X131900000Y-69310000D03*
D13*
%TO.P,D4,2,A*%
%TO.N,Net-(D4-A)*%
X131900000Y-61690000D03*
%TD*%
D11*
%TO.P,SW92,1,1*%
%TO.N,/COL1*%
X394676959Y-149683978D03*
%TO.P,SW92,2,2*%
%TO.N,Net-(D92-A)*%
X401026959Y-147143978D03*
%TD*%
%TO.P,SW14,1,1*%
%TO.N,/COL3*%
X332829249Y-64017158D03*
%TO.P,SW14,2,2*%
%TO.N,Net-(D14-A)*%
X339179249Y-61477158D03*
%TD*%
D12*
%TO.P,D20,1,K*%
%TO.N,/ROW1*%
X465200000Y-69310000D03*
D13*
%TO.P,D20,2,A*%
%TO.N,Net-(D20-A)*%
X465200000Y-61690000D03*
%TD*%
D12*
%TO.P,D25,1,K*%
%TO.N,/ROW2*%
X131700000Y-97620000D03*
D13*
%TO.P,D25,2,A*%
%TO.N,Net-(D25-A)*%
X131700000Y-90000000D03*
%TD*%
D11*
%TO.P,SW83,1,1*%
%TO.N,/COL2*%
X142081076Y-149728228D03*
%TO.P,SW83,2,2*%
%TO.N,Net-(D83-A)*%
X148431076Y-147188228D03*
%TD*%
D12*
%TO.P,D108,1,K*%
%TO.N,/ROW10*%
X445600000Y-173910000D03*
D13*
%TO.P,D108,2,A*%
%TO.N,Net-(D108-A)*%
X445600000Y-166290000D03*
%TD*%
D12*
%TO.P,D84,1,K*%
%TO.N,/ROW8*%
X174500000Y-154810000D03*
D13*
%TO.P,D84,2,A*%
%TO.N,Net-(D84-A)*%
X174500000Y-147190000D03*
%TD*%
D11*
%TO.P,SW86,1,1*%
%TO.N,/COL5*%
X199269911Y-149710223D03*
%TO.P,SW86,2,2*%
%TO.N,Net-(D86-A)*%
X205619911Y-147170223D03*
%TD*%
D12*
%TO.P,D1,1,K*%
%TO.N,/ROW0*%
X55500000Y-69000000D03*
D13*
%TO.P,D1,2,A*%
%TO.N,Net-(D1-A)*%
X55500000Y-61380000D03*
%TD*%
D12*
%TO.P,D62,1,K*%
%TO.N,/ROW6*%
X465100000Y-126220000D03*
D13*
%TO.P,D62,2,A*%
%TO.N,Net-(D62-A)*%
X465100000Y-118600000D03*
%TD*%
D12*
%TO.P,D101,1,K*%
%TO.N,/ROW10*%
X272200000Y-173820000D03*
D13*
%TO.P,D101,2,A*%
%TO.N,Net-(D101-A)*%
X272200000Y-166200000D03*
%TD*%
D12*
%TO.P,D7,1,K*%
%TO.N,/ROW0*%
X198500000Y-69310000D03*
D13*
%TO.P,D7,2,A*%
%TO.N,Net-(D7-A)*%
X198500000Y-61690000D03*
%TD*%
D12*
%TO.P,D50,1,K*%
%TO.N,/ROW4*%
X217400000Y-116610000D03*
D13*
%TO.P,D50,2,A*%
%TO.N,Net-(D50-A)*%
X217400000Y-108990000D03*
%TD*%
D12*
%TO.P,D99,1,K*%
%TO.N,/ROW9*%
X177100000Y-173910000D03*
D13*
%TO.P,D99,2,A*%
%TO.N,Net-(D99-A)*%
X177100000Y-166290000D03*
%TD*%
D12*
%TO.P,D36,1,K*%
%TO.N,/ROW3*%
X365200000Y-97720000D03*
D13*
%TO.P,D36,2,A*%
%TO.N,Net-(D36-A)*%
X365200000Y-90100000D03*
%TD*%
D12*
%TO.P,D95,1,K*%
%TO.N,/ROW9*%
X465100000Y-164310000D03*
D13*
%TO.P,D95,2,A*%
%TO.N,Net-(D95-A)*%
X465100000Y-156690000D03*
%TD*%
D12*
%TO.P,D105,1,K*%
%TO.N,/ROW10*%
X365100000Y-173820000D03*
D13*
%TO.P,D105,2,A*%
%TO.N,Net-(D105-A)*%
X365100000Y-166200000D03*
%TD*%
D12*
%TO.P,D100,1,K*%
%TO.N,/ROW9*%
X248600000Y-173820000D03*
D13*
%TO.P,D100,2,A*%
%TO.N,Net-(D100-A)*%
X248600000Y-166200000D03*
%TD*%
D12*
%TO.P,D92,1,K*%
%TO.N,/ROW9*%
X408000000Y-154800000D03*
D13*
%TO.P,D92,2,A*%
%TO.N,Net-(D92-A)*%
X408000000Y-147180000D03*
%TD*%
D12*
%TO.P,D2,1,K*%
%TO.N,/ROW0*%
X93700000Y-69310000D03*
D13*
%TO.P,D2,2,A*%
%TO.N,Net-(D2-A)*%
X93700000Y-61690000D03*
%TD*%
D11*
%TO.P,SW10,1,1*%
%TO.N,/COL9*%
X251860582Y-64032622D03*
%TO.P,SW10,2,2*%
%TO.N,Net-(D10-A)*%
X258210582Y-61492622D03*
%TD*%
%TO.P,SW105,1,1*%
%TO.N,/COL4*%
X351656005Y-168763761D03*
%TO.P,SW105,2,2*%
%TO.N,Net-(D105-A)*%
X358006005Y-166223761D03*
%TD*%
D12*
%TO.P,D31,1,K*%
%TO.N,/ROW3*%
X246100000Y-97620000D03*
D13*
%TO.P,D31,2,A*%
%TO.N,Net-(D31-A)*%
X246100000Y-90000000D03*
%TD*%
D11*
%TO.P,SW85,1,1*%
%TO.N,/COL4*%
X180200000Y-149700000D03*
%TO.P,SW85,2,2*%
%TO.N,Net-(D85-A)*%
X186550000Y-147160000D03*
%TD*%
%TO.P,SW30,1,1*%
%TO.N,/COL9*%
X213709015Y-92519507D03*
%TO.P,SW30,2,2*%
%TO.N,Net-(D30-A)*%
X220059015Y-89979507D03*
%TD*%
D12*
%TO.P,D66,1,K*%
%TO.N,/ROW6*%
X126800000Y-135710000D03*
D13*
%TO.P,D66,2,A*%
%TO.N,Net-(D66-A)*%
X126800000Y-128090000D03*
%TD*%
D11*
%TO.P,SW36,1,1*%
%TO.N,/COL5*%
X351842827Y-92533693D03*
%TO.P,SW36,2,2*%
%TO.N,Net-(D36-A)*%
X358192827Y-89993693D03*
%TD*%
%TO.P,SW108,1,1*%
%TO.N,/COL7*%
X432763438Y-168719077D03*
%TO.P,SW108,2,2*%
%TO.N,Net-(D108-A)*%
X439113438Y-166179077D03*
%TD*%
%TO.P,SW7,1,1*%
%TO.N,/COL6*%
X185163182Y-64001772D03*
%TO.P,SW7,2,2*%
%TO.N,Net-(D7-A)*%
X191513182Y-61461772D03*
%TD*%
D13*
%TO.P,C1,1,1*%
%TO.N,Net-(U1-VDD)*%
X395840000Y-49500000D03*
%TO.P,C1,2,2*%
%TO.N,+5V*%
X390760000Y-49500000D03*
%TD*%
D12*
%TO.P,D93,1,K*%
%TO.N,/ROW9*%
X427100000Y-154810000D03*
D13*
%TO.P,D93,2,A*%
%TO.N,Net-(D93-A)*%
X427100000Y-147190000D03*
%TD*%
D12*
%TO.P,D43,1,K*%
%TO.N,/ROW4*%
X84100000Y-116620000D03*
D13*
%TO.P,D43,2,A*%
%TO.N,Net-(D43-A)*%
X84100000Y-109000000D03*
%TD*%
D12*
%TO.P,D103,1,K*%
%TO.N,/ROW10*%
X319900000Y-173820000D03*
D13*
%TO.P,D103,2,A*%
%TO.N,Net-(D103-A)*%
X319900000Y-166200000D03*
%TD*%
D12*
%TO.P,U1,1,GPB0*%
%TO.N,/RotEncoder1B*%
X376140000Y-46820000D03*
D13*
%TO.P,U1,2,GPB1*%
%TO.N,/RotEncoder1A*%
X378680000Y-46820000D03*
%TO.P,U1,3,GPB2*%
%TO.N,/RotEncoder2B*%
X381220000Y-46820000D03*
%TO.P,U1,4,GPB3*%
%TO.N,/RotEncoder2A*%
X383760000Y-46820000D03*
%TO.P,U1,5,GPB4*%
%TO.N,unconnected-(U1-GPB4-Pad5)*%
X386300000Y-46820000D03*
%TO.P,U1,6,GPB5*%
%TO.N,unconnected-(U1-GPB5-Pad6)*%
X388840000Y-46820000D03*
%TO.P,U1,7,GPB6*%
%TO.N,unconnected-(U1-GPB6-Pad7)*%
X391380000Y-46820000D03*
%TO.P,U1,8,GPB7*%
%TO.N,unconnected-(U1-GPB7-Pad8)*%
X393920000Y-46820000D03*
%TO.P,U1,9,VDD*%
%TO.N,Net-(U1-VDD)*%
X396460000Y-46820000D03*
%TO.P,U1,10,VSS*%
%TO.N,Net-(U1-VSS)*%
X399000000Y-46820000D03*
%TO.P,U1,11,NC*%
%TO.N,unconnected-(U1-NC-Pad11)*%
X401540000Y-46820000D03*
%TO.P,U1,12,SCK*%
%TO.N,SCL*%
X404080000Y-46820000D03*
%TO.P,U1,13,SDA*%
%TO.N,SDA*%
X406620000Y-46820000D03*
%TO.P,U1,14,NC__1*%
%TO.N,unconnected-(U1-NC__1-Pad14)*%
X409160000Y-46820000D03*
%TO.P,U1,15,A0*%
%TO.N,GND*%
X409160000Y-39200000D03*
%TO.P,U1,16,A1*%
X406620000Y-39200000D03*
%TO.P,U1,17,A2*%
X404080000Y-39200000D03*
%TO.P,U1,18,~{RESET}*%
%TO.N,Net-(U1-~{RESET})*%
X401540000Y-39200000D03*
%TO.P,U1,19,INTB*%
%TO.N,unconnected-(U1-INTB-Pad19)*%
X399000000Y-39200000D03*
%TO.P,U1,20,INTA*%
%TO.N,unconnected-(U1-INTA-Pad20)*%
X396460000Y-39200000D03*
%TO.P,U1,21,GPA0*%
%TO.N,unconnected-(U1-GPA0-Pad21)*%
X393920000Y-39200000D03*
%TO.P,U1,22,GPA1*%
%TO.N,unconnected-(U1-GPA1-Pad22)*%
X391380000Y-39200000D03*
%TO.P,U1,23,GPA2*%
%TO.N,unconnected-(U1-GPA2-Pad23)*%
X388840000Y-39200000D03*
%TO.P,U1,24,GPA3*%
%TO.N,unconnected-(U1-GPA3-Pad24)*%
X386300000Y-39200000D03*
%TO.P,U1,25,GPA4*%
%TO.N,/RotEncoder2B1*%
X383760000Y-39200000D03*
%TO.P,U1,26,GPA5*%
%TO.N,/RotEncoder2B2*%
X381220000Y-39200000D03*
%TO.P,U1,27,GPA6*%
%TO.N,/RotEncoder1B1*%
X378680000Y-39200000D03*
%TO.P,U1,28,GPA7*%
%TO.N,/RotEncoder1B2*%
X376140000Y-39200000D03*
%TD*%
D12*
%TO.P,D104,1,K*%
%TO.N,/ROW10*%
X346000000Y-173820000D03*
D13*
%TO.P,D104,2,A*%
%TO.N,Net-(D104-A)*%
X346000000Y-166200000D03*
%TD*%
D11*
%TO.P,SW59,1,1*%
%TO.N,/COL8*%
X394700000Y-111600000D03*
%TO.P,SW59,2,2*%
%TO.N,Net-(D59-A)*%
X401050000Y-109060000D03*
%TD*%
D12*
%TO.P,D17,1,K*%
%TO.N,/ROW1*%
X408000000Y-69310000D03*
D13*
%TO.P,D17,2,A*%
%TO.N,Net-(D17-A)*%
X408000000Y-61690000D03*
%TD*%
D16*
%TO.P,SW110,6,6*%
%TO.N,unconnected-(SW110-Pad6)*%
X351860000Y-43000000D03*
%TO.P,SW110,7,7*%
%TO.N,unconnected-(SW110-Pad7)*%
X340860000Y-43000000D03*
D17*
%TO.P,SW110,A,A*%
%TO.N,/RotEncoder2A*%
X343820000Y-50500000D03*
%TO.P,SW110,B,B*%
%TO.N,/RotEncoder2B*%
X348900000Y-50500000D03*
%TO.P,SW110,C,C*%
%TO.N,GND*%
X346360000Y-50500000D03*
%TO.P,SW110,D,D*%
%TO.N,/RotEncoder2B1*%
X343820000Y-36000000D03*
%TO.P,SW110,E,E*%
%TO.N,/RotEncoder2B2*%
X348900000Y-36000000D03*
%TD*%
D12*
%TO.P,D32,1,K*%
%TO.N,/ROW3*%
X265200000Y-97620000D03*
D13*
%TO.P,D32,2,A*%
%TO.N,Net-(D32-A)*%
X265200000Y-90000000D03*
%TD*%
D11*
%TO.P,SW39,1,1*%
%TO.N,/COL8*%
X413739689Y-92533863D03*
%TO.P,SW39,2,2*%
%TO.N,Net-(D39-A)*%
X420089689Y-89993863D03*
%TD*%
%TO.P,SW48,1,1*%
%TO.N,/COL7*%
X165932500Y-111560000D03*
%TO.P,SW48,2,2*%
%TO.N,Net-(D48-A)*%
X172282500Y-109020000D03*
%TD*%
D12*
%TO.P,D65,1,K*%
%TO.N,/ROW6*%
X107800000Y-135710000D03*
D13*
%TO.P,D65,2,A*%
%TO.N,Net-(D65-A)*%
X107800000Y-128090000D03*
%TD*%
D12*
%TO.P,D54,1,K*%
%TO.N,/ROW5*%
X293600000Y-116610000D03*
D13*
%TO.P,D54,2,A*%
%TO.N,Net-(D54-A)*%
X293600000Y-108990000D03*
%TD*%
D12*
%TO.P,D14,1,K*%
%TO.N,/ROW1*%
X346100000Y-69310000D03*
D13*
%TO.P,D14,2,A*%
%TO.N,Net-(D14-A)*%
X346100000Y-61690000D03*
%TD*%
D11*
%TO.P,SW50,1,1*%
%TO.N,/COL9*%
X203932500Y-111560000D03*
%TO.P,SW50,2,2*%
%TO.N,Net-(D50-A)*%
X210282500Y-109020000D03*
%TD*%
D12*
%TO.P,D16,1,K*%
%TO.N,/ROW1*%
X384300000Y-69120000D03*
D13*
%TO.P,D16,2,A*%
%TO.N,Net-(D16-A)*%
X384300000Y-61500000D03*
%TD*%
D11*
%TO.P,SW9,1,1*%
%TO.N,/COL8*%
X223308013Y-64025221D03*
%TO.P,SW9,2,2*%
%TO.N,Net-(D9-A)*%
X229658013Y-61485221D03*
%TD*%
D12*
%TO.P,D34,1,K*%
%TO.N,/ROW3*%
X312600000Y-98110000D03*
D13*
%TO.P,D34,2,A*%
%TO.N,Net-(D34-A)*%
X312600000Y-90490000D03*
%TD*%
D11*
%TO.P,SW44,1,1*%
%TO.N,/COL3*%
X89790000Y-111560000D03*
%TO.P,SW44,2,2*%
%TO.N,Net-(D44-A)*%
X96140000Y-109020000D03*
%TD*%
D18*
%TO.P,A1,1,GPIO0*%
%TO.N,SDA*%
X467317500Y-34500000D03*
D13*
%TO.P,A1,2,GPIO1*%
%TO.N,SCL*%
X464777500Y-34500000D03*
D19*
%TO.P,A1,3,GND*%
%TO.N,GND*%
X462237500Y-34500000D03*
D13*
%TO.P,A1,4,GPIO2*%
%TO.N,/COL0*%
X459697500Y-34500000D03*
%TO.P,A1,5,GPIO3*%
%TO.N,/COL1*%
X457157500Y-34500000D03*
%TO.P,A1,6,GPIO4*%
%TO.N,/COL2*%
X454617500Y-34500000D03*
%TO.P,A1,7,GPIO5*%
%TO.N,/COL3*%
X452077500Y-34500000D03*
D19*
%TO.P,A1,8,GND*%
%TO.N,GND*%
X449537500Y-34500000D03*
D13*
%TO.P,A1,9,GPIO6*%
%TO.N,/COL4*%
X446997500Y-34500000D03*
%TO.P,A1,10,GPIO7*%
%TO.N,/COL5*%
X444457500Y-34500000D03*
%TO.P,A1,11,GPIO8*%
%TO.N,/COL6*%
X441917500Y-34500000D03*
%TO.P,A1,12,GPIO9*%
%TO.N,/COL7*%
X439377500Y-34500000D03*
D19*
%TO.P,A1,13,GND*%
%TO.N,GND*%
X436837500Y-34500000D03*
D13*
%TO.P,A1,14,GPIO10*%
%TO.N,/COL8*%
X434297500Y-34500000D03*
%TO.P,A1,15,GPIO11*%
%TO.N,/COL9*%
X431757500Y-34500000D03*
%TO.P,A1,16,GPIO12*%
%TO.N,/ROW0*%
X429217500Y-34500000D03*
%TO.P,A1,17,GPIO13*%
%TO.N,/ROW1*%
X426677500Y-34500000D03*
D19*
%TO.P,A1,18,GND*%
%TO.N,GND*%
X424137500Y-34500000D03*
D13*
%TO.P,A1,19,GPIO14*%
%TO.N,/ROW2*%
X421597500Y-34500000D03*
%TO.P,A1,20,GPIO15*%
%TO.N,/ROW3*%
X419057500Y-34500000D03*
%TO.P,A1,21,GPIO16*%
%TO.N,/ROW4*%
X419057500Y-52280000D03*
%TO.P,A1,22,GPIO17*%
%TO.N,/ROW5*%
X421597500Y-52280000D03*
D20*
%TO.P,A1,23,GND*%
%TO.N,GND*%
X424137500Y-52280000D03*
D13*
%TO.P,A1,24,GPIO18*%
%TO.N,/ROW6*%
X426677500Y-52280000D03*
%TO.P,A1,25,GPIO19*%
%TO.N,/ROW7*%
X429217500Y-52280000D03*
%TO.P,A1,26,GPIO20*%
%TO.N,/ROW8*%
X431757500Y-52280000D03*
%TO.P,A1,27,GPIO21*%
%TO.N,/ROW9*%
X434297500Y-52280000D03*
D20*
%TO.P,A1,28,GND*%
%TO.N,GND*%
X436837500Y-52280000D03*
D13*
%TO.P,A1,29,GPIO22*%
%TO.N,/ROW10*%
X439377500Y-52280000D03*
%TO.P,A1,30,RUN*%
%TO.N,unconnected-(A1-RUN-Pad30)*%
X441917500Y-52280000D03*
%TO.P,A1,31,GPIO26_ADC0*%
%TO.N,unconnected-(A1-GPIO26_ADC0-Pad31)*%
X444457500Y-52280000D03*
%TO.P,A1,32,GPIO27_ADC1*%
%TO.N,unconnected-(A1-GPIO27_ADC1-Pad32)*%
X446997500Y-52280000D03*
D20*
%TO.P,A1,33,AGND*%
%TO.N,unconnected-(A1-AGND-Pad33)*%
X449537500Y-52280000D03*
D13*
%TO.P,A1,34,GPIO28_ADC2*%
%TO.N,unconnected-(A1-GPIO28_ADC2-Pad34)*%
X452077500Y-52280000D03*
%TO.P,A1,35,ADC_VREF*%
%TO.N,unconnected-(A1-ADC_VREF-Pad35)*%
X454617500Y-52280000D03*
%TO.P,A1,36,3V3*%
%TO.N,+3.3V*%
X457157500Y-52280000D03*
%TO.P,A1,37,3V3_EN*%
%TO.N,unconnected-(A1-3V3_EN-Pad37)*%
X459697500Y-52280000D03*
D20*
%TO.P,A1,38,GND*%
%TO.N,GND*%
X462237500Y-52280000D03*
D13*
%TO.P,A1,39,VSYS*%
%TO.N,unconnected-(A1-VSYS-Pad39)*%
X464777500Y-52280000D03*
%TO.P,A1,40,VBUS*%
%TO.N,+5V*%
X467317500Y-52280000D03*
%TD*%
D12*
%TO.P,D23,1,K*%
%TO.N,/ROW2*%
X93700000Y-97620000D03*
D13*
%TO.P,D23,2,A*%
%TO.N,Net-(D23-A)*%
X93700000Y-90000000D03*
%TD*%
D12*
%TO.P,D3,1,K*%
%TO.N,/ROW0*%
X112800000Y-69000000D03*
D13*
%TO.P,D3,2,A*%
%TO.N,Net-(D3-A)*%
X112800000Y-61380000D03*
%TD*%
D12*
%TO.P,D77,1,K*%
%TO.N,/ROW7*%
X427100000Y-135810000D03*
D13*
%TO.P,D77,2,A*%
%TO.N,Net-(D77-A)*%
X427100000Y-128190000D03*
%TD*%
D11*
%TO.P,SW56,1,1*%
%TO.N,/COL5*%
X332796374Y-111637603D03*
%TO.P,SW56,2,2*%
%TO.N,Net-(D56-A)*%
X339146374Y-109097603D03*
%TD*%
%TO.P,SW38,1,1*%
%TO.N,/COL7*%
X394684630Y-92522451D03*
%TO.P,SW38,2,2*%
%TO.N,Net-(D38-A)*%
X401034630Y-89982451D03*
%TD*%
%TO.P,SW74,1,1*%
%TO.N,/COL3*%
X265990000Y-130660000D03*
%TO.P,SW74,2,2*%
%TO.N,Net-(D74-A)*%
X272340000Y-128120000D03*
%TD*%
D12*
%TO.P,D102,1,K*%
%TO.N,/ROW10*%
X295600000Y-173810000D03*
D13*
%TO.P,D102,2,A*%
%TO.N,Net-(D102-A)*%
X295600000Y-166190000D03*
%TD*%
D11*
%TO.P,SW35,1,1*%
%TO.N,/COL4*%
X332795641Y-92529136D03*
%TO.P,SW35,2,2*%
%TO.N,Net-(D35-A)*%
X339145641Y-89989136D03*
%TD*%
%TO.P,SW72,1,1*%
%TO.N,/COL1*%
X227890000Y-130660000D03*
%TO.P,SW72,2,2*%
%TO.N,Net-(D72-A)*%
X234240000Y-128120000D03*
%TD*%
D12*
%TO.P,D71,1,K*%
%TO.N,/ROW7*%
X222100000Y-135700000D03*
D13*
%TO.P,D71,2,A*%
%TO.N,Net-(D71-A)*%
X222100000Y-128080000D03*
%TD*%
D11*
%TO.P,SW22,1,1*%
%TO.N,/COL1*%
X61173415Y-92509899D03*
%TO.P,SW22,2,2*%
%TO.N,Net-(D22-A)*%
X67523415Y-89969899D03*
%TD*%
%TO.P,SW6,1,1*%
%TO.N,/COL5*%
X166098687Y-63994126D03*
%TO.P,SW6,2,2*%
%TO.N,Net-(D6-A)*%
X172448687Y-61454126D03*
%TD*%
D12*
%TO.P,D27,1,K*%
%TO.N,/ROW2*%
X169900000Y-97620000D03*
D13*
%TO.P,D27,2,A*%
%TO.N,Net-(D27-A)*%
X169900000Y-90000000D03*
%TD*%
%TO.P,C2,1,1*%
%TO.N,Net-(U1-VSS)*%
X397760000Y-49500000D03*
%TO.P,C2,2,2*%
%TO.N,GND*%
X402840000Y-49500000D03*
%TD*%
D11*
%TO.P,SW21,1,1*%
%TO.N,/COL0*%
X42106758Y-92509899D03*
%TO.P,SW21,2,2*%
%TO.N,Net-(D21-A)*%
X48456758Y-89969899D03*
%TD*%
%TO.P,SW58,1,1*%
%TO.N,/COL7*%
X370909465Y-111606026D03*
%TO.P,SW58,2,2*%
%TO.N,Net-(D58-A)*%
X377259465Y-109066026D03*
%TD*%
D12*
%TO.P,D35,1,K*%
%TO.N,/ROW3*%
X346200000Y-97720000D03*
D13*
%TO.P,D35,2,A*%
%TO.N,Net-(D35-A)*%
X346200000Y-90100000D03*
%TD*%
D12*
%TO.P,D6,1,K*%
%TO.N,/ROW0*%
X179400000Y-69310000D03*
D13*
%TO.P,D6,2,A*%
%TO.N,Net-(D6-A)*%
X179400000Y-61690000D03*
%TD*%
D12*
%TO.P,D24,1,K*%
%TO.N,/ROW2*%
X112600000Y-97620000D03*
D13*
%TO.P,D24,2,A*%
%TO.N,Net-(D24-A)*%
X112600000Y-90000000D03*
%TD*%
D11*
%TO.P,SW69,1,1*%
%TO.N,/COL8*%
X170640509Y-130622456D03*
%TO.P,SW69,2,2*%
%TO.N,Net-(D69-A)*%
X176990509Y-128082456D03*
%TD*%
%TO.P,SW5,1,1*%
%TO.N,/COL4*%
X137553733Y-63983628D03*
%TO.P,SW5,2,2*%
%TO.N,Net-(D5-A)*%
X143903733Y-61443628D03*
%TD*%
%TO.P,SW87,1,1*%
%TO.N,/COL6*%
X218309430Y-149710223D03*
%TO.P,SW87,2,2*%
%TO.N,Net-(D87-A)*%
X224659430Y-147170223D03*
%TD*%
D12*
%TO.P,D45,1,K*%
%TO.N,/ROW4*%
X122300000Y-116620000D03*
D13*
%TO.P,D45,2,A*%
%TO.N,Net-(D45-A)*%
X122300000Y-109000000D03*
%TD*%
D11*
%TO.P,SW23,1,1*%
%TO.N,/COL2*%
X80243967Y-92509899D03*
%TO.P,SW23,2,2*%
%TO.N,Net-(D23-A)*%
X86593967Y-89969899D03*
%TD*%
%TO.P,SW17,1,1*%
%TO.N,/COL6*%
X394749361Y-64006744D03*
%TO.P,SW17,2,2*%
%TO.N,Net-(D17-A)*%
X401099361Y-61466744D03*
%TD*%
%TO.P,SW60,1,1*%
%TO.N,/COL9*%
X413732500Y-111560000D03*
%TO.P,SW60,2,2*%
%TO.N,Net-(D60-A)*%
X420082500Y-109020000D03*
%TD*%
%TO.P,SW41,1,1*%
%TO.N,/COL0*%
X451822642Y-92535064D03*
%TO.P,SW41,2,2*%
%TO.N,Net-(D41-A)*%
X458172642Y-89995064D03*
%TD*%
D12*
%TO.P,D18,1,K*%
%TO.N,/ROW1*%
X427100000Y-69310000D03*
D13*
%TO.P,D18,2,A*%
%TO.N,Net-(D18-A)*%
X427100000Y-61690000D03*
%TD*%
D12*
%TO.P,D61,1,K*%
%TO.N,/ROW6*%
X445500000Y-117510000D03*
D13*
%TO.P,D61,2,A*%
%TO.N,Net-(D61-A)*%
X445500000Y-109890000D03*
%TD*%
D12*
%TO.P,D64,1,K*%
%TO.N,/ROW6*%
X88700000Y-135710000D03*
D13*
%TO.P,D64,2,A*%
%TO.N,Net-(D64-A)*%
X88700000Y-128090000D03*
%TD*%
D11*
%TO.P,SW43,1,1*%
%TO.N,/COL2*%
X70690000Y-111560000D03*
%TO.P,SW43,2,2*%
%TO.N,Net-(D43-A)*%
X77040000Y-109020000D03*
%TD*%
D12*
%TO.P,D81,1,K*%
%TO.N,/ROW8*%
X117300000Y-154810000D03*
D13*
%TO.P,D81,2,A*%
%TO.N,Net-(D81-A)*%
X117300000Y-147190000D03*
%TD*%
D11*
%TO.P,SW53,1,1*%
%TO.N,/COL2*%
X261132500Y-111560000D03*
%TO.P,SW53,2,2*%
%TO.N,Net-(D53-A)*%
X267482500Y-109020000D03*
%TD*%
%TO.P,SW33,1,1*%
%TO.N,/COL2*%
X270892197Y-92530082D03*
%TO.P,SW33,2,2*%
%TO.N,Net-(D33-A)*%
X277242197Y-89990082D03*
%TD*%
D12*
%TO.P,D68,1,K*%
%TO.N,/ROW6*%
X164900000Y-135710000D03*
D13*
%TO.P,D68,2,A*%
%TO.N,Net-(D68-A)*%
X164900000Y-128090000D03*
%TD*%
D11*
%TO.P,SW88,1,1*%
%TO.N,/COL7*%
X237400000Y-149700000D03*
%TO.P,SW88,2,2*%
%TO.N,Net-(D88-A)*%
X243750000Y-147160000D03*
%TD*%
D12*
%TO.P,D63,1,K*%
%TO.N,/ROW6*%
X62500000Y-135710000D03*
D13*
%TO.P,D63,2,A*%
%TO.N,Net-(D63-A)*%
X62500000Y-128090000D03*
%TD*%
D11*
%TO.P,SW26,1,1*%
%TO.N,/COL5*%
X137440045Y-92509899D03*
%TO.P,SW26,2,2*%
%TO.N,Net-(D26-A)*%
X143790045Y-89969899D03*
%TD*%
D12*
%TO.P,D47,1,K*%
%TO.N,/ROW4*%
X160300000Y-116610000D03*
D13*
%TO.P,D47,2,A*%
%TO.N,Net-(D47-A)*%
X160300000Y-108990000D03*
%TD*%
D11*
%TO.P,SW40,1,1*%
%TO.N,/COL9*%
X432780280Y-92535861D03*
%TO.P,SW40,2,2*%
%TO.N,Net-(D40-A)*%
X439130280Y-89995861D03*
%TD*%
%TO.P,SW82,1,1*%
%TO.N,/COL1*%
X123016598Y-149719363D03*
%TO.P,SW82,2,2*%
%TO.N,Net-(D82-A)*%
X129366598Y-147179363D03*
%TD*%
%TO.P,SW51,1,1*%
%TO.N,/COL0*%
X223032500Y-111560000D03*
%TO.P,SW51,2,2*%
%TO.N,Net-(D51-A)*%
X229382500Y-109020000D03*
%TD*%
D12*
%TO.P,D89,1,K*%
%TO.N,/ROW8*%
X269900000Y-154810000D03*
D13*
%TO.P,D89,2,A*%
%TO.N,Net-(D89-A)*%
X269900000Y-147190000D03*
%TD*%
D12*
%TO.P,D21,1,K*%
%TO.N,/ROW2*%
X55500000Y-97720000D03*
D13*
%TO.P,D21,2,A*%
%TO.N,Net-(D21-A)*%
X55500000Y-90100000D03*
%TD*%
D11*
%TO.P,SW45,1,1*%
%TO.N,/COL4*%
X108832500Y-111560000D03*
%TO.P,SW45,2,2*%
%TO.N,Net-(D45-A)*%
X115182500Y-109020000D03*
%TD*%
D12*
%TO.P,D53,1,K*%
%TO.N,/ROW5*%
X274500000Y-116700000D03*
D13*
%TO.P,D53,2,A*%
%TO.N,Net-(D53-A)*%
X274500000Y-109080000D03*
%TD*%
D11*
%TO.P,SW46,1,1*%
%TO.N,/COL5*%
X127832500Y-111560000D03*
%TO.P,SW46,2,2*%
%TO.N,Net-(D46-A)*%
X134182500Y-109020000D03*
%TD*%
%TO.P,SW67,1,1*%
%TO.N,/COL6*%
X132490000Y-130660000D03*
%TO.P,SW67,2,2*%
%TO.N,Net-(D67-A)*%
X138840000Y-128120000D03*
%TD*%
D12*
%TO.P,D78,1,K*%
%TO.N,/ROW7*%
X445900000Y-135800000D03*
D13*
%TO.P,D78,2,A*%
%TO.N,Net-(D78-A)*%
X445900000Y-128180000D03*
%TD*%
D12*
%TO.P,D59,1,K*%
%TO.N,/ROW5*%
X408100000Y-116710000D03*
D13*
%TO.P,D59,2,A*%
%TO.N,Net-(D59-A)*%
X408100000Y-109090000D03*
%TD*%
D11*
%TO.P,SW32,1,1*%
%TO.N,/COL1*%
X251837055Y-92519152D03*
%TO.P,SW32,2,2*%
%TO.N,Net-(D32-A)*%
X258187055Y-89979152D03*
%TD*%
D12*
%TO.P,D49,1,K*%
%TO.N,/ROW4*%
X198200000Y-116610000D03*
D13*
%TO.P,D49,2,A*%
%TO.N,Net-(D49-A)*%
X198200000Y-108990000D03*
%TD*%
D12*
%TO.P,D76,1,K*%
%TO.N,/ROW7*%
X408000000Y-135720000D03*
D13*
%TO.P,D76,2,A*%
%TO.N,Net-(D76-A)*%
X408000000Y-128100000D03*
%TD*%
D12*
%TO.P,D57,1,K*%
%TO.N,/ROW5*%
X365200000Y-116710000D03*
D13*
%TO.P,D57,2,A*%
%TO.N,Net-(D57-A)*%
X365200000Y-109090000D03*
%TD*%
D11*
%TO.P,SW13,1,1*%
%TO.N,/COL2*%
X309048874Y-64021771D03*
%TO.P,SW13,2,2*%
%TO.N,Net-(D13-A)*%
X315398874Y-61481771D03*
%TD*%
D12*
%TO.P,D10,1,K*%
%TO.N,/ROW0*%
X265100000Y-69310000D03*
D13*
%TO.P,D10,2,A*%
%TO.N,Net-(D10-A)*%
X265100000Y-61690000D03*
%TD*%
D11*
%TO.P,SW15,1,1*%
%TO.N,/COL4*%
X351903592Y-64015156D03*
%TO.P,SW15,2,2*%
%TO.N,Net-(D15-A)*%
X358253592Y-61475156D03*
%TD*%
%TO.P,SW61,1,1*%
%TO.N,/COL0*%
X432776395Y-111579686D03*
%TO.P,SW61,2,2*%
%TO.N,Net-(D61-A)*%
X439126395Y-109039686D03*
%TD*%
%TO.P,SW84,1,1*%
%TO.N,/COL3*%
X161110000Y-149760000D03*
%TO.P,SW84,2,2*%
%TO.N,Net-(D84-A)*%
X167460000Y-147220000D03*
%TD*%
%TO.P,SW91,1,1*%
%TO.N,/COL0*%
X351610000Y-149707386D03*
%TO.P,SW91,2,2*%
%TO.N,Net-(D91-A)*%
X357960000Y-147167386D03*
%TD*%
%TO.P,SW81,1,1*%
%TO.N,/COL0*%
X103961487Y-149730105D03*
%TO.P,SW81,2,2*%
%TO.N,Net-(D81-A)*%
X110311487Y-147190105D03*
%TD*%
D12*
%TO.P,D80,1,K*%
%TO.N,/ROW7*%
X98300000Y-154810000D03*
D13*
%TO.P,D80,2,A*%
%TO.N,Net-(D80-A)*%
X98300000Y-147190000D03*
%TD*%
D12*
%TO.P,D60,1,K*%
%TO.N,/ROW5*%
X427100000Y-116610000D03*
D13*
%TO.P,D60,2,A*%
%TO.N,Net-(D60-A)*%
X427100000Y-108990000D03*
%TD*%
D11*
%TO.P,SW16,1,1*%
%TO.N,/COL5*%
X370959413Y-64015156D03*
%TO.P,SW16,2,2*%
%TO.N,Net-(D16-A)*%
X377309413Y-61475156D03*
%TD*%
%TO.P,SW68,1,1*%
%TO.N,/COL7*%
X151550913Y-130596827D03*
%TO.P,SW68,2,2*%
%TO.N,Net-(D68-A)*%
X157900913Y-128056827D03*
%TD*%
%TO.P,SW94,1,1*%
%TO.N,/COL3*%
X432760198Y-149710905D03*
%TO.P,SW94,2,2*%
%TO.N,Net-(D94-A)*%
X439110198Y-147170905D03*
%TD*%
%TO.P,SW4,1,1*%
%TO.N,/COL3*%
X118502082Y-63975570D03*
%TO.P,SW4,2,2*%
%TO.N,Net-(D4-A)*%
X124852082Y-61435570D03*
%TD*%
%TO.P,SW24,1,1*%
%TO.N,/COL3*%
X99306730Y-92509899D03*
%TO.P,SW24,2,2*%
%TO.N,Net-(D24-A)*%
X105656730Y-89969899D03*
%TD*%
%TO.P,SW65,1,1*%
%TO.N,/COL4*%
X94390000Y-130660000D03*
%TO.P,SW65,2,2*%
%TO.N,Net-(D65-A)*%
X100740000Y-128120000D03*
%TD*%
D12*
%TO.P,D94,1,K*%
%TO.N,/ROW9*%
X445400000Y-155410000D03*
D13*
%TO.P,D94,2,A*%
%TO.N,Net-(D94-A)*%
X445400000Y-147790000D03*
%TD*%
D12*
%TO.P,D52,1,K*%
%TO.N,/ROW5*%
X255400000Y-116610000D03*
D13*
%TO.P,D52,2,A*%
%TO.N,Net-(D52-A)*%
X255400000Y-108990000D03*
%TD*%
D21*
%TO.N,/COL9*%
X85000000Y-144000000D03*
X187000000Y-138500000D03*
X187500000Y-130750000D03*
X85250000Y-138250000D03*
X188500000Y-169000000D03*
X274250000Y-151500000D03*
X235000000Y-176250000D03*
X275250000Y-175750000D03*
%TO.N,/COL3*%
X332750000Y-185250000D03*
X427000000Y-185250000D03*
%TO.N,/COL4*%
X351750000Y-157500000D03*
X309250000Y-156750000D03*
X297000000Y-139000000D03*
X309000000Y-140000000D03*
%TO.N,/COL3*%
X266500000Y-138250000D03*
X332750000Y-140250000D03*
%TO.N,/COL8*%
X164250000Y-182500000D03*
X255500000Y-182500000D03*
%TO.N,/COL1*%
X228750000Y-159500000D03*
X280500000Y-160250000D03*
%TO.N,/COL2*%
X304750000Y-157250000D03*
X253000000Y-138000000D03*
X253000000Y-157250000D03*
X247000000Y-138000000D03*
X306750000Y-183250000D03*
X414000000Y-183250000D03*
%TO.N,/COL6*%
X412750000Y-125250000D03*
X351750000Y-124250000D03*
%TO.N,/COL5*%
X332750000Y-124250000D03*
X394250000Y-126750000D03*
%TO.N,/COL7*%
X371250000Y-124000000D03*
X432500000Y-124000000D03*
X393750000Y-110000000D03*
%TO.N,/COL0*%
X456000000Y-84250000D03*
%TO.N,/COL1*%
X454250000Y-85250000D03*
X454500000Y-82000000D03*
X451750000Y-138750000D03*
X394500000Y-138750000D03*
%TO.N,/COL8*%
X433500000Y-57750000D03*
%TO.N,/COL9*%
X432500000Y-37000000D03*
X451000000Y-36750000D03*
%TO.N,/ROW10*%
X439250000Y-56600000D03*
X467500000Y-175000000D03*
X468100000Y-56750000D03*
%TO.N,/ROW9*%
X434250000Y-56000000D03*
X467000000Y-56000000D03*
X253250000Y-173750000D03*
X337000000Y-160000000D03*
X336750000Y-155000000D03*
X253500000Y-161000000D03*
%TO.N,/ROW8*%
X428750000Y-56250000D03*
X432000000Y-56250000D03*
X328250000Y-94750000D03*
X431000000Y-79000000D03*
X328250000Y-80250000D03*
X430962511Y-74462511D03*
X328549265Y-96799265D03*
X324750000Y-155000000D03*
X429250000Y-66000000D03*
X431250000Y-76000000D03*
X430000000Y-67500000D03*
%TO.N,/ROW6*%
X432250000Y-60000000D03*
X442483806Y-81983806D03*
X427250000Y-59250000D03*
X442500000Y-84250000D03*
X205000000Y-122250000D03*
%TO.N,/ROW7*%
X447000000Y-77250000D03*
X443500000Y-55250000D03*
X447750000Y-81250000D03*
X429500000Y-55500000D03*
%TO.N,/ROW5*%
X428462511Y-76962511D03*
X428750000Y-78500000D03*
X428974923Y-93724923D03*
X429000000Y-95500000D03*
%TO.N,/ROW4*%
X219750000Y-103250000D03*
X219750000Y-116750000D03*
X419250000Y-57750000D03*
X446500000Y-80000000D03*
X445500000Y-78750000D03*
X431500000Y-57750000D03*
%TO.N,/ROW3*%
X423250000Y-84000000D03*
X422250000Y-83000000D03*
%TO.N,/ROW2*%
X242250000Y-68250000D03*
X242500000Y-26750000D03*
X242250000Y-65500000D03*
X421250000Y-27500000D03*
%TO.N,/ROW0*%
X429250000Y-26600000D03*
X268500000Y-26600000D03*
%TO.N,/COL9*%
X431500000Y-26250000D03*
X251750000Y-26100000D03*
%TO.N,/COL8*%
X434250000Y-25750000D03*
X223250000Y-25600000D03*
%TO.N,/COL7*%
X413750000Y-25100000D03*
X439500000Y-25250000D03*
X204250000Y-25100000D03*
%TO.N,/COL6*%
X392750000Y-42400000D03*
X392750000Y-43750000D03*
X392750000Y-24600000D03*
X442000000Y-24750000D03*
X185250000Y-24600000D03*
%TO.N,/COL5*%
X371000000Y-24100000D03*
%TO.N,/COL4*%
X354250000Y-23600000D03*
%TO.N,/COL5*%
X166000000Y-24100000D03*
X444398000Y-24102000D03*
%TO.N,/COL4*%
X447000000Y-23600000D03*
X137500000Y-25100000D03*
%TO.N,/COL3*%
X333000000Y-23100000D03*
X452000000Y-23100000D03*
X118500000Y-24500000D03*
%TO.N,/COL2*%
X309000000Y-22600000D03*
X454500000Y-22600000D03*
X100000000Y-23000000D03*
%TO.N,/COL1*%
X290000000Y-22160000D03*
X457000000Y-22160000D03*
X79250000Y-22250000D03*
%TO.N,/COL0*%
X270890000Y-21560000D03*
X459690000Y-21560000D03*
X42100000Y-21560000D03*
%TO.N,GND*%
X402500000Y-52500000D03*
X388500000Y-71500000D03*
X389000000Y-52500000D03*
X387500000Y-129000000D03*
X388000000Y-78000000D03*
%TO.N,/COL2*%
X98500000Y-143000000D03*
X95500000Y-143000000D03*
X49000000Y-142500000D03*
X141500000Y-142500000D03*
%TO.N,/COL0*%
X351500000Y-142000000D03*
X429000000Y-141500000D03*
X429000000Y-111500000D03*
X64000000Y-114000000D03*
X209500000Y-141500000D03*
X58500000Y-103500000D03*
X51500000Y-103500000D03*
X64500000Y-116500000D03*
X258500000Y-141500000D03*
X452000000Y-100500000D03*
X70500000Y-141500000D03*
X433500000Y-101000000D03*
%TO.N,+3.3V*%
X458000000Y-29000000D03*
X388500000Y-76000000D03*
X388500000Y-73000000D03*
X386500000Y-131500000D03*
X401820000Y-33190000D03*
%TO.N,/COL1*%
X67000000Y-157000000D03*
X43500000Y-156000000D03*
X122500000Y-156500000D03*
X64000000Y-157000000D03*
%TO.N,/COL3*%
X161000000Y-139500000D03*
X75500000Y-138500000D03*
%TO.N,/COL6*%
X68500000Y-176000000D03*
X219000000Y-176000000D03*
%TO.N,/COL7*%
X159510515Y-163989485D03*
X157911985Y-164088015D03*
X237000000Y-165500000D03*
%TO.N,/COL5*%
X45000000Y-177000000D03*
X199500000Y-179000000D03*
%TO.N,SDA*%
X408000000Y-31000000D03*
X406500000Y-56500000D03*
X391000000Y-71500000D03*
X391000000Y-73500000D03*
X467500000Y-31000000D03*
X391100000Y-56500000D03*
X391000000Y-135000000D03*
%TO.N,SCL*%
X390000000Y-74500000D03*
X405500000Y-30500000D03*
X390500000Y-55500000D03*
X388500000Y-133000000D03*
X390000000Y-72000000D03*
X404000000Y-55500000D03*
X465000000Y-30000000D03*
%TO.N,+5V*%
X391000000Y-54500000D03*
X467000000Y-54500000D03*
%TO.N,/COL4*%
X180000000Y-137500000D03*
X94500000Y-137500000D03*
%TD*%
D22*
%TO.N,GND*%
X402840000Y-49500000D02*
X402840000Y-40440000D01*
X402840000Y-40440000D02*
X404080000Y-39200000D01*
%TO.N,/COL4*%
X304132500Y-111560000D02*
X303190000Y-111560000D01*
X303190000Y-111560000D02*
X296932500Y-117817500D01*
X296932500Y-117817500D02*
X296932500Y-130660000D01*
%TO.N,/COL1*%
X46836884Y-111584031D02*
X46165969Y-111584031D01*
X46165969Y-111584031D02*
X43500000Y-114250000D01*
X43500000Y-114250000D02*
X43500000Y-156000000D01*
%TO.N,/COL9*%
X187000000Y-131250000D02*
X187500000Y-130750000D01*
X187000000Y-138500000D02*
X187000000Y-131250000D01*
X85000000Y-144000000D02*
X85250000Y-143750000D01*
X85250000Y-143750000D02*
X85250000Y-138250000D01*
X188500000Y-169000000D02*
X187864000Y-168364000D01*
X187864000Y-168364000D02*
X187864000Y-148039446D01*
X187864000Y-148039446D02*
X189732500Y-146170946D01*
X189732500Y-146170946D02*
X189732500Y-130660000D01*
X274250000Y-174750000D02*
X275250000Y-175750000D01*
X274250000Y-151500000D02*
X274250000Y-174750000D01*
X235000000Y-176250000D02*
X235010000Y-176240000D01*
X235010000Y-176240000D02*
X235010000Y-168760000D01*
%TO.N,/COL3*%
X432760198Y-149710905D02*
X430992432Y-149710905D01*
X430992432Y-149710905D02*
X428201000Y-152502337D01*
X428201000Y-152502337D02*
X428201000Y-184049000D01*
X428201000Y-184049000D02*
X427000000Y-185250000D01*
X332750000Y-185250000D02*
X332629316Y-185129316D01*
X332629316Y-185129316D02*
X332629316Y-168763761D01*
%TO.N,/COL4*%
X351656005Y-157593995D02*
X351750000Y-157500000D01*
X297000000Y-139000000D02*
X296932500Y-138932500D01*
X309836000Y-140836000D02*
X309000000Y-140000000D01*
X296932500Y-138932500D02*
X296932500Y-130660000D01*
X309250000Y-156750000D02*
X309836000Y-156164000D01*
X309836000Y-156164000D02*
X309836000Y-140836000D01*
X351656005Y-168763761D02*
X351656005Y-157593995D01*
%TO.N,/COL3*%
X265990000Y-137740000D02*
X265990000Y-130660000D01*
X266500000Y-138250000D02*
X265990000Y-137740000D01*
X332629316Y-168763761D02*
X332750000Y-168643077D01*
X332750000Y-168643077D02*
X332750000Y-140250000D01*
%TO.N,/COL8*%
X256463588Y-149739275D02*
X256463588Y-170642586D01*
X256463588Y-170642586D02*
X255500000Y-171606174D01*
X163532500Y-181782500D02*
X163532500Y-168860000D01*
X255500000Y-171606174D02*
X255500000Y-182500000D01*
X164250000Y-182500000D02*
X163532500Y-181782500D01*
%TO.N,/COL1*%
X228750000Y-131520000D02*
X227890000Y-130660000D01*
X282632500Y-168760000D02*
X280500000Y-166627500D01*
X228750000Y-159500000D02*
X228750000Y-131520000D01*
X280500000Y-166627500D02*
X280500000Y-160250000D01*
%TO.N,/COL2*%
X247000000Y-138000000D02*
X247000000Y-137250000D01*
X304750000Y-167020000D02*
X304750000Y-157250000D01*
X246932500Y-137182500D02*
X246932500Y-130660000D01*
X306490000Y-168760000D02*
X304750000Y-167020000D01*
X253000000Y-157250000D02*
X253000000Y-138000000D01*
X247000000Y-137250000D02*
X246932500Y-137182500D01*
X306750000Y-183250000D02*
X306750000Y-183020000D01*
X306750000Y-183020000D02*
X306490000Y-182760000D01*
X306490000Y-182760000D02*
X306490000Y-168760000D01*
X413730519Y-149707722D02*
X414980518Y-150957721D01*
X414980518Y-182269482D02*
X414000000Y-183250000D01*
X414980518Y-150957721D02*
X414980518Y-182269482D01*
%TO.N,/COL6*%
X413732500Y-130660000D02*
X413732500Y-147512295D01*
X409101000Y-152143795D02*
X409101000Y-163795118D01*
X413732500Y-147512295D02*
X409101000Y-152143795D01*
X409101000Y-163795118D02*
X404177041Y-168719077D01*
X412750000Y-127000000D02*
X413732500Y-127982500D01*
X351842827Y-111637603D02*
X351842827Y-124157173D01*
X351842827Y-124157173D02*
X351750000Y-124250000D01*
X413732500Y-127982500D02*
X413732500Y-130660000D01*
X412750000Y-125250000D02*
X412750000Y-127000000D01*
%TO.N,/COL5*%
X332750000Y-124250000D02*
X332796374Y-124203626D01*
X394679492Y-130629059D02*
X394679492Y-127179492D01*
X394679492Y-127179492D02*
X394250000Y-126750000D01*
X332796374Y-124203626D02*
X332796374Y-111637603D01*
X370696845Y-168765288D02*
X370696845Y-157615532D01*
X370696845Y-157615532D02*
X394679492Y-133632885D01*
X394679492Y-133632885D02*
X394679492Y-130629059D01*
%TO.N,/COL7*%
X371250000Y-124000000D02*
X371250000Y-123931070D01*
X371250000Y-123931070D02*
X370909465Y-123590535D01*
X370909465Y-123590535D02*
X370909465Y-111606026D01*
X432791238Y-130670224D02*
X432791238Y-124291238D01*
X432791238Y-124291238D02*
X432500000Y-124000000D01*
X432763438Y-168719077D02*
X432763438Y-152711491D01*
X432763438Y-152711491D02*
X434311198Y-151163731D01*
X434311198Y-151163731D02*
X434311198Y-134245000D01*
X434311198Y-134245000D02*
X432791238Y-132725040D01*
X432791238Y-132725040D02*
X432791238Y-130670224D01*
X393750000Y-109616740D02*
X393750000Y-110000000D01*
X394684630Y-108682110D02*
X393750000Y-109616740D01*
X394684630Y-92522451D02*
X394684630Y-108682110D01*
%TO.N,/COL0*%
X458012169Y-65578869D02*
X458012169Y-82237831D01*
X458012169Y-82237831D02*
X456000000Y-84250000D01*
X456634985Y-64201685D02*
X458012169Y-65578869D01*
X456634985Y-54359565D02*
X456634985Y-64201685D01*
X458258500Y-52736050D02*
X456634985Y-54359565D01*
X458258500Y-51823950D02*
X458258500Y-52736050D01*
X459697500Y-50384950D02*
X458258500Y-51823950D01*
X459697500Y-34500000D02*
X459697500Y-50384950D01*
%TO.N,/COL1*%
X454250000Y-93132890D02*
X454250000Y-85250000D01*
X453281642Y-94101248D02*
X454250000Y-93132890D01*
X451814731Y-121111498D02*
X453281642Y-119644587D01*
X453281642Y-119644587D02*
X453281642Y-94101248D01*
X454500000Y-82000000D02*
X453310169Y-80810169D01*
X453310169Y-80810169D02*
X453310169Y-64747131D01*
X453310169Y-64747131D02*
X456056500Y-62000800D01*
X456056500Y-62000800D02*
X456056500Y-35601000D01*
X456056500Y-35601000D02*
X457157500Y-34500000D01*
X451750000Y-138750000D02*
X451750000Y-137379462D01*
X451750000Y-137379462D02*
X451814731Y-137314731D01*
X451814731Y-137314731D02*
X451814731Y-121111498D01*
X394676959Y-149683978D02*
X394676959Y-138926959D01*
X394676959Y-138926959D02*
X394500000Y-138750000D01*
%TO.N,/COL8*%
X433196500Y-57446500D02*
X433500000Y-57750000D01*
X433196500Y-35601000D02*
X433196500Y-57446500D01*
X434297500Y-34500000D02*
X433196500Y-35601000D01*
%TO.N,/COL9*%
X451851169Y-64012685D02*
X450976500Y-63138016D01*
X450976500Y-63138016D02*
X450976500Y-36773500D01*
X450976500Y-36773500D02*
X451000000Y-36750000D01*
X432500000Y-37000000D02*
X431757500Y-36257500D01*
X431757500Y-36257500D02*
X431757500Y-34500000D01*
%TO.N,/ROW9*%
X467000000Y-56000000D02*
X467000000Y-162410000D01*
X467000000Y-162410000D02*
X465100000Y-164310000D01*
%TO.N,/ROW10*%
X468299000Y-128500000D02*
X468250000Y-128451000D01*
X439377500Y-56472500D02*
X439377500Y-52280000D01*
X468250000Y-56900000D02*
X468100000Y-56750000D01*
X439250000Y-56600000D02*
X439377500Y-56472500D01*
X468250000Y-99250000D02*
X468250000Y-56900000D01*
X468250000Y-128451000D02*
X468250000Y-99250000D01*
X468299000Y-158750000D02*
X468299000Y-128500000D01*
X468299000Y-174201000D02*
X468299000Y-158750000D01*
X467500000Y-175000000D02*
X468299000Y-174201000D01*
%TO.N,/ROW9*%
X434297500Y-55952500D02*
X434297500Y-52280000D01*
X434250000Y-56000000D02*
X434297500Y-55952500D01*
X253250000Y-173750000D02*
X253250000Y-161250000D01*
X337000000Y-155250000D02*
X336750000Y-155000000D01*
X337000000Y-160000000D02*
X337000000Y-155250000D01*
X253250000Y-161250000D02*
X253500000Y-161000000D01*
%TO.N,/ROW8*%
X430962511Y-68462511D02*
X430000000Y-67500000D01*
X328250000Y-79750000D02*
X328250000Y-80250000D01*
X429250000Y-66000000D02*
X429250000Y-56750000D01*
X429250000Y-56750000D02*
X428750000Y-56250000D01*
X324750000Y-155000000D02*
X328549265Y-151200735D01*
X328549265Y-151200735D02*
X328549265Y-96799265D01*
X431000000Y-76250000D02*
X431250000Y-76000000D01*
X431000000Y-79000000D02*
X431000000Y-76250000D01*
X430962511Y-74462511D02*
X430962511Y-68462511D01*
X431757500Y-55257500D02*
X431757500Y-52280000D01*
X432000000Y-55500000D02*
X431757500Y-55257500D01*
X328250000Y-94750000D02*
X328250000Y-79750000D01*
X432000000Y-56250000D02*
X432000000Y-55500000D01*
%TO.N,/ROW6*%
X434262202Y-73762202D02*
X434262202Y-64739216D01*
X443322883Y-115332883D02*
X443322883Y-85072883D01*
X434354202Y-62104202D02*
X432250000Y-60000000D01*
X442483806Y-81983806D02*
X434262202Y-73762202D01*
X434354202Y-64647216D02*
X434354202Y-62104202D01*
X445500000Y-117510000D02*
X443322883Y-115332883D01*
X427250000Y-59250000D02*
X426677500Y-58677500D01*
X443322883Y-85072883D02*
X442500000Y-84250000D01*
X434262202Y-64739216D02*
X434354202Y-64647216D01*
X426677500Y-58677500D02*
X426677500Y-52280000D01*
X205000000Y-133710000D02*
X205000000Y-122250000D01*
X203000000Y-135710000D02*
X205000000Y-133710000D01*
%TO.N,/ROW7*%
X450536000Y-112557065D02*
X450536000Y-96792248D01*
X429500000Y-55500000D02*
X429217500Y-55217500D01*
X445900000Y-135800000D02*
X445900000Y-135000000D01*
X443500000Y-73750000D02*
X443500000Y-55250000D01*
X450536000Y-96792248D02*
X447750000Y-94006248D01*
X447750000Y-94006248D02*
X447750000Y-81250000D01*
X447000000Y-77250000D02*
X443500000Y-73750000D01*
X445900000Y-135000000D02*
X449318731Y-131581269D01*
X449318731Y-131581269D02*
X449318731Y-113774334D01*
X449318731Y-113774334D02*
X450536000Y-112557065D01*
X429217500Y-55217500D02*
X429217500Y-52280000D01*
%TO.N,/ROW5*%
X428399000Y-98874260D02*
X429000000Y-98273260D01*
X429000000Y-98273260D02*
X429000000Y-95500000D01*
X428462511Y-76962511D02*
X423874740Y-72374740D01*
X428399000Y-115311000D02*
X428399000Y-98874260D01*
X427100000Y-116610000D02*
X428399000Y-115311000D01*
X428974923Y-78724923D02*
X428750000Y-78500000D01*
X423874740Y-72374740D02*
X423874740Y-54557240D01*
X428974923Y-93724923D02*
X428974923Y-78724923D01*
X423874740Y-54557240D02*
X421597500Y-52280000D01*
%TO.N,/ROW4*%
X219750000Y-116750000D02*
X219750000Y-103250000D01*
X419250000Y-57750000D02*
X419250000Y-57250000D01*
X419250000Y-57250000D02*
X419057500Y-57057500D01*
X419057500Y-57057500D02*
X419057500Y-52280000D01*
X450371024Y-80000000D02*
X446500000Y-80000000D01*
X465200000Y-97710000D02*
X465200000Y-94828976D01*
X440467202Y-66717202D02*
X431500000Y-57750000D01*
X445500000Y-78750000D02*
X440467202Y-73717202D01*
X465200000Y-94828976D02*
X450371024Y-80000000D01*
X440467202Y-73717202D02*
X440467202Y-66717202D01*
%TO.N,/ROW3*%
X419057500Y-34500000D02*
X417086500Y-36471000D01*
X417086500Y-36471000D02*
X417086500Y-62737814D01*
X417086500Y-62737814D02*
X422250000Y-67901314D01*
X423250000Y-91750000D02*
X427100000Y-95600000D01*
X422250000Y-67901314D02*
X422250000Y-83000000D01*
X427100000Y-95600000D02*
X427100000Y-97720000D01*
X423250000Y-84000000D02*
X423250000Y-91750000D01*
%TO.N,/ROW2*%
X242250000Y-65500000D02*
X242250000Y-27000000D01*
X227000000Y-96084934D02*
X242250000Y-80834934D01*
X242250000Y-27000000D02*
X242500000Y-26750000D01*
X242250000Y-80834934D02*
X242250000Y-68250000D01*
X227000000Y-97620000D02*
X227000000Y-96084934D01*
X421250000Y-27500000D02*
X421597500Y-27847500D01*
X421597500Y-27847500D02*
X421597500Y-34500000D01*
%TO.N,/ROW1*%
X427100000Y-69310000D02*
X430318500Y-66091500D01*
X430318500Y-66091500D02*
X430318500Y-38141000D01*
X430318500Y-38141000D02*
X426677500Y-34500000D01*
%TO.N,/ROW0*%
X429217500Y-26632500D02*
X429217500Y-34500000D01*
X265100000Y-69310000D02*
X268500000Y-65910000D01*
X268500000Y-65910000D02*
X268500000Y-26600000D01*
X429250000Y-26600000D02*
X429217500Y-26632500D01*
%TO.N,/COL9*%
X431757500Y-26507500D02*
X431757500Y-34500000D01*
X251860582Y-64032622D02*
X251860582Y-26210582D01*
X251860582Y-26210582D02*
X251750000Y-26100000D01*
X431500000Y-26250000D02*
X431757500Y-26507500D01*
%TO.N,/COL8*%
X223308013Y-64025221D02*
X223308013Y-25658013D01*
X434250000Y-25750000D02*
X434250000Y-26250000D01*
X223308013Y-25658013D02*
X223250000Y-25600000D01*
X434250000Y-26250000D02*
X434297500Y-26297500D01*
X434297500Y-26297500D02*
X434297500Y-34500000D01*
%TO.N,/COL7*%
X413758740Y-64004870D02*
X413758740Y-25108740D01*
X413758740Y-25108740D02*
X413750000Y-25100000D01*
X204230583Y-64025221D02*
X204230583Y-25119417D01*
X204230583Y-25119417D02*
X204250000Y-25100000D01*
X439377500Y-25372500D02*
X439377500Y-34500000D01*
X439500000Y-25250000D02*
X439377500Y-25372500D01*
%TO.N,/COL6*%
X394749361Y-64006744D02*
X392750000Y-62007383D01*
X392750000Y-42400000D02*
X392750000Y-24600000D01*
X392750000Y-62007383D02*
X392750000Y-43750000D01*
X185163182Y-64001772D02*
X185163182Y-24686818D01*
X185163182Y-24686818D02*
X185250000Y-24600000D01*
X442000000Y-24750000D02*
X441917500Y-24832500D01*
X441917500Y-24832500D02*
X441917500Y-34500000D01*
%TO.N,/COL5*%
X370959413Y-64015156D02*
X370959413Y-24140587D01*
X370959413Y-24140587D02*
X371000000Y-24100000D01*
%TO.N,/COL4*%
X354250000Y-61668748D02*
X354250000Y-23600000D01*
X351903592Y-64015156D02*
X354250000Y-61668748D01*
%TO.N,/COL5*%
X444398000Y-24102000D02*
X444457500Y-24161500D01*
X444457500Y-24161500D02*
X444457500Y-34500000D01*
X166098687Y-63994126D02*
X166098687Y-24198687D01*
X166098687Y-24198687D02*
X166000000Y-24100000D01*
%TO.N,/COL3*%
X333000000Y-24500000D02*
X332829249Y-24670751D01*
X333000000Y-23100000D02*
X333000000Y-24500000D01*
X332829249Y-24670751D02*
X332829249Y-64017158D01*
%TO.N,/COL2*%
X99446082Y-23553918D02*
X99446082Y-63984027D01*
X100000000Y-23000000D02*
X99446082Y-23553918D01*
%TO.N,/COL1*%
X79250000Y-22250000D02*
X79000000Y-22500000D01*
X79000000Y-22500000D02*
X79000000Y-62617795D01*
X79000000Y-62617795D02*
X80366232Y-63984027D01*
%TO.N,/COL2*%
X309000000Y-22600000D02*
X309000000Y-23500000D01*
X309000000Y-23500000D02*
X309048874Y-23548874D01*
X309048874Y-23548874D02*
X309048874Y-64021771D01*
%TO.N,/COL1*%
X290000000Y-22160000D02*
X290000000Y-22500000D01*
X289952838Y-22547162D02*
X289952838Y-64021771D01*
X290000000Y-22500000D02*
X289952838Y-22547162D01*
%TO.N,/COL4*%
X447000000Y-23600000D02*
X447000000Y-25100000D01*
X447000000Y-25100000D02*
X446997500Y-25102500D01*
X446997500Y-25102500D02*
X446997500Y-34500000D01*
%TO.N,/COL3*%
X452077500Y-25577500D02*
X452077500Y-34500000D01*
X452000000Y-23100000D02*
X452000000Y-25500000D01*
X452000000Y-25500000D02*
X452077500Y-25577500D01*
%TO.N,/COL2*%
X454500000Y-23500000D02*
X454617500Y-23617500D01*
X454500000Y-22600000D02*
X454500000Y-23500000D01*
X454617500Y-23617500D02*
X454617500Y-34500000D01*
%TO.N,/COL1*%
X457000000Y-22160000D02*
X457000000Y-22685000D01*
X457000000Y-22685000D02*
X457157500Y-22842500D01*
X457157500Y-22842500D02*
X457157500Y-34500000D01*
%TO.N,/COL4*%
X137553733Y-63983628D02*
X137553733Y-25153733D01*
X137553733Y-25153733D02*
X137500000Y-25100000D01*
%TO.N,/COL3*%
X118502082Y-63975570D02*
X118502082Y-24502082D01*
X118502082Y-24502082D02*
X118500000Y-24500000D01*
%TO.N,/COL0*%
X270910794Y-64020145D02*
X270910794Y-21580794D01*
X270910794Y-21580794D02*
X270890000Y-21560000D01*
X42110000Y-63960000D02*
X42110000Y-21570000D01*
X459690000Y-21840000D02*
X459697500Y-21847500D01*
X42110000Y-21570000D02*
X42100000Y-21560000D01*
X459690000Y-21560000D02*
X459690000Y-21840000D01*
X459697500Y-21847500D02*
X459697500Y-34500000D01*
%TO.N,+3.3V*%
X401700000Y-34925000D02*
X401700000Y-33310000D01*
X401700000Y-33310000D02*
X401820000Y-33190000D01*
X401820000Y-33190000D02*
X397561000Y-37449000D01*
X397561000Y-37449000D02*
X397561000Y-41939000D01*
X397561000Y-41939000D02*
X396500000Y-43000000D01*
X396500000Y-43000000D02*
X388500000Y-43000000D01*
X388500000Y-43000000D02*
X387739000Y-43761000D01*
X387739000Y-43761000D02*
X387739000Y-72239000D01*
X387739000Y-72239000D02*
X388500000Y-73000000D01*
%TO.N,Net-(U1-~{RESET})*%
X401540000Y-39200000D02*
X401540000Y-36985000D01*
X401540000Y-36985000D02*
X401700000Y-36825000D01*
%TO.N,GND*%
X402840000Y-52160000D02*
X402840000Y-49500000D01*
X387500000Y-129000000D02*
X387500000Y-78500000D01*
X388500000Y-71500000D02*
X388500000Y-53000000D01*
X388500000Y-53000000D02*
X389000000Y-52500000D01*
X402500000Y-52500000D02*
X402840000Y-52160000D01*
X387500000Y-78500000D02*
X388000000Y-78000000D01*
%TO.N,/COL2*%
X283544389Y-92530082D02*
X270892197Y-92530082D01*
X309048874Y-67025597D02*
X283544389Y-92530082D01*
X99446082Y-73307784D02*
X80243967Y-92509899D01*
X80243967Y-92509899D02*
X80243967Y-102006033D01*
X49190000Y-142310000D02*
X49190000Y-130660000D01*
X261132500Y-111560000D02*
X261132500Y-116460000D01*
X270892197Y-101800303D02*
X261132500Y-111560000D01*
X49000000Y-142500000D02*
X49190000Y-142310000D01*
X309048874Y-64021771D02*
X309048874Y-67025597D01*
X142081076Y-149728228D02*
X142081076Y-143081076D01*
X261132500Y-116460000D02*
X246932500Y-130660000D01*
X80243967Y-102006033D02*
X70690000Y-111560000D01*
X142081076Y-143081076D02*
X141500000Y-142500000D01*
X98500000Y-143000000D02*
X95500000Y-143000000D01*
X68290000Y-111560000D02*
X49190000Y-130660000D01*
X70690000Y-111560000D02*
X68290000Y-111560000D01*
X270892197Y-92530082D02*
X270892197Y-101800303D01*
X99446082Y-63984027D02*
X99446082Y-73307784D01*
%TO.N,/COL8*%
X198717464Y-88425112D02*
X194626464Y-92516112D01*
X184932500Y-111560000D02*
X184932500Y-116330465D01*
X170640509Y-130622456D02*
X170640509Y-149925665D01*
X170640509Y-149925665D02*
X163532500Y-157033674D01*
X163532500Y-157033674D02*
X163532500Y-168860000D01*
X223308013Y-64025221D02*
X223308013Y-67191987D01*
X432803202Y-64004770D02*
X432803202Y-73470350D01*
X394700000Y-109233840D02*
X394700000Y-111600000D01*
X194626464Y-101866036D02*
X184932500Y-111560000D01*
X223308013Y-67191987D02*
X202074888Y-88425112D01*
X202074888Y-88425112D02*
X198717464Y-88425112D01*
X413739689Y-92533863D02*
X411399977Y-92533863D01*
X184932500Y-116330465D02*
X170640509Y-130622456D01*
X194626464Y-92516112D02*
X194626464Y-101866036D01*
X411399977Y-92533863D02*
X394700000Y-109233840D01*
X432803202Y-73470350D02*
X413739689Y-92533863D01*
%TO.N,/COL0*%
X270910794Y-67023971D02*
X245415613Y-92519152D01*
X257560001Y-150836308D02*
X258500000Y-149896309D01*
X208817290Y-140682710D02*
X208817290Y-130603301D01*
X245415613Y-92519152D02*
X232759228Y-92519152D01*
X258810000Y-168760000D02*
X257560001Y-167510001D01*
X258500000Y-149896309D02*
X258500000Y-141500000D01*
X58500000Y-103500000D02*
X64000000Y-109000000D01*
X42106758Y-94606758D02*
X51000000Y-103500000D01*
X351610000Y-142110000D02*
X351500000Y-142000000D01*
X232759228Y-101833272D02*
X223032500Y-111560000D01*
X209500000Y-141365420D02*
X208817290Y-140682710D01*
X42106758Y-92509899D02*
X42106758Y-94606758D01*
X64500000Y-116500000D02*
X70500000Y-122500000D01*
X270910794Y-64020145D02*
X270910794Y-67023971D01*
X42110000Y-63960000D02*
X42110000Y-66110000D01*
X70500000Y-122500000D02*
X70500000Y-141500000D01*
X223032500Y-111560000D02*
X223032500Y-116388091D01*
X64000000Y-109000000D02*
X64000000Y-114000000D01*
X429000000Y-141500000D02*
X429000000Y-111500000D01*
X42110000Y-66110000D02*
X42106758Y-66113242D01*
X451822642Y-100322642D02*
X451822642Y-92535064D01*
X209500000Y-141500000D02*
X209500000Y-141365420D01*
X452000000Y-100500000D02*
X451822642Y-100322642D01*
X51000000Y-103500000D02*
X51500000Y-103500000D01*
X257560001Y-167510001D02*
X257560001Y-150836308D01*
X232759228Y-92519152D02*
X232759228Y-101833272D01*
X42106758Y-66113242D02*
X42106758Y-92509899D01*
X223032500Y-116388091D02*
X208817290Y-130603301D01*
X432776395Y-101723605D02*
X433500000Y-101000000D01*
X351610000Y-149707386D02*
X351610000Y-142110000D01*
X432776395Y-111579686D02*
X432776395Y-101723605D01*
%TO.N,+3.3V*%
X458000000Y-29000000D02*
X458500000Y-29500000D01*
X386500000Y-78000000D02*
X388500000Y-76000000D01*
X458500000Y-50937500D02*
X457157500Y-52280000D01*
X386500000Y-131500000D02*
X386500000Y-78000000D01*
X458500000Y-29500000D02*
X458500000Y-50937500D01*
%TO.N,/COL1*%
X255928055Y-88428152D02*
X251837055Y-92519152D01*
X260646609Y-88428152D02*
X255928055Y-88428152D01*
X80366232Y-63984027D02*
X80366232Y-73317082D01*
X122500000Y-156500000D02*
X123016598Y-155983402D01*
X242090000Y-111560000D02*
X242090000Y-116460000D01*
X61173415Y-92509899D02*
X61173415Y-97247500D01*
X242090000Y-116460000D02*
X227890000Y-130660000D01*
X251837055Y-92519152D02*
X251837055Y-101812945D01*
X123016598Y-155983402D02*
X123016598Y-149719363D01*
X289952838Y-64021771D02*
X285052990Y-64021771D01*
X64000000Y-157000000D02*
X67000000Y-157000000D01*
X285052990Y-64021771D02*
X260646609Y-88428152D01*
X80366232Y-73317082D02*
X61173415Y-92509899D01*
X251837055Y-101812945D02*
X242090000Y-111560000D01*
X61173415Y-97247500D02*
X46836884Y-111584031D01*
%TO.N,/COL9*%
X213709015Y-92519507D02*
X213709015Y-101783485D01*
X245097346Y-64032622D02*
X220701461Y-88428507D01*
X415146160Y-111560000D02*
X413732500Y-111560000D01*
X431012514Y-92535861D02*
X428201000Y-95347375D01*
X217800015Y-88428507D02*
X213709015Y-92519507D01*
X203932500Y-116460000D02*
X189732500Y-130660000D01*
X451851169Y-64012685D02*
X451851169Y-73464972D01*
X203932500Y-111560000D02*
X203932500Y-116460000D01*
X432780280Y-92535861D02*
X431012514Y-92535861D01*
X213709015Y-101783485D02*
X203932500Y-111560000D01*
X220701461Y-88428507D02*
X217800015Y-88428507D01*
X451851169Y-73464972D02*
X432780280Y-92535861D01*
X428201000Y-98505160D02*
X415146160Y-111560000D01*
X428201000Y-95347375D02*
X428201000Y-98505160D01*
X251860582Y-64032622D02*
X245097346Y-64032622D01*
%TO.N,/COL3*%
X280190000Y-110031958D02*
X280190000Y-111560000D01*
X332829249Y-64017158D02*
X329482842Y-64017158D01*
X161110000Y-149760000D02*
X161110000Y-139610000D01*
X297693979Y-92527979D02*
X280190000Y-110031958D01*
X75500000Y-138500000D02*
X75332500Y-138332500D01*
X89790000Y-111560000D02*
X89790000Y-116202500D01*
X118502082Y-63975570D02*
X118502082Y-73314547D01*
X89790000Y-116202500D02*
X75332500Y-130660000D01*
X118502082Y-73314547D02*
X99306730Y-92509899D01*
X280190000Y-111560000D02*
X280190000Y-116460000D01*
X280190000Y-116460000D02*
X265990000Y-130660000D01*
X329482842Y-64017158D02*
X300972021Y-92527979D01*
X75332500Y-138332500D02*
X75332500Y-130660000D01*
X99306730Y-102043270D02*
X89790000Y-111560000D01*
X299461745Y-92527979D02*
X297693979Y-92527979D01*
X161110000Y-139610000D02*
X161000000Y-139500000D01*
X99306730Y-92509899D02*
X99306730Y-102043270D01*
X300972021Y-92527979D02*
X299461745Y-92527979D01*
%TO.N,/COL6*%
X83087964Y-164749000D02*
X72341000Y-164749000D01*
X72341000Y-164749000D02*
X68250000Y-168840000D01*
X182822068Y-64001772D02*
X156503179Y-90320661D01*
X102197859Y-145639105D02*
X83087964Y-164749000D01*
X370883584Y-92533693D02*
X370883584Y-95537519D01*
X156503179Y-101889321D02*
X146832500Y-111560000D01*
X68500000Y-176000000D02*
X68250000Y-175750000D01*
X185163182Y-64001772D02*
X182822068Y-64001772D01*
X132490000Y-133663826D02*
X120514721Y-145639105D01*
X156503179Y-90320661D02*
X156503179Y-92520614D01*
X146832500Y-116317500D02*
X132490000Y-130660000D01*
X370883584Y-95537519D02*
X358921103Y-107500000D01*
X355980430Y-107500000D02*
X351842827Y-111637603D01*
X358921103Y-107500000D02*
X355980430Y-107500000D01*
X120514721Y-145639105D02*
X102197859Y-145639105D01*
X156503179Y-92520614D02*
X156503179Y-101889321D01*
X218309430Y-149710223D02*
X219559429Y-150960222D01*
X394749361Y-64006744D02*
X394749361Y-68667916D01*
X146832500Y-111560000D02*
X146832500Y-116317500D01*
X394749361Y-68667916D02*
X370883584Y-92533693D01*
X219559429Y-150960222D02*
X219559429Y-175440571D01*
X68250000Y-175750000D02*
X68250000Y-168840000D01*
X219559429Y-175440571D02*
X219000000Y-176000000D01*
X132490000Y-130660000D02*
X132490000Y-133663826D01*
%TO.N,/COL7*%
X175550628Y-92516953D02*
X175550628Y-101941872D01*
X413758740Y-64004870D02*
X413758740Y-73448341D01*
X165932500Y-116215240D02*
X151550913Y-130596827D01*
X237400000Y-165100000D02*
X237000000Y-165500000D01*
X413758740Y-73448341D02*
X394684630Y-92522451D01*
X237400000Y-149700000D02*
X237400000Y-165100000D01*
X165932500Y-111560000D02*
X165932500Y-116215240D01*
X197656581Y-70411000D02*
X175550628Y-92516953D01*
X151550913Y-130596827D02*
X148903173Y-130596827D01*
X102106418Y-164749000D02*
X96141000Y-164749000D01*
X204230583Y-67269417D02*
X201089000Y-70411000D01*
X158010515Y-163989485D02*
X157911985Y-164088015D01*
X201089000Y-70411000D02*
X197656581Y-70411000D01*
X204230583Y-64025221D02*
X204230583Y-67269417D01*
X175550628Y-101941872D02*
X165932500Y-111560000D01*
X148903173Y-130596827D02*
X133871637Y-145628363D01*
X121227055Y-145628363D02*
X102106418Y-164749000D01*
X159510515Y-163989485D02*
X158010515Y-163989485D01*
X96141000Y-164749000D02*
X92050000Y-168840000D01*
X133871637Y-145628363D02*
X121227055Y-145628363D01*
%TO.N,/COL5*%
X199269911Y-149710223D02*
X199500000Y-149940312D01*
X50461210Y-168864810D02*
X44457764Y-168864810D01*
X127832500Y-111560000D02*
X127832500Y-116217500D01*
X165505874Y-63994126D02*
X137440045Y-92059955D01*
X166098687Y-63994126D02*
X165505874Y-63994126D01*
X44915528Y-177000000D02*
X44457764Y-176542236D01*
X113390000Y-133663826D02*
X101395114Y-145658712D01*
X45000000Y-177000000D02*
X44915528Y-177000000D01*
X351842827Y-92533693D02*
X349500147Y-92533693D01*
X137440045Y-92509899D02*
X137440045Y-101952455D01*
X349500147Y-92533693D02*
X332796374Y-109237466D01*
X370959413Y-64015156D02*
X370959413Y-73417107D01*
X332796374Y-109237466D02*
X332796374Y-111637603D01*
X73667308Y-145658712D02*
X50461210Y-168864810D01*
X370959413Y-73417107D02*
X351842827Y-92533693D01*
X101395114Y-145658712D02*
X73667308Y-145658712D01*
X137440045Y-92059955D02*
X137440045Y-92509899D01*
X137440045Y-101952455D02*
X127832500Y-111560000D01*
X127832500Y-116217500D02*
X113390000Y-130660000D01*
X44457764Y-176542236D02*
X44457764Y-168864810D01*
X113390000Y-130660000D02*
X113390000Y-133663826D01*
X199500000Y-149940312D02*
X199500000Y-179000000D01*
%TO.N,SDA*%
X467500000Y-32000000D02*
X467317500Y-32182500D01*
X391000000Y-56600000D02*
X391100000Y-56500000D01*
X391000000Y-127500000D02*
X391000000Y-73500000D01*
X467500000Y-31000000D02*
X467500000Y-32000000D01*
X391000000Y-71500000D02*
X391000000Y-56600000D01*
X408000000Y-45440000D02*
X408000000Y-31000000D01*
X406620000Y-46820000D02*
X408000000Y-45440000D01*
X391000000Y-135000000D02*
X391000000Y-127500000D01*
X467317500Y-32182500D02*
X467317500Y-34500000D01*
X406500000Y-55500000D02*
X406620000Y-55380000D01*
X406620000Y-55380000D02*
X406620000Y-46820000D01*
X406500000Y-56500000D02*
X406500000Y-55500000D01*
%TO.N,SCL*%
X465000000Y-31000000D02*
X464777500Y-31222500D01*
X388500000Y-133000000D02*
X390000000Y-131500000D01*
X390000000Y-56000000D02*
X390000000Y-72000000D01*
X465000000Y-30000000D02*
X465000000Y-31000000D01*
X464777500Y-31222500D02*
X464777500Y-34500000D01*
X404080000Y-46820000D02*
X405500000Y-45400000D01*
X404000000Y-55000000D02*
X404080000Y-54920000D01*
X404080000Y-54920000D02*
X404080000Y-46820000D01*
X390500000Y-55500000D02*
X390000000Y-56000000D01*
X390000000Y-131500000D02*
X390000000Y-74500000D01*
X405500000Y-45400000D02*
X405500000Y-30500000D01*
X404000000Y-55500000D02*
X404000000Y-55000000D01*
%TO.N,+5V*%
X467000000Y-54500000D02*
X467000000Y-52597500D01*
X390760000Y-54260000D02*
X391000000Y-54500000D01*
X390760000Y-49500000D02*
X390760000Y-54260000D01*
X467000000Y-52597500D02*
X467317500Y-52280000D01*
%TO.N,/COL4*%
X94500000Y-136500000D02*
X94390000Y-136390000D01*
X351903592Y-73421185D02*
X332795641Y-92529136D01*
X108832500Y-111560000D02*
X108832500Y-116217500D01*
X118373388Y-102019112D02*
X108832500Y-111560000D01*
X137553733Y-63983628D02*
X137553733Y-73329554D01*
X108832500Y-116217500D02*
X94390000Y-130660000D01*
X312940000Y-111560000D02*
X304132500Y-111560000D01*
X94500000Y-137500000D02*
X94500000Y-136500000D01*
X331970864Y-92529136D02*
X312940000Y-111560000D01*
X351903592Y-64015156D02*
X351903592Y-73421185D01*
X180200000Y-149700000D02*
X180200000Y-137700000D01*
X94390000Y-136390000D02*
X94390000Y-130660000D01*
X332795641Y-92529136D02*
X331970864Y-92529136D01*
X180200000Y-137700000D02*
X180000000Y-137500000D01*
X118373388Y-92509899D02*
X118373388Y-102019112D01*
X137553733Y-73329554D02*
X118373388Y-92509899D01*
%TO.N,Net-(U1-VDD)*%
X395840000Y-49500000D02*
X395840000Y-47440000D01*
X395840000Y-47440000D02*
X396460000Y-46820000D01*
%TO.N,Net-(U1-VSS)*%
X397760000Y-49500000D02*
X397760000Y-48060000D01*
X397760000Y-48060000D02*
X399000000Y-46820000D01*
%TD*%
M02*
