M48
; DRILL file {KiCad 9.0.6-1.fc43} date 2025-12-24T21:45:33-0600
; FORMAT={-:-/ absolute / metric / decimal}
; #@! TF.CreationDate,2025-12-24T21:45:33-06:00
; #@! TF.GenerationSoftware,Kicad,Pcbnew,9.0.6-1.fc43
; #@! TF.FileFunction,Plated,1,2,PTH
FMAT,2
METRIC
; #@! TA.AperFunction,Plated,PTH,ViaDrill
T1C0.300
; #@! TA.AperFunction,Plated,PTH,ComponentDrill
T2C0.800
; #@! TA.AperFunction,Plated,PTH,ComponentDrill
T3C1.000
; #@! TA.AperFunction,Plated,PTH,ComponentDrill
T4C1.000
; #@! TA.AperFunction,Plated,PTH,ComponentDrill
T5C1.300
; #@! TA.AperFunction,Plated,PTH,ComponentDrill
T6C1.500
%
G90
G05
T1
X41.9Y-183.1
X42.5Y-144.5
X43.0Y-161.5
X45.0Y-123.5
X51.0Y-142.5
X51.0Y-160.5
X57.5Y-123.0
X65.5Y-179.0
X72.0Y-137.5
X75.0Y-145.5
X78.5Y-33.5
X82.4Y-162.1
X89.0Y-164.0
X92.5Y-141.5
X96.5Y-35.0
X96.5Y-161.1
X100.0Y-144.6
X104.5Y-143.4
X107.5Y-140.5
X107.5Y-146.0
X110.0Y-143.1
X116.0Y-35.5
X128.5Y-139.5
X134.5Y-36.5
X135.5Y-162.5
X137.0Y-143.5
X137.0Y-164.0
X140.5Y-156.0
X141.5Y-155.5
X141.5Y-163.5
X142.5Y-156.0
X144.0Y-169.0
X148.276Y-135.11
X149.5Y-137.0
X157.0Y-140.5
X157.0Y-162.5
X160.0Y-182.0
X163.0Y-37.5
X176.5Y-141.5
X182.0Y-38.5
X190.0Y-143.5
X191.5Y-184.0
X201.0Y-39.5
X205.7Y-174.8
X213.5Y-168.5
X214.4Y-159.1
X219.5Y-135.0
X220.5Y-40.5
X222.0Y-144.5
X225.5Y-123.5
X227.0Y-143.5
X228.5Y-85.0
X229.1Y-86.0
X230.032Y-155.968
X231.0Y-180.0
X234.0Y-147.5
X243.0Y-81.5
X245.0Y-143.5
X252.0Y-182.5
X252.5Y-162.0
X254.0Y-164.5
X262.0Y-31.5
X264.0Y-141.0
X267.5Y-30.5
X269.0Y-31.5
X270.5Y-144.5
X273.5Y-157.0
X275.0Y-180.0
X275.5Y-153.5
X276.5Y-166.5
X279.957Y-161.0
X281.8Y-145.6
X282.4Y-162.9
X286.678Y-32.322
X288.0Y-153.0
X290.0Y-144.0
X299.5Y-163.0
X301.5Y-32.5
X302.5Y-141.5
X304.4Y-162.2
X306.5Y-29.5
X308.5Y-40.5
X309.0Y-156.4
X310.0Y-39.5
X311.0Y-38.5
X313.5Y-37.5
X324.5Y-32.5
X325.0Y-145.0
X326.5Y-80.0
X326.5Y-83.1
X326.5Y-97.0
X327.5Y-28.0
X327.5Y-59.5
X328.0Y-54.0
X328.0Y-56.5
X328.0Y-58.5
X329.5Y-124.5
X329.554Y-29.9
X330.15Y-163.35
X332.5Y-55.0
X332.5Y-156.5
X336.0Y-33.5
X336.0Y-50.5
X338.0Y-53.0
X339.0Y-36.0
X340.0Y-141.5
X346.5Y-52.0
X347.5Y-126.0
X348.0Y-162.5
X349.0Y-56.5
X349.0Y-163.0
X350.0Y-163.5
X352.0Y-83.5
X354.0Y-50.0
X354.0Y-83.5
X354.5Y-34.5
X355.0Y-38.5
X355.0Y-52.0
X355.0Y-82.5
X362.5Y-48.5
X363.5Y-54.0
X366.5Y-83.1
X366.5Y-96.0
X367.5Y-123.0
X368.0Y-55.0
X368.5Y-106.0
X372.5Y-36.5
X373.0Y-49.0
X374.0Y-35.5
X376.0Y-81.5
X377.0Y-82.0
X378.5Y-53.0
X380.5Y-125.0
X382.5Y-82.5
X383.5Y-113.5
X383.5Y-126.0
X383.5Y-158.0
X383.6Y-129.0
X384.3Y-127.4
X385.0Y-115.0
X385.5Y-105.5
X386.0Y-116.0
X386.5Y-54.4
X386.5Y-81.5
X386.5Y-87.5
X386.5Y-99.0
X387.0Y-123.6
X387.5Y-99.5
X387.5Y-101.0
X387.5Y-115.0
X388.0Y-121.0
X388.5Y-104.5
X389.5Y-124.0
X392.5Y-144.5
X394.0Y-57.0
X395.0Y-79.0
X398.0Y-50.5
X398.5Y-54.0
X400.5Y-53.5
X401.0Y-70.0
X404.5Y-51.1
X405.0Y-63.5
X406.0Y-49.75
X406.5Y-60.6
X406.5Y-63.0
X406.75Y-51.75
X407.5Y-53.5
X407.5Y-75.0
X407.64Y-77.14
X408.0Y-94.0
X408.5Y-51.5
X409.0Y-60.6
X409.0Y-119.0
X409.0Y-124.0
X409.5Y-159.5
X410.0Y-97.0
X410.484Y-59.016
X410.5Y-57.6
X410.5Y-118.5
X411.0Y-90.0
X411.084Y-62.0
X411.084Y-68.5
X412.0Y-54.4
X412.0Y-58.5
X412.5Y-32.1
X413.0Y-51.79
X414.5Y-35.0
X415.5Y-35.699
X415.5Y-48.5
X418.5Y-53.5
X421.5Y-56.1
X421.5Y-57.4
X424.0Y-56.4
X425.5Y-68.5
X426.0Y-60.5
X426.5Y-75.5
X427.0Y-30.9
X427.0Y-122.4
X427.346Y-93.846
X427.5Y-58.4
X427.5Y-74.5
X427.5Y-118.5
X428.0Y-49.0
X428.5Y-32.1
X428.5Y-58.1
X428.5Y-60.0
X428.5Y-76.0
X428.5Y-97.0
X428.5Y-134.5
X428.6Y-162.3
X429.0Y-123.5
X429.5Y-80.0
X429.5Y-90.5
X429.5Y-97.0
X429.5Y-109.5
X430.0Y-32.1
X430.0Y-144.5
X430.5Y-58.0
X430.5Y-59.0
X430.5Y-154.0
X432.0Y-54.4
X432.0Y-55.75
X433.5Y-57.5
X434.5Y-54.5
X434.5Y-57.5
X435.5Y-57.5
X439.25Y-55.8
X440.5Y-55.5
X441.0Y-105.1
X442.0Y-46.5
X442.5Y-43.5
X443.0Y-56.0
X443.5Y-163.0
X444.5Y-87.0
X444.5Y-97.0
X445.0Y-56.0
X445.0Y-161.5
X445.5Y-72.0
X446.7Y-124.8
X447.5Y-101.5
X447.976Y-56.0
X448.0Y-143.5
X448.0Y-163.0
X449.0Y-30.9
X450.0Y-30.0
X450.0Y-82.0
X450.5Y-127.0
X451.452Y-32.1
X454.5Y-29.0
X457.0Y-28.0
X457.0Y-56.0
X457.732Y-32.719
X458.0Y-54.5
X462.0Y-31.0
X462.9Y-32.5
X463.5Y-31.0
X465.5Y-56.0
X467.0Y-54.5
X467.5Y-103.0
X468.0Y-82.0
T2
X55.5Y-61.38
X55.5Y-69.0
X55.5Y-90.1
X55.5Y-97.72
X57.9Y-166.39
X57.9Y-174.01
X59.8Y-109.1
X59.8Y-116.72
X62.5Y-128.09
X62.5Y-135.71
X67.5Y-147.19
X67.5Y-154.81
X74.6Y-90.0
X74.6Y-97.62
X81.8Y-166.29
X81.8Y-173.91
X84.1Y-109.0
X84.1Y-116.62
X88.7Y-128.09
X88.7Y-135.71
X93.7Y-61.69
X93.7Y-69.31
X93.7Y-90.0
X93.7Y-97.62
X98.3Y-147.19
X98.3Y-154.81
X103.2Y-109.09
X103.2Y-116.71
X105.6Y-166.29
X105.6Y-173.91
X107.8Y-128.09
X107.8Y-135.71
X112.6Y-90.0
X112.6Y-97.62
X112.8Y-61.38
X112.8Y-69.0
X117.3Y-147.19
X117.3Y-154.81
X122.3Y-109.0
X122.3Y-116.62
X126.8Y-128.09
X126.8Y-135.71
X131.7Y-90.0
X131.7Y-97.62
X131.9Y-61.69
X131.9Y-69.31
X136.3Y-147.19
X136.3Y-154.81
X141.2Y-108.99
X141.2Y-116.61
X145.9Y-128.09
X145.9Y-135.71
X150.8Y-90.0
X150.8Y-97.62
X151.0Y-61.69
X151.0Y-69.31
X155.4Y-147.19
X155.4Y-154.81
X160.3Y-108.99
X160.3Y-116.61
X164.9Y-128.09
X164.9Y-135.71
X169.9Y-90.0
X169.9Y-97.62
X174.5Y-147.19
X174.5Y-154.81
X177.1Y-166.29
X177.1Y-173.91
X179.2Y-109.09
X179.2Y-116.71
X179.4Y-61.69
X179.4Y-69.31
X184.0Y-128.09
X184.0Y-135.71
X188.9Y-90.0
X188.9Y-97.62
X193.5Y-147.19
X193.5Y-154.81
X198.2Y-108.99
X198.2Y-116.61
X198.5Y-61.69
X198.5Y-69.31
X203.0Y-128.09
X203.0Y-135.71
X207.984Y-89.999
X207.984Y-97.619
X212.6Y-147.19
X212.6Y-154.81
X217.4Y-108.99
X217.4Y-116.61
X217.6Y-61.69
X217.6Y-69.31
X222.1Y-128.08
X222.1Y-135.7
X227.0Y-90.0
X227.0Y-97.62
X231.7Y-147.19
X231.7Y-154.81
X236.4Y-108.99
X236.4Y-116.61
X236.7Y-61.69
X236.7Y-69.31
X241.2Y-128.09
X241.2Y-135.71
X246.1Y-90.0
X246.1Y-97.62
X248.6Y-166.2
X248.6Y-173.82
X250.8Y-147.19
X250.8Y-154.81
X255.4Y-108.99
X255.4Y-116.61
X260.3Y-128.09
X260.3Y-135.71
X265.1Y-61.69
X265.1Y-69.31
X265.2Y-90.0
X265.2Y-97.62
X269.9Y-147.19
X269.9Y-154.81
X272.2Y-166.2
X272.2Y-173.82
X274.5Y-109.08
X274.5Y-116.7
X279.4Y-128.19
X279.4Y-135.81
X284.2Y-61.69
X284.2Y-69.31
X284.2Y-90.0
X284.2Y-97.62
X293.6Y-108.99
X293.6Y-116.61
X295.6Y-166.19
X295.6Y-173.81
X303.2Y-61.69
X303.2Y-69.31
X305.8Y-147.19
X305.8Y-154.81
X310.2Y-128.19
X310.2Y-135.81
X312.6Y-90.49
X312.6Y-98.11
X317.8Y-108.98
X317.8Y-116.6
X319.9Y-166.2
X319.9Y-173.82
X322.3Y-61.69
X322.3Y-69.31
X346.0Y-166.2
X346.0Y-173.82
X346.1Y-61.69
X346.1Y-69.31
X346.2Y-90.1
X346.2Y-97.72
X346.2Y-109.09
X346.2Y-116.71
X365.1Y-147.19
X365.1Y-154.81
X365.1Y-166.2
X365.1Y-173.82
X365.2Y-61.5
X365.2Y-69.12
X365.2Y-90.1
X365.2Y-97.72
X365.2Y-109.09
X365.2Y-116.71
X376.14Y-39.2
X376.14Y-46.82
X378.68Y-39.2
X378.68Y-46.82
X381.22Y-39.2
X381.22Y-46.82
X383.76Y-39.2
X383.76Y-46.82
X384.1Y-166.19
X384.1Y-173.81
X384.3Y-61.5
X384.3Y-69.12
X384.3Y-90.1
X384.3Y-97.72
X384.3Y-108.99
X384.3Y-116.61
X386.3Y-39.2
X386.3Y-46.82
X388.84Y-39.2
X388.84Y-46.82
X391.38Y-39.2
X391.38Y-46.82
X393.92Y-39.2
X393.92Y-46.82
X396.46Y-39.2
X396.46Y-46.82
X399.0Y-39.2
X399.0Y-46.82
X401.54Y-39.2
X401.54Y-46.82
X401.6Y-34.005
X401.6Y-36.545
X404.08Y-39.2
X404.08Y-46.82
X406.62Y-39.2
X406.62Y-46.82
X408.0Y-61.69
X408.0Y-69.31
X408.0Y-128.1
X408.0Y-135.72
X408.0Y-147.18
X408.0Y-154.8
X408.1Y-90.1
X408.1Y-97.72
X408.1Y-109.09
X408.1Y-116.71
X409.16Y-39.2
X409.16Y-46.82
X417.8Y-166.19
X417.8Y-173.81
X427.1Y-61.69
X427.1Y-69.31
X427.1Y-90.1
X427.1Y-97.72
X427.1Y-108.99
X427.1Y-116.61
X427.1Y-128.19
X427.1Y-135.81
X427.1Y-147.19
X427.1Y-154.81
X445.4Y-147.79
X445.4Y-155.41
X445.5Y-109.89
X445.5Y-117.51
X445.6Y-166.29
X445.6Y-173.91
X445.9Y-128.18
X445.9Y-135.8
X446.1Y-61.69
X446.1Y-69.31
X446.2Y-90.09
X446.2Y-97.71
X465.1Y-118.6
X465.1Y-126.22
X465.1Y-156.69
X465.1Y-164.31
X465.2Y-61.69
X465.2Y-69.31
X465.2Y-90.09
X465.2Y-97.71
T3
X390.76Y-49.2
X395.84Y-49.2
X397.76Y-49.0
X402.84Y-49.0
T4
X370.1Y-128.98
X370.1Y-131.52
X370.1Y-134.06
X370.1Y-136.6
X419.058Y-34.5
X419.058Y-52.28
X421.597Y-34.5
X421.597Y-52.28
X424.137Y-34.5
X424.137Y-52.28
X426.678Y-34.5
X426.678Y-52.28
X429.217Y-34.5
X429.217Y-52.28
X431.757Y-34.5
X431.757Y-52.28
X434.297Y-34.5
X434.297Y-52.28
X436.837Y-34.5
X436.837Y-52.28
X439.377Y-34.5
X439.377Y-52.28
X441.917Y-34.5
X441.917Y-52.28
X444.457Y-34.5
X444.457Y-52.28
X446.998Y-34.5
X446.998Y-52.28
X449.537Y-34.5
X449.537Y-52.28
X452.077Y-34.5
X452.077Y-52.28
X454.618Y-34.5
X454.618Y-52.28
X457.157Y-34.5
X457.157Y-52.28
X459.697Y-34.5
X459.697Y-52.28
X462.237Y-34.5
X462.237Y-52.28
X464.777Y-34.5
X464.777Y-52.28
X467.317Y-34.5
X467.317Y-52.28
T5
X343.82Y-36.0
X343.82Y-50.5
X346.36Y-50.5
X348.9Y-36.0
X348.9Y-50.5
X359.86Y-35.7
X359.86Y-50.2
X362.4Y-50.2
X364.94Y-35.7
X364.94Y-50.2
T6
G00X340.86Y-43.75
M15
G01X340.86Y-42.25
M16
G05
G00X351.86Y-43.75
M15
G01X351.86Y-42.25
M16
G05
G00X356.9Y-43.45
M15
G01X356.9Y-41.95
M16
G05
G00X367.9Y-43.45
M15
G01X367.9Y-41.95
M16
G05
M30
