%TF.GenerationSoftware,KiCad,Pcbnew,9.0.6-1.fc43*%
%TF.CreationDate,2025-12-24T21:45:28-06:00*%
%TF.ProjectId,full-keyboard,66756c6c-2d6b-4657-9962-6f6172642e6b,1*%
%TF.SameCoordinates,Original*%
%TF.FileFunction,Copper,L1,Top*%
%TF.FilePolarity,Positive*%
%FSLAX46Y46*%
G04 Gerber Fmt 4.6, Leading zero omitted, Abs format (unit mm)*
G04 Created by KiCad (PCBNEW 9.0.6-1.fc43) date 2025-12-24 21:45:28*
%MOMM*%
%LPD*%
G01*
G04 APERTURE LIST*
G04 Aperture macros list*
%AMRoundRect*
0 Rectangle with rounded corners*
0 $1 Rounding radius*
0 $2 $3 $4 $5 $6 $7 $8 $9 X,Y pos of 4 corners*
0 Add a 4 corners polygon primitive as box body*
4,1,4,$2,$3,$4,$5,$6,$7,$8,$9,$2,$3,0*
0 Add four circle primitives for the rounded corners*
1,1,$1+$1,$2,$3*
1,1,$1+$1,$4,$5*
1,1,$1+$1,$6,$7*
1,1,$1+$1,$8,$9*
0 Add four rect primitives between the rounded corners*
20,1,$1+$1,$2,$3,$4,$5,0*
20,1,$1+$1,$4,$5,$6,$7,0*
20,1,$1+$1,$6,$7,$8,$9,0*
20,1,$1+$1,$8,$9,$2,$3,0*%
%AMFreePoly0*
4,1,37,0.603843,0.796157,0.639018,0.796157,0.711114,0.766294,0.766294,0.711114,0.796157,0.639018,0.796157,0.603843,0.800000,0.600000,0.800000,-0.600000,0.796157,-0.603843,0.796157,-0.639018,0.766294,-0.711114,0.711114,-0.766294,0.639018,-0.796157,0.603843,-0.796157,0.600000,-0.800000,0.000000,-0.800000,0.000000,-0.796148,-0.078414,-0.796148,-0.232228,-0.765552,-0.377117,-0.705537,
-0.507515,-0.618408,-0.618408,-0.507515,-0.705537,-0.377117,-0.765552,-0.232228,-0.796148,-0.078414,-0.796148,0.078414,-0.765552,0.232228,-0.705537,0.377117,-0.618408,0.507515,-0.507515,0.618408,-0.377117,0.705537,-0.232228,0.765552,-0.078414,0.796148,0.000000,0.796148,0.000000,0.800000,0.600000,0.800000,0.603843,0.796157,0.603843,0.796157,$1*%
%AMFreePoly1*
4,1,37,0.000000,0.796148,0.078414,0.796148,0.232228,0.765552,0.377117,0.705537,0.507515,0.618408,0.618408,0.507515,0.705537,0.377117,0.765552,0.232228,0.796148,0.078414,0.796148,-0.078414,0.765552,-0.232228,0.705537,-0.377117,0.618408,-0.507515,0.507515,-0.618408,0.377117,-0.705537,0.232228,-0.765552,0.078414,-0.796148,0.000000,-0.796148,0.000000,-0.800000,-0.600000,-0.800000,
-0.603843,-0.796157,-0.639018,-0.796157,-0.711114,-0.766294,-0.766294,-0.711114,-0.796157,-0.639018,-0.796157,-0.603843,-0.800000,-0.600000,-0.800000,0.600000,-0.796157,0.603843,-0.796157,0.639018,-0.766294,0.711114,-0.711114,0.766294,-0.639018,0.796157,-0.603843,0.796157,-0.600000,0.800000,0.000000,0.800000,0.000000,0.796148,0.000000,0.796148,$1*%
G04 Aperture macros list end*
%TA.AperFunction,ComponentPad*%
%ADD10RoundRect,0.250000X0.550000X-0.550000X0.550000X0.550000X-0.550000X0.550000X-0.550000X-0.550000X0*%
%TD*%
%TA.AperFunction,ComponentPad*%
%ADD11C,1.600000*%
%TD*%
%TA.AperFunction,ComponentPad*%
%ADD12R,1.700000X1.700000*%
%TD*%
%TA.AperFunction,ComponentPad*%
%ADD13O,1.700000X1.700000*%
%TD*%
%TA.AperFunction,ComponentPad*%
%ADD14O,2.300000X4.000000*%
%TD*%
%TA.AperFunction,ComponentPad*%
%ADD15C,1.800000*%
%TD*%
%TA.AperFunction,ComponentPad*%
%ADD16RoundRect,0.200000X-0.600000X0.600000X-0.600000X-0.600000X0.600000X-0.600000X0.600000X0.600000X0*%
%TD*%
%TA.AperFunction,ComponentPad*%
%ADD17FreePoly0,270.000000*%
%TD*%
%TA.AperFunction,ComponentPad*%
%ADD18FreePoly1,270.000000*%
%TD*%
%TA.AperFunction,ViaPad*%
%ADD19C,0.600000*%
%TD*%
%TA.AperFunction,Conductor*%
%ADD20C,0.200000*%
%TD*%
G04 APERTURE END LIST*
D10*
%TO.P,D106,1,K*%
%TO.N,/ROW10*%
X384100000Y-173810000D03*
D11*
%TO.P,D106,2,A*%
%TO.N,Net-(D106-A)*%
X384100000Y-166190000D03*
%TD*%
D10*
%TO.P,D42,1,K*%
%TO.N,/ROW4*%
X59800000Y-116720000D03*
D11*
%TO.P,D42,2,A*%
%TO.N,Net-(D42-A)*%
X59800000Y-109100000D03*
%TD*%
D10*
%TO.P,D38,1,K*%
%TO.N,/ROW3*%
X408100000Y-97720000D03*
D11*
%TO.P,D38,2,A*%
%TO.N,Net-(D38-A)*%
X408100000Y-90100000D03*
%TD*%
D10*
%TO.P,D40,1,K*%
%TO.N,/ROW3*%
X446200000Y-97710000D03*
D11*
%TO.P,D40,2,A*%
%TO.N,Net-(D40-A)*%
X446200000Y-90090000D03*
%TD*%
D10*
%TO.P,D56,1,K*%
%TO.N,/ROW5*%
X346200000Y-116710000D03*
D11*
%TO.P,D56,2,A*%
%TO.N,Net-(D56-A)*%
X346200000Y-109090000D03*
%TD*%
D10*
%TO.P,D88,1,K*%
%TO.N,/ROW8*%
X250800000Y-154810000D03*
D11*
%TO.P,D88,2,A*%
%TO.N,Net-(D88-A)*%
X250800000Y-147190000D03*
%TD*%
D10*
%TO.P,D55,1,K*%
%TO.N,/ROW5*%
X317800000Y-116600000D03*
D11*
%TO.P,D55,2,A*%
%TO.N,Net-(D55-A)*%
X317800000Y-108980000D03*
%TD*%
D10*
%TO.P,D98,1,K*%
%TO.N,/ROW9*%
X105600000Y-173910000D03*
D11*
%TO.P,D98,2,A*%
%TO.N,Net-(D98-A)*%
X105600000Y-166290000D03*
%TD*%
D10*
%TO.P,D97,1,K*%
%TO.N,/ROW9*%
X81800000Y-173910000D03*
D11*
%TO.P,D97,2,A*%
%TO.N,Net-(D97-A)*%
X81800000Y-166290000D03*
%TD*%
D12*
%TO.P,J1,1,Pin_1*%
%TO.N,GND*%
X370100000Y-128980000D03*
D13*
%TO.P,J1,2,Pin_2*%
%TO.N,+3.3V*%
X370100000Y-131520000D03*
%TO.P,J1,3,Pin_3*%
%TO.N,SCL*%
X370100000Y-134060000D03*
%TO.P,J1,4,Pin_4*%
%TO.N,SDA*%
X370100000Y-136600000D03*
%TD*%
D10*
%TO.P,D67,1,K*%
%TO.N,/ROW6*%
X145900000Y-135710000D03*
D11*
%TO.P,D67,2,A*%
%TO.N,Net-(D67-A)*%
X145900000Y-128090000D03*
%TD*%
D10*
%TO.P,D74,1,K*%
%TO.N,/ROW7*%
X279400000Y-135810000D03*
D11*
%TO.P,D74,2,A*%
%TO.N,Net-(D74-A)*%
X279400000Y-128190000D03*
%TD*%
D10*
%TO.P,D96,1,K*%
%TO.N,/ROW9*%
X57900000Y-174010000D03*
D11*
%TO.P,D96,2,A*%
%TO.N,Net-(D96-A)*%
X57900000Y-166390000D03*
%TD*%
D10*
%TO.P,D82,1,K*%
%TO.N,/ROW8*%
X136300000Y-154810000D03*
D11*
%TO.P,D82,2,A*%
%TO.N,Net-(D82-A)*%
X136300000Y-147190000D03*
%TD*%
D10*
%TO.P,D86,1,K*%
%TO.N,/ROW8*%
X212600000Y-154810000D03*
D11*
%TO.P,D86,2,A*%
%TO.N,Net-(D86-A)*%
X212600000Y-147190000D03*
%TD*%
D10*
%TO.P,D41,1,K*%
%TO.N,/ROW4*%
X465200000Y-97710000D03*
D11*
%TO.P,D41,2,A*%
%TO.N,Net-(D41-A)*%
X465200000Y-90090000D03*
%TD*%
D10*
%TO.P,D91,1,K*%
%TO.N,/ROW9*%
X365100000Y-154810000D03*
D11*
%TO.P,D91,2,A*%
%TO.N,Net-(D91-A)*%
X365100000Y-147190000D03*
%TD*%
D10*
%TO.P,D26,1,K*%
%TO.N,/ROW2*%
X150800000Y-97620000D03*
D11*
%TO.P,D26,2,A*%
%TO.N,Net-(D26-A)*%
X150800000Y-90000000D03*
%TD*%
D10*
%TO.P,D39,1,K*%
%TO.N,/ROW3*%
X427100000Y-97720000D03*
D11*
%TO.P,D39,2,A*%
%TO.N,Net-(D39-A)*%
X427100000Y-90100000D03*
%TD*%
D10*
%TO.P,D83,1,K*%
%TO.N,/ROW8*%
X155400000Y-154810000D03*
D11*
%TO.P,D83,2,A*%
%TO.N,Net-(D83-A)*%
X155400000Y-147190000D03*
%TD*%
D10*
%TO.P,D11,1,K*%
%TO.N,/ROW1*%
X284200000Y-69310000D03*
D11*
%TO.P,D11,2,A*%
%TO.N,Net-(D11-A)*%
X284200000Y-61690000D03*
%TD*%
D10*
%TO.P,D22,1,K*%
%TO.N,/ROW2*%
X74600000Y-97620000D03*
D11*
%TO.P,D22,2,A*%
%TO.N,Net-(D22-A)*%
X74600000Y-90000000D03*
%TD*%
D10*
%TO.P,D15,1,K*%
%TO.N,/ROW1*%
X365200000Y-69120000D03*
D11*
%TO.P,D15,2,A*%
%TO.N,Net-(D15-A)*%
X365200000Y-61500000D03*
%TD*%
D10*
%TO.P,D5,1,K*%
%TO.N,/ROW0*%
X151000000Y-69310000D03*
D11*
%TO.P,D5,2,A*%
%TO.N,Net-(D5-A)*%
X151000000Y-61690000D03*
%TD*%
D10*
%TO.P,D51,1,K*%
%TO.N,/ROW5*%
X236400000Y-116610000D03*
D11*
%TO.P,D51,2,A*%
%TO.N,Net-(D51-A)*%
X236400000Y-108990000D03*
%TD*%
D10*
%TO.P,D58,1,K*%
%TO.N,/ROW5*%
X384300000Y-116610000D03*
D11*
%TO.P,D58,2,A*%
%TO.N,Net-(D58-A)*%
X384300000Y-108990000D03*
%TD*%
D10*
%TO.P,D28,1,K*%
%TO.N,/ROW2*%
X188900000Y-97620000D03*
D11*
%TO.P,D28,2,A*%
%TO.N,Net-(D28-A)*%
X188900000Y-90000000D03*
%TD*%
D10*
%TO.P,D107,1,K*%
%TO.N,/ROW10*%
X417800000Y-173810000D03*
D11*
%TO.P,D107,2,A*%
%TO.N,Net-(D107-A)*%
X417800000Y-166190000D03*
%TD*%
D10*
%TO.P,D19,1,K*%
%TO.N,/ROW1*%
X446100000Y-69310000D03*
D11*
%TO.P,D19,2,A*%
%TO.N,Net-(D19-A)*%
X446100000Y-61690000D03*
%TD*%
D10*
%TO.P,D8,1,K*%
%TO.N,/ROW0*%
X217600000Y-69310000D03*
D11*
%TO.P,D8,2,A*%
%TO.N,Net-(D8-A)*%
X217600000Y-61690000D03*
%TD*%
D10*
%TO.P,D70,1,K*%
%TO.N,/ROW6*%
X203000000Y-135710000D03*
D11*
%TO.P,D70,2,A*%
%TO.N,Net-(D70-A)*%
X203000000Y-128090000D03*
%TD*%
D10*
%TO.P,D72,1,K*%
%TO.N,/ROW7*%
X241200000Y-135710000D03*
D11*
%TO.P,D72,2,A*%
%TO.N,Net-(D72-A)*%
X241200000Y-128090000D03*
%TD*%
D10*
%TO.P,D33,1,K*%
%TO.N,/ROW3*%
X284200000Y-97620000D03*
D11*
%TO.P,D33,2,A*%
%TO.N,Net-(D33-A)*%
X284200000Y-90000000D03*
%TD*%
D10*
%TO.P,D37,1,K*%
%TO.N,/ROW3*%
X384300000Y-97720000D03*
D11*
%TO.P,D37,2,A*%
%TO.N,Net-(D37-A)*%
X384300000Y-90100000D03*
%TD*%
D10*
%TO.P,D44,1,K*%
%TO.N,/ROW4*%
X103200000Y-116710000D03*
D11*
%TO.P,D44,2,A*%
%TO.N,Net-(D44-A)*%
X103200000Y-109090000D03*
%TD*%
D10*
%TO.P,D13,1,K*%
%TO.N,/ROW1*%
X322300000Y-69310000D03*
D11*
%TO.P,D13,2,A*%
%TO.N,Net-(D13-A)*%
X322300000Y-61690000D03*
%TD*%
D10*
%TO.P,D73,1,K*%
%TO.N,/ROW7*%
X260300000Y-135710000D03*
D11*
%TO.P,D73,2,A*%
%TO.N,Net-(D73-A)*%
X260300000Y-128090000D03*
%TD*%
D10*
%TO.P,D85,1,K*%
%TO.N,/ROW8*%
X193500000Y-154810000D03*
D11*
%TO.P,D85,2,A*%
%TO.N,Net-(D85-A)*%
X193500000Y-147190000D03*
%TD*%
D10*
%TO.P,D48,1,K*%
%TO.N,/ROW4*%
X179200000Y-116710000D03*
D11*
%TO.P,D48,2,A*%
%TO.N,Net-(D48-A)*%
X179200000Y-109090000D03*
%TD*%
D10*
%TO.P,D79,1,K*%
%TO.N,/ROW7*%
X67500000Y-154810000D03*
D11*
%TO.P,D79,2,A*%
%TO.N,Net-(D79-A)*%
X67500000Y-147190000D03*
%TD*%
D14*
%TO.P,SW109,6,6*%
%TO.N,unconnected-(SW109-Pad6)*%
X367900000Y-42700000D03*
%TO.P,SW109,7,7*%
%TO.N,unconnected-(SW109-Pad7)*%
X356900000Y-42700000D03*
D15*
%TO.P,SW109,A,A*%
%TO.N,/RotEncoder1A*%
X359860000Y-50200000D03*
%TO.P,SW109,B,B*%
%TO.N,/RotEncoder1B*%
X364940000Y-50200000D03*
%TO.P,SW109,C,C*%
%TO.N,GND*%
X362400000Y-50200000D03*
%TO.P,SW109,D,D*%
%TO.N,/RotEncoder1B1*%
X359860000Y-35700000D03*
%TO.P,SW109,E,E*%
%TO.N,/RotEncoder1B2*%
X364940000Y-35700000D03*
%TD*%
D10*
%TO.P,D29,1,K*%
%TO.N,/ROW2*%
X207984428Y-97619391D03*
D11*
%TO.P,D29,2,A*%
%TO.N,Net-(D29-A)*%
X207984428Y-89999391D03*
%TD*%
D10*
%TO.P,D46,1,K*%
%TO.N,/ROW4*%
X141200000Y-116610000D03*
D11*
%TO.P,D46,2,A*%
%TO.N,Net-(D46-A)*%
X141200000Y-108990000D03*
%TD*%
D10*
%TO.P,D75,1,K*%
%TO.N,/ROW7*%
X310200000Y-135810000D03*
D11*
%TO.P,D75,2,A*%
%TO.N,Net-(D75-A)*%
X310200000Y-128190000D03*
%TD*%
D10*
%TO.P,D30,1,K*%
%TO.N,/ROW2*%
X227000000Y-97620000D03*
D11*
%TO.P,D30,2,A*%
%TO.N,Net-(D30-A)*%
X227000000Y-90000000D03*
%TD*%
D10*
%TO.P,D90,1,K*%
%TO.N,/ROW8*%
X305800000Y-154810000D03*
D11*
%TO.P,D90,2,A*%
%TO.N,Net-(D90-A)*%
X305800000Y-147190000D03*
%TD*%
D10*
%TO.P,D87,1,K*%
%TO.N,/ROW8*%
X231700000Y-154810000D03*
D11*
%TO.P,D87,2,A*%
%TO.N,Net-(D87-A)*%
X231700000Y-147190000D03*
%TD*%
D10*
%TO.P,D69,1,K*%
%TO.N,/ROW6*%
X184000000Y-135710000D03*
D11*
%TO.P,D69,2,A*%
%TO.N,Net-(D69-A)*%
X184000000Y-128090000D03*
%TD*%
D10*
%TO.P,D9,1,K*%
%TO.N,/ROW0*%
X236700000Y-69310000D03*
D11*
%TO.P,D9,2,A*%
%TO.N,Net-(D9-A)*%
X236700000Y-61690000D03*
%TD*%
D10*
%TO.P,D12,1,K*%
%TO.N,/ROW1*%
X303200000Y-69310000D03*
D11*
%TO.P,D12,2,A*%
%TO.N,Net-(D12-A)*%
X303200000Y-61690000D03*
%TD*%
D10*
%TO.P,D4,1,K*%
%TO.N,/ROW0*%
X131900000Y-69310000D03*
D11*
%TO.P,D4,2,A*%
%TO.N,Net-(D4-A)*%
X131900000Y-61690000D03*
%TD*%
D10*
%TO.P,D20,1,K*%
%TO.N,/ROW1*%
X465200000Y-69310000D03*
D11*
%TO.P,D20,2,A*%
%TO.N,Net-(D20-A)*%
X465200000Y-61690000D03*
%TD*%
D10*
%TO.P,D25,1,K*%
%TO.N,/ROW2*%
X131700000Y-97620000D03*
D11*
%TO.P,D25,2,A*%
%TO.N,Net-(D25-A)*%
X131700000Y-90000000D03*
%TD*%
D10*
%TO.P,D108,1,K*%
%TO.N,/ROW10*%
X445600000Y-173910000D03*
D11*
%TO.P,D108,2,A*%
%TO.N,Net-(D108-A)*%
X445600000Y-166290000D03*
%TD*%
D10*
%TO.P,D84,1,K*%
%TO.N,/ROW8*%
X174500000Y-154810000D03*
D11*
%TO.P,D84,2,A*%
%TO.N,Net-(D84-A)*%
X174500000Y-147190000D03*
%TD*%
D10*
%TO.P,D1,1,K*%
%TO.N,/ROW0*%
X55500000Y-69000000D03*
D11*
%TO.P,D1,2,A*%
%TO.N,Net-(D1-A)*%
X55500000Y-61380000D03*
%TD*%
D10*
%TO.P,D62,1,K*%
%TO.N,/ROW6*%
X465100000Y-126220000D03*
D11*
%TO.P,D62,2,A*%
%TO.N,Net-(D62-A)*%
X465100000Y-118600000D03*
%TD*%
D10*
%TO.P,D101,1,K*%
%TO.N,/ROW10*%
X272200000Y-173820000D03*
D11*
%TO.P,D101,2,A*%
%TO.N,Net-(D101-A)*%
X272200000Y-166200000D03*
%TD*%
D10*
%TO.P,D7,1,K*%
%TO.N,/ROW0*%
X198500000Y-69310000D03*
D11*
%TO.P,D7,2,A*%
%TO.N,Net-(D7-A)*%
X198500000Y-61690000D03*
%TD*%
D10*
%TO.P,D50,1,K*%
%TO.N,/ROW4*%
X217400000Y-116610000D03*
D11*
%TO.P,D50,2,A*%
%TO.N,Net-(D50-A)*%
X217400000Y-108990000D03*
%TD*%
D10*
%TO.P,D99,1,K*%
%TO.N,/ROW9*%
X177100000Y-173910000D03*
D11*
%TO.P,D99,2,A*%
%TO.N,Net-(D99-A)*%
X177100000Y-166290000D03*
%TD*%
D10*
%TO.P,D36,1,K*%
%TO.N,/ROW3*%
X365200000Y-97720000D03*
D11*
%TO.P,D36,2,A*%
%TO.N,Net-(D36-A)*%
X365200000Y-90100000D03*
%TD*%
D10*
%TO.P,D95,1,K*%
%TO.N,/ROW9*%
X465100000Y-164310000D03*
D11*
%TO.P,D95,2,A*%
%TO.N,Net-(D95-A)*%
X465100000Y-156690000D03*
%TD*%
D10*
%TO.P,D105,1,K*%
%TO.N,/ROW10*%
X365100000Y-173820000D03*
D11*
%TO.P,D105,2,A*%
%TO.N,Net-(D105-A)*%
X365100000Y-166200000D03*
%TD*%
D10*
%TO.P,D100,1,K*%
%TO.N,/ROW9*%
X248600000Y-173820000D03*
D11*
%TO.P,D100,2,A*%
%TO.N,Net-(D100-A)*%
X248600000Y-166200000D03*
%TD*%
D10*
%TO.P,D92,1,K*%
%TO.N,/ROW9*%
X408000000Y-154800000D03*
D11*
%TO.P,D92,2,A*%
%TO.N,Net-(D92-A)*%
X408000000Y-147180000D03*
%TD*%
D10*
%TO.P,D2,1,K*%
%TO.N,/ROW0*%
X93700000Y-69310000D03*
D11*
%TO.P,D2,2,A*%
%TO.N,Net-(D2-A)*%
X93700000Y-61690000D03*
%TD*%
D10*
%TO.P,D31,1,K*%
%TO.N,/ROW3*%
X246100000Y-97620000D03*
D11*
%TO.P,D31,2,A*%
%TO.N,Net-(D31-A)*%
X246100000Y-90000000D03*
%TD*%
D10*
%TO.P,D66,1,K*%
%TO.N,/ROW6*%
X126800000Y-135710000D03*
D11*
%TO.P,D66,2,A*%
%TO.N,Net-(D66-A)*%
X126800000Y-128090000D03*
%TD*%
%TO.P,C1,1,1*%
%TO.N,Net-(U1-VDD)*%
X395840000Y-49200000D03*
%TO.P,C1,2,2*%
%TO.N,+5V*%
X390760000Y-49200000D03*
%TD*%
D10*
%TO.P,D93,1,K*%
%TO.N,/ROW9*%
X427100000Y-154810000D03*
D11*
%TO.P,D93,2,A*%
%TO.N,Net-(D93-A)*%
X427100000Y-147190000D03*
%TD*%
D10*
%TO.P,D43,1,K*%
%TO.N,/ROW4*%
X84100000Y-116620000D03*
D11*
%TO.P,D43,2,A*%
%TO.N,Net-(D43-A)*%
X84100000Y-109000000D03*
%TD*%
D10*
%TO.P,D103,1,K*%
%TO.N,/ROW10*%
X319900000Y-173820000D03*
D11*
%TO.P,D103,2,A*%
%TO.N,Net-(D103-A)*%
X319900000Y-166200000D03*
%TD*%
D10*
%TO.P,U1,1,GPB0*%
%TO.N,/RotEncoder1B1*%
X376140000Y-46820000D03*
D11*
%TO.P,U1,2,GPB1*%
%TO.N,/RotEncoder1B2*%
X378680000Y-46820000D03*
%TO.P,U1,3,GPB2*%
%TO.N,/RotEncoder2B1*%
X381220000Y-46820000D03*
%TO.P,U1,4,GPB3*%
%TO.N,/RotEncoder2B2*%
X383760000Y-46820000D03*
%TO.P,U1,5,GPB4*%
%TO.N,unconnected-(U1-GPB4-Pad5)*%
X386300000Y-46820000D03*
%TO.P,U1,6,GPB5*%
%TO.N,unconnected-(U1-GPB5-Pad6)*%
X388840000Y-46820000D03*
%TO.P,U1,7,GPB6*%
%TO.N,unconnected-(U1-GPB6-Pad7)*%
X391380000Y-46820000D03*
%TO.P,U1,8,GPB7*%
%TO.N,unconnected-(U1-GPB7-Pad8)*%
X393920000Y-46820000D03*
%TO.P,U1,9,VDD*%
%TO.N,Net-(U1-VDD)*%
X396460000Y-46820000D03*
%TO.P,U1,10,VSS*%
%TO.N,Net-(U1-VSS)*%
X399000000Y-46820000D03*
%TO.P,U1,11,NC*%
%TO.N,unconnected-(U1-NC-Pad11)*%
X401540000Y-46820000D03*
%TO.P,U1,12,SCK*%
%TO.N,SCL*%
X404080000Y-46820000D03*
%TO.P,U1,13,SDA*%
%TO.N,SDA*%
X406620000Y-46820000D03*
%TO.P,U1,14,NC__1*%
%TO.N,unconnected-(U1-NC__1-Pad14)*%
X409160000Y-46820000D03*
%TO.P,U1,15,A0*%
%TO.N,GND*%
X409160000Y-39200000D03*
%TO.P,U1,16,A1*%
X406620000Y-39200000D03*
%TO.P,U1,17,A2*%
X404080000Y-39200000D03*
%TO.P,U1,18,~{RESET}*%
%TO.N,Net-(U1-~{RESET})*%
X401540000Y-39200000D03*
%TO.P,U1,19,INTB*%
%TO.N,unconnected-(U1-INTB-Pad19)*%
X399000000Y-39200000D03*
%TO.P,U1,20,INTA*%
%TO.N,unconnected-(U1-INTA-Pad20)*%
X396460000Y-39200000D03*
%TO.P,U1,21,GPA0*%
%TO.N,/RotEncoder1A*%
X393920000Y-39200000D03*
%TO.P,U1,22,GPA1*%
%TO.N,/RotEncoder1B*%
X391380000Y-39200000D03*
%TO.P,U1,23,GPA2*%
%TO.N,/RotEncoder2A*%
X388840000Y-39200000D03*
%TO.P,U1,24,GPA3*%
%TO.N,/RotEncoder2B*%
X386300000Y-39200000D03*
%TO.P,U1,25,GPA4*%
%TO.N,unconnected-(U1-GPA4-Pad25)*%
X383760000Y-39200000D03*
%TO.P,U1,26,GPA5*%
%TO.N,unconnected-(U1-GPA5-Pad26)*%
X381220000Y-39200000D03*
%TO.P,U1,27,GPA6*%
%TO.N,unconnected-(U1-GPA6-Pad27)*%
X378680000Y-39200000D03*
%TO.P,U1,28,GPA7*%
%TO.N,unconnected-(U1-GPA7-Pad28)*%
X376140000Y-39200000D03*
%TD*%
D10*
%TO.P,D104,1,K*%
%TO.N,/ROW10*%
X346000000Y-173820000D03*
D11*
%TO.P,D104,2,A*%
%TO.N,Net-(D104-A)*%
X346000000Y-166200000D03*
%TD*%
D10*
%TO.P,D17,1,K*%
%TO.N,/ROW1*%
X408000000Y-69310000D03*
D11*
%TO.P,D17,2,A*%
%TO.N,Net-(D17-A)*%
X408000000Y-61690000D03*
%TD*%
D14*
%TO.P,SW110,6,6*%
%TO.N,unconnected-(SW110-Pad6)*%
X351860000Y-43000000D03*
%TO.P,SW110,7,7*%
%TO.N,unconnected-(SW110-Pad7)*%
X340860000Y-43000000D03*
D15*
%TO.P,SW110,A,A*%
%TO.N,/RotEncoder2A*%
X343820000Y-50500000D03*
%TO.P,SW110,B,B*%
%TO.N,/RotEncoder2B*%
X348900000Y-50500000D03*
%TO.P,SW110,C,C*%
%TO.N,GND*%
X346360000Y-50500000D03*
%TO.P,SW110,D,D*%
%TO.N,/RotEncoder2B1*%
X343820000Y-36000000D03*
%TO.P,SW110,E,E*%
%TO.N,/RotEncoder2B2*%
X348900000Y-36000000D03*
%TD*%
D10*
%TO.P,D32,1,K*%
%TO.N,/ROW3*%
X265200000Y-97620000D03*
D11*
%TO.P,D32,2,A*%
%TO.N,Net-(D32-A)*%
X265200000Y-90000000D03*
%TD*%
D10*
%TO.P,D65,1,K*%
%TO.N,/ROW6*%
X107800000Y-135710000D03*
D11*
%TO.P,D65,2,A*%
%TO.N,Net-(D65-A)*%
X107800000Y-128090000D03*
%TD*%
D10*
%TO.P,D54,1,K*%
%TO.N,/ROW5*%
X293600000Y-116610000D03*
D11*
%TO.P,D54,2,A*%
%TO.N,Net-(D54-A)*%
X293600000Y-108990000D03*
%TD*%
D10*
%TO.P,D14,1,K*%
%TO.N,/ROW1*%
X346100000Y-69310000D03*
D11*
%TO.P,D14,2,A*%
%TO.N,Net-(D14-A)*%
X346100000Y-61690000D03*
%TD*%
D10*
%TO.P,D16,1,K*%
%TO.N,/ROW1*%
X384300000Y-69120000D03*
D11*
%TO.P,D16,2,A*%
%TO.N,Net-(D16-A)*%
X384300000Y-61500000D03*
%TD*%
D10*
%TO.P,D34,1,K*%
%TO.N,/ROW3*%
X312600000Y-98110000D03*
D11*
%TO.P,D34,2,A*%
%TO.N,Net-(D34-A)*%
X312600000Y-90490000D03*
%TD*%
D16*
%TO.P,A1,1,GPIO0*%
%TO.N,SDA*%
X467317500Y-34500000D03*
D11*
%TO.P,A1,2,GPIO1*%
%TO.N,SCL*%
X464777500Y-34500000D03*
D17*
%TO.P,A1,3,GND*%
%TO.N,GND*%
X462237500Y-34500000D03*
D11*
%TO.P,A1,4,GPIO2*%
%TO.N,/COL0*%
X459697500Y-34500000D03*
%TO.P,A1,5,GPIO3*%
%TO.N,/COL1*%
X457157500Y-34500000D03*
%TO.P,A1,6,GPIO4*%
%TO.N,/COL2*%
X454617500Y-34500000D03*
%TO.P,A1,7,GPIO5*%
%TO.N,/COL3*%
X452077500Y-34500000D03*
D17*
%TO.P,A1,8,GND*%
%TO.N,GND*%
X449537500Y-34500000D03*
D11*
%TO.P,A1,9,GPIO6*%
%TO.N,/COL4*%
X446997500Y-34500000D03*
%TO.P,A1,10,GPIO7*%
%TO.N,/COL5*%
X444457500Y-34500000D03*
%TO.P,A1,11,GPIO8*%
%TO.N,/COL6*%
X441917500Y-34500000D03*
%TO.P,A1,12,GPIO9*%
%TO.N,/COL7*%
X439377500Y-34500000D03*
D17*
%TO.P,A1,13,GND*%
%TO.N,GND*%
X436837500Y-34500000D03*
D11*
%TO.P,A1,14,GPIO10*%
%TO.N,/COL8*%
X434297500Y-34500000D03*
%TO.P,A1,15,GPIO11*%
%TO.N,/COL9*%
X431757500Y-34500000D03*
%TO.P,A1,16,GPIO12*%
%TO.N,/ROW0*%
X429217500Y-34500000D03*
%TO.P,A1,17,GPIO13*%
%TO.N,/ROW1*%
X426677500Y-34500000D03*
D17*
%TO.P,A1,18,GND*%
%TO.N,GND*%
X424137500Y-34500000D03*
D11*
%TO.P,A1,19,GPIO14*%
%TO.N,/ROW2*%
X421597500Y-34500000D03*
%TO.P,A1,20,GPIO15*%
%TO.N,/ROW3*%
X419057500Y-34500000D03*
%TO.P,A1,21,GPIO16*%
%TO.N,/ROW4*%
X419057500Y-52280000D03*
%TO.P,A1,22,GPIO17*%
%TO.N,/ROW5*%
X421597500Y-52280000D03*
D18*
%TO.P,A1,23,GND*%
%TO.N,GND*%
X424137500Y-52280000D03*
D11*
%TO.P,A1,24,GPIO18*%
%TO.N,/ROW6*%
X426677500Y-52280000D03*
%TO.P,A1,25,GPIO19*%
%TO.N,/ROW7*%
X429217500Y-52280000D03*
%TO.P,A1,26,GPIO20*%
%TO.N,/ROW8*%
X431757500Y-52280000D03*
%TO.P,A1,27,GPIO21*%
%TO.N,/ROW9*%
X434297500Y-52280000D03*
D18*
%TO.P,A1,28,GND*%
%TO.N,GND*%
X436837500Y-52280000D03*
D11*
%TO.P,A1,29,GPIO22*%
%TO.N,/ROW10*%
X439377500Y-52280000D03*
%TO.P,A1,30,RUN*%
%TO.N,unconnected-(A1-RUN-Pad30)*%
X441917500Y-52280000D03*
%TO.P,A1,31,GPIO26_ADC0*%
%TO.N,unconnected-(A1-GPIO26_ADC0-Pad31)*%
X444457500Y-52280000D03*
%TO.P,A1,32,GPIO27_ADC1*%
%TO.N,unconnected-(A1-GPIO27_ADC1-Pad32)*%
X446997500Y-52280000D03*
D18*
%TO.P,A1,33,AGND*%
%TO.N,unconnected-(A1-AGND-Pad33)*%
X449537500Y-52280000D03*
D11*
%TO.P,A1,34,GPIO28_ADC2*%
%TO.N,unconnected-(A1-GPIO28_ADC2-Pad34)*%
X452077500Y-52280000D03*
%TO.P,A1,35,ADC_VREF*%
%TO.N,unconnected-(A1-ADC_VREF-Pad35)*%
X454617500Y-52280000D03*
%TO.P,A1,36,3V3*%
%TO.N,+3.3V*%
X457157500Y-52280000D03*
%TO.P,A1,37,3V3_EN*%
%TO.N,unconnected-(A1-3V3_EN-Pad37)*%
X459697500Y-52280000D03*
D18*
%TO.P,A1,38,GND*%
%TO.N,GND*%
X462237500Y-52280000D03*
D11*
%TO.P,A1,39,VSYS*%
%TO.N,unconnected-(A1-VSYS-Pad39)*%
X464777500Y-52280000D03*
%TO.P,A1,40,VBUS*%
%TO.N,+5V*%
X467317500Y-52280000D03*
%TD*%
D10*
%TO.P,D23,1,K*%
%TO.N,/ROW2*%
X93700000Y-97620000D03*
D11*
%TO.P,D23,2,A*%
%TO.N,Net-(D23-A)*%
X93700000Y-90000000D03*
%TD*%
D10*
%TO.P,D3,1,K*%
%TO.N,/ROW0*%
X112800000Y-69000000D03*
D11*
%TO.P,D3,2,A*%
%TO.N,Net-(D3-A)*%
X112800000Y-61380000D03*
%TD*%
D10*
%TO.P,D77,1,K*%
%TO.N,/ROW7*%
X427100000Y-135810000D03*
D11*
%TO.P,D77,2,A*%
%TO.N,Net-(D77-A)*%
X427100000Y-128190000D03*
%TD*%
%TO.P,R3,1,1*%
%TO.N,Net-(U1-~{RESET})*%
X401600000Y-36545000D03*
%TO.P,R3,2,2*%
%TO.N,+3.3V*%
X401600000Y-34005000D03*
%TD*%
D10*
%TO.P,D102,1,K*%
%TO.N,/ROW10*%
X295600000Y-173810000D03*
D11*
%TO.P,D102,2,A*%
%TO.N,Net-(D102-A)*%
X295600000Y-166190000D03*
%TD*%
D10*
%TO.P,D71,1,K*%
%TO.N,/ROW7*%
X222100000Y-135700000D03*
D11*
%TO.P,D71,2,A*%
%TO.N,Net-(D71-A)*%
X222100000Y-128080000D03*
%TD*%
D10*
%TO.P,D27,1,K*%
%TO.N,/ROW2*%
X169900000Y-97620000D03*
D11*
%TO.P,D27,2,A*%
%TO.N,Net-(D27-A)*%
X169900000Y-90000000D03*
%TD*%
%TO.P,C2,1,1*%
%TO.N,Net-(U1-VSS)*%
X397760000Y-49000000D03*
%TO.P,C2,2,2*%
%TO.N,GND*%
X402840000Y-49000000D03*
%TD*%
D10*
%TO.P,D35,1,K*%
%TO.N,/ROW3*%
X346200000Y-97720000D03*
D11*
%TO.P,D35,2,A*%
%TO.N,Net-(D35-A)*%
X346200000Y-90100000D03*
%TD*%
D10*
%TO.P,D6,1,K*%
%TO.N,/ROW0*%
X179400000Y-69310000D03*
D11*
%TO.P,D6,2,A*%
%TO.N,Net-(D6-A)*%
X179400000Y-61690000D03*
%TD*%
D10*
%TO.P,D24,1,K*%
%TO.N,/ROW2*%
X112600000Y-97620000D03*
D11*
%TO.P,D24,2,A*%
%TO.N,Net-(D24-A)*%
X112600000Y-90000000D03*
%TD*%
D10*
%TO.P,D45,1,K*%
%TO.N,/ROW4*%
X122300000Y-116620000D03*
D11*
%TO.P,D45,2,A*%
%TO.N,Net-(D45-A)*%
X122300000Y-109000000D03*
%TD*%
D10*
%TO.P,D18,1,K*%
%TO.N,/ROW1*%
X427100000Y-69310000D03*
D11*
%TO.P,D18,2,A*%
%TO.N,Net-(D18-A)*%
X427100000Y-61690000D03*
%TD*%
D10*
%TO.P,D61,1,K*%
%TO.N,/ROW6*%
X445500000Y-117510000D03*
D11*
%TO.P,D61,2,A*%
%TO.N,Net-(D61-A)*%
X445500000Y-109890000D03*
%TD*%
D10*
%TO.P,D64,1,K*%
%TO.N,/ROW6*%
X88700000Y-135710000D03*
D11*
%TO.P,D64,2,A*%
%TO.N,Net-(D64-A)*%
X88700000Y-128090000D03*
%TD*%
D10*
%TO.P,D81,1,K*%
%TO.N,/ROW8*%
X117300000Y-154810000D03*
D11*
%TO.P,D81,2,A*%
%TO.N,Net-(D81-A)*%
X117300000Y-147190000D03*
%TD*%
D10*
%TO.P,D68,1,K*%
%TO.N,/ROW6*%
X164900000Y-135710000D03*
D11*
%TO.P,D68,2,A*%
%TO.N,Net-(D68-A)*%
X164900000Y-128090000D03*
%TD*%
D10*
%TO.P,D63,1,K*%
%TO.N,/ROW6*%
X62500000Y-135710000D03*
D11*
%TO.P,D63,2,A*%
%TO.N,Net-(D63-A)*%
X62500000Y-128090000D03*
%TD*%
D10*
%TO.P,D47,1,K*%
%TO.N,/ROW4*%
X160300000Y-116610000D03*
D11*
%TO.P,D47,2,A*%
%TO.N,Net-(D47-A)*%
X160300000Y-108990000D03*
%TD*%
D10*
%TO.P,D89,1,K*%
%TO.N,/ROW8*%
X269900000Y-154810000D03*
D11*
%TO.P,D89,2,A*%
%TO.N,Net-(D89-A)*%
X269900000Y-147190000D03*
%TD*%
D10*
%TO.P,D21,1,K*%
%TO.N,/ROW2*%
X55500000Y-97720000D03*
D11*
%TO.P,D21,2,A*%
%TO.N,Net-(D21-A)*%
X55500000Y-90100000D03*
%TD*%
D10*
%TO.P,D53,1,K*%
%TO.N,/ROW5*%
X274500000Y-116700000D03*
D11*
%TO.P,D53,2,A*%
%TO.N,Net-(D53-A)*%
X274500000Y-109080000D03*
%TD*%
D10*
%TO.P,D78,1,K*%
%TO.N,/ROW7*%
X445900000Y-135800000D03*
D11*
%TO.P,D78,2,A*%
%TO.N,Net-(D78-A)*%
X445900000Y-128180000D03*
%TD*%
D10*
%TO.P,D59,1,K*%
%TO.N,/ROW5*%
X408100000Y-116710000D03*
D11*
%TO.P,D59,2,A*%
%TO.N,Net-(D59-A)*%
X408100000Y-109090000D03*
%TD*%
D10*
%TO.P,D49,1,K*%
%TO.N,/ROW4*%
X198200000Y-116610000D03*
D11*
%TO.P,D49,2,A*%
%TO.N,Net-(D49-A)*%
X198200000Y-108990000D03*
%TD*%
D10*
%TO.P,D76,1,K*%
%TO.N,/ROW7*%
X408000000Y-135720000D03*
D11*
%TO.P,D76,2,A*%
%TO.N,Net-(D76-A)*%
X408000000Y-128100000D03*
%TD*%
D10*
%TO.P,D57,1,K*%
%TO.N,/ROW5*%
X365200000Y-116710000D03*
D11*
%TO.P,D57,2,A*%
%TO.N,Net-(D57-A)*%
X365200000Y-109090000D03*
%TD*%
D10*
%TO.P,D10,1,K*%
%TO.N,/ROW0*%
X265100000Y-69310000D03*
D11*
%TO.P,D10,2,A*%
%TO.N,Net-(D10-A)*%
X265100000Y-61690000D03*
%TD*%
D10*
%TO.P,D80,1,K*%
%TO.N,/ROW7*%
X98300000Y-154810000D03*
D11*
%TO.P,D80,2,A*%
%TO.N,Net-(D80-A)*%
X98300000Y-147190000D03*
%TD*%
D10*
%TO.P,D60,1,K*%
%TO.N,/ROW5*%
X427100000Y-116610000D03*
D11*
%TO.P,D60,2,A*%
%TO.N,Net-(D60-A)*%
X427100000Y-108990000D03*
%TD*%
D10*
%TO.P,D94,1,K*%
%TO.N,/ROW9*%
X445400000Y-155410000D03*
D11*
%TO.P,D94,2,A*%
%TO.N,Net-(D94-A)*%
X445400000Y-147790000D03*
%TD*%
D10*
%TO.P,D52,1,K*%
%TO.N,/ROW5*%
X255400000Y-116610000D03*
D11*
%TO.P,D52,2,A*%
%TO.N,Net-(D52-A)*%
X255400000Y-108990000D03*
%TD*%
D19*
%TO.N,/ROW9*%
X309000000Y-156400000D03*
X435500000Y-57500000D03*
X429500000Y-109500000D03*
X429500000Y-90500000D03*
X282400000Y-162900000D03*
X279957500Y-161000000D03*
X428500000Y-134500000D03*
X429500000Y-97000000D03*
X252500000Y-162000000D03*
X299500000Y-163000000D03*
%TO.N,/ROW10*%
X446700000Y-124800000D03*
X445500000Y-72000000D03*
X443500000Y-163000000D03*
X450500000Y-127000000D03*
X448000000Y-163000000D03*
X447500000Y-101500000D03*
%TO.N,GND*%
X363500000Y-54000000D03*
X346500000Y-52000000D03*
X366500000Y-83100000D03*
X352000000Y-83500000D03*
X354000000Y-83500000D03*
X362500000Y-48500000D03*
X366500000Y-96000000D03*
X398500000Y-54000000D03*
%TO.N,/ROW2*%
X229100000Y-86000000D03*
X415500000Y-35699000D03*
X415500000Y-48500000D03*
X398000000Y-50500000D03*
X376000000Y-81500000D03*
X243000000Y-81500000D03*
X386500000Y-54400000D03*
%TO.N,/ROW8*%
X429500000Y-80000000D03*
X325000000Y-145000000D03*
X326500000Y-83100000D03*
X326500000Y-80000000D03*
X326500000Y-97000000D03*
X434500000Y-57500000D03*
X434500000Y-54500000D03*
%TO.N,/COL2*%
X137000000Y-143500000D03*
X45000000Y-123500000D03*
X51000000Y-142500000D03*
X304400000Y-162200000D03*
X409500000Y-159500000D03*
X301500000Y-32500000D03*
X245000000Y-143500000D03*
X281800000Y-145600000D03*
X306500000Y-29500000D03*
X454500000Y-29000000D03*
X57500000Y-123000000D03*
X96500000Y-35000000D03*
%TO.N,/ROW7*%
X140500000Y-156000000D03*
X427000000Y-122400000D03*
X428500000Y-76000000D03*
X427500000Y-74500000D03*
X142500000Y-156000000D03*
X428500000Y-97000000D03*
X427346306Y-93846306D03*
X230031955Y-155968045D03*
X427500000Y-58400000D03*
X427500000Y-118500000D03*
%TO.N,/COL8*%
X308500000Y-40500000D03*
X430500000Y-59000000D03*
X433500000Y-57500000D03*
X220500000Y-40500000D03*
X144000000Y-169000000D03*
X252000000Y-182500000D03*
X51000000Y-160500000D03*
X327500000Y-59500000D03*
X160000000Y-182000000D03*
%TO.N,/COL0*%
X450000000Y-82000000D03*
X100000000Y-144600000D03*
X254000000Y-164500000D03*
X458000000Y-54500000D03*
X273500000Y-157000000D03*
X42500000Y-144500000D03*
X262000000Y-31500000D03*
X269000000Y-31500000D03*
X467000000Y-54500000D03*
X332500000Y-156500000D03*
X468000000Y-82000000D03*
X214400000Y-159100000D03*
%TO.N,+3.3V*%
X406750000Y-51750000D03*
X439250000Y-55800000D03*
X418500000Y-53500000D03*
X445000000Y-56000000D03*
X406000000Y-49750000D03*
X386000000Y-116000000D03*
X387000000Y-123600000D03*
X432000000Y-54400000D03*
X457000000Y-56000000D03*
X447976169Y-56000000D03*
X388500000Y-104500000D03*
X432000000Y-55750000D03*
X467500000Y-103000000D03*
X407500000Y-53500000D03*
X465500000Y-56000000D03*
X387500000Y-115000000D03*
%TO.N,/ROW3*%
X413000000Y-51790000D03*
X408000000Y-94000000D03*
X407640305Y-77140305D03*
X407500000Y-75000000D03*
X414500000Y-35000000D03*
%TO.N,/COL1*%
X392500000Y-144500000D03*
X286677838Y-32322162D03*
X276500000Y-166500000D03*
X227000000Y-143500000D03*
X78500000Y-33500000D03*
X383500000Y-158000000D03*
X457000000Y-28000000D03*
X327500000Y-28000000D03*
X270500000Y-144500000D03*
X448000000Y-143500000D03*
%TO.N,/ROW1*%
X428500000Y-60000000D03*
X428500000Y-58100000D03*
%TO.N,/COL9*%
X82400000Y-162100000D03*
X275000000Y-180000000D03*
X222000000Y-144500000D03*
X135500000Y-162500000D03*
X383500000Y-126000000D03*
X410500000Y-118500000D03*
X190000000Y-143500000D03*
X157000000Y-162500000D03*
X290000000Y-144000000D03*
X231000000Y-180000000D03*
X275500000Y-153500000D03*
X388000000Y-121000000D03*
X288000000Y-153000000D03*
X213500000Y-168500000D03*
X347500000Y-126000000D03*
X340000000Y-141500000D03*
%TO.N,/ROW0*%
X427000000Y-30900000D03*
X267500000Y-30500000D03*
%TO.N,/COL3*%
X157000000Y-140500000D03*
X324500000Y-32500000D03*
X116000000Y-35500000D03*
X72000000Y-137500000D03*
X428600000Y-162300000D03*
X264000000Y-141000000D03*
X330150000Y-163350000D03*
X348000000Y-162500000D03*
X350000000Y-163500000D03*
X329554249Y-29900000D03*
X302500000Y-141500000D03*
%TO.N,/COL6*%
X182000000Y-38500000D03*
X65500000Y-179000000D03*
X107500000Y-140500000D03*
X128500000Y-139500000D03*
X205700000Y-174800000D03*
X311000000Y-38500000D03*
X75000000Y-145500000D03*
X428000000Y-49000000D03*
X409000000Y-124000000D03*
X394000000Y-57000000D03*
X442500000Y-43500000D03*
X328000000Y-56500000D03*
X104500000Y-143400000D03*
X389500000Y-124000000D03*
X442000000Y-46500000D03*
%TO.N,/COL7*%
X328000000Y-58500000D03*
X410483740Y-59016260D03*
X385500000Y-105500000D03*
X440500000Y-55500000D03*
X310000000Y-39500000D03*
X368500000Y-106000000D03*
X429000000Y-123500000D03*
X137000000Y-164000000D03*
X148275913Y-135110000D03*
X367500000Y-123000000D03*
X141500000Y-163500000D03*
X430000000Y-144500000D03*
X201000000Y-39500000D03*
X141500000Y-155500000D03*
X430500000Y-154000000D03*
X234000000Y-147500000D03*
X149500000Y-137000000D03*
X89000000Y-164000000D03*
%TO.N,/ROW4*%
X387500000Y-99500000D03*
X228500000Y-85000000D03*
X355000000Y-82500000D03*
X400500000Y-53500000D03*
X382500000Y-82500000D03*
X377000000Y-82000000D03*
%TO.N,/COL5*%
X424000000Y-56400000D03*
X329500000Y-124500000D03*
X313500000Y-37500000D03*
X380500000Y-125000000D03*
X96500000Y-161100000D03*
X110000000Y-143100000D03*
X43000000Y-161500000D03*
X163000000Y-37500000D03*
X328000000Y-54000000D03*
X191500000Y-184000000D03*
X443000000Y-56000000D03*
X107500000Y-146000000D03*
X41900000Y-183100000D03*
X368000000Y-55000000D03*
%TO.N,/ROW5*%
X410500000Y-57600000D03*
X411083740Y-68500000D03*
X412000000Y-58500000D03*
X411000000Y-90000000D03*
X411083740Y-62000000D03*
X412000000Y-54400000D03*
X410000000Y-97000000D03*
%TO.N,/ROW6*%
X426500000Y-75500000D03*
X421500000Y-57400000D03*
X425500000Y-68500000D03*
X219500000Y-135000000D03*
X225500000Y-123500000D03*
X444500000Y-97000000D03*
X444500000Y-87000000D03*
X441000000Y-105100000D03*
X426000000Y-60500000D03*
X409000000Y-119000000D03*
%TO.N,SDA*%
X405000000Y-63500000D03*
X383600000Y-129000000D03*
X462000000Y-31000000D03*
X408500000Y-51500000D03*
X409000000Y-60600000D03*
X384300000Y-127400000D03*
X401000000Y-70000000D03*
X449000000Y-30900000D03*
X387500000Y-101000000D03*
X395000000Y-79000000D03*
X385000000Y-115000000D03*
%TO.N,SCL*%
X457732500Y-32718528D03*
X430000000Y-32100000D03*
X412500000Y-32100000D03*
X406500000Y-63000000D03*
X386500000Y-81500000D03*
X386500000Y-99000000D03*
X404500000Y-51100000D03*
X428500000Y-32100000D03*
X386500000Y-87500000D03*
X383500000Y-113500000D03*
X462900000Y-32500000D03*
X451452500Y-32100000D03*
X406500000Y-60600000D03*
%TO.N,+5V*%
X463500000Y-31000000D03*
X450000000Y-30000000D03*
%TO.N,/COL4*%
X349000000Y-163000000D03*
X430500000Y-58000000D03*
X134500000Y-36500000D03*
X176500000Y-141500000D03*
X421500000Y-56100000D03*
X92500000Y-141500000D03*
X445000000Y-161500000D03*
X332500000Y-55000000D03*
X349000000Y-56500000D03*
%TO.N,/RotEncoder1B2*%
X372500000Y-36500000D03*
X373000000Y-49000000D03*
%TO.N,/RotEncoder1B1*%
X374000000Y-35500000D03*
%TO.N,/RotEncoder2B1*%
X378500000Y-53000000D03*
X339000000Y-36000000D03*
X338000000Y-53000000D03*
%TO.N,/RotEncoder2B2*%
X355000000Y-52000000D03*
X355000000Y-38500000D03*
%TO.N,/RotEncoder2A*%
X336000000Y-50500000D03*
X336000000Y-33500000D03*
%TO.N,/RotEncoder2B*%
X354000000Y-50000000D03*
X354500000Y-34500000D03*
%TD*%
D20*
%TO.N,/ROW9*%
X429601000Y-109601000D02*
X429601000Y-133399000D01*
X459790000Y-159000000D02*
X465100000Y-164310000D01*
X450668651Y-155400000D02*
X454268651Y-159000000D01*
X279957500Y-161000000D02*
X253500000Y-161000000D01*
X435500000Y-53482500D02*
X435500000Y-57500000D01*
X454268651Y-159000000D02*
X459790000Y-159000000D01*
X57900000Y-174010000D02*
X108010000Y-174010000D01*
X429601000Y-133399000D02*
X428500000Y-134500000D01*
X434297500Y-52280000D02*
X435500000Y-53482500D01*
X445390000Y-155400000D02*
X445400000Y-155410000D01*
X253500000Y-161000000D02*
X252500000Y-162000000D01*
X282400000Y-162900000D02*
X284900000Y-162900000D01*
X108200000Y-173820000D02*
X248600000Y-173820000D01*
X310590000Y-154810000D02*
X309000000Y-156400000D01*
X445410000Y-155400000D02*
X450668651Y-155400000D01*
X429500000Y-90500000D02*
X429500000Y-97000000D01*
X285000000Y-163000000D02*
X299500000Y-163000000D01*
X429500000Y-109500000D02*
X429601000Y-109601000D01*
X365100000Y-154810000D02*
X310590000Y-154810000D01*
X365100000Y-154810000D02*
X365690000Y-155400000D01*
X284900000Y-162900000D02*
X285000000Y-163000000D01*
X108010000Y-174010000D02*
X108200000Y-173820000D01*
X445400000Y-155410000D02*
X445410000Y-155400000D01*
X365690000Y-155400000D02*
X445390000Y-155400000D01*
%TO.N,/ROW10*%
X447500000Y-74000000D02*
X445500000Y-72000000D01*
X447500000Y-101500000D02*
X447500000Y-74000000D01*
X446700000Y-125200000D02*
X446700000Y-124800000D01*
X449500000Y-126000000D02*
X447500000Y-126000000D01*
X272200000Y-173820000D02*
X446090000Y-173820000D01*
X450500000Y-127000000D02*
X449500000Y-126000000D01*
X446090000Y-173820000D02*
X446100000Y-173810000D01*
X447500000Y-126000000D02*
X446700000Y-125200000D01*
X448000000Y-163000000D02*
X443500000Y-163000000D01*
%TO.N,GND*%
X402840000Y-42980000D02*
X404080000Y-41740000D01*
X402840000Y-49000000D02*
X398500000Y-53340000D01*
X402840000Y-49000000D02*
X402840000Y-42980000D01*
X354000000Y-83500000D02*
X352000000Y-83500000D01*
X362500000Y-50100000D02*
X362400000Y-50200000D01*
X366500000Y-96000000D02*
X366500000Y-83100000D01*
X363500000Y-54000000D02*
X362400000Y-52900000D01*
X404080000Y-39200000D02*
X404080000Y-41740000D01*
X346360000Y-50500000D02*
X346360000Y-51860000D01*
X362400000Y-52900000D02*
X362400000Y-50200000D01*
X362500000Y-48500000D02*
X362500000Y-50100000D01*
X409160000Y-39200000D02*
X404080000Y-39200000D01*
X346360000Y-51860000D02*
X346500000Y-52000000D01*
X398500000Y-53340000D02*
X398500000Y-54000000D01*
%TO.N,/ROW2*%
X226900000Y-97720000D02*
X227000000Y-97620000D01*
X227000000Y-97620000D02*
X229100000Y-95520000D01*
X55500000Y-97720000D02*
X226900000Y-97720000D01*
X415500000Y-48500000D02*
X415500000Y-35699000D01*
X243000000Y-81500000D02*
X290000000Y-81500000D01*
X290000000Y-81500000D02*
X376000000Y-81500000D01*
X390400000Y-50500000D02*
X398000000Y-50500000D01*
X229100000Y-95520000D02*
X229100000Y-86000000D01*
X386500000Y-54400000D02*
X390400000Y-50500000D01*
%TO.N,/ROW8*%
X305800000Y-154810000D02*
X315610000Y-145000000D01*
X315610000Y-145000000D02*
X325000000Y-145000000D01*
X326500000Y-80000000D02*
X374500000Y-80000000D01*
X117300000Y-154810000D02*
X305800000Y-154810000D01*
X326500000Y-97000000D02*
X326500000Y-83100000D01*
X434500000Y-57500000D02*
X434500000Y-54500000D01*
X374500000Y-80000000D02*
X429500000Y-80000000D01*
%TO.N,/COL2*%
X311700000Y-160500000D02*
X408500000Y-160500000D01*
X96500000Y-35000000D02*
X97000000Y-34500000D01*
X97000000Y-34500000D02*
X249500000Y-34500000D01*
X309329000Y-162871000D02*
X311700000Y-160500000D01*
X305700000Y-161700000D02*
X306871000Y-162871000D01*
X306500000Y-29500000D02*
X307000000Y-29000000D01*
X307000000Y-29000000D02*
X454500000Y-29000000D01*
X136000000Y-142500000D02*
X137000000Y-143500000D01*
X304400000Y-162200000D02*
X304900000Y-161700000D01*
X304900000Y-161700000D02*
X305700000Y-161700000D01*
X299500000Y-34500000D02*
X301500000Y-32500000D01*
X57000000Y-123500000D02*
X45000000Y-123500000D01*
X306871000Y-162871000D02*
X309329000Y-162871000D01*
X408500000Y-160500000D02*
X409500000Y-159500000D01*
X57500000Y-123000000D02*
X57000000Y-123500000D01*
X281800000Y-144800000D02*
X280500000Y-143500000D01*
X281800000Y-145600000D02*
X281800000Y-144800000D01*
X51000000Y-142500000D02*
X136000000Y-142500000D01*
X249500000Y-34500000D02*
X299500000Y-34500000D01*
X280500000Y-143500000D02*
X245000000Y-143500000D01*
%TO.N,/ROW7*%
X427500000Y-118500000D02*
X427000000Y-119000000D01*
X99490000Y-156000000D02*
X140500000Y-156000000D01*
X427500000Y-74500000D02*
X427500000Y-75000000D01*
X428500000Y-95000000D02*
X428500000Y-97000000D01*
X98300000Y-154810000D02*
X99490000Y-156000000D01*
X310200000Y-135810000D02*
X326310000Y-135810000D01*
X222100000Y-135700000D02*
X222210000Y-135810000D01*
X427000000Y-119000000D02*
X427000000Y-122400000D01*
X67500000Y-154810000D02*
X98300000Y-154810000D01*
X408000000Y-135720000D02*
X446100000Y-135720000D01*
X326310000Y-135810000D02*
X330500000Y-140000000D01*
X427500000Y-58250057D02*
X427500000Y-58400000D01*
X427346306Y-93846306D02*
X428500000Y-95000000D01*
X429217500Y-52280000D02*
X429217500Y-56532557D01*
X330500000Y-140000000D02*
X388500000Y-140000000D01*
X427500000Y-75000000D02*
X428500000Y-76000000D01*
X429217500Y-56532557D02*
X427500000Y-58250057D01*
X142500000Y-156000000D02*
X230000000Y-156000000D01*
X222210000Y-135810000D02*
X310200000Y-135810000D01*
X392780000Y-135720000D02*
X408000000Y-135720000D01*
X230000000Y-156000000D02*
X230031955Y-155968045D01*
X388500000Y-140000000D02*
X392780000Y-135720000D01*
%TO.N,/COL8*%
X412500000Y-60000000D02*
X413500000Y-59000000D01*
X220500000Y-40500000D02*
X308500000Y-40500000D01*
X160000000Y-182000000D02*
X160100000Y-182100000D01*
X403000000Y-59500000D02*
X403500000Y-60000000D01*
X433500000Y-57500000D02*
X433171500Y-57171500D01*
X251600000Y-182100000D02*
X252000000Y-182500000D01*
X433171500Y-57171500D02*
X433171500Y-35711000D01*
X160100000Y-182100000D02*
X251600000Y-182100000D01*
X68500000Y-158200000D02*
X66200000Y-160500000D01*
X433171500Y-35711000D02*
X434272500Y-34610000D01*
X66200000Y-160500000D02*
X51000000Y-160500000D01*
X133200000Y-158200000D02*
X68500000Y-158200000D01*
X413500000Y-59000000D02*
X430500000Y-59000000D01*
X327500000Y-59500000D02*
X403000000Y-59500000D01*
X403500000Y-60000000D02*
X412500000Y-60000000D01*
X144000000Y-169000000D02*
X133200000Y-158200000D01*
%TO.N,/COL0*%
X467000000Y-54500000D02*
X458000000Y-54500000D01*
X214500000Y-159000000D02*
X248500000Y-159000000D01*
X214400000Y-159100000D02*
X214500000Y-159000000D01*
X262000000Y-31500000D02*
X269000000Y-31500000D01*
X332000000Y-157000000D02*
X273500000Y-157000000D01*
X43800000Y-143200000D02*
X98600000Y-143200000D01*
X42500000Y-144500000D02*
X43800000Y-143200000D01*
X248500000Y-159000000D02*
X254000000Y-164500000D01*
X332500000Y-156500000D02*
X332000000Y-157000000D01*
X450000000Y-82000000D02*
X468000000Y-82000000D01*
X98600000Y-143200000D02*
X100000000Y-144600000D01*
X269000000Y-31500000D02*
X457362500Y-31500000D01*
X457362500Y-31500000D02*
X459672500Y-33810000D01*
%TO.N,+3.3V*%
X447976169Y-56000000D02*
X457000000Y-56000000D01*
X432000000Y-54400000D02*
X432000000Y-55750000D01*
X387000000Y-123600000D02*
X379080000Y-131520000D01*
X465500000Y-56000000D02*
X457000000Y-56000000D01*
X407000000Y-51500000D02*
X406750000Y-51750000D01*
X466000000Y-104500000D02*
X467500000Y-103000000D01*
X386500000Y-116000000D02*
X387500000Y-115000000D01*
X407500000Y-53500000D02*
X418500000Y-53500000D01*
X444399000Y-56601000D02*
X445000000Y-56000000D01*
X388500000Y-104500000D02*
X466000000Y-104500000D01*
X386000000Y-116000000D02*
X386500000Y-116000000D01*
X407000000Y-50750000D02*
X407000000Y-51500000D01*
X406000000Y-49750000D02*
X407000000Y-50750000D01*
X379080000Y-131520000D02*
X370100000Y-131520000D01*
X439250000Y-55800000D02*
X440051000Y-56601000D01*
X440051000Y-56601000D02*
X444399000Y-56601000D01*
%TO.N,/ROW3*%
X414500000Y-35000000D02*
X413000000Y-36500000D01*
X407500000Y-77000000D02*
X407640305Y-77140305D01*
X408000000Y-94500000D02*
X408100000Y-94600000D01*
X413000000Y-36500000D02*
X413000000Y-51790000D01*
X246100000Y-97620000D02*
X246580000Y-98100000D01*
X407500000Y-75000000D02*
X407500000Y-77000000D01*
X445810000Y-98100000D02*
X446200000Y-97710000D01*
X408000000Y-94000000D02*
X408000000Y-94500000D01*
X408100000Y-94600000D02*
X408100000Y-97720000D01*
X246580000Y-98100000D02*
X445810000Y-98100000D01*
%TO.N,/COL1*%
X283200000Y-158000000D02*
X281600000Y-159600000D01*
X270500000Y-144500000D02*
X228000000Y-144500000D01*
X228000000Y-144500000D02*
X227000000Y-143500000D01*
X327500000Y-28000000D02*
X457000000Y-28000000D01*
X393500000Y-143500000D02*
X392500000Y-144500000D01*
X78500000Y-33500000D02*
X285500000Y-33500000D01*
X285500000Y-33500000D02*
X286677838Y-32322162D01*
X448000000Y-143500000D02*
X393500000Y-143500000D01*
X383500000Y-158000000D02*
X283200000Y-158000000D01*
X281600000Y-161400000D02*
X276500000Y-166500000D01*
X281600000Y-159600000D02*
X281600000Y-161400000D01*
%TO.N,/ROW1*%
X428500000Y-58100000D02*
X428500000Y-58000000D01*
X426652500Y-41652500D02*
X426652500Y-34610000D01*
X428500000Y-58000000D02*
X430500000Y-56000000D01*
X430500000Y-56000000D02*
X430500000Y-45500000D01*
X430500000Y-45500000D02*
X426652500Y-41652500D01*
X427100000Y-69310000D02*
X428500000Y-67910000D01*
X284200000Y-69310000D02*
X465200000Y-69310000D01*
X428500000Y-67910000D02*
X428500000Y-60000000D01*
%TO.N,/COL9*%
X221000000Y-143500000D02*
X222000000Y-144500000D01*
X408000000Y-121000000D02*
X410500000Y-118500000D01*
X337500000Y-144000000D02*
X340000000Y-141500000D01*
X157000000Y-162500000D02*
X207500000Y-162500000D01*
X275500000Y-153500000D02*
X287500000Y-153500000D01*
X306500000Y-143200000D02*
X309800000Y-143200000D01*
X135100000Y-162100000D02*
X135500000Y-162500000D01*
X287500000Y-153500000D02*
X288000000Y-153000000D01*
X309800000Y-143200000D02*
X310600000Y-144000000D01*
X82400000Y-162100000D02*
X135100000Y-162100000D01*
X290000000Y-144000000D02*
X305700000Y-144000000D01*
X305700000Y-144000000D02*
X306500000Y-143200000D01*
X310600000Y-144000000D02*
X337500000Y-144000000D01*
X388000000Y-121000000D02*
X408000000Y-121000000D01*
X190000000Y-143500000D02*
X221000000Y-143500000D01*
X231000000Y-180000000D02*
X275000000Y-180000000D01*
X347500000Y-126000000D02*
X383500000Y-126000000D01*
X207500000Y-162500000D02*
X213500000Y-168500000D01*
%TO.N,/ROW0*%
X257000000Y-69000000D02*
X257310000Y-69310000D01*
X427000000Y-30900000D02*
X426600000Y-30500000D01*
X257310000Y-69310000D02*
X265100000Y-69310000D01*
X426600000Y-30500000D02*
X267500000Y-30500000D01*
X55500000Y-69000000D02*
X257000000Y-69000000D01*
%TO.N,/COL3*%
X116000000Y-35500000D02*
X285500000Y-35500000D01*
X321500000Y-35500000D02*
X324500000Y-32500000D01*
X131500000Y-140500000D02*
X129000000Y-138000000D01*
X157000000Y-140500000D02*
X131500000Y-140500000D01*
X128500000Y-137500000D02*
X72000000Y-137500000D01*
X266000000Y-139000000D02*
X264000000Y-141000000D01*
X300000000Y-139000000D02*
X266000000Y-139000000D01*
X330500000Y-163000000D02*
X347500000Y-163000000D01*
X351200000Y-162300000D02*
X350000000Y-163500000D01*
X428600000Y-162300000D02*
X351200000Y-162300000D01*
X285500000Y-35500000D02*
X321500000Y-35500000D01*
X347500000Y-163000000D02*
X348000000Y-162500000D01*
X302500000Y-141500000D02*
X300000000Y-139000000D01*
X330150000Y-163350000D02*
X330500000Y-163000000D01*
X129000000Y-138000000D02*
X128500000Y-137500000D01*
%TO.N,/COL6*%
X410948943Y-57199000D02*
X411266100Y-57199000D01*
X442500000Y-43500000D02*
X442000000Y-44000000D01*
X329000000Y-57500000D02*
X393500000Y-57500000D01*
X411266100Y-57199000D02*
X411966100Y-57899000D01*
X127500000Y-140500000D02*
X128500000Y-139500000D01*
X393500000Y-57500000D02*
X394000000Y-57000000D01*
X426500000Y-58000000D02*
X428000000Y-56500000D01*
X389500000Y-124000000D02*
X409000000Y-124000000D01*
X410748943Y-56999000D02*
X410948943Y-57199000D01*
X216500000Y-38500000D02*
X311000000Y-38500000D01*
X328000000Y-56500000D02*
X329000000Y-57500000D01*
X409899000Y-57351057D02*
X410251057Y-56999000D01*
X203500000Y-177000000D02*
X67500000Y-177000000D01*
X102566288Y-145333712D02*
X104500000Y-143400000D01*
X182000000Y-38500000D02*
X216500000Y-38500000D01*
X82666288Y-145333712D02*
X102566288Y-145333712D01*
X442000000Y-44000000D02*
X442000000Y-46500000D01*
X75000000Y-145500000D02*
X82500000Y-145500000D01*
X82500000Y-145500000D02*
X82666288Y-145333712D01*
X428000000Y-56500000D02*
X428000000Y-49000000D01*
X107500000Y-140500000D02*
X127500000Y-140500000D01*
X412349943Y-58000000D02*
X426500000Y-58000000D01*
X409899000Y-57500000D02*
X409899000Y-57351057D01*
X67500000Y-177000000D02*
X65500000Y-179000000D01*
X410251057Y-56999000D02*
X410748943Y-56999000D01*
X412248943Y-57899000D02*
X412349943Y-58000000D01*
X411966100Y-57899000D02*
X412248943Y-57899000D01*
X205700000Y-174800000D02*
X203500000Y-177000000D01*
X394000000Y-57000000D02*
X394500000Y-57500000D01*
X394500000Y-57500000D02*
X409899000Y-57500000D01*
%TO.N,/COL7*%
X141500000Y-163500000D02*
X141500000Y-155500000D01*
X234000000Y-147500000D02*
X231401000Y-144901000D01*
X409967480Y-58500000D02*
X410483740Y-59016260D01*
X231401000Y-144901000D02*
X223250943Y-144901000D01*
X428500000Y-123000000D02*
X429000000Y-123500000D01*
X215349943Y-137000000D02*
X149500000Y-137000000D01*
X430500000Y-154000000D02*
X430000000Y-153500000D01*
X385000000Y-106000000D02*
X368500000Y-106000000D01*
X134600000Y-166400000D02*
X137000000Y-164000000D01*
X114000000Y-164000000D02*
X116400000Y-166400000D01*
X216500000Y-39500000D02*
X310000000Y-39500000D01*
X440500000Y-55500000D02*
X440500000Y-35757500D01*
X367500000Y-123000000D02*
X428500000Y-123000000D01*
X116400000Y-166400000D02*
X134600000Y-166400000D01*
X89000000Y-164000000D02*
X114000000Y-164000000D01*
X328000000Y-58500000D02*
X409967480Y-58500000D01*
X430000000Y-153500000D02*
X430000000Y-144500000D01*
X201000000Y-39500000D02*
X216500000Y-39500000D01*
X440500000Y-35757500D02*
X439352500Y-34610000D01*
X223250943Y-144901000D02*
X215349943Y-137000000D01*
X385500000Y-105500000D02*
X385000000Y-106000000D01*
%TO.N,/ROW4*%
X355000000Y-82500000D02*
X231000000Y-82500000D01*
X231000000Y-82500000D02*
X228500000Y-85000000D01*
X419032500Y-52390000D02*
X418722500Y-52700000D01*
X401300000Y-52700000D02*
X400500000Y-53500000D01*
X382000000Y-82000000D02*
X377000000Y-82000000D01*
X382500000Y-82500000D02*
X382000000Y-82000000D01*
X465200000Y-97710000D02*
X453790000Y-97710000D01*
X453790000Y-97710000D02*
X448500000Y-103000000D01*
X391000000Y-103000000D02*
X387500000Y-99500000D01*
X217290000Y-116720000D02*
X217400000Y-116610000D01*
X448500000Y-103000000D02*
X391000000Y-103000000D01*
X418722500Y-52700000D02*
X401300000Y-52700000D01*
X59800000Y-116720000D02*
X217290000Y-116720000D01*
%TO.N,/COL5*%
X96500000Y-161100000D02*
X96100000Y-161500000D01*
X443250000Y-55750000D02*
X443250000Y-43599943D01*
X72054293Y-161543848D02*
X70677109Y-162921032D01*
X421116450Y-55091000D02*
X422028550Y-55091000D01*
X329500000Y-124500000D02*
X330000000Y-125000000D01*
X419579550Y-55000000D02*
X421025450Y-55000000D01*
X43552293Y-161543848D02*
X43552293Y-161500000D01*
X110000000Y-143500000D02*
X107500000Y-146000000D01*
X422119550Y-55000000D02*
X422600000Y-55000000D01*
X443250000Y-43599943D02*
X444432500Y-42417443D01*
X444432500Y-42417443D02*
X444432500Y-34610000D01*
X443000000Y-56000000D02*
X443250000Y-55750000D01*
X418576450Y-55091000D02*
X419488550Y-55091000D01*
X96100000Y-161500000D02*
X72054293Y-161500000D01*
X44929477Y-162921032D02*
X43552293Y-161543848D01*
X333101000Y-55000000D02*
X368000000Y-55000000D01*
X240500000Y-37500000D02*
X313500000Y-37500000D01*
X330000000Y-125000000D02*
X380500000Y-125000000D01*
X418485450Y-55000000D02*
X418576450Y-55091000D01*
X421025450Y-55000000D02*
X421116450Y-55091000D01*
X42800000Y-184000000D02*
X191500000Y-184000000D01*
X422600000Y-55000000D02*
X424000000Y-56400000D01*
X110000000Y-143100000D02*
X110000000Y-143500000D01*
X163000000Y-37500000D02*
X240500000Y-37500000D01*
X419488550Y-55091000D02*
X419579550Y-55000000D01*
X332748943Y-55601000D02*
X333101000Y-55248943D01*
X329601000Y-55601000D02*
X332748943Y-55601000D01*
X368000000Y-55000000D02*
X418485450Y-55000000D01*
X333101000Y-55248943D02*
X333101000Y-55000000D01*
X41900000Y-183100000D02*
X42800000Y-184000000D01*
X43552293Y-161500000D02*
X43000000Y-161500000D01*
X422028550Y-55091000D02*
X422119550Y-55000000D01*
X328000000Y-54000000D02*
X329601000Y-55601000D01*
X70677109Y-162921032D02*
X44929477Y-162921032D01*
X72054293Y-161500000D02*
X72054293Y-161543848D01*
%TO.N,/ROW5*%
X419477500Y-54400000D02*
X412000000Y-54400000D01*
X421597500Y-52280000D02*
X419477500Y-54400000D01*
X411000000Y-96000000D02*
X410000000Y-97000000D01*
X410500000Y-57600000D02*
X411100000Y-57600000D01*
X236400000Y-116610000D02*
X427100000Y-116610000D01*
X411100000Y-57600000D02*
X412000000Y-58500000D01*
X411083740Y-62000000D02*
X411083740Y-68500000D01*
X411000000Y-90000000D02*
X411000000Y-96000000D01*
%TO.N,/ROW6*%
X441000000Y-105500000D02*
X442892395Y-107392395D01*
X450227441Y-124877498D02*
X450036905Y-124877498D01*
X450036905Y-124877498D02*
X445500000Y-120340593D01*
X425500000Y-61000000D02*
X425500000Y-68500000D01*
X445500000Y-120340593D02*
X445500000Y-117510000D01*
X465100000Y-126220000D02*
X451569943Y-126220000D01*
X218790000Y-135710000D02*
X219500000Y-135000000D01*
X423849943Y-57400000D02*
X421500000Y-57400000D01*
X426677500Y-54572443D02*
X423849943Y-57400000D01*
X225500000Y-123500000D02*
X364000000Y-123500000D01*
X426000000Y-60500000D02*
X425500000Y-61000000D01*
X438000000Y-87000000D02*
X444500000Y-87000000D01*
X451569943Y-126220000D02*
X450227441Y-124877498D01*
X442892395Y-114902395D02*
X445500000Y-117510000D01*
X368500000Y-119000000D02*
X409000000Y-119000000D01*
X366000000Y-121500000D02*
X368500000Y-119000000D01*
X426500000Y-75500000D02*
X438000000Y-87000000D01*
X426677500Y-52280000D02*
X426677500Y-54572443D01*
X203000000Y-135710000D02*
X218790000Y-135710000D01*
X442892395Y-107392395D02*
X442892395Y-114902395D01*
X62500000Y-135710000D02*
X203000000Y-135710000D01*
X364000000Y-123500000D02*
X366000000Y-121500000D01*
X441000000Y-105100000D02*
X441000000Y-105500000D01*
X444500000Y-87000000D02*
X444500000Y-97000000D01*
%TO.N,SDA*%
X409101000Y-62146050D02*
X409101000Y-60701000D01*
X402000000Y-72000000D02*
X402000000Y-71000000D01*
X402000000Y-71000000D02*
X401000000Y-70000000D01*
X407646050Y-63601000D02*
X409101000Y-62146050D01*
X405101000Y-63601000D02*
X407646050Y-63601000D01*
X461900000Y-30900000D02*
X462000000Y-31000000D01*
X409101000Y-60701000D02*
X409000000Y-60600000D01*
X395000000Y-79000000D02*
X402000000Y-72000000D01*
X408500000Y-51500000D02*
X408500000Y-49845000D01*
X405000000Y-63500000D02*
X405101000Y-63601000D01*
X383600000Y-129000000D02*
X383600000Y-128100000D01*
X407755000Y-47955000D02*
X406620000Y-46820000D01*
X385000000Y-115000000D02*
X387500000Y-112500000D01*
X408500000Y-49845000D02*
X407755000Y-49100000D01*
X383600000Y-128100000D02*
X384300000Y-127400000D01*
X449000000Y-30900000D02*
X461900000Y-30900000D01*
X407755000Y-49100000D02*
X407755000Y-47955000D01*
X387500000Y-112500000D02*
X387500000Y-101000000D01*
%TO.N,SCL*%
X403945000Y-49400000D02*
X403945000Y-46955000D01*
X404080000Y-46820000D02*
X412500000Y-38400000D01*
X462900000Y-32500000D02*
X462900000Y-32622500D01*
X451452500Y-32100000D02*
X457113972Y-32100000D01*
X406500000Y-63000000D02*
X406500000Y-60600000D01*
X457113972Y-32100000D02*
X457732500Y-32718528D01*
X386500000Y-110500000D02*
X386500000Y-99000000D01*
X412500000Y-38400000D02*
X412500000Y-32100000D01*
X404500000Y-51100000D02*
X404500000Y-49955000D01*
X404500000Y-49955000D02*
X403945000Y-49400000D01*
X428500000Y-32100000D02*
X430000000Y-32100000D01*
X462900000Y-32622500D02*
X464777500Y-34500000D01*
X403945000Y-46955000D02*
X404080000Y-46820000D01*
X386500000Y-87500000D02*
X386500000Y-81500000D01*
X383500000Y-113500000D02*
X386500000Y-110500000D01*
%TO.N,+5V*%
X450000000Y-30000000D02*
X462500000Y-30000000D01*
X462500000Y-30000000D02*
X463500000Y-31000000D01*
%TO.N,/COL4*%
X445750000Y-57250000D02*
X445750000Y-35832500D01*
X174000000Y-36500000D02*
X252500000Y-36500000D01*
X349000000Y-56500000D02*
X349400000Y-56100000D01*
X252500000Y-36500000D02*
X295000000Y-36500000D01*
X445000000Y-161500000D02*
X350500000Y-161500000D01*
X314000000Y-36500000D02*
X332500000Y-55000000D01*
X92500000Y-141500000D02*
X176500000Y-141500000D01*
X444899000Y-58101000D02*
X445750000Y-57250000D01*
X295000000Y-36500000D02*
X314000000Y-36500000D01*
X430601000Y-58101000D02*
X444899000Y-58101000D01*
X445750000Y-35832500D02*
X446972500Y-34610000D01*
X134500000Y-36500000D02*
X174000000Y-36500000D01*
X350500000Y-161500000D02*
X349000000Y-163000000D01*
X349400000Y-56100000D02*
X421500000Y-56100000D01*
X430500000Y-58000000D02*
X430601000Y-58101000D01*
%TO.N,Net-(U1-~{RESET})*%
X401540000Y-39200000D02*
X401540000Y-36605000D01*
X401540000Y-36605000D02*
X401600000Y-36545000D01*
%TO.N,/RotEncoder1B2*%
X372500000Y-36500000D02*
X372500000Y-48500000D01*
X372500000Y-48500000D02*
X373000000Y-49000000D01*
%TO.N,/RotEncoder1B1*%
X374000000Y-44680000D02*
X376140000Y-46820000D01*
X374000000Y-35500000D02*
X374000000Y-44680000D01*
%TO.N,/RotEncoder2B1*%
X338000000Y-53000000D02*
X338000000Y-37000000D01*
X381220000Y-50280000D02*
X378500000Y-53000000D01*
X381220000Y-46820000D02*
X381220000Y-50280000D01*
X338000000Y-37000000D02*
X339000000Y-36000000D01*
%TO.N,/RotEncoder2B2*%
X355000000Y-38500000D02*
X355000000Y-52000000D01*
%TO.N,/RotEncoder2A*%
X336000000Y-33500000D02*
X336000000Y-50500000D01*
%TO.N,/RotEncoder2B*%
X354000000Y-50000000D02*
X354000000Y-35000000D01*
X354000000Y-35000000D02*
X354500000Y-34500000D01*
%TO.N,Net-(U1-VSS)*%
X397760000Y-48060000D02*
X397760000Y-49000000D01*
X399000000Y-46820000D02*
X397760000Y-48060000D01*
%TD*%
M02*
