M48
; DRILL file {KiCad 9.0.6} date 2026-01-05T13:45:47-0600
; FORMAT={-:-/ absolute / metric / decimal}
; #@! TF.CreationDate,2026-01-05T13:45:47-06:00
; #@! TF.GenerationSoftware,Kicad,Pcbnew,9.0.6
; #@! TF.FileFunction,NonPlated,1,2,NPTH
FMAT,2
METRIC
; #@! TA.AperFunction,NonPlated,NPTH,ComponentDrill
T1C1.750
; #@! TA.AperFunction,NonPlated,NPTH,ComponentDrill
T2C3.050
; #@! TA.AperFunction,NonPlated,NPTH,ComponentDrill
T3C4.000
%
G90
G05
T1
X40.837Y-95.05
X40.84Y-66.5
X43.188Y-171.405
X45.567Y-114.124
X47.92Y-133.2
X50.997Y-95.05
X51.0Y-66.5
X52.692Y-152.279
X53.348Y-171.405
X55.727Y-114.124
X58.08Y-133.2
X59.903Y-95.05
X62.852Y-152.279
X66.98Y-171.38
X69.42Y-114.1
X70.063Y-95.05
X74.062Y-133.2
X77.14Y-171.38
X78.974Y-95.05
X79.096Y-66.524
X79.58Y-114.1
X83.653Y-152.29
X84.222Y-133.2
X88.52Y-114.1
X89.134Y-95.05
X89.256Y-66.524
X90.78Y-171.38
X93.12Y-133.2
X93.813Y-152.29
X98.037Y-95.05
X98.176Y-66.524
X98.68Y-114.1
X100.94Y-171.38
X102.691Y-152.27
X103.28Y-133.2
X107.562Y-114.1
X108.197Y-95.05
X108.336Y-66.524
X112.12Y-133.2
X112.851Y-152.27
X117.103Y-95.05
X117.232Y-66.516
X117.722Y-114.1
X121.747Y-152.259
X122.28Y-133.2
X126.562Y-114.1
X127.263Y-95.05
X127.392Y-66.516
X131.22Y-133.2
X131.907Y-152.259
X136.17Y-95.05
X136.284Y-66.524
X136.722Y-114.1
X140.811Y-152.268
X141.38Y-133.2
X145.562Y-114.1
X146.33Y-95.05
X146.444Y-66.524
X150.281Y-133.137
X150.971Y-152.268
X155.233Y-95.061
X155.722Y-114.1
X159.84Y-152.3
X160.441Y-133.137
X162.262Y-171.4
X164.662Y-114.1
X164.829Y-66.534
X165.393Y-95.061
X169.371Y-133.162
X170.0Y-152.3
X172.422Y-171.4
X174.281Y-95.057
X174.822Y-114.1
X174.989Y-66.534
X178.93Y-152.24
X179.531Y-133.162
X183.662Y-114.1
X183.893Y-66.542
X184.441Y-95.057
X188.462Y-133.2
X189.09Y-152.24
X193.356Y-95.056
X193.822Y-114.1
X194.053Y-66.542
X198.0Y-152.25
X198.623Y-133.2
X202.662Y-114.1
X202.961Y-66.565
X203.516Y-95.056
X207.547Y-133.143
X208.16Y-152.25
X212.439Y-95.06
X212.822Y-114.1
X213.121Y-66.565
X217.039Y-152.25
X217.707Y-133.143
X221.762Y-114.1
X222.038Y-66.565
X222.599Y-95.06
X226.62Y-133.2
X227.199Y-152.25
X231.489Y-95.059
X231.922Y-114.1
X232.198Y-66.565
X233.74Y-171.3
X236.13Y-152.24
X236.78Y-133.2
X240.82Y-114.1
X241.649Y-95.059
X243.9Y-171.3
X245.662Y-133.2
X246.29Y-152.24
X250.567Y-95.059
X250.591Y-66.573
X250.98Y-114.1
X255.194Y-152.279
X255.822Y-133.2
X257.54Y-171.3
X259.863Y-114.1
X260.727Y-95.059
X260.751Y-66.573
X264.72Y-133.2
X265.354Y-152.279
X267.7Y-171.3
X269.622Y-95.07
X269.641Y-66.56
X270.022Y-114.1
X274.88Y-133.2
X278.92Y-114.1
X279.782Y-95.07
X279.801Y-66.56
X281.363Y-171.3
X288.683Y-66.562
X289.08Y-114.1
X290.909Y-152.279
X291.522Y-171.3
X295.662Y-133.2
X298.192Y-95.068
X298.843Y-66.562
X301.069Y-152.279
X302.863Y-114.1
X305.22Y-171.3
X305.822Y-133.2
X307.779Y-66.562
X308.352Y-95.068
X313.022Y-114.1
X315.38Y-171.3
X317.939Y-66.562
X331.359Y-171.304
X331.526Y-95.069
X331.526Y-114.178
X331.559Y-66.557
X341.519Y-171.304
X341.686Y-95.069
X341.686Y-114.178
X341.719Y-66.557
X350.34Y-152.247
X350.386Y-171.304
X350.573Y-95.074
X350.573Y-114.178
X350.634Y-66.555
X360.5Y-152.247
X360.546Y-171.304
X360.733Y-95.074
X360.733Y-114.178
X360.794Y-66.555
X369.427Y-171.305
X369.614Y-95.074
X369.639Y-114.146
X369.689Y-66.555
X379.587Y-171.305
X379.774Y-95.074
X379.799Y-114.146
X379.849Y-66.555
X393.407Y-152.224
X393.409Y-133.169
X393.415Y-95.062
X393.43Y-114.14
X393.479Y-66.547
X402.907Y-171.259
X403.567Y-152.224
X403.569Y-133.169
X403.575Y-95.062
X403.59Y-114.14
X403.639Y-66.547
X412.461Y-152.248
X412.462Y-114.1
X412.462Y-133.2
X412.47Y-95.074
X412.489Y-66.545
X413.067Y-171.259
X422.621Y-152.248
X422.623Y-114.1
X422.623Y-133.2
X422.63Y-95.074
X422.649Y-66.545
X431.49Y-152.251
X431.493Y-171.259
X431.506Y-114.12
X431.51Y-95.076
X431.521Y-133.21
X431.533Y-66.545
X441.65Y-152.251
X441.653Y-171.259
X441.666Y-114.12
X441.67Y-95.076
X441.681Y-133.21
X441.693Y-66.545
X450.545Y-123.651
X450.552Y-161.746
X450.553Y-95.075
X450.581Y-66.553
X460.705Y-123.651
X460.712Y-161.746
X460.713Y-95.075
X460.741Y-66.553
T2
X45.903Y-145.33
X69.703Y-145.33
X117.337Y-164.378
X217.337Y-164.378
X284.16Y-145.28
X288.86Y-126.18
X291.36Y-88.08
X307.96Y-145.28
X312.66Y-126.18
X315.16Y-88.08
X396.16Y-164.28
X419.96Y-164.28
X448.56Y-149.78
X448.56Y-173.58
X448.66Y-111.78
X448.66Y-135.58
T3
X45.903Y-160.57
X45.917Y-95.05
X45.92Y-66.5
X48.268Y-171.405
X50.647Y-114.124
X53.0Y-133.2
X57.772Y-152.279
X64.983Y-95.05
X69.703Y-160.57
X72.06Y-171.38
X74.5Y-114.1
X79.142Y-133.2
X84.054Y-95.05
X84.176Y-66.524
X88.733Y-152.29
X93.6Y-114.1
X95.86Y-171.38
X98.2Y-133.2
X103.117Y-95.05
X103.256Y-66.524
X107.771Y-152.27
X112.642Y-114.1
X117.2Y-133.2
X117.337Y-179.618
X122.183Y-95.05
X122.312Y-66.516
X126.827Y-152.259
X131.642Y-114.1
X136.3Y-133.2
X141.25Y-95.05
X141.364Y-66.524
X145.891Y-152.268
X150.642Y-114.1
X155.361Y-133.137
X160.313Y-95.061
X164.92Y-152.3
X167.343Y-171.4
X169.742Y-114.1
X169.909Y-66.534
X174.451Y-133.162
X179.361Y-95.057
X184.01Y-152.24
X188.742Y-114.1
X188.973Y-66.542
X193.542Y-133.2
X198.436Y-95.056
X203.08Y-152.25
X207.742Y-114.1
X208.041Y-66.565
X212.627Y-133.143
X217.337Y-179.618
X217.519Y-95.06
X222.119Y-152.25
X226.843Y-114.1
X227.118Y-66.565
X231.7Y-133.2
X236.569Y-95.059
X238.82Y-171.3
X241.21Y-152.24
X245.9Y-114.1
X250.742Y-133.2
X255.647Y-95.059
X255.671Y-66.573
X260.274Y-152.279
X262.62Y-171.3
X264.942Y-114.1
X269.8Y-133.2
X274.702Y-95.07
X274.721Y-66.56
X284.0Y-114.1
X284.16Y-160.52
X286.442Y-171.3
X288.86Y-141.42
X291.36Y-103.32
X293.763Y-66.562
X295.989Y-152.279
X300.743Y-133.2
X303.272Y-95.068
X307.942Y-114.1
X307.96Y-160.52
X310.3Y-171.3
X312.66Y-141.42
X312.859Y-66.562
X315.16Y-103.32
X336.439Y-171.304
X336.606Y-95.069
X336.606Y-114.178
X336.639Y-66.557
X355.42Y-152.247
X355.466Y-171.304
X355.653Y-95.074
X355.653Y-114.178
X355.714Y-66.555
X374.507Y-171.305
X374.694Y-95.074
X374.719Y-114.146
X374.769Y-66.555
X396.16Y-179.52
X398.487Y-152.224
X398.489Y-133.169
X398.495Y-95.062
X398.51Y-114.14
X398.559Y-66.547
X407.987Y-171.259
X417.541Y-152.248
X417.542Y-114.1
X417.542Y-133.2
X417.55Y-95.074
X417.569Y-66.545
X419.96Y-179.52
X436.57Y-152.251
X436.573Y-171.259
X436.586Y-114.12
X436.59Y-95.076
X436.601Y-133.21
X436.613Y-66.545
X455.625Y-123.651
X455.632Y-161.746
X455.633Y-95.075
X455.661Y-66.553
X463.8Y-149.78
X463.8Y-173.58
X463.9Y-111.78
X463.9Y-135.58
M30
