M48
; DRILL file {KiCad 9.0.6} date 2026-01-05T13:45:47-0600
; FORMAT={-:-/ absolute / metric / decimal}
; #@! TF.CreationDate,2026-01-05T13:45:47-06:00
; #@! TF.GenerationSoftware,Kicad,Pcbnew,9.0.6
; #@! TF.FileFunction,Plated,1,2,PTH
FMAT,2
METRIC
; #@! TA.AperFunction,Plated,PTH,ViaDrill
T1C0.300
; #@! TA.AperFunction,Plated,PTH,ComponentDrill
T2C0.700
; #@! TA.AperFunction,Plated,PTH,ComponentDrill
T3C0.800
; #@! TA.AperFunction,Plated,PTH,ComponentDrill
T4C1.000
; #@! TA.AperFunction,Plated,PTH,ComponentDrill
T5C1.000
; #@! TA.AperFunction,Plated,PTH,ComponentDrill
T6C1.300
; #@! TA.AperFunction,Plated,PTH,ComponentDrill
T7C1.500
; #@! TA.AperFunction,Plated,PTH,ComponentDrill
T8C1.500
%
G90
G05
T1
X42.1Y-21.56
X43.5Y-156.0
X45.0Y-177.0
X49.0Y-142.5
X51.5Y-103.5
X58.5Y-103.5
X64.0Y-114.0
X64.0Y-157.0
X64.5Y-116.5
X67.0Y-157.0
X68.5Y-176.0
X70.5Y-141.5
X75.5Y-138.5
X79.25Y-22.25
X85.0Y-144.0
X85.25Y-138.25
X94.5Y-137.5
X95.5Y-143.0
X98.5Y-143.0
X100.0Y-23.0
X118.5Y-24.5
X122.5Y-156.5
X137.5Y-25.1
X141.5Y-142.5
X157.912Y-164.088
X159.511Y-163.989
X161.0Y-139.5
X164.25Y-182.5
X166.0Y-24.1
X180.0Y-137.5
X185.25Y-24.6
X187.0Y-138.5
X187.5Y-130.75
X188.5Y-169.0
X199.5Y-179.0
X204.25Y-25.1
X205.0Y-122.25
X209.5Y-141.5
X219.0Y-176.0
X219.75Y-103.25
X219.75Y-116.75
X223.25Y-25.6
X228.75Y-159.5
X235.0Y-176.25
X237.0Y-165.5
X242.25Y-65.5
X242.25Y-68.25
X242.5Y-26.75
X247.0Y-138.0
X251.75Y-26.1
X253.0Y-138.0
X253.0Y-157.25
X253.25Y-173.75
X253.5Y-161.0
X255.5Y-182.5
X258.5Y-141.5
X266.5Y-138.25
X268.5Y-26.6
X270.89Y-21.56
X274.25Y-151.5
X275.25Y-175.75
X280.5Y-160.25
X290.0Y-22.16
X297.0Y-139.0
X304.75Y-157.25
X306.75Y-183.25
X309.0Y-22.6
X309.0Y-140.0
X309.25Y-156.75
X324.75Y-155.0
X328.25Y-80.25
X328.25Y-94.75
X328.549Y-96.799
X332.75Y-124.25
X332.75Y-140.25
X332.75Y-185.25
X333.0Y-23.1
X336.75Y-155.0
X337.0Y-160.0
X351.5Y-142.0
X351.75Y-124.25
X351.75Y-157.5
X354.25Y-23.6
X371.0Y-24.1
X371.25Y-124.0
X386.5Y-131.5
X387.5Y-129.0
X388.0Y-78.0
X388.5Y-71.5
X388.5Y-73.0
X388.5Y-76.0
X388.5Y-133.0
X389.0Y-52.5
X390.0Y-72.0
X390.0Y-74.5
X390.5Y-55.5
X391.0Y-54.5
X391.0Y-71.5
X391.0Y-73.5
X391.0Y-135.0
X391.1Y-56.5
X392.75Y-24.6
X392.75Y-42.4
X392.75Y-43.75
X393.75Y-110.0
X394.25Y-126.75
X394.5Y-138.75
X401.82Y-33.19
X402.5Y-52.5
X404.0Y-55.5
X405.5Y-30.5
X406.5Y-56.5
X408.0Y-31.0
X412.75Y-125.25
X413.75Y-25.1
X414.0Y-183.25
X419.25Y-57.75
X421.25Y-27.5
X422.25Y-83.0
X423.25Y-84.0
X427.0Y-185.25
X427.25Y-59.25
X428.463Y-76.963
X428.75Y-56.25
X428.75Y-78.5
X428.975Y-93.725
X429.0Y-95.5
X429.0Y-111.5
X429.0Y-141.5
X429.25Y-26.6
X429.25Y-66.0
X429.5Y-55.5
X430.0Y-67.5
X430.963Y-74.463
X431.0Y-79.0
X431.25Y-76.0
X431.5Y-26.25
X431.5Y-57.75
X432.0Y-56.25
X432.25Y-60.0
X432.5Y-37.0
X432.5Y-124.0
X433.5Y-57.75
X433.5Y-101.0
X434.25Y-25.75
X434.25Y-56.0
X439.25Y-56.6
X439.5Y-25.25
X442.0Y-24.75
X442.484Y-81.984
X442.5Y-84.25
X443.5Y-55.25
X444.398Y-24.102
X445.5Y-78.75
X446.5Y-80.0
X447.0Y-23.6
X447.0Y-77.25
X447.75Y-81.25
X451.0Y-36.75
X451.75Y-138.75
X452.0Y-23.1
X452.0Y-100.5
X454.25Y-85.25
X454.5Y-22.6
X454.5Y-82.0
X456.0Y-84.25
X457.0Y-22.16
X458.0Y-29.0
X459.69Y-21.56
X465.0Y-30.0
X467.0Y-54.5
X467.0Y-56.0
X467.5Y-31.0
X467.5Y-175.0
X468.1Y-56.75
T2
X401.7Y-34.925
X401.7Y-36.825
T3
X55.5Y-61.38
X55.5Y-69.0
X55.5Y-90.1
X55.5Y-97.72
X57.9Y-166.39
X57.9Y-174.01
X59.8Y-109.1
X59.8Y-116.72
X62.5Y-128.09
X62.5Y-135.71
X67.5Y-147.19
X67.5Y-154.81
X74.6Y-90.0
X74.6Y-97.62
X81.8Y-166.29
X81.8Y-173.91
X84.1Y-109.0
X84.1Y-116.62
X88.7Y-128.09
X88.7Y-135.71
X93.7Y-61.69
X93.7Y-69.31
X93.7Y-90.0
X93.7Y-97.62
X98.3Y-147.19
X98.3Y-154.81
X103.2Y-109.09
X103.2Y-116.71
X105.6Y-166.29
X105.6Y-173.91
X107.8Y-128.09
X107.8Y-135.71
X112.6Y-90.0
X112.6Y-97.62
X112.8Y-61.38
X112.8Y-69.0
X117.3Y-147.19
X117.3Y-154.81
X122.3Y-109.0
X122.3Y-116.62
X126.8Y-128.09
X126.8Y-135.71
X131.7Y-90.0
X131.7Y-97.62
X131.9Y-61.69
X131.9Y-69.31
X136.3Y-147.19
X136.3Y-154.81
X141.2Y-108.99
X141.2Y-116.61
X145.9Y-128.09
X145.9Y-135.71
X150.8Y-90.0
X150.8Y-97.62
X151.0Y-61.69
X151.0Y-69.31
X155.4Y-147.19
X155.4Y-154.81
X160.3Y-108.99
X160.3Y-116.61
X164.9Y-128.09
X164.9Y-135.71
X169.9Y-90.0
X169.9Y-97.62
X174.5Y-147.19
X174.5Y-154.81
X177.1Y-166.29
X177.1Y-173.91
X179.2Y-109.09
X179.2Y-116.71
X179.4Y-61.69
X179.4Y-69.31
X184.0Y-128.09
X184.0Y-135.71
X188.9Y-90.0
X188.9Y-97.62
X193.5Y-147.19
X193.5Y-154.81
X198.2Y-108.99
X198.2Y-116.61
X198.5Y-61.69
X198.5Y-69.31
X203.0Y-128.09
X203.0Y-135.71
X207.984Y-89.999
X207.984Y-97.619
X212.6Y-147.19
X212.6Y-154.81
X217.4Y-108.99
X217.4Y-116.61
X217.6Y-61.69
X217.6Y-69.31
X222.1Y-128.08
X222.1Y-135.7
X227.0Y-90.0
X227.0Y-97.62
X231.7Y-147.19
X231.7Y-154.81
X236.4Y-108.99
X236.4Y-116.61
X236.7Y-61.69
X236.7Y-69.31
X241.2Y-128.09
X241.2Y-135.71
X246.1Y-90.0
X246.1Y-97.62
X248.6Y-166.2
X248.6Y-173.82
X250.8Y-147.19
X250.8Y-154.81
X255.4Y-108.99
X255.4Y-116.61
X260.3Y-128.09
X260.3Y-135.71
X265.1Y-61.69
X265.1Y-69.31
X265.2Y-90.0
X265.2Y-97.62
X269.9Y-147.19
X269.9Y-154.81
X272.2Y-166.2
X272.2Y-173.82
X274.5Y-109.08
X274.5Y-116.7
X279.4Y-128.19
X279.4Y-135.81
X284.2Y-61.69
X284.2Y-69.31
X284.2Y-90.0
X284.2Y-97.62
X293.6Y-108.99
X293.6Y-116.61
X295.6Y-166.19
X295.6Y-173.81
X303.2Y-61.69
X303.2Y-69.31
X305.8Y-147.19
X305.8Y-154.81
X310.2Y-128.19
X310.2Y-135.81
X312.6Y-90.49
X312.6Y-98.11
X317.8Y-108.98
X317.8Y-116.6
X319.9Y-166.2
X319.9Y-173.82
X322.3Y-61.69
X322.3Y-69.31
X346.0Y-166.2
X346.0Y-173.82
X346.1Y-61.69
X346.1Y-69.31
X346.2Y-90.1
X346.2Y-97.72
X346.2Y-109.09
X346.2Y-116.71
X365.1Y-147.19
X365.1Y-154.81
X365.1Y-166.2
X365.1Y-173.82
X365.2Y-61.5
X365.2Y-69.12
X365.2Y-90.1
X365.2Y-97.72
X365.2Y-109.09
X365.2Y-116.71
X376.14Y-39.2
X376.14Y-46.82
X378.68Y-39.2
X378.68Y-46.82
X381.22Y-39.2
X381.22Y-46.82
X383.76Y-39.2
X383.76Y-46.82
X384.1Y-166.19
X384.1Y-173.81
X384.3Y-61.5
X384.3Y-69.12
X384.3Y-90.1
X384.3Y-97.72
X384.3Y-108.99
X384.3Y-116.61
X386.3Y-39.2
X386.3Y-46.82
X388.84Y-39.2
X388.84Y-46.82
X391.38Y-39.2
X391.38Y-46.82
X393.92Y-39.2
X393.92Y-46.82
X396.46Y-39.2
X396.46Y-46.82
X399.0Y-39.2
X399.0Y-46.82
X401.54Y-39.2
X401.54Y-46.82
X404.08Y-39.2
X404.08Y-46.82
X406.62Y-39.2
X406.62Y-46.82
X408.0Y-61.69
X408.0Y-69.31
X408.0Y-128.1
X408.0Y-135.72
X408.0Y-147.18
X408.0Y-154.8
X408.1Y-90.1
X408.1Y-97.72
X408.1Y-109.09
X408.1Y-116.71
X409.16Y-39.2
X409.16Y-46.82
X417.8Y-166.19
X417.8Y-173.81
X427.1Y-61.69
X427.1Y-69.31
X427.1Y-90.1
X427.1Y-97.72
X427.1Y-108.99
X427.1Y-116.61
X427.1Y-128.19
X427.1Y-135.81
X427.1Y-147.19
X427.1Y-154.81
X445.4Y-147.79
X445.4Y-155.41
X445.5Y-109.89
X445.5Y-117.51
X445.6Y-166.29
X445.6Y-173.91
X445.9Y-128.18
X445.9Y-135.8
X446.1Y-61.69
X446.1Y-69.31
X446.2Y-90.09
X446.2Y-97.71
X465.1Y-118.6
X465.1Y-126.22
X465.1Y-156.69
X465.1Y-164.31
X465.2Y-61.69
X465.2Y-69.31
X465.2Y-90.09
X465.2Y-97.71
T4
X390.76Y-49.5
X395.84Y-49.5
X397.76Y-49.5
X402.84Y-49.5
T5
X370.1Y-128.98
X370.1Y-131.52
X370.1Y-134.06
X370.1Y-136.6
X419.058Y-34.5
X419.058Y-52.28
X421.597Y-34.5
X421.597Y-52.28
X424.137Y-34.5
X424.137Y-52.28
X426.678Y-34.5
X426.678Y-52.28
X429.217Y-34.5
X429.217Y-52.28
X431.757Y-34.5
X431.757Y-52.28
X434.297Y-34.5
X434.297Y-52.28
X436.837Y-34.5
X436.837Y-52.28
X439.377Y-34.5
X439.377Y-52.28
X441.917Y-34.5
X441.917Y-52.28
X444.457Y-34.5
X444.457Y-52.28
X446.998Y-34.5
X446.998Y-52.28
X449.537Y-34.5
X449.537Y-52.28
X452.077Y-34.5
X452.077Y-52.28
X454.618Y-34.5
X454.618Y-52.28
X457.157Y-34.5
X457.157Y-52.28
X459.697Y-34.5
X459.697Y-52.28
X462.237Y-34.5
X462.237Y-52.28
X464.777Y-34.5
X464.777Y-52.28
X467.317Y-34.5
X467.317Y-52.28
T6
X343.82Y-36.0
X343.82Y-50.5
X346.36Y-50.5
X348.9Y-36.0
X348.9Y-50.5
X359.86Y-35.7
X359.86Y-50.2
X362.4Y-50.2
X364.94Y-35.7
X364.94Y-50.2
T7
X42.107Y-92.51
X42.11Y-63.96
X44.458Y-168.865
X46.837Y-111.584
X48.457Y-89.97
X48.46Y-61.42
X49.19Y-130.66
X50.808Y-166.325
X53.187Y-109.044
X53.962Y-149.739
X55.54Y-128.12
X60.312Y-147.199
X61.173Y-92.51
X67.523Y-89.97
X68.25Y-168.84
X70.69Y-111.56
X74.6Y-166.3
X75.332Y-130.66
X77.04Y-109.02
X80.244Y-92.51
X80.366Y-63.984
X81.682Y-128.12
X84.923Y-149.75
X86.594Y-89.97
X86.716Y-61.444
X89.79Y-111.56
X91.273Y-147.21
X92.05Y-168.84
X94.39Y-130.66
X96.14Y-109.02
X98.4Y-166.3
X99.307Y-92.51
X99.446Y-63.984
X100.74Y-128.12
X103.961Y-149.73
X105.657Y-89.97
X105.796Y-61.444
X108.832Y-111.56
X110.311Y-147.19
X113.39Y-130.66
X115.182Y-109.02
X118.373Y-92.51
X118.502Y-63.976
X119.74Y-128.12
X123.017Y-149.719
X124.723Y-89.97
X124.852Y-61.436
X127.832Y-111.56
X129.367Y-147.179
X132.49Y-130.66
X134.183Y-109.02
X137.44Y-92.51
X137.554Y-63.984
X138.84Y-128.12
X142.081Y-149.728
X143.79Y-89.97
X143.904Y-61.444
X146.832Y-111.56
X148.431Y-147.188
X151.551Y-130.597
X153.183Y-109.02
X156.503Y-92.521
X157.901Y-128.057
X161.11Y-149.76
X162.853Y-89.981
X163.532Y-168.86
X165.933Y-111.56
X166.099Y-63.994
X167.46Y-147.22
X169.882Y-166.32
X170.641Y-130.622
X172.282Y-109.02
X172.449Y-61.454
X175.551Y-92.517
X176.991Y-128.082
X180.2Y-149.7
X181.901Y-89.977
X184.933Y-111.56
X185.163Y-64.002
X186.55Y-147.16
X189.732Y-130.66
X191.282Y-109.02
X191.513Y-61.462
X194.626Y-92.516
X196.082Y-128.12
X199.27Y-149.71
X200.976Y-89.976
X203.933Y-111.56
X204.231Y-64.025
X205.62Y-147.17
X208.817Y-130.603
X210.282Y-109.02
X210.581Y-61.485
X213.709Y-92.52
X215.167Y-128.063
X218.309Y-149.71
X220.059Y-89.98
X223.032Y-111.56
X223.308Y-64.025
X224.659Y-147.17
X227.89Y-130.66
X229.382Y-109.02
X229.658Y-61.485
X232.759Y-92.519
X234.24Y-128.12
X235.01Y-168.76
X237.4Y-149.7
X239.109Y-89.979
X241.36Y-166.22
X242.09Y-111.56
X243.75Y-147.16
X246.932Y-130.66
X248.44Y-109.02
X251.837Y-92.519
X251.861Y-64.033
X253.282Y-128.12
X256.464Y-149.739
X258.187Y-89.979
X258.211Y-61.493
X258.81Y-168.76
X261.132Y-111.56
X262.814Y-147.199
X265.16Y-166.22
X265.99Y-130.66
X267.483Y-109.02
X270.892Y-92.53
X270.911Y-64.02
X272.34Y-128.12
X277.242Y-89.99
X277.261Y-61.48
X280.19Y-111.56
X282.632Y-168.76
X286.54Y-109.02
X288.982Y-166.22
X289.953Y-64.022
X292.179Y-149.739
X296.303Y-61.482
X296.933Y-130.66
X298.529Y-147.199
X299.462Y-92.528
X303.282Y-128.12
X304.132Y-111.56
X305.812Y-89.988
X306.49Y-168.76
X309.049Y-64.022
X310.482Y-109.02
X312.84Y-166.22
X315.399Y-61.482
X332.629Y-168.764
X332.796Y-92.529
X332.796Y-111.638
X332.829Y-64.017
X338.979Y-166.224
X339.146Y-89.989
X339.146Y-109.098
X339.179Y-61.477
X351.61Y-149.707
X351.656Y-168.764
X351.843Y-92.534
X351.843Y-111.638
X351.904Y-64.015
X357.96Y-147.167
X358.006Y-166.224
X358.193Y-89.994
X358.193Y-109.098
X358.254Y-61.475
X370.697Y-168.765
X370.884Y-92.534
X370.909Y-111.606
X370.959Y-64.015
X377.047Y-166.225
X377.234Y-89.994
X377.259Y-109.066
X377.309Y-61.475
X394.677Y-149.684
X394.679Y-130.629
X394.685Y-92.522
X394.7Y-111.6
X394.749Y-64.007
X401.027Y-147.144
X401.029Y-128.089
X401.035Y-89.982
X401.05Y-109.06
X401.099Y-61.467
X404.177Y-168.719
X410.527Y-166.179
X413.731Y-149.708
X413.732Y-111.56
X413.732Y-130.66
X413.74Y-92.534
X413.759Y-64.005
X420.081Y-147.168
X420.082Y-109.02
X420.082Y-128.12
X420.09Y-89.994
X420.109Y-61.465
X432.76Y-149.711
X432.763Y-168.719
X432.776Y-111.58
X432.78Y-92.536
X432.791Y-130.67
X432.803Y-64.005
X439.11Y-147.171
X439.113Y-166.179
X439.126Y-109.04
X439.13Y-89.996
X439.141Y-128.13
X439.153Y-61.465
X451.815Y-121.111
X451.822Y-159.206
X451.823Y-92.535
X451.851Y-64.013
X458.165Y-118.571
X458.172Y-156.666
X458.173Y-89.995
X458.201Y-61.473
T8
G00X340.86Y-43.75
M15
G01X340.86Y-42.25
M16
G05
G00X351.86Y-43.75
M15
G01X351.86Y-42.25
M16
G05
G00X356.9Y-43.45
M15
G01X356.9Y-41.95
M16
G05
G00X367.9Y-43.45
M15
G01X367.9Y-41.95
M16
G05
M30
