%TF.GenerationSoftware,KiCad,Pcbnew,9.0.6-1.fc43*%
%TF.CreationDate,2025-12-24T21:45:28-06:00*%
%TF.ProjectId,full-keyboard,66756c6c-2d6b-4657-9962-6f6172642e6b,1*%
%TF.SameCoordinates,Original*%
%TF.FileFunction,Copper,L2,Bot*%
%TF.FilePolarity,Positive*%
%FSLAX46Y46*%
G04 Gerber Fmt 4.6, Leading zero omitted, Abs format (unit mm)*
G04 Created by KiCad (PCBNEW 9.0.6-1.fc43) date 2025-12-24 21:45:28*
%MOMM*%
%LPD*%
G01*
G04 APERTURE LIST*
G04 Aperture macros list*
%AMRoundRect*
0 Rectangle with rounded corners*
0 $1 Rounding radius*
0 $2 $3 $4 $5 $6 $7 $8 $9 X,Y pos of 4 corners*
0 Add a 4 corners polygon primitive as box body*
4,1,4,$2,$3,$4,$5,$6,$7,$8,$9,$2,$3,0*
0 Add four circle primitives for the rounded corners*
1,1,$1+$1,$2,$3*
1,1,$1+$1,$4,$5*
1,1,$1+$1,$6,$7*
1,1,$1+$1,$8,$9*
0 Add four rect primitives between the rounded corners*
20,1,$1+$1,$2,$3,$4,$5,0*
20,1,$1+$1,$4,$5,$6,$7,0*
20,1,$1+$1,$6,$7,$8,$9,0*
20,1,$1+$1,$8,$9,$2,$3,0*%
%AMFreePoly0*
4,1,37,0.603843,0.796157,0.639018,0.796157,0.711114,0.766294,0.766294,0.711114,0.796157,0.639018,0.796157,0.603843,0.800000,0.600000,0.800000,-0.600000,0.796157,-0.603843,0.796157,-0.639018,0.766294,-0.711114,0.711114,-0.766294,0.639018,-0.796157,0.603843,-0.796157,0.600000,-0.800000,0.000000,-0.800000,0.000000,-0.796148,-0.078414,-0.796148,-0.232228,-0.765552,-0.377117,-0.705537,
-0.507515,-0.618408,-0.618408,-0.507515,-0.705537,-0.377117,-0.765552,-0.232228,-0.796148,-0.078414,-0.796148,0.078414,-0.765552,0.232228,-0.705537,0.377117,-0.618408,0.507515,-0.507515,0.618408,-0.377117,0.705537,-0.232228,0.765552,-0.078414,0.796148,0.000000,0.796148,0.000000,0.800000,0.600000,0.800000,0.603843,0.796157,0.603843,0.796157,$1*%
%AMFreePoly1*
4,1,37,0.000000,0.796148,0.078414,0.796148,0.232228,0.765552,0.377117,0.705537,0.507515,0.618408,0.618408,0.507515,0.705537,0.377117,0.765552,0.232228,0.796148,0.078414,0.796148,-0.078414,0.765552,-0.232228,0.705537,-0.377117,0.618408,-0.507515,0.507515,-0.618408,0.377117,-0.705537,0.232228,-0.765552,0.078414,-0.796148,0.000000,-0.796148,0.000000,-0.800000,-0.600000,-0.800000,
-0.603843,-0.796157,-0.639018,-0.796157,-0.711114,-0.766294,-0.766294,-0.711114,-0.796157,-0.639018,-0.796157,-0.603843,-0.800000,-0.600000,-0.800000,0.600000,-0.796157,0.603843,-0.796157,0.639018,-0.766294,0.711114,-0.711114,0.766294,-0.639018,0.796157,-0.603843,0.796157,-0.600000,0.800000,0.000000,0.800000,0.000000,0.796148,0.000000,0.796148,$1*%
G04 Aperture macros list end*
%TA.AperFunction,SMDPad,CuDef*%
%ADD10RoundRect,0.250000X-1.025000X-1.000000X1.025000X-1.000000X1.025000X1.000000X-1.025000X1.000000X0*%
%TD*%
%TA.AperFunction,ComponentPad*%
%ADD11RoundRect,0.250000X0.550000X-0.550000X0.550000X0.550000X-0.550000X0.550000X-0.550000X-0.550000X0*%
%TD*%
%TA.AperFunction,ComponentPad*%
%ADD12C,1.600000*%
%TD*%
%TA.AperFunction,ComponentPad*%
%ADD13R,1.700000X1.700000*%
%TD*%
%TA.AperFunction,ComponentPad*%
%ADD14O,1.700000X1.700000*%
%TD*%
%TA.AperFunction,ComponentPad*%
%ADD15O,2.300000X4.000000*%
%TD*%
%TA.AperFunction,ComponentPad*%
%ADD16C,1.800000*%
%TD*%
%TA.AperFunction,ComponentPad*%
%ADD17RoundRect,0.200000X-0.600000X0.600000X-0.600000X-0.600000X0.600000X-0.600000X0.600000X0.600000X0*%
%TD*%
%TA.AperFunction,ComponentPad*%
%ADD18FreePoly0,270.000000*%
%TD*%
%TA.AperFunction,ComponentPad*%
%ADD19FreePoly1,270.000000*%
%TD*%
%TA.AperFunction,ViaPad*%
%ADD20C,0.600000*%
%TD*%
%TA.AperFunction,Conductor*%
%ADD21C,0.200000*%
%TD*%
G04 APERTURE END LIST*
D10*
%TO.P,SW52,1,1*%
%TO.N,/COL1*%
X238815000Y-111560000D03*
%TO.P,SW52,2,2*%
%TO.N,Net-(D52-A)*%
X251742000Y-109020000D03*
%TD*%
D11*
%TO.P,D106,1,K*%
%TO.N,/ROW10*%
X384100000Y-173810000D03*
D12*
%TO.P,D106,2,A*%
%TO.N,Net-(D106-A)*%
X384100000Y-166190000D03*
%TD*%
D11*
%TO.P,D42,1,K*%
%TO.N,/ROW4*%
X59800000Y-116720000D03*
D12*
%TO.P,D42,2,A*%
%TO.N,Net-(D42-A)*%
X59800000Y-109100000D03*
%TD*%
D11*
%TO.P,D38,1,K*%
%TO.N,/ROW3*%
X408100000Y-97720000D03*
D12*
%TO.P,D38,2,A*%
%TO.N,Net-(D38-A)*%
X408100000Y-90100000D03*
%TD*%
D10*
%TO.P,SW47,1,1*%
%TO.N,/COL6*%
X143557500Y-111560000D03*
%TO.P,SW47,2,2*%
%TO.N,Net-(D47-A)*%
X156484500Y-109020000D03*
%TD*%
D11*
%TO.P,D40,1,K*%
%TO.N,/ROW3*%
X446200000Y-97710000D03*
D12*
%TO.P,D40,2,A*%
%TO.N,Net-(D40-A)*%
X446200000Y-90090000D03*
%TD*%
D10*
%TO.P,SW20,1,1*%
%TO.N,/COL9*%
X448576169Y-64012685D03*
%TO.P,SW20,2,2*%
%TO.N,Net-(D20-A)*%
X461503169Y-61472685D03*
%TD*%
%TO.P,SW66,1,1*%
%TO.N,/COL5*%
X110115000Y-130660000D03*
%TO.P,SW66,2,2*%
%TO.N,Net-(D66-A)*%
X123042000Y-128120000D03*
%TD*%
%TO.P,SW64,1,1*%
%TO.N,/COL3*%
X72057500Y-130660000D03*
%TO.P,SW64,2,2*%
%TO.N,Net-(D64-A)*%
X84984500Y-128120000D03*
%TD*%
%TO.P,SW8,1,1*%
%TO.N,/COL7*%
X200955583Y-64025221D03*
%TO.P,SW8,2,2*%
%TO.N,Net-(D8-A)*%
X213882583Y-61485221D03*
%TD*%
D11*
%TO.P,D56,1,K*%
%TO.N,/ROW5*%
X346200000Y-116710000D03*
D12*
%TO.P,D56,2,A*%
%TO.N,Net-(D56-A)*%
X346200000Y-109090000D03*
%TD*%
D11*
%TO.P,D88,1,K*%
%TO.N,/ROW8*%
X250800000Y-154810000D03*
D12*
%TO.P,D88,2,A*%
%TO.N,Net-(D88-A)*%
X250800000Y-147190000D03*
%TD*%
D10*
%TO.P,SW73,1,1*%
%TO.N,/COL2*%
X243657500Y-130660000D03*
%TO.P,SW73,2,2*%
%TO.N,Net-(D73-A)*%
X256584500Y-128120000D03*
%TD*%
D11*
%TO.P,D55,1,K*%
%TO.N,/ROW5*%
X317800000Y-116600000D03*
D12*
%TO.P,D55,2,A*%
%TO.N,Net-(D55-A)*%
X317800000Y-108980000D03*
%TD*%
D11*
%TO.P,D98,1,K*%
%TO.N,/ROW9*%
X105600000Y-173910000D03*
D12*
%TO.P,D98,2,A*%
%TO.N,Net-(D98-A)*%
X105600000Y-166290000D03*
%TD*%
D11*
%TO.P,D97,1,K*%
%TO.N,/ROW9*%
X81800000Y-173910000D03*
D12*
%TO.P,D97,2,A*%
%TO.N,Net-(D97-A)*%
X81800000Y-166290000D03*
%TD*%
D13*
%TO.P,J1,1,Pin_1*%
%TO.N,GND*%
X370100000Y-128980000D03*
D14*
%TO.P,J1,2,Pin_2*%
%TO.N,+3.3V*%
X370100000Y-131520000D03*
%TO.P,J1,3,Pin_3*%
%TO.N,SCL*%
X370100000Y-134060000D03*
%TO.P,J1,4,Pin_4*%
%TO.N,SDA*%
X370100000Y-136600000D03*
%TD*%
D11*
%TO.P,D67,1,K*%
%TO.N,/ROW6*%
X145900000Y-135710000D03*
D12*
%TO.P,D67,2,A*%
%TO.N,Net-(D67-A)*%
X145900000Y-128090000D03*
%TD*%
D11*
%TO.P,D74,1,K*%
%TO.N,/ROW7*%
X279400000Y-135810000D03*
D12*
%TO.P,D74,2,A*%
%TO.N,Net-(D74-A)*%
X279400000Y-128190000D03*
%TD*%
D11*
%TO.P,D96,1,K*%
%TO.N,/ROW9*%
X57900000Y-174010000D03*
D12*
%TO.P,D96,2,A*%
%TO.N,Net-(D96-A)*%
X57900000Y-166390000D03*
%TD*%
D10*
%TO.P,SW98,1,1*%
%TO.N,/COL7*%
X88775000Y-168840000D03*
%TO.P,SW98,2,2*%
%TO.N,Net-(D98-A)*%
X101702000Y-166300000D03*
%TD*%
D11*
%TO.P,D82,1,K*%
%TO.N,/ROW8*%
X136300000Y-154810000D03*
D12*
%TO.P,D82,2,A*%
%TO.N,Net-(D82-A)*%
X136300000Y-147190000D03*
%TD*%
D10*
%TO.P,SW106,1,1*%
%TO.N,/COL5*%
X367421845Y-168765288D03*
%TO.P,SW106,2,2*%
%TO.N,Net-(D106-A)*%
X380348845Y-166225288D03*
%TD*%
D11*
%TO.P,D86,1,K*%
%TO.N,/ROW8*%
X212600000Y-154810000D03*
D12*
%TO.P,D86,2,A*%
%TO.N,Net-(D86-A)*%
X212600000Y-147190000D03*
%TD*%
D11*
%TO.P,D41,1,K*%
%TO.N,/ROW4*%
X465200000Y-97710000D03*
D12*
%TO.P,D41,2,A*%
%TO.N,Net-(D41-A)*%
X465200000Y-90090000D03*
%TD*%
D11*
%TO.P,D91,1,K*%
%TO.N,/ROW9*%
X365100000Y-154810000D03*
D12*
%TO.P,D91,2,A*%
%TO.N,Net-(D91-A)*%
X365100000Y-147190000D03*
%TD*%
D10*
%TO.P,SW76,1,1*%
%TO.N,/COL5*%
X391404492Y-130629059D03*
%TO.P,SW76,2,2*%
%TO.N,Net-(D76-A)*%
X404331492Y-128089059D03*
%TD*%
%TO.P,SW28,1,1*%
%TO.N,/COL7*%
X172275628Y-92516953D03*
%TO.P,SW28,2,2*%
%TO.N,Net-(D28-A)*%
X185202628Y-89976953D03*
%TD*%
%TO.P,SW31,1,1*%
%TO.N,/COL0*%
X229484228Y-92519152D03*
%TO.P,SW31,2,2*%
%TO.N,Net-(D31-A)*%
X242411228Y-89979152D03*
%TD*%
D11*
%TO.P,D26,1,K*%
%TO.N,/ROW2*%
X150800000Y-97620000D03*
D12*
%TO.P,D26,2,A*%
%TO.N,Net-(D26-A)*%
X150800000Y-90000000D03*
%TD*%
D10*
%TO.P,SW19,1,1*%
%TO.N,/COL8*%
X429528202Y-64004770D03*
%TO.P,SW19,2,2*%
%TO.N,Net-(D19-A)*%
X442455202Y-61464770D03*
%TD*%
D11*
%TO.P,D39,1,K*%
%TO.N,/ROW3*%
X427100000Y-97720000D03*
D12*
%TO.P,D39,2,A*%
%TO.N,Net-(D39-A)*%
X427100000Y-90100000D03*
%TD*%
D10*
%TO.P,SW25,1,1*%
%TO.N,/COL4*%
X115098388Y-92509899D03*
%TO.P,SW25,2,2*%
%TO.N,Net-(D25-A)*%
X128025388Y-89969899D03*
%TD*%
D11*
%TO.P,D83,1,K*%
%TO.N,/ROW8*%
X155400000Y-154810000D03*
D12*
%TO.P,D83,2,A*%
%TO.N,Net-(D83-A)*%
X155400000Y-147190000D03*
%TD*%
D11*
%TO.P,D11,1,K*%
%TO.N,/ROW1*%
X284200000Y-69310000D03*
D12*
%TO.P,D11,2,A*%
%TO.N,Net-(D11-A)*%
X284200000Y-61690000D03*
%TD*%
D10*
%TO.P,SW97,1,1*%
%TO.N,/COL6*%
X64975000Y-168840000D03*
%TO.P,SW97,2,2*%
%TO.N,Net-(D97-A)*%
X77902000Y-166300000D03*
%TD*%
D11*
%TO.P,D22,1,K*%
%TO.N,/ROW2*%
X74600000Y-97620000D03*
D12*
%TO.P,D22,2,A*%
%TO.N,Net-(D22-A)*%
X74600000Y-90000000D03*
%TD*%
D11*
%TO.P,D15,1,K*%
%TO.N,/ROW1*%
X365200000Y-69120000D03*
D12*
%TO.P,D15,2,A*%
%TO.N,Net-(D15-A)*%
X365200000Y-61500000D03*
%TD*%
D11*
%TO.P,D5,1,K*%
%TO.N,/ROW0*%
X151000000Y-69310000D03*
D12*
%TO.P,D5,2,A*%
%TO.N,Net-(D5-A)*%
X151000000Y-61690000D03*
%TD*%
D11*
%TO.P,D51,1,K*%
%TO.N,/ROW5*%
X236400000Y-116610000D03*
D12*
%TO.P,D51,2,A*%
%TO.N,Net-(D51-A)*%
X236400000Y-108990000D03*
%TD*%
D10*
%TO.P,SW54,1,1*%
%TO.N,/COL3*%
X276915000Y-111560000D03*
%TO.P,SW54,2,2*%
%TO.N,Net-(D54-A)*%
X289842000Y-109020000D03*
%TD*%
D11*
%TO.P,D58,1,K*%
%TO.N,/ROW5*%
X384300000Y-116610000D03*
D12*
%TO.P,D58,2,A*%
%TO.N,Net-(D58-A)*%
X384300000Y-108990000D03*
%TD*%
D10*
%TO.P,SW12,1,1*%
%TO.N,/COL1*%
X286677838Y-64021771D03*
%TO.P,SW12,2,2*%
%TO.N,Net-(D12-A)*%
X299604838Y-61481771D03*
%TD*%
D11*
%TO.P,D28,1,K*%
%TO.N,/ROW2*%
X188900000Y-97620000D03*
D12*
%TO.P,D28,2,A*%
%TO.N,Net-(D28-A)*%
X188900000Y-90000000D03*
%TD*%
D11*
%TO.P,D107,1,K*%
%TO.N,/ROW10*%
X417800000Y-173810000D03*
D12*
%TO.P,D107,2,A*%
%TO.N,Net-(D107-A)*%
X417800000Y-166190000D03*
%TD*%
D10*
%TO.P,SW1,1,1*%
%TO.N,/COL0*%
X38835000Y-63960000D03*
%TO.P,SW1,2,2*%
%TO.N,Net-(D1-A)*%
X51762000Y-61420000D03*
%TD*%
D11*
%TO.P,D19,1,K*%
%TO.N,/ROW1*%
X446100000Y-69310000D03*
D12*
%TO.P,D19,2,A*%
%TO.N,Net-(D19-A)*%
X446100000Y-61690000D03*
%TD*%
D10*
%TO.P,SW101,1,1*%
%TO.N,/COL0*%
X255535000Y-168760000D03*
%TO.P,SW101,2,2*%
%TO.N,Net-(D101-A)*%
X268462000Y-166220000D03*
%TD*%
%TO.P,SW11,1,1*%
%TO.N,/COL0*%
X267635794Y-64020145D03*
%TO.P,SW11,2,2*%
%TO.N,Net-(D11-A)*%
X280562794Y-61480145D03*
%TD*%
D11*
%TO.P,D8,1,K*%
%TO.N,/ROW0*%
X217600000Y-69310000D03*
D12*
%TO.P,D8,2,A*%
%TO.N,Net-(D8-A)*%
X217600000Y-61690000D03*
%TD*%
D10*
%TO.P,SW57,1,1*%
%TO.N,/COL6*%
X348567827Y-111637603D03*
%TO.P,SW57,2,2*%
%TO.N,Net-(D57-A)*%
X361494827Y-109097603D03*
%TD*%
%TO.P,SW37,1,1*%
%TO.N,/COL6*%
X367608584Y-92533693D03*
%TO.P,SW37,2,2*%
%TO.N,Net-(D37-A)*%
X380535584Y-89993693D03*
%TD*%
D11*
%TO.P,D70,1,K*%
%TO.N,/ROW6*%
X203000000Y-135710000D03*
D12*
%TO.P,D70,2,A*%
%TO.N,Net-(D70-A)*%
X203000000Y-128090000D03*
%TD*%
D11*
%TO.P,D72,1,K*%
%TO.N,/ROW7*%
X241200000Y-135710000D03*
D12*
%TO.P,D72,2,A*%
%TO.N,Net-(D72-A)*%
X241200000Y-128090000D03*
%TD*%
D10*
%TO.P,SW62,1,1*%
%TO.N,/COL1*%
X448539731Y-121111498D03*
%TO.P,SW62,2,2*%
%TO.N,Net-(D62-A)*%
X461466731Y-118571498D03*
%TD*%
D11*
%TO.P,D33,1,K*%
%TO.N,/ROW3*%
X284200000Y-97620000D03*
D12*
%TO.P,D33,2,A*%
%TO.N,Net-(D33-A)*%
X284200000Y-90000000D03*
%TD*%
D10*
%TO.P,SW18,1,1*%
%TO.N,/COL7*%
X410483740Y-64004870D03*
%TO.P,SW18,2,2*%
%TO.N,Net-(D18-A)*%
X423410740Y-61464870D03*
%TD*%
D11*
%TO.P,D37,1,K*%
%TO.N,/ROW3*%
X384300000Y-97720000D03*
D12*
%TO.P,D37,2,A*%
%TO.N,Net-(D37-A)*%
X384300000Y-90100000D03*
%TD*%
D10*
%TO.P,SW49,1,1*%
%TO.N,/COL8*%
X181657500Y-111560000D03*
%TO.P,SW49,2,2*%
%TO.N,Net-(D49-A)*%
X194584500Y-109020000D03*
%TD*%
D11*
%TO.P,D44,1,K*%
%TO.N,/ROW4*%
X103200000Y-116710000D03*
D12*
%TO.P,D44,2,A*%
%TO.N,Net-(D44-A)*%
X103200000Y-109090000D03*
%TD*%
D10*
%TO.P,SW78,1,1*%
%TO.N,/COL7*%
X429516238Y-130670224D03*
%TO.P,SW78,2,2*%
%TO.N,Net-(D78-A)*%
X442443238Y-128130224D03*
%TD*%
%TO.P,SW96,1,1*%
%TO.N,/COL5*%
X41182764Y-168864810D03*
%TO.P,SW96,2,2*%
%TO.N,Net-(D96-A)*%
X54109764Y-166324810D03*
%TD*%
%TO.P,SW27,1,1*%
%TO.N,/COL6*%
X153228179Y-92520614D03*
%TO.P,SW27,2,2*%
%TO.N,Net-(D27-A)*%
X166155179Y-89980614D03*
%TD*%
%TO.P,SW29,1,1*%
%TO.N,/COL8*%
X191351464Y-92516112D03*
%TO.P,SW29,2,2*%
%TO.N,Net-(D29-A)*%
X204278464Y-89976112D03*
%TD*%
D11*
%TO.P,D13,1,K*%
%TO.N,/ROW1*%
X322300000Y-69310000D03*
D12*
%TO.P,D13,2,A*%
%TO.N,Net-(D13-A)*%
X322300000Y-61690000D03*
%TD*%
D10*
%TO.P,SW107,1,1*%
%TO.N,/COL6*%
X400902041Y-168719077D03*
%TO.P,SW107,2,2*%
%TO.N,Net-(D107-A)*%
X413829041Y-166179077D03*
%TD*%
%TO.P,SW89,1,1*%
%TO.N,/COL8*%
X253188588Y-149739275D03*
%TO.P,SW89,2,2*%
%TO.N,Net-(D89-A)*%
X266115588Y-147199275D03*
%TD*%
%TO.P,SW70,1,1*%
%TO.N,/COL9*%
X186457500Y-130660000D03*
%TO.P,SW70,2,2*%
%TO.N,Net-(D70-A)*%
X199384500Y-128120000D03*
%TD*%
D11*
%TO.P,D73,1,K*%
%TO.N,/ROW7*%
X260300000Y-135710000D03*
D12*
%TO.P,D73,2,A*%
%TO.N,Net-(D73-A)*%
X260300000Y-128090000D03*
%TD*%
D10*
%TO.P,SW90,1,1*%
%TO.N,/COL9*%
X288903670Y-149739275D03*
%TO.P,SW90,2,2*%
%TO.N,Net-(D90-A)*%
X301830670Y-147199275D03*
%TD*%
D11*
%TO.P,D85,1,K*%
%TO.N,/ROW8*%
X193500000Y-154810000D03*
D12*
%TO.P,D85,2,A*%
%TO.N,Net-(D85-A)*%
X193500000Y-147190000D03*
%TD*%
D10*
%TO.P,SW71,1,1*%
%TO.N,/COL0*%
X205542290Y-130603301D03*
%TO.P,SW71,2,2*%
%TO.N,Net-(D71-A)*%
X218469290Y-128063301D03*
%TD*%
%TO.P,SW104,1,1*%
%TO.N,/COL3*%
X329354316Y-168763761D03*
%TO.P,SW104,2,2*%
%TO.N,Net-(D104-A)*%
X342281316Y-166223761D03*
%TD*%
D11*
%TO.P,D48,1,K*%
%TO.N,/ROW4*%
X179200000Y-116710000D03*
D12*
%TO.P,D48,2,A*%
%TO.N,Net-(D48-A)*%
X179200000Y-109090000D03*
%TD*%
D11*
%TO.P,D79,1,K*%
%TO.N,/ROW7*%
X67500000Y-154810000D03*
D12*
%TO.P,D79,2,A*%
%TO.N,Net-(D79-A)*%
X67500000Y-147190000D03*
%TD*%
D15*
%TO.P,SW109,6,6*%
%TO.N,unconnected-(SW109-Pad6)*%
X367900000Y-42700000D03*
%TO.P,SW109,7,7*%
%TO.N,unconnected-(SW109-Pad7)*%
X356900000Y-42700000D03*
D16*
%TO.P,SW109,A,A*%
%TO.N,/RotEncoder1A*%
X359860000Y-50200000D03*
%TO.P,SW109,B,B*%
%TO.N,/RotEncoder1B*%
X364940000Y-50200000D03*
%TO.P,SW109,C,C*%
%TO.N,GND*%
X362400000Y-50200000D03*
%TO.P,SW109,D,D*%
%TO.N,/RotEncoder1B1*%
X359860000Y-35700000D03*
%TO.P,SW109,E,E*%
%TO.N,/RotEncoder1B2*%
X364940000Y-35700000D03*
%TD*%
D11*
%TO.P,D29,1,K*%
%TO.N,/ROW2*%
X207984428Y-97619391D03*
D12*
%TO.P,D29,2,A*%
%TO.N,Net-(D29-A)*%
X207984428Y-89999391D03*
%TD*%
D11*
%TO.P,D46,1,K*%
%TO.N,/ROW4*%
X141200000Y-116610000D03*
D12*
%TO.P,D46,2,A*%
%TO.N,Net-(D46-A)*%
X141200000Y-108990000D03*
%TD*%
D11*
%TO.P,D75,1,K*%
%TO.N,/ROW7*%
X310200000Y-135810000D03*
D12*
%TO.P,D75,2,A*%
%TO.N,Net-(D75-A)*%
X310200000Y-128190000D03*
%TD*%
D11*
%TO.P,D30,1,K*%
%TO.N,/ROW2*%
X227000000Y-97620000D03*
D12*
%TO.P,D30,2,A*%
%TO.N,Net-(D30-A)*%
X227000000Y-90000000D03*
%TD*%
D10*
%TO.P,SW42,1,1*%
%TO.N,/COL1*%
X43561884Y-111584031D03*
%TO.P,SW42,2,2*%
%TO.N,Net-(D42-A)*%
X56488884Y-109044031D03*
%TD*%
%TO.P,SW80,1,1*%
%TO.N,/COL9*%
X81648426Y-149749712D03*
%TO.P,SW80,2,2*%
%TO.N,Net-(D80-A)*%
X94575426Y-147209712D03*
%TD*%
%TO.P,SW93,1,1*%
%TO.N,/COL2*%
X410455519Y-149707722D03*
%TO.P,SW93,2,2*%
%TO.N,Net-(D93-A)*%
X423382519Y-147167722D03*
%TD*%
%TO.P,SW2,1,1*%
%TO.N,/COL1*%
X77091232Y-63984027D03*
%TO.P,SW2,2,2*%
%TO.N,Net-(D2-A)*%
X90018232Y-61444027D03*
%TD*%
D11*
%TO.P,D90,1,K*%
%TO.N,/ROW8*%
X305800000Y-154810000D03*
D12*
%TO.P,D90,2,A*%
%TO.N,Net-(D90-A)*%
X305800000Y-147190000D03*
%TD*%
D10*
%TO.P,SW77,1,1*%
%TO.N,/COL6*%
X410457500Y-130660000D03*
%TO.P,SW77,2,2*%
%TO.N,Net-(D77-A)*%
X423384500Y-128120000D03*
%TD*%
D11*
%TO.P,D87,1,K*%
%TO.N,/ROW8*%
X231700000Y-154810000D03*
D12*
%TO.P,D87,2,A*%
%TO.N,Net-(D87-A)*%
X231700000Y-147190000D03*
%TD*%
D11*
%TO.P,D69,1,K*%
%TO.N,/ROW6*%
X184000000Y-135710000D03*
D12*
%TO.P,D69,2,A*%
%TO.N,Net-(D69-A)*%
X184000000Y-128090000D03*
%TD*%
D11*
%TO.P,D9,1,K*%
%TO.N,/ROW0*%
X236700000Y-69310000D03*
D12*
%TO.P,D9,2,A*%
%TO.N,Net-(D9-A)*%
X236700000Y-61690000D03*
%TD*%
D11*
%TO.P,D12,1,K*%
%TO.N,/ROW1*%
X303200000Y-69310000D03*
D12*
%TO.P,D12,2,A*%
%TO.N,Net-(D12-A)*%
X303200000Y-61690000D03*
%TD*%
D10*
%TO.P,SW3,1,1*%
%TO.N,/COL2*%
X96171082Y-63984027D03*
%TO.P,SW3,2,2*%
%TO.N,Net-(D3-A)*%
X109098082Y-61444027D03*
%TD*%
D11*
%TO.P,D4,1,K*%
%TO.N,/ROW0*%
X131900000Y-69310000D03*
D12*
%TO.P,D4,2,A*%
%TO.N,Net-(D4-A)*%
X131900000Y-61690000D03*
%TD*%
D10*
%TO.P,SW92,1,1*%
%TO.N,/COL1*%
X391401959Y-149683978D03*
%TO.P,SW92,2,2*%
%TO.N,Net-(D92-A)*%
X404328959Y-147143978D03*
%TD*%
%TO.P,SW95,1,1*%
%TO.N,/COL4*%
X448546832Y-159206246D03*
%TO.P,SW95,2,2*%
%TO.N,Net-(D95-A)*%
X461473832Y-156666246D03*
%TD*%
%TO.P,SW14,1,1*%
%TO.N,/COL3*%
X329554249Y-64017158D03*
%TO.P,SW14,2,2*%
%TO.N,Net-(D14-A)*%
X342481249Y-61477158D03*
%TD*%
D11*
%TO.P,D20,1,K*%
%TO.N,/ROW1*%
X465200000Y-69310000D03*
D12*
%TO.P,D20,2,A*%
%TO.N,Net-(D20-A)*%
X465200000Y-61690000D03*
%TD*%
D11*
%TO.P,D25,1,K*%
%TO.N,/ROW2*%
X131700000Y-97620000D03*
D12*
%TO.P,D25,2,A*%
%TO.N,Net-(D25-A)*%
X131700000Y-90000000D03*
%TD*%
D10*
%TO.P,SW83,1,1*%
%TO.N,/COL2*%
X138806076Y-149728228D03*
%TO.P,SW83,2,2*%
%TO.N,Net-(D83-A)*%
X151733076Y-147188228D03*
%TD*%
D11*
%TO.P,D108,1,K*%
%TO.N,/ROW10*%
X445600000Y-173910000D03*
D12*
%TO.P,D108,2,A*%
%TO.N,Net-(D108-A)*%
X445600000Y-166290000D03*
%TD*%
D11*
%TO.P,D84,1,K*%
%TO.N,/ROW8*%
X174500000Y-154810000D03*
D12*
%TO.P,D84,2,A*%
%TO.N,Net-(D84-A)*%
X174500000Y-147190000D03*
%TD*%
D10*
%TO.P,SW86,1,1*%
%TO.N,/COL5*%
X195994911Y-149710223D03*
%TO.P,SW86,2,2*%
%TO.N,Net-(D86-A)*%
X208921911Y-147170223D03*
%TD*%
D11*
%TO.P,D1,1,K*%
%TO.N,/ROW0*%
X55500000Y-69000000D03*
D12*
%TO.P,D1,2,A*%
%TO.N,Net-(D1-A)*%
X55500000Y-61380000D03*
%TD*%
D11*
%TO.P,D62,1,K*%
%TO.N,/ROW6*%
X465100000Y-126220000D03*
D12*
%TO.P,D62,2,A*%
%TO.N,Net-(D62-A)*%
X465100000Y-118600000D03*
%TD*%
D11*
%TO.P,D101,1,K*%
%TO.N,/ROW10*%
X272200000Y-173820000D03*
D12*
%TO.P,D101,2,A*%
%TO.N,Net-(D101-A)*%
X272200000Y-166200000D03*
%TD*%
D11*
%TO.P,D7,1,K*%
%TO.N,/ROW0*%
X198500000Y-69310000D03*
D12*
%TO.P,D7,2,A*%
%TO.N,Net-(D7-A)*%
X198500000Y-61690000D03*
%TD*%
D11*
%TO.P,D50,1,K*%
%TO.N,/ROW4*%
X217400000Y-116610000D03*
D12*
%TO.P,D50,2,A*%
%TO.N,Net-(D50-A)*%
X217400000Y-108990000D03*
%TD*%
D11*
%TO.P,D99,1,K*%
%TO.N,/ROW9*%
X177100000Y-173910000D03*
D12*
%TO.P,D99,2,A*%
%TO.N,Net-(D99-A)*%
X177100000Y-166290000D03*
%TD*%
D11*
%TO.P,D36,1,K*%
%TO.N,/ROW3*%
X365200000Y-97720000D03*
D12*
%TO.P,D36,2,A*%
%TO.N,Net-(D36-A)*%
X365200000Y-90100000D03*
%TD*%
D11*
%TO.P,D95,1,K*%
%TO.N,/ROW9*%
X465100000Y-164310000D03*
D12*
%TO.P,D95,2,A*%
%TO.N,Net-(D95-A)*%
X465100000Y-156690000D03*
%TD*%
D11*
%TO.P,D105,1,K*%
%TO.N,/ROW10*%
X365100000Y-173820000D03*
D12*
%TO.P,D105,2,A*%
%TO.N,Net-(D105-A)*%
X365100000Y-166200000D03*
%TD*%
D11*
%TO.P,D100,1,K*%
%TO.N,/ROW9*%
X248600000Y-173820000D03*
D12*
%TO.P,D100,2,A*%
%TO.N,Net-(D100-A)*%
X248600000Y-166200000D03*
%TD*%
D11*
%TO.P,D92,1,K*%
%TO.N,/ROW9*%
X408000000Y-154800000D03*
D12*
%TO.P,D92,2,A*%
%TO.N,Net-(D92-A)*%
X408000000Y-147180000D03*
%TD*%
D11*
%TO.P,D2,1,K*%
%TO.N,/ROW0*%
X93700000Y-69310000D03*
D12*
%TO.P,D2,2,A*%
%TO.N,Net-(D2-A)*%
X93700000Y-61690000D03*
%TD*%
D10*
%TO.P,SW10,1,1*%
%TO.N,/COL9*%
X248585582Y-64032622D03*
%TO.P,SW10,2,2*%
%TO.N,Net-(D10-A)*%
X261512582Y-61492622D03*
%TD*%
%TO.P,SW105,1,1*%
%TO.N,/COL4*%
X348381005Y-168763761D03*
%TO.P,SW105,2,2*%
%TO.N,Net-(D105-A)*%
X361308005Y-166223761D03*
%TD*%
%TO.P,SW100,1,1*%
%TO.N,/COL9*%
X231735000Y-168760000D03*
%TO.P,SW100,2,2*%
%TO.N,Net-(D100-A)*%
X244662000Y-166220000D03*
%TD*%
D11*
%TO.P,D31,1,K*%
%TO.N,/ROW3*%
X246100000Y-97620000D03*
D12*
%TO.P,D31,2,A*%
%TO.N,Net-(D31-A)*%
X246100000Y-90000000D03*
%TD*%
D10*
%TO.P,SW85,1,1*%
%TO.N,/COL4*%
X176925000Y-149700000D03*
%TO.P,SW85,2,2*%
%TO.N,Net-(D85-A)*%
X189852000Y-147160000D03*
%TD*%
%TO.P,SW30,1,1*%
%TO.N,/COL9*%
X210434015Y-92519507D03*
%TO.P,SW30,2,2*%
%TO.N,Net-(D30-A)*%
X223361015Y-89979507D03*
%TD*%
D11*
%TO.P,D66,1,K*%
%TO.N,/ROW6*%
X126800000Y-135710000D03*
D12*
%TO.P,D66,2,A*%
%TO.N,Net-(D66-A)*%
X126800000Y-128090000D03*
%TD*%
D10*
%TO.P,SW36,1,1*%
%TO.N,/COL5*%
X348567827Y-92533693D03*
%TO.P,SW36,2,2*%
%TO.N,Net-(D36-A)*%
X361494827Y-89993693D03*
%TD*%
%TO.P,SW108,1,1*%
%TO.N,/COL7*%
X429488438Y-168719077D03*
%TO.P,SW108,2,2*%
%TO.N,Net-(D108-A)*%
X442415438Y-166179077D03*
%TD*%
%TO.P,SW34,1,1*%
%TO.N,/COL3*%
X296186745Y-92527979D03*
%TO.P,SW34,2,2*%
%TO.N,Net-(D34-A)*%
X309113745Y-89987979D03*
%TD*%
%TO.P,SW7,1,1*%
%TO.N,/COL6*%
X181888182Y-64001772D03*
%TO.P,SW7,2,2*%
%TO.N,Net-(D7-A)*%
X194815182Y-61461772D03*
%TD*%
%TO.P,SW102,1,1*%
%TO.N,/COL1*%
X279357500Y-168760000D03*
%TO.P,SW102,2,2*%
%TO.N,Net-(D102-A)*%
X292284500Y-166220000D03*
%TD*%
D12*
%TO.P,C1,1,1*%
%TO.N,Net-(U1-VDD)*%
X395840000Y-49200000D03*
%TO.P,C1,2,2*%
%TO.N,+5V*%
X390760000Y-49200000D03*
%TD*%
D11*
%TO.P,D93,1,K*%
%TO.N,/ROW9*%
X427100000Y-154810000D03*
D12*
%TO.P,D93,2,A*%
%TO.N,Net-(D93-A)*%
X427100000Y-147190000D03*
%TD*%
D11*
%TO.P,D43,1,K*%
%TO.N,/ROW4*%
X84100000Y-116620000D03*
D12*
%TO.P,D43,2,A*%
%TO.N,Net-(D43-A)*%
X84100000Y-109000000D03*
%TD*%
D11*
%TO.P,D103,1,K*%
%TO.N,/ROW10*%
X319900000Y-173820000D03*
D12*
%TO.P,D103,2,A*%
%TO.N,Net-(D103-A)*%
X319900000Y-166200000D03*
%TD*%
D11*
%TO.P,U1,1,GPB0*%
%TO.N,/RotEncoder1B1*%
X376140000Y-46820000D03*
D12*
%TO.P,U1,2,GPB1*%
%TO.N,/RotEncoder1B2*%
X378680000Y-46820000D03*
%TO.P,U1,3,GPB2*%
%TO.N,/RotEncoder2B1*%
X381220000Y-46820000D03*
%TO.P,U1,4,GPB3*%
%TO.N,/RotEncoder2B2*%
X383760000Y-46820000D03*
%TO.P,U1,5,GPB4*%
%TO.N,unconnected-(U1-GPB4-Pad5)*%
X386300000Y-46820000D03*
%TO.P,U1,6,GPB5*%
%TO.N,unconnected-(U1-GPB5-Pad6)*%
X388840000Y-46820000D03*
%TO.P,U1,7,GPB6*%
%TO.N,unconnected-(U1-GPB6-Pad7)*%
X391380000Y-46820000D03*
%TO.P,U1,8,GPB7*%
%TO.N,unconnected-(U1-GPB7-Pad8)*%
X393920000Y-46820000D03*
%TO.P,U1,9,VDD*%
%TO.N,Net-(U1-VDD)*%
X396460000Y-46820000D03*
%TO.P,U1,10,VSS*%
%TO.N,Net-(U1-VSS)*%
X399000000Y-46820000D03*
%TO.P,U1,11,NC*%
%TO.N,unconnected-(U1-NC-Pad11)*%
X401540000Y-46820000D03*
%TO.P,U1,12,SCK*%
%TO.N,SCL*%
X404080000Y-46820000D03*
%TO.P,U1,13,SDA*%
%TO.N,SDA*%
X406620000Y-46820000D03*
%TO.P,U1,14,NC__1*%
%TO.N,unconnected-(U1-NC__1-Pad14)*%
X409160000Y-46820000D03*
%TO.P,U1,15,A0*%
%TO.N,GND*%
X409160000Y-39200000D03*
%TO.P,U1,16,A1*%
X406620000Y-39200000D03*
%TO.P,U1,17,A2*%
X404080000Y-39200000D03*
%TO.P,U1,18,~{RESET}*%
%TO.N,Net-(U1-~{RESET})*%
X401540000Y-39200000D03*
%TO.P,U1,19,INTB*%
%TO.N,unconnected-(U1-INTB-Pad19)*%
X399000000Y-39200000D03*
%TO.P,U1,20,INTA*%
%TO.N,unconnected-(U1-INTA-Pad20)*%
X396460000Y-39200000D03*
%TO.P,U1,21,GPA0*%
%TO.N,/RotEncoder1A*%
X393920000Y-39200000D03*
%TO.P,U1,22,GPA1*%
%TO.N,/RotEncoder1B*%
X391380000Y-39200000D03*
%TO.P,U1,23,GPA2*%
%TO.N,/RotEncoder2A*%
X388840000Y-39200000D03*
%TO.P,U1,24,GPA3*%
%TO.N,/RotEncoder2B*%
X386300000Y-39200000D03*
%TO.P,U1,25,GPA4*%
%TO.N,unconnected-(U1-GPA4-Pad25)*%
X383760000Y-39200000D03*
%TO.P,U1,26,GPA5*%
%TO.N,unconnected-(U1-GPA5-Pad26)*%
X381220000Y-39200000D03*
%TO.P,U1,27,GPA6*%
%TO.N,unconnected-(U1-GPA6-Pad27)*%
X378680000Y-39200000D03*
%TO.P,U1,28,GPA7*%
%TO.N,unconnected-(U1-GPA7-Pad28)*%
X376140000Y-39200000D03*
%TD*%
D11*
%TO.P,D104,1,K*%
%TO.N,/ROW10*%
X346000000Y-173820000D03*
D12*
%TO.P,D104,2,A*%
%TO.N,Net-(D104-A)*%
X346000000Y-166200000D03*
%TD*%
D10*
%TO.P,SW59,1,1*%
%TO.N,/COL8*%
X391425000Y-111600000D03*
%TO.P,SW59,2,2*%
%TO.N,Net-(D59-A)*%
X404352000Y-109060000D03*
%TD*%
D11*
%TO.P,D17,1,K*%
%TO.N,/ROW1*%
X408000000Y-69310000D03*
D12*
%TO.P,D17,2,A*%
%TO.N,Net-(D17-A)*%
X408000000Y-61690000D03*
%TD*%
D10*
%TO.P,SW63,1,1*%
%TO.N,/COL2*%
X45915000Y-130660000D03*
%TO.P,SW63,2,2*%
%TO.N,Net-(D63-A)*%
X58842000Y-128120000D03*
%TD*%
D15*
%TO.P,SW110,6,6*%
%TO.N,unconnected-(SW110-Pad6)*%
X351860000Y-43000000D03*
%TO.P,SW110,7,7*%
%TO.N,unconnected-(SW110-Pad7)*%
X340860000Y-43000000D03*
D16*
%TO.P,SW110,A,A*%
%TO.N,/RotEncoder2A*%
X343820000Y-50500000D03*
%TO.P,SW110,B,B*%
%TO.N,/RotEncoder2B*%
X348900000Y-50500000D03*
%TO.P,SW110,C,C*%
%TO.N,GND*%
X346360000Y-50500000D03*
%TO.P,SW110,D,D*%
%TO.N,/RotEncoder2B1*%
X343820000Y-36000000D03*
%TO.P,SW110,E,E*%
%TO.N,/RotEncoder2B2*%
X348900000Y-36000000D03*
%TD*%
D11*
%TO.P,D32,1,K*%
%TO.N,/ROW3*%
X265200000Y-97620000D03*
D12*
%TO.P,D32,2,A*%
%TO.N,Net-(D32-A)*%
X265200000Y-90000000D03*
%TD*%
D10*
%TO.P,SW75,1,1*%
%TO.N,/COL4*%
X293657500Y-130660000D03*
%TO.P,SW75,2,2*%
%TO.N,Net-(D75-A)*%
X306584500Y-128120000D03*
%TD*%
%TO.P,SW39,1,1*%
%TO.N,/COL8*%
X410464689Y-92533863D03*
%TO.P,SW39,2,2*%
%TO.N,Net-(D39-A)*%
X423391689Y-89993863D03*
%TD*%
%TO.P,SW48,1,1*%
%TO.N,/COL7*%
X162657500Y-111560000D03*
%TO.P,SW48,2,2*%
%TO.N,Net-(D48-A)*%
X175584500Y-109020000D03*
%TD*%
D11*
%TO.P,D65,1,K*%
%TO.N,/ROW6*%
X107800000Y-135710000D03*
D12*
%TO.P,D65,2,A*%
%TO.N,Net-(D65-A)*%
X107800000Y-128090000D03*
%TD*%
D11*
%TO.P,D54,1,K*%
%TO.N,/ROW5*%
X293600000Y-116610000D03*
D12*
%TO.P,D54,2,A*%
%TO.N,Net-(D54-A)*%
X293600000Y-108990000D03*
%TD*%
D11*
%TO.P,D14,1,K*%
%TO.N,/ROW1*%
X346100000Y-69310000D03*
D12*
%TO.P,D14,2,A*%
%TO.N,Net-(D14-A)*%
X346100000Y-61690000D03*
%TD*%
D10*
%TO.P,SW50,1,1*%
%TO.N,/COL9*%
X200657500Y-111560000D03*
%TO.P,SW50,2,2*%
%TO.N,Net-(D50-A)*%
X213584500Y-109020000D03*
%TD*%
D11*
%TO.P,D16,1,K*%
%TO.N,/ROW1*%
X384300000Y-69120000D03*
D12*
%TO.P,D16,2,A*%
%TO.N,Net-(D16-A)*%
X384300000Y-61500000D03*
%TD*%
D10*
%TO.P,SW9,1,1*%
%TO.N,/COL8*%
X220033013Y-64025221D03*
%TO.P,SW9,2,2*%
%TO.N,Net-(D9-A)*%
X232960013Y-61485221D03*
%TD*%
D11*
%TO.P,D34,1,K*%
%TO.N,/ROW3*%
X312600000Y-98110000D03*
D12*
%TO.P,D34,2,A*%
%TO.N,Net-(D34-A)*%
X312600000Y-90490000D03*
%TD*%
D10*
%TO.P,SW44,1,1*%
%TO.N,/COL3*%
X86515000Y-111560000D03*
%TO.P,SW44,2,2*%
%TO.N,Net-(D44-A)*%
X99442000Y-109020000D03*
%TD*%
D17*
%TO.P,A1,1,GPIO0*%
%TO.N,SDA*%
X467317500Y-34500000D03*
D12*
%TO.P,A1,2,GPIO1*%
%TO.N,SCL*%
X464777500Y-34500000D03*
D18*
%TO.P,A1,3,GND*%
%TO.N,GND*%
X462237500Y-34500000D03*
D12*
%TO.P,A1,4,GPIO2*%
%TO.N,/COL0*%
X459697500Y-34500000D03*
%TO.P,A1,5,GPIO3*%
%TO.N,/COL1*%
X457157500Y-34500000D03*
%TO.P,A1,6,GPIO4*%
%TO.N,/COL2*%
X454617500Y-34500000D03*
%TO.P,A1,7,GPIO5*%
%TO.N,/COL3*%
X452077500Y-34500000D03*
D18*
%TO.P,A1,8,GND*%
%TO.N,GND*%
X449537500Y-34500000D03*
D12*
%TO.P,A1,9,GPIO6*%
%TO.N,/COL4*%
X446997500Y-34500000D03*
%TO.P,A1,10,GPIO7*%
%TO.N,/COL5*%
X444457500Y-34500000D03*
%TO.P,A1,11,GPIO8*%
%TO.N,/COL6*%
X441917500Y-34500000D03*
%TO.P,A1,12,GPIO9*%
%TO.N,/COL7*%
X439377500Y-34500000D03*
D18*
%TO.P,A1,13,GND*%
%TO.N,GND*%
X436837500Y-34500000D03*
D12*
%TO.P,A1,14,GPIO10*%
%TO.N,/COL8*%
X434297500Y-34500000D03*
%TO.P,A1,15,GPIO11*%
%TO.N,/COL9*%
X431757500Y-34500000D03*
%TO.P,A1,16,GPIO12*%
%TO.N,/ROW0*%
X429217500Y-34500000D03*
%TO.P,A1,17,GPIO13*%
%TO.N,/ROW1*%
X426677500Y-34500000D03*
D18*
%TO.P,A1,18,GND*%
%TO.N,GND*%
X424137500Y-34500000D03*
D12*
%TO.P,A1,19,GPIO14*%
%TO.N,/ROW2*%
X421597500Y-34500000D03*
%TO.P,A1,20,GPIO15*%
%TO.N,/ROW3*%
X419057500Y-34500000D03*
%TO.P,A1,21,GPIO16*%
%TO.N,/ROW4*%
X419057500Y-52280000D03*
%TO.P,A1,22,GPIO17*%
%TO.N,/ROW5*%
X421597500Y-52280000D03*
D19*
%TO.P,A1,23,GND*%
%TO.N,GND*%
X424137500Y-52280000D03*
D12*
%TO.P,A1,24,GPIO18*%
%TO.N,/ROW6*%
X426677500Y-52280000D03*
%TO.P,A1,25,GPIO19*%
%TO.N,/ROW7*%
X429217500Y-52280000D03*
%TO.P,A1,26,GPIO20*%
%TO.N,/ROW8*%
X431757500Y-52280000D03*
%TO.P,A1,27,GPIO21*%
%TO.N,/ROW9*%
X434297500Y-52280000D03*
D19*
%TO.P,A1,28,GND*%
%TO.N,GND*%
X436837500Y-52280000D03*
D12*
%TO.P,A1,29,GPIO22*%
%TO.N,/ROW10*%
X439377500Y-52280000D03*
%TO.P,A1,30,RUN*%
%TO.N,unconnected-(A1-RUN-Pad30)*%
X441917500Y-52280000D03*
%TO.P,A1,31,GPIO26_ADC0*%
%TO.N,unconnected-(A1-GPIO26_ADC0-Pad31)*%
X444457500Y-52280000D03*
%TO.P,A1,32,GPIO27_ADC1*%
%TO.N,unconnected-(A1-GPIO27_ADC1-Pad32)*%
X446997500Y-52280000D03*
D19*
%TO.P,A1,33,AGND*%
%TO.N,unconnected-(A1-AGND-Pad33)*%
X449537500Y-52280000D03*
D12*
%TO.P,A1,34,GPIO28_ADC2*%
%TO.N,unconnected-(A1-GPIO28_ADC2-Pad34)*%
X452077500Y-52280000D03*
%TO.P,A1,35,ADC_VREF*%
%TO.N,unconnected-(A1-ADC_VREF-Pad35)*%
X454617500Y-52280000D03*
%TO.P,A1,36,3V3*%
%TO.N,+3.3V*%
X457157500Y-52280000D03*
%TO.P,A1,37,3V3_EN*%
%TO.N,unconnected-(A1-3V3_EN-Pad37)*%
X459697500Y-52280000D03*
D19*
%TO.P,A1,38,GND*%
%TO.N,GND*%
X462237500Y-52280000D03*
D12*
%TO.P,A1,39,VSYS*%
%TO.N,unconnected-(A1-VSYS-Pad39)*%
X464777500Y-52280000D03*
%TO.P,A1,40,VBUS*%
%TO.N,+5V*%
X467317500Y-52280000D03*
%TD*%
D10*
%TO.P,SW79,1,1*%
%TO.N,/COL8*%
X50686964Y-149738970D03*
%TO.P,SW79,2,2*%
%TO.N,Net-(D79-A)*%
X63613964Y-147198970D03*
%TD*%
D11*
%TO.P,D23,1,K*%
%TO.N,/ROW2*%
X93700000Y-97620000D03*
D12*
%TO.P,D23,2,A*%
%TO.N,Net-(D23-A)*%
X93700000Y-90000000D03*
%TD*%
D11*
%TO.P,D3,1,K*%
%TO.N,/ROW0*%
X112800000Y-69000000D03*
D12*
%TO.P,D3,2,A*%
%TO.N,Net-(D3-A)*%
X112800000Y-61380000D03*
%TD*%
D11*
%TO.P,D77,1,K*%
%TO.N,/ROW7*%
X427100000Y-135810000D03*
D12*
%TO.P,D77,2,A*%
%TO.N,Net-(D77-A)*%
X427100000Y-128190000D03*
%TD*%
D10*
%TO.P,SW56,1,1*%
%TO.N,/COL5*%
X329521374Y-111637603D03*
%TO.P,SW56,2,2*%
%TO.N,Net-(D56-A)*%
X342448374Y-109097603D03*
%TD*%
%TO.P,SW38,1,1*%
%TO.N,/COL7*%
X391409630Y-92522451D03*
%TO.P,SW38,2,2*%
%TO.N,Net-(D38-A)*%
X404336630Y-89982451D03*
%TD*%
%TO.P,SW74,1,1*%
%TO.N,/COL3*%
X262715000Y-130660000D03*
%TO.P,SW74,2,2*%
%TO.N,Net-(D74-A)*%
X275642000Y-128120000D03*
%TD*%
D12*
%TO.P,R3,1,1*%
%TO.N,Net-(U1-~{RESET})*%
X401600000Y-36545000D03*
%TO.P,R3,2,2*%
%TO.N,+3.3V*%
X401600000Y-34005000D03*
%TD*%
D11*
%TO.P,D102,1,K*%
%TO.N,/ROW10*%
X295600000Y-173810000D03*
D12*
%TO.P,D102,2,A*%
%TO.N,Net-(D102-A)*%
X295600000Y-166190000D03*
%TD*%
D10*
%TO.P,SW35,1,1*%
%TO.N,/COL4*%
X329520641Y-92529136D03*
%TO.P,SW35,2,2*%
%TO.N,Net-(D35-A)*%
X342447641Y-89989136D03*
%TD*%
%TO.P,SW72,1,1*%
%TO.N,/COL1*%
X224615000Y-130660000D03*
%TO.P,SW72,2,2*%
%TO.N,Net-(D72-A)*%
X237542000Y-128120000D03*
%TD*%
D11*
%TO.P,D71,1,K*%
%TO.N,/ROW7*%
X222100000Y-135700000D03*
D12*
%TO.P,D71,2,A*%
%TO.N,Net-(D71-A)*%
X222100000Y-128080000D03*
%TD*%
D10*
%TO.P,SW22,1,1*%
%TO.N,/COL1*%
X57898415Y-92509899D03*
%TO.P,SW22,2,2*%
%TO.N,Net-(D22-A)*%
X70825415Y-89969899D03*
%TD*%
%TO.P,SW6,1,1*%
%TO.N,/COL5*%
X162823687Y-63994126D03*
%TO.P,SW6,2,2*%
%TO.N,Net-(D6-A)*%
X175750687Y-61454126D03*
%TD*%
D11*
%TO.P,D27,1,K*%
%TO.N,/ROW2*%
X169900000Y-97620000D03*
D12*
%TO.P,D27,2,A*%
%TO.N,Net-(D27-A)*%
X169900000Y-90000000D03*
%TD*%
%TO.P,C2,1,1*%
%TO.N,Net-(U1-VSS)*%
X397760000Y-49000000D03*
%TO.P,C2,2,2*%
%TO.N,GND*%
X402840000Y-49000000D03*
%TD*%
D10*
%TO.P,SW21,1,1*%
%TO.N,/COL0*%
X38831758Y-92509899D03*
%TO.P,SW21,2,2*%
%TO.N,Net-(D21-A)*%
X51758758Y-89969899D03*
%TD*%
%TO.P,SW103,1,1*%
%TO.N,/COL2*%
X303215000Y-168760000D03*
%TO.P,SW103,2,2*%
%TO.N,Net-(D103-A)*%
X316142000Y-166220000D03*
%TD*%
%TO.P,SW58,1,1*%
%TO.N,/COL7*%
X367634465Y-111606026D03*
%TO.P,SW58,2,2*%
%TO.N,Net-(D58-A)*%
X380561465Y-109066026D03*
%TD*%
D11*
%TO.P,D35,1,K*%
%TO.N,/ROW3*%
X346200000Y-97720000D03*
D12*
%TO.P,D35,2,A*%
%TO.N,Net-(D35-A)*%
X346200000Y-90100000D03*
%TD*%
D11*
%TO.P,D6,1,K*%
%TO.N,/ROW0*%
X179400000Y-69310000D03*
D12*
%TO.P,D6,2,A*%
%TO.N,Net-(D6-A)*%
X179400000Y-61690000D03*
%TD*%
D11*
%TO.P,D24,1,K*%
%TO.N,/ROW2*%
X112600000Y-97620000D03*
D12*
%TO.P,D24,2,A*%
%TO.N,Net-(D24-A)*%
X112600000Y-90000000D03*
%TD*%
D10*
%TO.P,SW69,1,1*%
%TO.N,/COL8*%
X167365509Y-130622456D03*
%TO.P,SW69,2,2*%
%TO.N,Net-(D69-A)*%
X180292509Y-128082456D03*
%TD*%
%TO.P,SW5,1,1*%
%TO.N,/COL4*%
X134278733Y-63983628D03*
%TO.P,SW5,2,2*%
%TO.N,Net-(D5-A)*%
X147205733Y-61443628D03*
%TD*%
%TO.P,SW87,1,1*%
%TO.N,/COL6*%
X215034430Y-149710223D03*
%TO.P,SW87,2,2*%
%TO.N,Net-(D87-A)*%
X227961430Y-147170223D03*
%TD*%
%TO.P,SW55,1,1*%
%TO.N,/COL4*%
X300857500Y-111560000D03*
%TO.P,SW55,2,2*%
%TO.N,Net-(D55-A)*%
X313784500Y-109020000D03*
%TD*%
D11*
%TO.P,D45,1,K*%
%TO.N,/ROW4*%
X122300000Y-116620000D03*
D12*
%TO.P,D45,2,A*%
%TO.N,Net-(D45-A)*%
X122300000Y-109000000D03*
%TD*%
D10*
%TO.P,SW23,1,1*%
%TO.N,/COL2*%
X76968967Y-92509899D03*
%TO.P,SW23,2,2*%
%TO.N,Net-(D23-A)*%
X89895967Y-89969899D03*
%TD*%
%TO.P,SW17,1,1*%
%TO.N,/COL6*%
X391474361Y-64006744D03*
%TO.P,SW17,2,2*%
%TO.N,Net-(D17-A)*%
X404401361Y-61466744D03*
%TD*%
%TO.P,SW60,1,1*%
%TO.N,/COL9*%
X410457500Y-111560000D03*
%TO.P,SW60,2,2*%
%TO.N,Net-(D60-A)*%
X423384500Y-109020000D03*
%TD*%
%TO.P,SW41,1,1*%
%TO.N,/COL0*%
X448547642Y-92535064D03*
%TO.P,SW41,2,2*%
%TO.N,Net-(D41-A)*%
X461474642Y-89995064D03*
%TD*%
D11*
%TO.P,D18,1,K*%
%TO.N,/ROW1*%
X427100000Y-69310000D03*
D12*
%TO.P,D18,2,A*%
%TO.N,Net-(D18-A)*%
X427100000Y-61690000D03*
%TD*%
D11*
%TO.P,D61,1,K*%
%TO.N,/ROW6*%
X445500000Y-117510000D03*
D12*
%TO.P,D61,2,A*%
%TO.N,Net-(D61-A)*%
X445500000Y-109890000D03*
%TD*%
D11*
%TO.P,D64,1,K*%
%TO.N,/ROW6*%
X88700000Y-135710000D03*
D12*
%TO.P,D64,2,A*%
%TO.N,Net-(D64-A)*%
X88700000Y-128090000D03*
%TD*%
D10*
%TO.P,SW43,1,1*%
%TO.N,/COL2*%
X67415000Y-111560000D03*
%TO.P,SW43,2,2*%
%TO.N,Net-(D43-A)*%
X80342000Y-109020000D03*
%TD*%
D11*
%TO.P,D81,1,K*%
%TO.N,/ROW8*%
X117300000Y-154810000D03*
D12*
%TO.P,D81,2,A*%
%TO.N,Net-(D81-A)*%
X117300000Y-147190000D03*
%TD*%
D10*
%TO.P,SW53,1,1*%
%TO.N,/COL2*%
X257857500Y-111560000D03*
%TO.P,SW53,2,2*%
%TO.N,Net-(D53-A)*%
X270784500Y-109020000D03*
%TD*%
%TO.P,SW33,1,1*%
%TO.N,/COL2*%
X267617197Y-92530082D03*
%TO.P,SW33,2,2*%
%TO.N,Net-(D33-A)*%
X280544197Y-89990082D03*
%TD*%
D11*
%TO.P,D68,1,K*%
%TO.N,/ROW6*%
X164900000Y-135710000D03*
D12*
%TO.P,D68,2,A*%
%TO.N,Net-(D68-A)*%
X164900000Y-128090000D03*
%TD*%
D10*
%TO.P,SW88,1,1*%
%TO.N,/COL7*%
X234125000Y-149700000D03*
%TO.P,SW88,2,2*%
%TO.N,Net-(D88-A)*%
X247052000Y-147160000D03*
%TD*%
D11*
%TO.P,D63,1,K*%
%TO.N,/ROW6*%
X62500000Y-135710000D03*
D12*
%TO.P,D63,2,A*%
%TO.N,Net-(D63-A)*%
X62500000Y-128090000D03*
%TD*%
D10*
%TO.P,SW26,1,1*%
%TO.N,/COL5*%
X134165045Y-92509899D03*
%TO.P,SW26,2,2*%
%TO.N,Net-(D26-A)*%
X147092045Y-89969899D03*
%TD*%
D11*
%TO.P,D47,1,K*%
%TO.N,/ROW4*%
X160300000Y-116610000D03*
D12*
%TO.P,D47,2,A*%
%TO.N,Net-(D47-A)*%
X160300000Y-108990000D03*
%TD*%
D10*
%TO.P,SW40,1,1*%
%TO.N,/COL9*%
X429505280Y-92535861D03*
%TO.P,SW40,2,2*%
%TO.N,Net-(D40-A)*%
X442432280Y-89995861D03*
%TD*%
%TO.P,SW82,1,1*%
%TO.N,/COL1*%
X119741598Y-149719363D03*
%TO.P,SW82,2,2*%
%TO.N,Net-(D82-A)*%
X132668598Y-147179363D03*
%TD*%
%TO.P,SW51,1,1*%
%TO.N,/COL0*%
X219757500Y-111560000D03*
%TO.P,SW51,2,2*%
%TO.N,Net-(D51-A)*%
X232684500Y-109020000D03*
%TD*%
D11*
%TO.P,D89,1,K*%
%TO.N,/ROW8*%
X269900000Y-154810000D03*
D12*
%TO.P,D89,2,A*%
%TO.N,Net-(D89-A)*%
X269900000Y-147190000D03*
%TD*%
D11*
%TO.P,D21,1,K*%
%TO.N,/ROW2*%
X55500000Y-97720000D03*
D12*
%TO.P,D21,2,A*%
%TO.N,Net-(D21-A)*%
X55500000Y-90100000D03*
%TD*%
D10*
%TO.P,SW45,1,1*%
%TO.N,/COL4*%
X105557500Y-111560000D03*
%TO.P,SW45,2,2*%
%TO.N,Net-(D45-A)*%
X118484500Y-109020000D03*
%TD*%
D11*
%TO.P,D53,1,K*%
%TO.N,/ROW5*%
X274500000Y-116700000D03*
D12*
%TO.P,D53,2,A*%
%TO.N,Net-(D53-A)*%
X274500000Y-109080000D03*
%TD*%
D10*
%TO.P,SW46,1,1*%
%TO.N,/COL5*%
X124557500Y-111560000D03*
%TO.P,SW46,2,2*%
%TO.N,Net-(D46-A)*%
X137484500Y-109020000D03*
%TD*%
%TO.P,SW67,1,1*%
%TO.N,/COL6*%
X129215000Y-130660000D03*
%TO.P,SW67,2,2*%
%TO.N,Net-(D67-A)*%
X142142000Y-128120000D03*
%TD*%
%TO.P,SW99,1,1*%
%TO.N,/COL8*%
X160257500Y-168860000D03*
%TO.P,SW99,2,2*%
%TO.N,Net-(D99-A)*%
X173184500Y-166320000D03*
%TD*%
D11*
%TO.P,D78,1,K*%
%TO.N,/ROW7*%
X445900000Y-135800000D03*
D12*
%TO.P,D78,2,A*%
%TO.N,Net-(D78-A)*%
X445900000Y-128180000D03*
%TD*%
D11*
%TO.P,D59,1,K*%
%TO.N,/ROW5*%
X408100000Y-116710000D03*
D12*
%TO.P,D59,2,A*%
%TO.N,Net-(D59-A)*%
X408100000Y-109090000D03*
%TD*%
D10*
%TO.P,SW32,1,1*%
%TO.N,/COL1*%
X248562055Y-92519152D03*
%TO.P,SW32,2,2*%
%TO.N,Net-(D32-A)*%
X261489055Y-89979152D03*
%TD*%
D11*
%TO.P,D49,1,K*%
%TO.N,/ROW4*%
X198200000Y-116610000D03*
D12*
%TO.P,D49,2,A*%
%TO.N,Net-(D49-A)*%
X198200000Y-108990000D03*
%TD*%
D11*
%TO.P,D76,1,K*%
%TO.N,/ROW7*%
X408000000Y-135720000D03*
D12*
%TO.P,D76,2,A*%
%TO.N,Net-(D76-A)*%
X408000000Y-128100000D03*
%TD*%
D11*
%TO.P,D57,1,K*%
%TO.N,/ROW5*%
X365200000Y-116710000D03*
D12*
%TO.P,D57,2,A*%
%TO.N,Net-(D57-A)*%
X365200000Y-109090000D03*
%TD*%
D10*
%TO.P,SW13,1,1*%
%TO.N,/COL2*%
X305773874Y-64021771D03*
%TO.P,SW13,2,2*%
%TO.N,Net-(D13-A)*%
X318700874Y-61481771D03*
%TD*%
D11*
%TO.P,D10,1,K*%
%TO.N,/ROW0*%
X265100000Y-69310000D03*
D12*
%TO.P,D10,2,A*%
%TO.N,Net-(D10-A)*%
X265100000Y-61690000D03*
%TD*%
D10*
%TO.P,SW15,1,1*%
%TO.N,/COL4*%
X348628592Y-64015156D03*
%TO.P,SW15,2,2*%
%TO.N,Net-(D15-A)*%
X361555592Y-61475156D03*
%TD*%
%TO.P,SW61,1,1*%
%TO.N,/COL0*%
X429501395Y-111579686D03*
%TO.P,SW61,2,2*%
%TO.N,Net-(D61-A)*%
X442428395Y-109039686D03*
%TD*%
%TO.P,SW84,1,1*%
%TO.N,/COL3*%
X157835000Y-149760000D03*
%TO.P,SW84,2,2*%
%TO.N,Net-(D84-A)*%
X170762000Y-147220000D03*
%TD*%
%TO.P,SW91,1,1*%
%TO.N,/COL0*%
X348335000Y-149707386D03*
%TO.P,SW91,2,2*%
%TO.N,Net-(D91-A)*%
X361262000Y-147167386D03*
%TD*%
%TO.P,SW81,1,1*%
%TO.N,/COL0*%
X100686487Y-149730105D03*
%TO.P,SW81,2,2*%
%TO.N,Net-(D81-A)*%
X113613487Y-147190105D03*
%TD*%
D11*
%TO.P,D80,1,K*%
%TO.N,/ROW7*%
X98300000Y-154810000D03*
D12*
%TO.P,D80,2,A*%
%TO.N,Net-(D80-A)*%
X98300000Y-147190000D03*
%TD*%
D11*
%TO.P,D60,1,K*%
%TO.N,/ROW5*%
X427100000Y-116610000D03*
D12*
%TO.P,D60,2,A*%
%TO.N,Net-(D60-A)*%
X427100000Y-108990000D03*
%TD*%
D10*
%TO.P,SW16,1,1*%
%TO.N,/COL5*%
X367684413Y-64015156D03*
%TO.P,SW16,2,2*%
%TO.N,Net-(D16-A)*%
X380611413Y-61475156D03*
%TD*%
%TO.P,SW68,1,1*%
%TO.N,/COL7*%
X148275913Y-130596827D03*
%TO.P,SW68,2,2*%
%TO.N,Net-(D68-A)*%
X161202913Y-128056827D03*
%TD*%
%TO.P,SW94,1,1*%
%TO.N,/COL3*%
X429485198Y-149710905D03*
%TO.P,SW94,2,2*%
%TO.N,Net-(D94-A)*%
X442412198Y-147170905D03*
%TD*%
%TO.P,SW4,1,1*%
%TO.N,/COL3*%
X115227082Y-63975570D03*
%TO.P,SW4,2,2*%
%TO.N,Net-(D4-A)*%
X128154082Y-61435570D03*
%TD*%
%TO.P,SW24,1,1*%
%TO.N,/COL3*%
X96031730Y-92509899D03*
%TO.P,SW24,2,2*%
%TO.N,Net-(D24-A)*%
X108958730Y-89969899D03*
%TD*%
%TO.P,SW65,1,1*%
%TO.N,/COL4*%
X91115000Y-130660000D03*
%TO.P,SW65,2,2*%
%TO.N,Net-(D65-A)*%
X104042000Y-128120000D03*
%TD*%
D11*
%TO.P,D94,1,K*%
%TO.N,/ROW9*%
X445400000Y-155410000D03*
D12*
%TO.P,D94,2,A*%
%TO.N,Net-(D94-A)*%
X445400000Y-147790000D03*
%TD*%
D11*
%TO.P,D52,1,K*%
%TO.N,/ROW5*%
X255400000Y-116610000D03*
D12*
%TO.P,D52,2,A*%
%TO.N,Net-(D52-A)*%
X255400000Y-108990000D03*
%TD*%
D20*
%TO.N,/ROW9*%
X309000000Y-156400000D03*
X435500000Y-57500000D03*
X429500000Y-109500000D03*
X429500000Y-90500000D03*
X282400000Y-162900000D03*
X279957500Y-161000000D03*
X428500000Y-134500000D03*
X429500000Y-97000000D03*
X252500000Y-162000000D03*
X299500000Y-163000000D03*
%TO.N,/ROW10*%
X446700000Y-124800000D03*
X445500000Y-72000000D03*
X443500000Y-163000000D03*
X450500000Y-127000000D03*
X448000000Y-163000000D03*
X447500000Y-101500000D03*
%TO.N,GND*%
X363500000Y-54000000D03*
X346500000Y-52000000D03*
X366500000Y-83100000D03*
X352000000Y-83500000D03*
X354000000Y-83500000D03*
X362500000Y-48500000D03*
X366500000Y-96000000D03*
X398500000Y-54000000D03*
%TO.N,/ROW2*%
X229100000Y-86000000D03*
X415500000Y-35699000D03*
X415500000Y-48500000D03*
X398000000Y-50500000D03*
X376000000Y-81500000D03*
X243000000Y-81500000D03*
X386500000Y-54400000D03*
%TO.N,/ROW8*%
X429500000Y-80000000D03*
X325000000Y-145000000D03*
X326500000Y-83100000D03*
X326500000Y-80000000D03*
X326500000Y-97000000D03*
X434500000Y-57500000D03*
X434500000Y-54500000D03*
%TO.N,/COL2*%
X137000000Y-143500000D03*
X45000000Y-123500000D03*
X51000000Y-142500000D03*
X304400000Y-162200000D03*
X409500000Y-159500000D03*
X301500000Y-32500000D03*
X245000000Y-143500000D03*
X281800000Y-145600000D03*
X306500000Y-29500000D03*
X454500000Y-29000000D03*
X57500000Y-123000000D03*
X96500000Y-35000000D03*
%TO.N,/ROW7*%
X140500000Y-156000000D03*
X427000000Y-122400000D03*
X428500000Y-76000000D03*
X427500000Y-74500000D03*
X142500000Y-156000000D03*
X428500000Y-97000000D03*
X427346306Y-93846306D03*
X230031955Y-155968045D03*
X427500000Y-58400000D03*
X427500000Y-118500000D03*
%TO.N,/COL8*%
X308500000Y-40500000D03*
X430500000Y-59000000D03*
X433500000Y-57500000D03*
X220500000Y-40500000D03*
X144000000Y-169000000D03*
X252000000Y-182500000D03*
X51000000Y-160500000D03*
X327500000Y-59500000D03*
X160000000Y-182000000D03*
%TO.N,/COL0*%
X450000000Y-82000000D03*
X100000000Y-144600000D03*
X254000000Y-164500000D03*
X458000000Y-54500000D03*
X273500000Y-157000000D03*
X42500000Y-144500000D03*
X262000000Y-31500000D03*
X269000000Y-31500000D03*
X467000000Y-54500000D03*
X332500000Y-156500000D03*
X468000000Y-82000000D03*
X214400000Y-159100000D03*
%TO.N,+3.3V*%
X406750000Y-51750000D03*
X439250000Y-55800000D03*
X418500000Y-53500000D03*
X445000000Y-56000000D03*
X406000000Y-49750000D03*
X386000000Y-116000000D03*
X387000000Y-123600000D03*
X432000000Y-54400000D03*
X457000000Y-56000000D03*
X447976169Y-56000000D03*
X388500000Y-104500000D03*
X432000000Y-55750000D03*
X467500000Y-103000000D03*
X407500000Y-53500000D03*
X465500000Y-56000000D03*
X387500000Y-115000000D03*
%TO.N,/ROW3*%
X413000000Y-51790000D03*
X408000000Y-94000000D03*
X407640305Y-77140305D03*
X407500000Y-75000000D03*
X414500000Y-35000000D03*
%TO.N,/COL1*%
X392500000Y-144500000D03*
X286677838Y-32322162D03*
X276500000Y-166500000D03*
X227000000Y-143500000D03*
X78500000Y-33500000D03*
X383500000Y-158000000D03*
X457000000Y-28000000D03*
X327500000Y-28000000D03*
X270500000Y-144500000D03*
X448000000Y-143500000D03*
%TO.N,/ROW1*%
X428500000Y-60000000D03*
X428500000Y-58100000D03*
%TO.N,/COL9*%
X82400000Y-162100000D03*
X275000000Y-180000000D03*
X222000000Y-144500000D03*
X135500000Y-162500000D03*
X383500000Y-126000000D03*
X410500000Y-118500000D03*
X190000000Y-143500000D03*
X157000000Y-162500000D03*
X290000000Y-144000000D03*
X231000000Y-180000000D03*
X275500000Y-153500000D03*
X388000000Y-121000000D03*
X288000000Y-153000000D03*
X213500000Y-168500000D03*
X347500000Y-126000000D03*
X340000000Y-141500000D03*
%TO.N,/ROW0*%
X427000000Y-30900000D03*
X267500000Y-30500000D03*
%TO.N,/COL3*%
X157000000Y-140500000D03*
X324500000Y-32500000D03*
X116000000Y-35500000D03*
X72000000Y-137500000D03*
X428600000Y-162300000D03*
X264000000Y-141000000D03*
X330150000Y-163350000D03*
X348000000Y-162500000D03*
X350000000Y-163500000D03*
X329554249Y-29900000D03*
X302500000Y-141500000D03*
%TO.N,/COL6*%
X182000000Y-38500000D03*
X65500000Y-179000000D03*
X107500000Y-140500000D03*
X128500000Y-139500000D03*
X205700000Y-174800000D03*
X311000000Y-38500000D03*
X75000000Y-145500000D03*
X428000000Y-49000000D03*
X409000000Y-124000000D03*
X394000000Y-57000000D03*
X442500000Y-43500000D03*
X328000000Y-56500000D03*
X104500000Y-143400000D03*
X389500000Y-124000000D03*
X442000000Y-46500000D03*
%TO.N,/COL7*%
X328000000Y-58500000D03*
X410483740Y-59016260D03*
X385500000Y-105500000D03*
X440500000Y-55500000D03*
X310000000Y-39500000D03*
X368500000Y-106000000D03*
X429000000Y-123500000D03*
X137000000Y-164000000D03*
X148275913Y-135110000D03*
X367500000Y-123000000D03*
X141500000Y-163500000D03*
X430000000Y-144500000D03*
X201000000Y-39500000D03*
X141500000Y-155500000D03*
X430500000Y-154000000D03*
X234000000Y-147500000D03*
X149500000Y-137000000D03*
X89000000Y-164000000D03*
%TO.N,/ROW4*%
X387500000Y-99500000D03*
X228500000Y-85000000D03*
X355000000Y-82500000D03*
X400500000Y-53500000D03*
X382500000Y-82500000D03*
X377000000Y-82000000D03*
%TO.N,/COL5*%
X424000000Y-56400000D03*
X329500000Y-124500000D03*
X313500000Y-37500000D03*
X380500000Y-125000000D03*
X96500000Y-161100000D03*
X110000000Y-143100000D03*
X43000000Y-161500000D03*
X163000000Y-37500000D03*
X328000000Y-54000000D03*
X191500000Y-184000000D03*
X443000000Y-56000000D03*
X107500000Y-146000000D03*
X41900000Y-183100000D03*
X368000000Y-55000000D03*
%TO.N,/ROW5*%
X410500000Y-57600000D03*
X411083740Y-68500000D03*
X412000000Y-58500000D03*
X411000000Y-90000000D03*
X411083740Y-62000000D03*
X412000000Y-54400000D03*
X410000000Y-97000000D03*
%TO.N,/ROW6*%
X426500000Y-75500000D03*
X421500000Y-57400000D03*
X425500000Y-68500000D03*
X219500000Y-135000000D03*
X225500000Y-123500000D03*
X444500000Y-97000000D03*
X444500000Y-87000000D03*
X441000000Y-105100000D03*
X426000000Y-60500000D03*
X409000000Y-119000000D03*
%TO.N,SDA*%
X405000000Y-63500000D03*
X383600000Y-129000000D03*
X462000000Y-31000000D03*
X408500000Y-51500000D03*
X409000000Y-60600000D03*
X384300000Y-127400000D03*
X401000000Y-70000000D03*
X449000000Y-30900000D03*
X387500000Y-101000000D03*
X395000000Y-79000000D03*
X385000000Y-115000000D03*
%TO.N,SCL*%
X457732500Y-32718528D03*
X430000000Y-32100000D03*
X412500000Y-32100000D03*
X406500000Y-63000000D03*
X386500000Y-81500000D03*
X386500000Y-99000000D03*
X404500000Y-51100000D03*
X428500000Y-32100000D03*
X386500000Y-87500000D03*
X383500000Y-113500000D03*
X462900000Y-32500000D03*
X451452500Y-32100000D03*
X406500000Y-60600000D03*
%TO.N,+5V*%
X463500000Y-31000000D03*
X450000000Y-30000000D03*
%TO.N,/COL4*%
X349000000Y-163000000D03*
X430500000Y-58000000D03*
X134500000Y-36500000D03*
X176500000Y-141500000D03*
X421500000Y-56100000D03*
X92500000Y-141500000D03*
X445000000Y-161500000D03*
X332500000Y-55000000D03*
X349000000Y-56500000D03*
%TO.N,/RotEncoder1B2*%
X372500000Y-36500000D03*
X373000000Y-49000000D03*
%TO.N,/RotEncoder1B1*%
X374000000Y-35500000D03*
%TO.N,/RotEncoder2B1*%
X378500000Y-53000000D03*
X339000000Y-36000000D03*
X338000000Y-53000000D03*
%TO.N,/RotEncoder2B2*%
X355000000Y-52000000D03*
X355000000Y-38500000D03*
%TO.N,/RotEncoder2A*%
X336000000Y-50500000D03*
X336000000Y-33500000D03*
%TO.N,/RotEncoder2B*%
X354000000Y-50000000D03*
X354500000Y-34500000D03*
%TD*%
D21*
%TO.N,/ROW9*%
X252500000Y-162000000D02*
X252500000Y-169920000D01*
X252500000Y-169920000D02*
X248600000Y-173820000D01*
X428500000Y-147884943D02*
X427100000Y-149284943D01*
X429500000Y-97000000D02*
X429500000Y-109500000D01*
X440354137Y-71354137D02*
X440500000Y-71500000D01*
X440354137Y-65318770D02*
X440354137Y-71354137D01*
X306100000Y-156400000D02*
X299500000Y-163000000D01*
X429500000Y-82500000D02*
X429500000Y-90500000D01*
X309000000Y-156400000D02*
X306100000Y-156400000D01*
X428500000Y-134500000D02*
X428500000Y-147884943D01*
X280500000Y-161000000D02*
X279957500Y-161000000D01*
X435500000Y-57500000D02*
X435500000Y-60464633D01*
X440500000Y-71500000D02*
X429500000Y-82500000D01*
X282400000Y-162900000D02*
X280500000Y-161000000D01*
X435500000Y-60464633D02*
X440354137Y-65318770D01*
X427100000Y-149284943D02*
X427100000Y-154810000D01*
%TO.N,/ROW10*%
X447344000Y-151656000D02*
X444691000Y-154309000D01*
X446700000Y-124800000D02*
X446700000Y-102300000D01*
X446100000Y-173300000D02*
X448000000Y-171400000D01*
X451600000Y-128100000D02*
X451600000Y-149393065D01*
X444999000Y-71499000D02*
X444999000Y-64348050D01*
X448000000Y-171400000D02*
X448000000Y-163000000D01*
X444999000Y-64348050D02*
X447201000Y-62146050D01*
X445500000Y-72000000D02*
X444999000Y-71499000D01*
X449337065Y-151656000D02*
X447344000Y-151656000D01*
X451600000Y-149393065D02*
X449337065Y-151656000D01*
X444614840Y-154309000D02*
X444299000Y-154624840D01*
X440129943Y-52280000D02*
X439377500Y-52280000D01*
X444299000Y-154624840D02*
X444299000Y-154701000D01*
X446700000Y-102300000D02*
X447500000Y-101500000D01*
X450500000Y-127000000D02*
X451600000Y-128100000D01*
X443500000Y-155500000D02*
X443500000Y-163000000D01*
X447201000Y-59351057D02*
X440129943Y-52280000D01*
X447201000Y-62146050D02*
X447201000Y-59351057D01*
X444299000Y-154701000D02*
X443500000Y-155500000D01*
X444691000Y-154309000D02*
X444614840Y-154309000D01*
X446100000Y-173810000D02*
X446100000Y-173300000D01*
%TO.N,GND*%
X366000000Y-112782721D02*
X366000000Y-109847050D01*
X365500000Y-63000000D02*
X366301000Y-62199000D01*
X412061000Y-36299000D02*
X421402000Y-36299000D01*
X378849943Y-53500000D02*
X398000000Y-53500000D01*
X398000000Y-53500000D02*
X398500000Y-54000000D01*
X366301000Y-113083721D02*
X366000000Y-112782721D01*
X366000000Y-109847050D02*
X366500000Y-109347050D01*
X354400000Y-83100000D02*
X354000000Y-83500000D01*
X346500000Y-52000000D02*
X354000000Y-52000000D01*
X421701000Y-36000000D02*
X422000000Y-36000000D01*
X378748943Y-53601000D02*
X378849943Y-53500000D01*
X423390000Y-34610000D02*
X424112500Y-34610000D01*
X422000000Y-36000000D02*
X423390000Y-34610000D01*
X363500000Y-54000000D02*
X364000000Y-53500000D01*
X366500000Y-109347050D02*
X366500000Y-96000000D01*
X354000000Y-52000000D02*
X357500000Y-48500000D01*
X362019592Y-66980408D02*
X365500000Y-63500000D01*
X366301000Y-62199000D02*
X366301000Y-56801000D01*
X366500000Y-83100000D02*
X354400000Y-83100000D01*
X352000000Y-83500000D02*
X362019592Y-73480408D01*
X366301000Y-125181000D02*
X366301000Y-113083721D01*
X357500000Y-48500000D02*
X362500000Y-48500000D01*
X366301000Y-56801000D02*
X363500000Y-54000000D01*
X378251057Y-53601000D02*
X378748943Y-53601000D01*
X362019592Y-73480408D02*
X362019592Y-66980408D01*
X409160000Y-39200000D02*
X412061000Y-36299000D01*
X421402000Y-36299000D02*
X421701000Y-36000000D01*
X378150057Y-53500000D02*
X378251057Y-53601000D01*
X364000000Y-53500000D02*
X378150057Y-53500000D01*
X365500000Y-63500000D02*
X365500000Y-63000000D01*
X370100000Y-128980000D02*
X366301000Y-125181000D01*
%TO.N,/ROW2*%
X386000000Y-54900000D02*
X386500000Y-54400000D01*
X415500000Y-35699000D02*
X415512000Y-35711000D01*
X376000000Y-80000000D02*
X386000000Y-70000000D01*
X376000000Y-81500000D02*
X376000000Y-80000000D01*
X415512000Y-35711000D02*
X420471500Y-35711000D01*
X413500000Y-50500000D02*
X415500000Y-48500000D01*
X229100000Y-86000000D02*
X233600000Y-81500000D01*
X420471500Y-35711000D02*
X421572500Y-34610000D01*
X398000000Y-50500000D02*
X413500000Y-50500000D01*
X386000000Y-70000000D02*
X386000000Y-54900000D01*
X233600000Y-81500000D02*
X243000000Y-81500000D01*
%TO.N,/ROW8*%
X433977500Y-54500000D02*
X431757500Y-52280000D01*
X434500000Y-54500000D02*
X433977500Y-54500000D01*
X326500000Y-83100000D02*
X326500000Y-80000000D01*
X434500000Y-61000000D02*
X434500000Y-57500000D01*
X439500000Y-66000000D02*
X434500000Y-61000000D01*
X439500000Y-70000000D02*
X439500000Y-66000000D01*
X325000000Y-98500000D02*
X326500000Y-97000000D01*
X325000000Y-145000000D02*
X325000000Y-98500000D01*
X429500000Y-80000000D02*
X439500000Y-70000000D01*
%TO.N,/COL2*%
X76968967Y-92509899D02*
X76968967Y-102006033D01*
X96171082Y-63984027D02*
X96171082Y-35328918D01*
X410455519Y-149707722D02*
X410455519Y-158544481D01*
X243657500Y-142157500D02*
X245000000Y-143500000D01*
X272033197Y-88114082D02*
X267617197Y-92530082D01*
X454592500Y-29092500D02*
X454592500Y-34610000D01*
X302099000Y-67696645D02*
X302099000Y-70401000D01*
X300760000Y-168760000D02*
X303215000Y-168760000D01*
X303215000Y-163385000D02*
X303215000Y-168760000D01*
X257857500Y-111560000D02*
X257857500Y-116460000D01*
X45000000Y-124500000D02*
X45915000Y-125415000D01*
X304500000Y-29500000D02*
X306500000Y-29500000D01*
X67415000Y-113085000D02*
X57500000Y-123000000D01*
X305773874Y-64021771D02*
X302099000Y-67696645D01*
X282400000Y-150400000D02*
X300760000Y-168760000D01*
X257857500Y-116460000D02*
X243657500Y-130660000D01*
X410455519Y-158544481D02*
X409500000Y-159500000D01*
X67415000Y-111560000D02*
X67415000Y-113085000D01*
X76968967Y-102006033D02*
X67415000Y-111560000D01*
X243657500Y-130660000D02*
X243657500Y-142157500D01*
X305773874Y-30226126D02*
X306500000Y-29500000D01*
X267617197Y-101800303D02*
X257857500Y-111560000D01*
X45000000Y-123500000D02*
X45000000Y-124500000D01*
X138806076Y-145306076D02*
X138806076Y-149728228D01*
X302099000Y-70401000D02*
X284385918Y-88114082D01*
X267617197Y-92530082D02*
X267617197Y-101800303D01*
X284385918Y-88114082D02*
X272033197Y-88114082D01*
X282400000Y-146200000D02*
X282400000Y-150400000D01*
X137000000Y-143500000D02*
X138806076Y-145306076D01*
X454500000Y-29000000D02*
X454592500Y-29092500D01*
X45915000Y-137415000D02*
X51000000Y-142500000D01*
X305773874Y-64021771D02*
X305773874Y-30226126D01*
X45915000Y-130660000D02*
X45915000Y-137415000D01*
X281800000Y-145600000D02*
X282400000Y-146200000D01*
X45915000Y-125415000D02*
X45915000Y-130660000D01*
X96171082Y-73929719D02*
X77590902Y-92509899D01*
X96171082Y-63984027D02*
X96171082Y-73929719D01*
X96171082Y-35328918D02*
X96500000Y-35000000D01*
X301500000Y-32500000D02*
X304500000Y-29500000D01*
X77590902Y-92509899D02*
X76968967Y-92509899D01*
X304400000Y-162200000D02*
X303215000Y-163385000D01*
%TO.N,/ROW7*%
X140500000Y-156000000D02*
X140601000Y-156101000D01*
X428201000Y-68524840D02*
X428201000Y-73799000D01*
X428201000Y-117799000D02*
X427500000Y-118500000D01*
X428201000Y-73799000D02*
X427500000Y-74500000D01*
X427952202Y-62547798D02*
X427952202Y-68276042D01*
X427100000Y-129900000D02*
X427100000Y-135810000D01*
X428500000Y-76000000D02*
X428500000Y-90257050D01*
X427500000Y-58400000D02*
X427500000Y-60532950D01*
X428500000Y-109769921D02*
X427925395Y-110344526D01*
X427346306Y-91410744D02*
X427346306Y-93846306D01*
X428201000Y-61233950D02*
X428201000Y-62299000D01*
X428201000Y-128799000D02*
X427100000Y-129900000D01*
X140601000Y-156101000D02*
X142399000Y-156101000D01*
X428500000Y-97000000D02*
X428500000Y-109769921D01*
X428500000Y-90257050D02*
X427346306Y-91410744D01*
X427952202Y-68276042D02*
X428201000Y-68524840D01*
X230031955Y-155968045D02*
X230031955Y-150415095D01*
X427000000Y-122400000D02*
X428201000Y-123601000D01*
X427500000Y-60532950D02*
X428201000Y-61233950D01*
X428201000Y-115824840D02*
X428201000Y-117799000D01*
X427925395Y-110344526D02*
X427925395Y-115549235D01*
X230031955Y-150415095D02*
X241200000Y-139247050D01*
X241200000Y-139247050D02*
X241200000Y-135710000D01*
X428201000Y-62299000D02*
X427952202Y-62547798D01*
X142399000Y-156101000D02*
X142500000Y-156000000D01*
X427925395Y-115549235D02*
X428201000Y-115824840D01*
X428201000Y-123601000D02*
X428201000Y-128799000D01*
%TO.N,/COL8*%
X181657500Y-111560000D02*
X181657500Y-116330465D01*
X160257500Y-168860000D02*
X160257500Y-181742500D01*
X181657500Y-116330465D02*
X167365509Y-130622456D01*
X392004914Y-111600000D02*
X391425000Y-111600000D01*
X163500000Y-150395184D02*
X160257500Y-153637684D01*
X432000000Y-57500000D02*
X433500000Y-57500000D01*
X410464689Y-93140225D02*
X392004914Y-111600000D01*
X220033013Y-64025221D02*
X220033013Y-40966987D01*
X50686964Y-160186964D02*
X51000000Y-160500000D01*
X195767464Y-88100112D02*
X191351464Y-92516112D01*
X191351464Y-101866036D02*
X181657500Y-111560000D01*
X144000000Y-169000000D02*
X144140000Y-168860000D01*
X308500000Y-40500000D02*
X327500000Y-59500000D01*
X50686964Y-149738970D02*
X50686964Y-160186964D01*
X220033013Y-40966987D02*
X220500000Y-40500000D01*
X429528202Y-64004770D02*
X429528202Y-73470350D01*
X201399888Y-88100112D02*
X195767464Y-88100112D01*
X163500000Y-134487965D02*
X163500000Y-150395184D01*
X253188588Y-181311412D02*
X253188588Y-149739275D01*
X160257500Y-181742500D02*
X160000000Y-182000000D01*
X191351464Y-92516112D02*
X191351464Y-101866036D01*
X429528202Y-61471798D02*
X433500000Y-57500000D01*
X429528202Y-64004770D02*
X429528202Y-61471798D01*
X220033013Y-69466987D02*
X201399888Y-88100112D01*
X167365509Y-130622456D02*
X163500000Y-134487965D01*
X160257500Y-153637684D02*
X160257500Y-168860000D01*
X430500000Y-59000000D02*
X432000000Y-57500000D01*
X252000000Y-182500000D02*
X253188588Y-181311412D01*
X220033013Y-64025221D02*
X220033013Y-69466987D01*
X410464689Y-92533863D02*
X410464689Y-93140225D01*
X429528202Y-73470350D02*
X410464689Y-92533863D01*
X144140000Y-168860000D02*
X160257500Y-168860000D01*
%TO.N,/COL0*%
X219757500Y-111560000D02*
X219757500Y-116388091D01*
X213701000Y-141030837D02*
X205542290Y-132872127D01*
X38835000Y-63960000D02*
X71295000Y-31500000D01*
X248396848Y-88103152D02*
X233900228Y-88103152D01*
X448547642Y-83452358D02*
X450000000Y-82000000D01*
X229484228Y-101833272D02*
X219757500Y-111560000D01*
X468000000Y-82000000D02*
X468000000Y-55500000D01*
X448547642Y-92535064D02*
X448547642Y-98519504D01*
X205542290Y-132872127D02*
X205542290Y-130603301D01*
X38831758Y-140831758D02*
X42500000Y-144500000D01*
X219757500Y-116388091D02*
X205542290Y-130603301D01*
X233900228Y-88103152D02*
X229484228Y-92519152D01*
X71295000Y-31500000D02*
X262000000Y-31500000D01*
X439903460Y-107163686D02*
X433917395Y-107163686D01*
X38831758Y-92509899D02*
X38831758Y-140831758D01*
X448547642Y-98519504D02*
X439903460Y-107163686D01*
X38835000Y-63960000D02*
X38835000Y-92506657D01*
X273500000Y-157000000D02*
X267295000Y-157000000D01*
X214400000Y-159100000D02*
X215500000Y-158000000D01*
X267295000Y-157000000D02*
X255535000Y-168760000D01*
X213458430Y-150945383D02*
X213458430Y-148041570D01*
X267635794Y-32864206D02*
X269000000Y-31500000D01*
X458258500Y-35939000D02*
X459697500Y-34500000D01*
X448547642Y-92535064D02*
X448547642Y-83452358D01*
X433917395Y-107163686D02*
X429501395Y-111579686D01*
X213458430Y-148041570D02*
X213701000Y-147799000D01*
X458000000Y-54500000D02*
X458258500Y-54241500D01*
X339292614Y-149707386D02*
X332500000Y-156500000D01*
X215500000Y-152986953D02*
X213458430Y-150945383D01*
X229484228Y-92519152D02*
X229484228Y-101833272D01*
X468000000Y-55500000D02*
X467000000Y-54500000D01*
X267635794Y-64020145D02*
X267635794Y-32864206D01*
X100686487Y-145286487D02*
X100686487Y-149730105D01*
X267635794Y-64020145D02*
X267635794Y-68864206D01*
X267635794Y-68864206D02*
X248396848Y-88103152D01*
X215500000Y-158000000D02*
X215500000Y-152986953D01*
X100000000Y-144600000D02*
X100686487Y-145286487D01*
X38835000Y-92506657D02*
X38831758Y-92509899D01*
X255535000Y-168760000D02*
X254000000Y-167225000D01*
X458258500Y-54241500D02*
X458258500Y-35939000D01*
X213701000Y-147799000D02*
X213701000Y-141030837D01*
X348335000Y-149707386D02*
X339292614Y-149707386D01*
X254000000Y-167225000D02*
X254000000Y-164500000D01*
%TO.N,+3.3V*%
X388500000Y-114000000D02*
X388500000Y-104500000D01*
X457000000Y-55000000D02*
X457157500Y-54842500D01*
X432000000Y-55750000D02*
X439200000Y-55750000D01*
X406750000Y-52750000D02*
X407500000Y-53500000D01*
X387000000Y-123600000D02*
X387000000Y-117000000D01*
X387500000Y-115000000D02*
X388500000Y-114000000D01*
X431100000Y-53500000D02*
X432000000Y-54400000D01*
X401600000Y-34005000D02*
X405250000Y-37655000D01*
X405250000Y-49000000D02*
X406000000Y-49750000D01*
X467000000Y-57500000D02*
X465500000Y-56000000D01*
X445000000Y-56000000D02*
X447976169Y-56000000D01*
X457000000Y-56000000D02*
X457000000Y-55000000D01*
X387000000Y-117000000D02*
X386000000Y-116000000D01*
X418500000Y-53500000D02*
X431100000Y-53500000D01*
X467500000Y-103000000D02*
X467000000Y-102500000D01*
X406750000Y-51750000D02*
X406750000Y-52750000D01*
X467000000Y-102500000D02*
X467000000Y-57500000D01*
X439200000Y-55750000D02*
X439250000Y-55800000D01*
X405250000Y-37655000D02*
X405250000Y-49000000D01*
X457157500Y-54842500D02*
X457157500Y-52280000D01*
%TO.N,/ROW3*%
X409882740Y-54907260D02*
X409882740Y-61364310D01*
X409201000Y-90799000D02*
X408000000Y-92000000D01*
X409101000Y-73399000D02*
X407500000Y-75000000D01*
X409101000Y-68524840D02*
X409101000Y-73399000D01*
X409882740Y-61364310D02*
X408785160Y-62461890D01*
X408785160Y-68209000D02*
X409101000Y-68524840D01*
X407640305Y-77140305D02*
X409201000Y-78701000D01*
X408000000Y-92000000D02*
X408000000Y-94000000D01*
X409201000Y-78701000D02*
X409201000Y-90799000D01*
X413000000Y-51790000D02*
X409882740Y-54907260D01*
X419032500Y-34610000D02*
X414890000Y-34610000D01*
X414890000Y-34610000D02*
X414500000Y-35000000D01*
X408785160Y-62461890D02*
X408785160Y-68209000D01*
%TO.N,/COL1*%
X391401959Y-150098041D02*
X383500000Y-158000000D01*
X224615000Y-141115000D02*
X224615000Y-130660000D01*
X286677838Y-32322162D02*
X291000000Y-28000000D01*
X391401959Y-145598041D02*
X391401959Y-149683978D01*
X68000000Y-140000000D02*
X72000000Y-144000000D01*
X291000000Y-28000000D02*
X327500000Y-28000000D01*
X43561884Y-117561884D02*
X51000000Y-125000000D01*
X457132500Y-29132500D02*
X457132500Y-34610000D01*
X238815000Y-111560000D02*
X238815000Y-116460000D01*
X238815000Y-116460000D02*
X224615000Y-130660000D01*
X286677838Y-64021771D02*
X286677838Y-32322162D01*
X258581207Y-82500000D02*
X248562055Y-92519152D01*
X278760000Y-168760000D02*
X279357500Y-168760000D01*
X391401959Y-149683978D02*
X391401959Y-150098041D01*
X77091232Y-34908768D02*
X78500000Y-33500000D01*
X279357500Y-168760000D02*
X279357500Y-153357500D01*
X238815000Y-107185000D02*
X238815000Y-111560000D01*
X392500000Y-144500000D02*
X391401959Y-145598041D01*
X57898415Y-97247500D02*
X43561884Y-111584031D01*
X51000000Y-125000000D02*
X62000000Y-125000000D01*
X286677838Y-68822162D02*
X273000000Y-82500000D01*
X68000000Y-131000000D02*
X68000000Y-140000000D01*
X72000000Y-144000000D02*
X115667050Y-144000000D01*
X457000000Y-28000000D02*
X457000000Y-29000000D01*
X119741598Y-148074548D02*
X119741598Y-149719363D01*
X276500000Y-166500000D02*
X278760000Y-168760000D01*
X227000000Y-143500000D02*
X224615000Y-141115000D01*
X248562055Y-97437945D02*
X238815000Y-107185000D01*
X448539731Y-121111498D02*
X448539731Y-126039731D01*
X448539731Y-126039731D02*
X450800000Y-128300000D01*
X286677838Y-64021771D02*
X286677838Y-68822162D01*
X457000000Y-29000000D02*
X457132500Y-29132500D01*
X43561884Y-111584031D02*
X43561884Y-117561884D01*
X273000000Y-82500000D02*
X258581207Y-82500000D01*
X77091232Y-63984027D02*
X77091232Y-73317082D01*
X77091232Y-73317082D02*
X57898415Y-92509899D01*
X279357500Y-153357500D02*
X270500000Y-144500000D01*
X62000000Y-125000000D02*
X68000000Y-131000000D01*
X57898415Y-92509899D02*
X57898415Y-97247500D01*
X248562055Y-92519152D02*
X248562055Y-97437945D01*
X77091232Y-63984027D02*
X77091232Y-34908768D01*
X450800000Y-140700000D02*
X448000000Y-143500000D01*
X115667050Y-144000000D02*
X119741598Y-148074548D01*
X450800000Y-128300000D02*
X450800000Y-140700000D01*
%TO.N,/ROW1*%
X428500000Y-60000000D02*
X428500000Y-58100000D01*
%TO.N,/COL9*%
X448576169Y-73464972D02*
X429505280Y-92535861D01*
X445871500Y-52846050D02*
X445871500Y-48749000D01*
X200657500Y-106842500D02*
X200657500Y-111560000D01*
X448576169Y-64012685D02*
X448576169Y-55550719D01*
X213500000Y-168500000D02*
X213760000Y-168760000D01*
X288903670Y-149739275D02*
X288903670Y-145096330D01*
X239504704Y-73113500D02*
X229840022Y-73113500D01*
X81648426Y-161348426D02*
X81648426Y-149749712D01*
X340000000Y-141500000D02*
X340000000Y-133500000D01*
X213760000Y-168760000D02*
X231735000Y-168760000D01*
X340000000Y-133500000D02*
X347500000Y-126000000D01*
X135500000Y-162500000D02*
X157000000Y-162500000D01*
X222000000Y-144500000D02*
X222000000Y-148784619D01*
X229840022Y-73113500D02*
X210434015Y-92519507D01*
X222000000Y-148784619D02*
X231735000Y-158519619D01*
X210434015Y-92519507D02*
X210434015Y-97065985D01*
X231735000Y-168760000D02*
X231735000Y-179265000D01*
X445871500Y-48749000D02*
X431732500Y-34610000D01*
X288000000Y-153000000D02*
X288903670Y-152096330D01*
X425999000Y-97501000D02*
X413816000Y-109684000D01*
X200657500Y-116460000D02*
X186457500Y-130660000D01*
X388000000Y-125000000D02*
X388000000Y-121000000D01*
X413816000Y-109684000D02*
X412333500Y-109684000D01*
X425999000Y-96042141D02*
X425999000Y-97501000D01*
X448576169Y-64012685D02*
X448576169Y-73464972D01*
X448576169Y-55550719D02*
X445871500Y-52846050D01*
X387000000Y-126000000D02*
X388000000Y-125000000D01*
X231735000Y-179265000D02*
X231000000Y-180000000D01*
X412333500Y-109684000D02*
X410457500Y-111560000D01*
X383500000Y-126000000D02*
X387000000Y-126000000D01*
X186457500Y-139957500D02*
X190000000Y-143500000D01*
X288903670Y-145096330D02*
X290000000Y-144000000D01*
X275000000Y-180000000D02*
X275500000Y-179500000D01*
X248585582Y-64032622D02*
X239504704Y-73113500D01*
X288903670Y-152096330D02*
X288903670Y-149739275D01*
X82400000Y-162100000D02*
X81648426Y-161348426D01*
X275500000Y-179500000D02*
X275500000Y-153500000D01*
X210434015Y-97065985D02*
X200657500Y-106842500D01*
X186457500Y-130660000D02*
X186457500Y-139957500D01*
X200657500Y-111560000D02*
X200657500Y-116460000D01*
X231735000Y-158519619D02*
X231735000Y-168760000D01*
X429505280Y-92535861D02*
X425999000Y-96042141D01*
X410457500Y-118457500D02*
X410457500Y-111560000D01*
X410500000Y-118500000D02*
X410457500Y-118457500D01*
%TO.N,/ROW0*%
X429217500Y-31217500D02*
X429217500Y-34000000D01*
X266500000Y-31500000D02*
X266500000Y-61847050D01*
X266500000Y-61847050D02*
X265100000Y-63247050D01*
X267500000Y-30500000D02*
X266500000Y-31500000D01*
X427100000Y-31000000D02*
X429000000Y-31000000D01*
X429000000Y-31000000D02*
X429217500Y-31217500D01*
X265100000Y-63247050D02*
X265100000Y-69310000D01*
X427000000Y-30900000D02*
X427100000Y-31000000D01*
%TO.N,/COL3*%
X86515000Y-112189914D02*
X72057500Y-126647414D01*
X262715000Y-139715000D02*
X262715000Y-130660000D01*
X350000000Y-163150057D02*
X349248943Y-162399000D01*
X72057500Y-137442500D02*
X72057500Y-130660000D01*
X329454249Y-30000000D02*
X329554249Y-29900000D01*
X325482842Y-64017158D02*
X298848021Y-90651979D01*
X296186745Y-92527979D02*
X295947021Y-92527979D01*
X96031730Y-92509899D02*
X96031730Y-102043270D01*
X451000000Y-28000000D02*
X452052500Y-29052500D01*
X115227082Y-63975570D02*
X115227082Y-73314547D01*
X115227082Y-63975570D02*
X115227082Y-36272918D01*
X276915000Y-111560000D02*
X276915000Y-116460000D01*
X276915000Y-116460000D02*
X262715000Y-130660000D01*
X324500000Y-32500000D02*
X324500000Y-32000000D01*
X157835000Y-141335000D02*
X157000000Y-140500000D01*
X72000000Y-137500000D02*
X72057500Y-137442500D01*
X330150000Y-163350000D02*
X329354316Y-164145684D01*
X96031730Y-102043270D02*
X86515000Y-111560000D01*
X72057500Y-126647414D02*
X72057500Y-130660000D01*
X329354316Y-164145684D02*
X329354316Y-168763761D01*
X329554249Y-29945751D02*
X331500000Y-28000000D01*
X329554249Y-64017158D02*
X329554249Y-29945751D01*
X157835000Y-149760000D02*
X157835000Y-141335000D01*
X350000000Y-163500000D02*
X350000000Y-163150057D01*
X115227082Y-36272918D02*
X116000000Y-35500000D01*
X307200000Y-141500000D02*
X302500000Y-141500000D01*
X329354316Y-163654316D02*
X307200000Y-141500000D01*
X331500000Y-28000000D02*
X451000000Y-28000000D01*
X324500000Y-32000000D02*
X326500000Y-30000000D01*
X115227082Y-73314547D02*
X96031730Y-92509899D01*
X264000000Y-141000000D02*
X262715000Y-139715000D01*
X295947021Y-92527979D02*
X276915000Y-111560000D01*
X349248943Y-162399000D02*
X348101000Y-162399000D01*
X452052500Y-29052500D02*
X452052500Y-34610000D01*
X298848021Y-90651979D02*
X298062745Y-90651979D01*
X86515000Y-111560000D02*
X86515000Y-112189914D01*
X329354316Y-168763761D02*
X329354316Y-163654316D01*
X429200000Y-162300000D02*
X429485198Y-162014802D01*
X348101000Y-162399000D02*
X348000000Y-162500000D01*
X326500000Y-30000000D02*
X329454249Y-30000000D01*
X298062745Y-90651979D02*
X296186745Y-92527979D01*
X428600000Y-162300000D02*
X429200000Y-162300000D01*
X329554249Y-64017158D02*
X325482842Y-64017158D01*
X429485198Y-162014802D02*
X429485198Y-149710905D01*
%TO.N,/COL6*%
X409000000Y-124000000D02*
X410457500Y-125457500D01*
X129215000Y-138785000D02*
X129215000Y-130660000D01*
X367608584Y-92533693D02*
X367608584Y-102068210D01*
X394000000Y-57000000D02*
X391474361Y-59525639D01*
X181888182Y-38611818D02*
X182000000Y-38500000D01*
X441892500Y-34610000D02*
X441892500Y-42892500D01*
X410457500Y-130660000D02*
X410457500Y-146279550D01*
X104600000Y-143400000D02*
X107500000Y-140500000D01*
X181888182Y-64604232D02*
X173378914Y-73113500D01*
X349167311Y-111637603D02*
X348567827Y-111637603D01*
X391474361Y-59525639D02*
X391474361Y-64006744D01*
X215400000Y-165100000D02*
X215400000Y-159250057D01*
X442000000Y-46500000D02*
X430500000Y-46500000D01*
X205700000Y-174800000D02*
X215400000Y-165100000D01*
X410457500Y-125457500D02*
X410457500Y-130660000D01*
X172635293Y-73113500D02*
X153228179Y-92520614D01*
X376482400Y-110942026D02*
X382146625Y-110942026D01*
X181888182Y-64001772D02*
X181888182Y-64604232D01*
X367608584Y-93196330D02*
X349167311Y-111637603D01*
X215034430Y-151954283D02*
X215034430Y-149710223D01*
X153228179Y-101889321D02*
X143557500Y-111560000D01*
X441892500Y-42892500D02*
X442500000Y-43500000D01*
X181888182Y-64001772D02*
X181888182Y-38611818D01*
X64975000Y-178475000D02*
X64975000Y-168840000D01*
X64975000Y-168840000D02*
X75000000Y-158815000D01*
X430500000Y-46500000D02*
X428000000Y-49000000D01*
X215400000Y-159250057D02*
X216000000Y-158650057D01*
X382146625Y-110942026D02*
X389500000Y-118295401D01*
X75000000Y-158815000D02*
X75000000Y-145500000D01*
X367608584Y-102068210D02*
X376482400Y-110942026D01*
X391474361Y-64006744D02*
X391474361Y-68667916D01*
X410457500Y-146279550D02*
X404792959Y-151944091D01*
X143557500Y-111560000D02*
X143557500Y-116317500D01*
X173378914Y-73113500D02*
X172635293Y-73113500D01*
X404792959Y-164828159D02*
X400902041Y-168719077D01*
X216000000Y-158650057D02*
X216000000Y-152919853D01*
X128500000Y-139500000D02*
X129215000Y-138785000D01*
X311000000Y-39500000D02*
X328000000Y-56500000D01*
X391474361Y-68667916D02*
X367608584Y-92533693D01*
X216000000Y-152919853D02*
X215034430Y-151954283D01*
X65500000Y-179000000D02*
X64975000Y-178475000D01*
X367608584Y-92533693D02*
X367608584Y-93196330D01*
X389500000Y-118295401D02*
X389500000Y-124000000D01*
X153228179Y-92520614D02*
X153228179Y-101889321D01*
X311000000Y-38500000D02*
X311000000Y-39500000D01*
X104500000Y-143400000D02*
X104600000Y-143400000D01*
X404792959Y-151944091D02*
X404792959Y-164828159D01*
X143557500Y-116317500D02*
X129215000Y-130660000D01*
%TO.N,/COL7*%
X391409630Y-99590370D02*
X385500000Y-105500000D01*
X315500000Y-46000000D02*
X328000000Y-58500000D01*
X146555076Y-148279412D02*
X146555076Y-136941084D01*
X172275628Y-101941872D02*
X162657500Y-111560000D01*
X88775000Y-164225000D02*
X89000000Y-164000000D01*
X200955583Y-39544417D02*
X201000000Y-39500000D01*
X141000000Y-164000000D02*
X141500000Y-163500000D01*
X141500000Y-155500000D02*
X141500000Y-153334488D01*
X367634465Y-111606026D02*
X367500000Y-111740491D01*
X430000000Y-144500000D02*
X430000000Y-144000000D01*
X391409630Y-92522451D02*
X391409630Y-99590370D01*
X200955583Y-64025221D02*
X200955583Y-39544417D01*
X200955583Y-64025221D02*
X200955583Y-64636831D01*
X429000000Y-123500000D02*
X429516238Y-124016238D01*
X310000000Y-40500000D02*
X315500000Y-46000000D01*
X430500000Y-167707515D02*
X430500000Y-154000000D01*
X410483740Y-64004870D02*
X410483740Y-73448341D01*
X234125000Y-149700000D02*
X234125000Y-147625000D01*
X192478914Y-73113500D02*
X191679081Y-73113500D01*
X434251057Y-55101000D02*
X434748943Y-55101000D01*
X137000000Y-164000000D02*
X141000000Y-164000000D01*
X148275913Y-135775913D02*
X148275913Y-135110000D01*
X162657500Y-116215240D02*
X148275913Y-130596827D01*
X414500000Y-55000000D02*
X434150057Y-55000000D01*
X368500000Y-106000000D02*
X368500000Y-107000000D01*
X149500000Y-137000000D02*
X148275913Y-135775913D01*
X148275913Y-135220247D02*
X148275913Y-135110000D01*
X429516238Y-143516238D02*
X429516238Y-130670224D01*
X440000000Y-55000000D02*
X440500000Y-55500000D01*
X367500000Y-111740491D02*
X367500000Y-123000000D01*
X434849943Y-55000000D02*
X440000000Y-55000000D01*
X434748943Y-55101000D02*
X434849943Y-55000000D01*
X162657500Y-111560000D02*
X162657500Y-116215240D01*
X429516238Y-124016238D02*
X429516238Y-130670224D01*
X430000000Y-144000000D02*
X429516238Y-143516238D01*
X367634465Y-107865535D02*
X367634465Y-111606026D01*
X146555076Y-136941084D02*
X148275913Y-135220247D01*
X141500000Y-153334488D02*
X146555076Y-148279412D01*
X191679081Y-73113500D02*
X172275628Y-92516953D01*
X434150057Y-55000000D02*
X434251057Y-55101000D01*
X88775000Y-168840000D02*
X88775000Y-164225000D01*
X368500000Y-107000000D02*
X367634465Y-107865535D01*
X172275628Y-92516953D02*
X172275628Y-101941872D01*
X410483740Y-73448341D02*
X391409630Y-92522451D01*
X410483740Y-64004870D02*
X410483740Y-59016260D01*
X429488438Y-168719077D02*
X430500000Y-167707515D01*
X148275913Y-130596827D02*
X148275913Y-135110000D01*
X310000000Y-39500000D02*
X310000000Y-40500000D01*
X234125000Y-147625000D02*
X234000000Y-147500000D01*
X200955583Y-64636831D02*
X192478914Y-73113500D01*
X410483740Y-59016260D02*
X414500000Y-55000000D01*
%TO.N,/ROW4*%
X400500000Y-53500000D02*
X397601000Y-56399000D01*
X224000000Y-95192220D02*
X224000000Y-104500000D01*
X387500000Y-99500000D02*
X387500000Y-87500000D01*
X228500000Y-85000000D02*
X228500000Y-90692220D01*
X228500000Y-90692220D02*
X224000000Y-95192220D01*
X377000000Y-82000000D02*
X376500000Y-82500000D01*
X377000000Y-80500000D02*
X377000000Y-82000000D01*
X376500000Y-82500000D02*
X355000000Y-82500000D01*
X388000000Y-57000000D02*
X388000000Y-69500000D01*
X217400000Y-111100000D02*
X217400000Y-116610000D01*
X388000000Y-69500000D02*
X377000000Y-80500000D01*
X224000000Y-104500000D02*
X217400000Y-111100000D01*
X387500000Y-87500000D02*
X382500000Y-82500000D01*
X388601000Y-56399000D02*
X388000000Y-57000000D01*
X397601000Y-56399000D02*
X388601000Y-56399000D01*
%TO.N,/COL5*%
X162823687Y-63994126D02*
X162680818Y-63994126D01*
X442600000Y-56400000D02*
X443000000Y-56000000D01*
X121199000Y-114918500D02*
X121199000Y-119576000D01*
X43000000Y-161500000D02*
X41182764Y-163317236D01*
X313500000Y-37500000D02*
X313500000Y-39500000D01*
X330143309Y-111637603D02*
X329521374Y-111637603D01*
X41900000Y-183034472D02*
X41182764Y-182317236D01*
X162823687Y-37676313D02*
X163000000Y-37500000D01*
X368000000Y-55500000D02*
X367684413Y-55815587D01*
X96500000Y-161100000D02*
X96500000Y-160216776D01*
X329521374Y-111637603D02*
X329521374Y-124478626D01*
X313500000Y-39500000D02*
X328000000Y-54000000D01*
X191500000Y-154205134D02*
X191500000Y-184000000D01*
X348567827Y-92533693D02*
X348567827Y-93213085D01*
X96500000Y-160216776D02*
X107500000Y-149216776D01*
X348567827Y-87932173D02*
X348567827Y-92533693D01*
X162680818Y-63994126D02*
X134165045Y-92509899D01*
X41182764Y-182317236D02*
X41182764Y-168864810D01*
X424000000Y-56400000D02*
X442600000Y-56400000D01*
X107500000Y-149216776D02*
X107500000Y-146000000D01*
X386129059Y-130629059D02*
X391404492Y-130629059D01*
X380500000Y-125000000D02*
X386129059Y-130629059D01*
X391404492Y-144782641D02*
X367421845Y-168765288D01*
X110115000Y-142985000D02*
X110000000Y-143100000D01*
X41182764Y-163317236D02*
X41182764Y-168864810D01*
X367684413Y-64015156D02*
X367684413Y-68815587D01*
X134165045Y-92509899D02*
X134165045Y-101952455D01*
X367684413Y-68815587D02*
X348567827Y-87932173D01*
X134165045Y-101952455D02*
X124557500Y-111560000D01*
X162823687Y-63994126D02*
X162823687Y-37676313D01*
X368000000Y-55000000D02*
X368000000Y-55500000D01*
X329521374Y-124478626D02*
X329500000Y-124500000D01*
X348567827Y-93213085D02*
X330143309Y-111637603D01*
X367684413Y-55815587D02*
X367684413Y-64015156D01*
X110115000Y-130660000D02*
X110115000Y-142985000D01*
X124557500Y-111560000D02*
X121199000Y-114918500D01*
X41900000Y-183100000D02*
X41900000Y-183034472D01*
X121199000Y-119576000D02*
X110115000Y-130660000D01*
X391404492Y-130629059D02*
X391404492Y-144782641D01*
X195994911Y-149710223D02*
X191500000Y-154205134D01*
%TO.N,/ROW5*%
X410000000Y-109000000D02*
X408100000Y-110900000D01*
X412000000Y-58500000D02*
X412000000Y-61083740D01*
X408100000Y-110900000D02*
X408100000Y-116710000D01*
X412000000Y-61083740D02*
X411083740Y-62000000D01*
X412000000Y-56100000D02*
X410500000Y-57600000D01*
X410000000Y-97000000D02*
X410000000Y-109000000D01*
X411083740Y-89916260D02*
X411000000Y-90000000D01*
X411083740Y-68500000D02*
X411083740Y-89916260D01*
X412000000Y-54400000D02*
X412000000Y-56100000D01*
%TO.N,/ROW6*%
X225500000Y-126963840D02*
X225500000Y-123500000D01*
X409101000Y-119101000D02*
X443719000Y-119101000D01*
X219500000Y-135000000D02*
X219500000Y-132963840D01*
X409000000Y-119000000D02*
X409101000Y-119101000D01*
X422900000Y-57400000D02*
X426000000Y-60500000D01*
X421500000Y-57400000D02*
X422900000Y-57400000D01*
X219500000Y-132963840D02*
X225500000Y-126963840D01*
X443719000Y-119101000D02*
X445310000Y-117510000D01*
X425500000Y-74500000D02*
X426500000Y-75500000D01*
X444500000Y-101600000D02*
X441000000Y-105100000D01*
X425500000Y-68500000D02*
X425500000Y-74500000D01*
X444500000Y-97000000D02*
X444500000Y-101600000D01*
X445310000Y-117510000D02*
X445500000Y-117510000D01*
%TO.N,SDA*%
X425500000Y-30000000D02*
X429500000Y-30000000D01*
X407721000Y-45719000D02*
X407721000Y-33779000D01*
X467292500Y-33942557D02*
X467292500Y-34610000D01*
X382899000Y-121999000D02*
X383199000Y-121699000D01*
X401000000Y-70000000D02*
X401000000Y-67452279D01*
X444000000Y-30500000D02*
X448600000Y-30500000D01*
X382899000Y-126248943D02*
X382899000Y-121999000D01*
X462000000Y-31000000D02*
X462601000Y-30399000D01*
X377055000Y-136600000D02*
X377600000Y-136600000D01*
X410500000Y-31000000D02*
X424500000Y-31000000D01*
X388101000Y-85899000D02*
X395000000Y-79000000D01*
X383199000Y-121699000D02*
X383199000Y-115824840D01*
X406620000Y-46820000D02*
X407721000Y-45719000D01*
X409000000Y-60600000D02*
X408500000Y-60100000D01*
X387500000Y-101000000D02*
X388101000Y-100399000D01*
X383199000Y-115824840D02*
X384023840Y-115000000D01*
X429500000Y-30000000D02*
X430000000Y-30500000D01*
X404952279Y-63500000D02*
X405000000Y-63500000D01*
X384300000Y-127400000D02*
X384050057Y-127400000D01*
X463748943Y-30399000D02*
X467292500Y-33942557D01*
X383600000Y-130600000D02*
X383600000Y-129000000D01*
X462601000Y-30399000D02*
X463748943Y-30399000D01*
X407721000Y-33779000D02*
X410500000Y-31000000D01*
X424500000Y-31000000D02*
X425500000Y-30000000D01*
X384050057Y-127400000D02*
X382899000Y-126248943D01*
X388101000Y-100399000D02*
X388101000Y-85899000D01*
X377600000Y-136600000D02*
X382800000Y-131400000D01*
X370100000Y-136600000D02*
X377055000Y-136600000D01*
X408500000Y-60100000D02*
X408500000Y-51500000D01*
X448600000Y-30500000D02*
X449000000Y-30900000D01*
X401000000Y-67452279D02*
X404952279Y-63500000D01*
X384023840Y-115000000D02*
X385000000Y-115000000D01*
X382800000Y-131400000D02*
X383600000Y-130600000D01*
X430000000Y-30500000D02*
X444000000Y-30500000D01*
%TO.N,SCL*%
X376140000Y-134060000D02*
X377000000Y-133200000D01*
X386500000Y-81500000D02*
X390500000Y-81500000D01*
X457911972Y-32500000D02*
X462900000Y-32500000D01*
X430000000Y-32100000D02*
X430100000Y-32000000D01*
X370100000Y-134060000D02*
X376140000Y-134060000D01*
X451352500Y-32000000D02*
X451452500Y-32100000D01*
X386500000Y-99000000D02*
X386500000Y-87500000D01*
X406500000Y-65500000D02*
X406500000Y-63000000D01*
X412500000Y-32100000D02*
X428500000Y-32100000D01*
X390500000Y-81500000D02*
X406500000Y-65500000D01*
X430100000Y-32000000D02*
X451352500Y-32000000D01*
X406500000Y-53100000D02*
X404500000Y-51100000D01*
X377000000Y-120000000D02*
X383500000Y-113500000D01*
X406500000Y-60600000D02*
X406500000Y-53100000D01*
X457732500Y-32718528D02*
X457732500Y-32679472D01*
X377000000Y-133200000D02*
X377000000Y-120000000D01*
X457732500Y-32679472D02*
X457911972Y-32500000D01*
%TO.N,+5V*%
X405500000Y-30250000D02*
X405750000Y-30000000D01*
X424000000Y-29500000D02*
X449500000Y-29500000D01*
X463500000Y-39902963D02*
X462856500Y-40546463D01*
X397600000Y-33400000D02*
X400750000Y-30250000D01*
X392819000Y-46363950D02*
X396682950Y-42500000D01*
X462856500Y-40546463D02*
X462856500Y-47954000D01*
X397600000Y-39617050D02*
X397600000Y-33400000D01*
X463500000Y-31000000D02*
X463500000Y-39902963D01*
X405750000Y-30000000D02*
X423500000Y-30000000D01*
X462856500Y-47954000D02*
X467292500Y-52390000D01*
X390760000Y-49200000D02*
X392819000Y-47141000D01*
X396682950Y-42500000D02*
X396700000Y-42500000D01*
X396700000Y-40517050D02*
X397600000Y-39617050D01*
X400750000Y-30250000D02*
X405500000Y-30250000D01*
X392819000Y-47141000D02*
X392819000Y-46363950D01*
X449500000Y-29500000D02*
X450000000Y-30000000D01*
X396700000Y-42500000D02*
X396700000Y-40517050D01*
X423500000Y-30000000D02*
X424000000Y-29500000D01*
%TO.N,/COL4*%
X422400000Y-57000000D02*
X428501000Y-57000000D01*
X421500000Y-56100000D02*
X422400000Y-57000000D01*
X429001000Y-57500000D02*
X430000000Y-57500000D01*
X91340000Y-130660000D02*
X91115000Y-130660000D01*
X348381005Y-168763761D02*
X336463761Y-168763761D01*
X348628592Y-56871408D02*
X349000000Y-56500000D01*
X300857500Y-111560000D02*
X300857500Y-111857500D01*
X349000000Y-163000000D02*
X348381005Y-163618995D01*
X447293754Y-159206246D02*
X445000000Y-161500000D01*
X293657500Y-132928826D02*
X293657500Y-130660000D01*
X329520641Y-92529136D02*
X323233368Y-98816409D01*
X313983591Y-98816409D02*
X301240000Y-111560000D01*
X115098388Y-102019112D02*
X105557500Y-111560000D01*
X301240000Y-111560000D02*
X300857500Y-111560000D01*
X303500000Y-135800000D02*
X296528674Y-135800000D01*
X91115000Y-130660000D02*
X91115000Y-140115000D01*
X134278733Y-63983628D02*
X134500000Y-63762361D01*
X348628592Y-64015156D02*
X348628592Y-56871408D01*
X323233368Y-98816409D02*
X313983591Y-98816409D01*
X105557500Y-111560000D02*
X105557500Y-116442500D01*
X348381005Y-163618995D02*
X348381005Y-168763761D01*
X293657500Y-119057500D02*
X293657500Y-130660000D01*
X448546832Y-159206246D02*
X447293754Y-159206246D01*
X300857500Y-111857500D02*
X293657500Y-119057500D01*
X91115000Y-140115000D02*
X92500000Y-141500000D01*
X348628592Y-73421185D02*
X329520641Y-92529136D01*
X134278733Y-73329554D02*
X115098388Y-92509899D01*
X176500000Y-141500000D02*
X176925000Y-141925000D01*
X134500000Y-63762361D02*
X134500000Y-36500000D01*
X105557500Y-116442500D02*
X91340000Y-130660000D01*
X348628592Y-64015156D02*
X348628592Y-73421185D01*
X347500000Y-55000000D02*
X349000000Y-56500000D01*
X336463761Y-168763761D02*
X303500000Y-135800000D01*
X296528674Y-135800000D02*
X293657500Y-132928826D01*
X115098388Y-92509899D02*
X115098388Y-102019112D01*
X332500000Y-55000000D02*
X347500000Y-55000000D01*
X428501000Y-57000000D02*
X429001000Y-57500000D01*
X134278733Y-63983628D02*
X134278733Y-73329554D01*
X430000000Y-57500000D02*
X430500000Y-58000000D01*
X176925000Y-141925000D02*
X176925000Y-149700000D01*
%TO.N,Net-(D1-A)*%
X51762000Y-61420000D02*
X55460000Y-61420000D01*
X55460000Y-61420000D02*
X55500000Y-61380000D01*
%TO.N,Net-(D2-A)*%
X90018232Y-61444027D02*
X93454027Y-61444027D01*
X93454027Y-61444027D02*
X93700000Y-61690000D01*
%TO.N,Net-(D3-A)*%
X109098082Y-61444027D02*
X112735973Y-61444027D01*
X112735973Y-61444027D02*
X112800000Y-61380000D01*
%TO.N,Net-(D4-A)*%
X128154082Y-61435570D02*
X131645570Y-61435570D01*
X131645570Y-61435570D02*
X131900000Y-61690000D01*
%TO.N,Net-(D5-A)*%
X147205733Y-61443628D02*
X150753628Y-61443628D01*
X150753628Y-61443628D02*
X151000000Y-61690000D01*
%TO.N,Net-(D6-A)*%
X175750687Y-61454126D02*
X179164126Y-61454126D01*
X179164126Y-61454126D02*
X179400000Y-61690000D01*
%TO.N,Net-(D7-A)*%
X194815182Y-61461772D02*
X198271772Y-61461772D01*
X198271772Y-61461772D02*
X198500000Y-61690000D01*
%TO.N,Net-(D8-A)*%
X217395221Y-61485221D02*
X217600000Y-61690000D01*
X213882583Y-61485221D02*
X217395221Y-61485221D01*
%TO.N,Net-(D9-A)*%
X236495221Y-61485221D02*
X236700000Y-61690000D01*
X232960013Y-61485221D02*
X236495221Y-61485221D01*
%TO.N,Net-(D10-A)*%
X264902622Y-61492622D02*
X265100000Y-61690000D01*
X261512582Y-61492622D02*
X264902622Y-61492622D01*
%TO.N,Net-(D11-A)*%
X283990145Y-61480145D02*
X284200000Y-61690000D01*
X280562794Y-61480145D02*
X283990145Y-61480145D01*
%TO.N,Net-(D12-A)*%
X302991771Y-61481771D02*
X303200000Y-61690000D01*
X299604838Y-61481771D02*
X302991771Y-61481771D01*
%TO.N,Net-(D13-A)*%
X322091771Y-61481771D02*
X322300000Y-61690000D01*
X318700874Y-61481771D02*
X322091771Y-61481771D01*
%TO.N,Net-(D14-A)*%
X345887158Y-61477158D02*
X346100000Y-61690000D01*
X342481249Y-61477158D02*
X345887158Y-61477158D01*
%TO.N,Net-(D15-A)*%
X361555592Y-61475156D02*
X365175156Y-61475156D01*
X365175156Y-61475156D02*
X365200000Y-61500000D01*
%TO.N,Net-(D16-A)*%
X380611413Y-61475156D02*
X384275156Y-61475156D01*
X384275156Y-61475156D02*
X384300000Y-61500000D01*
%TO.N,Net-(D17-A)*%
X404401361Y-61466744D02*
X407776744Y-61466744D01*
X407776744Y-61466744D02*
X408000000Y-61690000D01*
%TO.N,Net-(D18-A)*%
X426874870Y-61464870D02*
X427100000Y-61690000D01*
X423410740Y-61464870D02*
X426874870Y-61464870D01*
%TO.N,Net-(D19-A)*%
X442455202Y-61464770D02*
X445874770Y-61464770D01*
X445874770Y-61464770D02*
X446100000Y-61690000D01*
%TO.N,Net-(D20-A)*%
X461503169Y-61472685D02*
X464982685Y-61472685D01*
X464982685Y-61472685D02*
X465200000Y-61690000D01*
%TO.N,Net-(D21-A)*%
X55500000Y-90100000D02*
X51888859Y-90100000D01*
X51888859Y-90100000D02*
X51758758Y-89969899D01*
%TO.N,Net-(D22-A)*%
X74600000Y-90000000D02*
X70855516Y-90000000D01*
X70855516Y-90000000D02*
X70825415Y-89969899D01*
%TO.N,Net-(D23-A)*%
X89926068Y-90000000D02*
X89895967Y-89969899D01*
X93700000Y-90000000D02*
X89926068Y-90000000D01*
%TO.N,Net-(D24-A)*%
X108988831Y-90000000D02*
X108958730Y-89969899D01*
X112600000Y-90000000D02*
X108988831Y-90000000D01*
%TO.N,Net-(D25-A)*%
X131700000Y-90000000D02*
X128055489Y-90000000D01*
X128055489Y-90000000D02*
X128025388Y-89969899D01*
%TO.N,Net-(D26-A)*%
X147122146Y-90000000D02*
X147092045Y-89969899D01*
X150800000Y-90000000D02*
X147122146Y-90000000D01*
%TO.N,Net-(D27-A)*%
X169900000Y-90000000D02*
X166174565Y-90000000D01*
X166174565Y-90000000D02*
X166155179Y-89980614D01*
%TO.N,Net-(D28-A)*%
X185225675Y-90000000D02*
X185202628Y-89976953D01*
X188900000Y-90000000D02*
X185225675Y-90000000D01*
%TO.N,Net-(D29-A)*%
X204301743Y-89999391D02*
X204278464Y-89976112D01*
X207984428Y-89999391D02*
X204301743Y-89999391D01*
%TO.N,Net-(D30-A)*%
X223381508Y-90000000D02*
X223361015Y-89979507D01*
X227000000Y-90000000D02*
X223381508Y-90000000D01*
%TO.N,Net-(D31-A)*%
X246100000Y-90000000D02*
X242432076Y-90000000D01*
X242432076Y-90000000D02*
X242411228Y-89979152D01*
%TO.N,Net-(D32-A)*%
X261509903Y-90000000D02*
X261489055Y-89979152D01*
X265200000Y-90000000D02*
X261509903Y-90000000D01*
%TO.N,Net-(D33-A)*%
X284200000Y-90000000D02*
X280554115Y-90000000D01*
X280554115Y-90000000D02*
X280544197Y-89990082D01*
%TO.N,Net-(D34-A)*%
X313000000Y-90000000D02*
X309125766Y-90000000D01*
X309125766Y-90000000D02*
X309113745Y-89987979D01*
%TO.N,Net-(D35-A)*%
X346200000Y-90100000D02*
X342558505Y-90100000D01*
X342558505Y-90100000D02*
X342447641Y-89989136D01*
%TO.N,Net-(D36-A)*%
X365200000Y-90100000D02*
X361601134Y-90100000D01*
X361601134Y-90100000D02*
X361494827Y-89993693D01*
%TO.N,Net-(D37-A)*%
X380641891Y-90100000D02*
X380535584Y-89993693D01*
X384300000Y-90100000D02*
X380641891Y-90100000D01*
%TO.N,Net-(D38-A)*%
X408100000Y-90100000D02*
X404454179Y-90100000D01*
X404454179Y-90100000D02*
X404336630Y-89982451D01*
%TO.N,Net-(D39-A)*%
X427100000Y-90100000D02*
X423497826Y-90100000D01*
X423497826Y-90100000D02*
X423391689Y-89993863D01*
%TO.N,Net-(D40-A)*%
X442526419Y-90090000D02*
X442432280Y-89995861D01*
X446200000Y-90090000D02*
X442526419Y-90090000D01*
%TO.N,Net-(D41-A)*%
X465200000Y-90090000D02*
X461569578Y-90090000D01*
X461569578Y-90090000D02*
X461474642Y-89995064D01*
%TO.N,Net-(D42-A)*%
X56488884Y-109044031D02*
X59744031Y-109044031D01*
X59744031Y-109044031D02*
X59800000Y-109100000D01*
%TO.N,Net-(D43-A)*%
X80342000Y-109020000D02*
X84080000Y-109020000D01*
X84080000Y-109020000D02*
X84100000Y-109000000D01*
%TO.N,Net-(D44-A)*%
X103130000Y-109020000D02*
X103200000Y-109090000D01*
X99442000Y-109020000D02*
X103130000Y-109020000D01*
%TO.N,Net-(D45-A)*%
X118484500Y-109020000D02*
X122280000Y-109020000D01*
X122280000Y-109020000D02*
X122300000Y-109000000D01*
%TO.N,Net-(D46-A)*%
X137484500Y-109020000D02*
X141170000Y-109020000D01*
X141170000Y-109020000D02*
X141200000Y-108990000D01*
%TO.N,Net-(D47-A)*%
X156484500Y-109020000D02*
X160270000Y-109020000D01*
X160270000Y-109020000D02*
X160300000Y-108990000D01*
%TO.N,Net-(D48-A)*%
X175584500Y-109020000D02*
X179130000Y-109020000D01*
X179130000Y-109020000D02*
X179200000Y-109090000D01*
%TO.N,Net-(D49-A)*%
X198170000Y-109020000D02*
X198200000Y-108990000D01*
X194584500Y-109020000D02*
X198170000Y-109020000D01*
%TO.N,Net-(D50-A)*%
X213584500Y-109020000D02*
X217370000Y-109020000D01*
X217370000Y-109020000D02*
X217400000Y-108990000D01*
%TO.N,Net-(D51-A)*%
X232684500Y-109020000D02*
X236370000Y-109020000D01*
X236370000Y-109020000D02*
X236400000Y-108990000D01*
%TO.N,Net-(D52-A)*%
X255370000Y-109020000D02*
X255400000Y-108990000D01*
X251742000Y-109020000D02*
X255370000Y-109020000D01*
%TO.N,Net-(D53-A)*%
X270784500Y-109020000D02*
X274440000Y-109020000D01*
X274440000Y-109020000D02*
X274500000Y-109080000D01*
%TO.N,Net-(D54-A)*%
X293570000Y-109020000D02*
X293600000Y-108990000D01*
X289842000Y-109020000D02*
X293570000Y-109020000D01*
%TO.N,Net-(D55-A)*%
X313784500Y-109020000D02*
X317760000Y-109020000D01*
X317760000Y-109020000D02*
X317800000Y-108980000D01*
%TO.N,Net-(D56-A)*%
X346192397Y-109097603D02*
X346200000Y-109090000D01*
X342448374Y-109097603D02*
X346192397Y-109097603D01*
%TO.N,Net-(D57-A)*%
X361494827Y-109097603D02*
X365192397Y-109097603D01*
X365192397Y-109097603D02*
X365200000Y-109090000D01*
%TO.N,Net-(D58-A)*%
X380561465Y-109066026D02*
X384223974Y-109066026D01*
X384223974Y-109066026D02*
X384300000Y-108990000D01*
%TO.N,Net-(D59-A)*%
X408070000Y-109060000D02*
X408100000Y-109090000D01*
X404352000Y-109060000D02*
X408070000Y-109060000D01*
%TO.N,Net-(D60-A)*%
X423384500Y-109020000D02*
X427070000Y-109020000D01*
X427070000Y-109020000D02*
X427100000Y-108990000D01*
%TO.N,Net-(D61-A)*%
X444649686Y-109039686D02*
X445500000Y-109890000D01*
X442428395Y-109039686D02*
X444649686Y-109039686D01*
%TO.N,Net-(D62-A)*%
X465100000Y-118600000D02*
X461495233Y-118600000D01*
X461495233Y-118600000D02*
X461466731Y-118571498D01*
%TO.N,Net-(D63-A)*%
X58872000Y-128090000D02*
X58842000Y-128120000D01*
X62500000Y-128090000D02*
X58872000Y-128090000D01*
%TO.N,Net-(D64-A)*%
X88700000Y-128090000D02*
X85014500Y-128090000D01*
X85014500Y-128090000D02*
X84984500Y-128120000D01*
%TO.N,Net-(D65-A)*%
X107800000Y-128090000D02*
X104072000Y-128090000D01*
X104072000Y-128090000D02*
X104042000Y-128120000D01*
%TO.N,Net-(D66-A)*%
X126800000Y-128090000D02*
X123072000Y-128090000D01*
X123072000Y-128090000D02*
X123042000Y-128120000D01*
%TO.N,Net-(D67-A)*%
X145900000Y-128090000D02*
X142172000Y-128090000D01*
X142172000Y-128090000D02*
X142142000Y-128120000D01*
%TO.N,Net-(D68-A)*%
X164900000Y-128090000D02*
X161236086Y-128090000D01*
X161236086Y-128090000D02*
X161202913Y-128056827D01*
%TO.N,Net-(D69-A)*%
X184000000Y-128090000D02*
X180300053Y-128090000D01*
X180300053Y-128090000D02*
X180292509Y-128082456D01*
%TO.N,Net-(D70-A)*%
X203000000Y-128090000D02*
X199414500Y-128090000D01*
X199414500Y-128090000D02*
X199384500Y-128120000D01*
%TO.N,Net-(D71-A)*%
X222100000Y-128080000D02*
X218485989Y-128080000D01*
X218485989Y-128080000D02*
X218469290Y-128063301D01*
%TO.N,Net-(D72-A)*%
X241200000Y-128090000D02*
X237572000Y-128090000D01*
X237572000Y-128090000D02*
X237542000Y-128120000D01*
%TO.N,Net-(D73-A)*%
X260300000Y-128090000D02*
X256614500Y-128090000D01*
X256614500Y-128090000D02*
X256584500Y-128120000D01*
%TO.N,Net-(D74-A)*%
X279400000Y-128190000D02*
X275712000Y-128190000D01*
X275712000Y-128190000D02*
X275642000Y-128120000D01*
%TO.N,Net-(D75-A)*%
X306654500Y-128190000D02*
X306584500Y-128120000D01*
X310200000Y-128190000D02*
X306654500Y-128190000D01*
%TO.N,Net-(D76-A)*%
X404342433Y-128100000D02*
X404331492Y-128089059D01*
X408000000Y-128100000D02*
X404342433Y-128100000D01*
%TO.N,Net-(D77-A)*%
X423454500Y-128190000D02*
X423384500Y-128120000D01*
X427100000Y-128190000D02*
X423454500Y-128190000D01*
%TO.N,Net-(D78-A)*%
X442473462Y-128100000D02*
X442443238Y-128130224D01*
X446100000Y-128100000D02*
X442473462Y-128100000D01*
%TO.N,Net-(D79-A)*%
X63613964Y-147198970D02*
X67491030Y-147198970D01*
X67491030Y-147198970D02*
X67500000Y-147190000D01*
%TO.N,Net-(D80-A)*%
X94575426Y-147209712D02*
X98280288Y-147209712D01*
X98280288Y-147209712D02*
X98300000Y-147190000D01*
%TO.N,Net-(D81-A)*%
X113613487Y-147190105D02*
X117299895Y-147190105D01*
X117299895Y-147190105D02*
X117300000Y-147190000D01*
%TO.N,Net-(D82-A)*%
X136289363Y-147179363D02*
X136300000Y-147190000D01*
X132668598Y-147179363D02*
X136289363Y-147179363D01*
%TO.N,Net-(D83-A)*%
X155398228Y-147188228D02*
X155400000Y-147190000D01*
X151733076Y-147188228D02*
X155398228Y-147188228D01*
%TO.N,Net-(D84-A)*%
X174470000Y-147220000D02*
X174500000Y-147190000D01*
X170762000Y-147220000D02*
X174470000Y-147220000D01*
%TO.N,Net-(D85-A)*%
X189852000Y-147160000D02*
X193470000Y-147160000D01*
X193470000Y-147160000D02*
X193500000Y-147190000D01*
%TO.N,Net-(D86-A)*%
X208921911Y-147170223D02*
X212580223Y-147170223D01*
X212580223Y-147170223D02*
X212600000Y-147190000D01*
%TO.N,Net-(D87-A)*%
X227961430Y-147170223D02*
X231680223Y-147170223D01*
X231680223Y-147170223D02*
X231700000Y-147190000D01*
%TO.N,Net-(D88-A)*%
X250770000Y-147160000D02*
X250800000Y-147190000D01*
X247052000Y-147160000D02*
X250770000Y-147160000D01*
%TO.N,Net-(D89-A)*%
X266115588Y-147199275D02*
X269890725Y-147199275D01*
X269890725Y-147199275D02*
X269900000Y-147190000D01*
%TO.N,Net-(D90-A)*%
X301830670Y-147199275D02*
X305790725Y-147199275D01*
X305790725Y-147199275D02*
X305800000Y-147190000D01*
%TO.N,Net-(D91-A)*%
X361262000Y-147167386D02*
X365077386Y-147167386D01*
X365077386Y-147167386D02*
X365100000Y-147190000D01*
%TO.N,Net-(D92-A)*%
X404328959Y-147143978D02*
X407963978Y-147143978D01*
X407963978Y-147143978D02*
X408000000Y-147180000D01*
%TO.N,Net-(D93-A)*%
X427077722Y-147167722D02*
X427100000Y-147190000D01*
X423382519Y-147167722D02*
X427077722Y-147167722D01*
%TO.N,Net-(D94-A)*%
X442412198Y-147170905D02*
X444780905Y-147170905D01*
X444780905Y-147170905D02*
X445400000Y-147790000D01*
%TO.N,Net-(D95-A)*%
X461473832Y-156666246D02*
X465076246Y-156666246D01*
X465076246Y-156666246D02*
X465100000Y-156690000D01*
%TO.N,Net-(D96-A)*%
X54174954Y-166390000D02*
X54109764Y-166324810D01*
X57900000Y-166390000D02*
X54174954Y-166390000D01*
%TO.N,Net-(D97-A)*%
X81800000Y-166290000D02*
X77912000Y-166290000D01*
X77912000Y-166290000D02*
X77902000Y-166300000D01*
%TO.N,Net-(D98-A)*%
X105600000Y-166290000D02*
X101712000Y-166290000D01*
X101712000Y-166290000D02*
X101702000Y-166300000D01*
%TO.N,Net-(D99-A)*%
X173214500Y-166290000D02*
X173184500Y-166320000D01*
X177100000Y-166290000D02*
X173214500Y-166290000D01*
%TO.N,Net-(D100-A)*%
X248600000Y-166200000D02*
X244682000Y-166200000D01*
X244682000Y-166200000D02*
X244662000Y-166220000D01*
%TO.N,Net-(D101-A)*%
X272200000Y-166200000D02*
X268482000Y-166200000D01*
X268482000Y-166200000D02*
X268462000Y-166220000D01*
%TO.N,Net-(D102-A)*%
X295600000Y-166190000D02*
X292314500Y-166190000D01*
X292314500Y-166190000D02*
X292284500Y-166220000D01*
%TO.N,Net-(D103-A)*%
X319900000Y-166200000D02*
X316162000Y-166200000D01*
X316162000Y-166200000D02*
X316142000Y-166220000D01*
%TO.N,/RotEncoder1B2*%
X364940000Y-35700000D02*
X371700000Y-35700000D01*
X376500000Y-49000000D02*
X378680000Y-46820000D01*
X373000000Y-49000000D02*
X376500000Y-49000000D01*
X371700000Y-35700000D02*
X372500000Y-36500000D01*
%TO.N,/RotEncoder1A*%
X361061000Y-51401000D02*
X369672840Y-51401000D01*
X369672840Y-51401000D02*
X380371840Y-40702000D01*
X392418000Y-40702000D02*
X393920000Y-39200000D01*
X380371840Y-40702000D02*
X392418000Y-40702000D01*
X359860000Y-50200000D02*
X361061000Y-51401000D01*
%TO.N,/RotEncoder1B1*%
X372999000Y-34499000D02*
X374000000Y-35500000D01*
X361061000Y-34499000D02*
X372999000Y-34499000D01*
X359860000Y-35700000D02*
X361061000Y-34499000D01*
%TO.N,/RotEncoder1B*%
X374839000Y-40301000D02*
X390279000Y-40301000D01*
X364940000Y-50200000D02*
X374839000Y-40301000D01*
X390279000Y-40301000D02*
X391380000Y-39200000D01*
%TO.N,Net-(D104-A)*%
X346000000Y-166200000D02*
X342305077Y-166200000D01*
X342305077Y-166200000D02*
X342281316Y-166223761D01*
%TO.N,Net-(D105-A)*%
X361331766Y-166200000D02*
X361308005Y-166223761D01*
X365100000Y-166200000D02*
X361331766Y-166200000D01*
%TO.N,Net-(D106-A)*%
X380384133Y-166190000D02*
X380348845Y-166225288D01*
X384100000Y-166190000D02*
X380384133Y-166190000D01*
%TO.N,Net-(D107-A)*%
X417800000Y-166190000D02*
X413839964Y-166190000D01*
X413839964Y-166190000D02*
X413829041Y-166179077D01*
%TO.N,Net-(D108-A)*%
X446100000Y-166190000D02*
X442426361Y-166190000D01*
X442426361Y-166190000D02*
X442415438Y-166179077D01*
%TO.N,/RotEncoder2B1*%
X378500000Y-53000000D02*
X338000000Y-53000000D01*
X339000000Y-36000000D02*
X343820000Y-36000000D01*
%TO.N,/RotEncoder2B2*%
X355000000Y-52000000D02*
X378580000Y-52000000D01*
X378580000Y-52000000D02*
X383760000Y-46820000D01*
X348900000Y-36000000D02*
X351400000Y-38500000D01*
X351400000Y-38500000D02*
X355000000Y-38500000D01*
%TO.N,/RotEncoder2A*%
X382140000Y-32500000D02*
X337000000Y-32500000D01*
X337000000Y-32500000D02*
X336000000Y-33500000D01*
X388840000Y-39200000D02*
X382140000Y-32500000D01*
X336000000Y-50500000D02*
X343820000Y-50500000D01*
%TO.N,/RotEncoder2B*%
X348900000Y-50500000D02*
X353500000Y-50500000D01*
X380600000Y-33500000D02*
X386300000Y-39200000D01*
X353500000Y-50500000D02*
X354000000Y-50000000D01*
X354500000Y-34500000D02*
X355500000Y-33500000D01*
X355500000Y-33500000D02*
X380600000Y-33500000D01*
%TO.N,Net-(U1-VDD)*%
X396460000Y-48580000D02*
X395840000Y-49200000D01*
X396460000Y-46820000D02*
X396460000Y-48580000D01*
%TD*%
M02*
