%TF.GenerationSoftware,KiCad,Pcbnew,9.0.7*%
%TF.CreationDate,2026-03-24T09:02:28-05:00*%
%TF.ProjectId,full-keyboard,66756c6c-2d6b-4657-9962-6f6172642e6b,1*%
%TF.SameCoordinates,Original*%
%TF.FileFunction,Copper,L2,Bot*%
%TF.FilePolarity,Positive*%
%FSLAX46Y46*%
G04 Gerber Fmt 4.6, Leading zero omitted, Abs format (unit mm)*
G04 Created by KiCad (PCBNEW 9.0.7) date 2026-03-24 09:02:28*
%MOMM*%
%LPD*%
G01*
G04 APERTURE LIST*
G04 Aperture macros list*
%AMRoundRect*
0 Rectangle with rounded corners*
0 $1 Rounding radius*
0 $2 $3 $4 $5 $6 $7 $8 $9 X,Y pos of 4 corners*
0 Add a 4 corners polygon primitive as box body*
4,1,4,$2,$3,$4,$5,$6,$7,$8,$9,$2,$3,0*
0 Add four circle primitives for the rounded corners*
1,1,$1+$1,$2,$3*
1,1,$1+$1,$4,$5*
1,1,$1+$1,$6,$7*
1,1,$1+$1,$8,$9*
0 Add four rect primitives between the rounded corners*
20,1,$1+$1,$2,$3,$4,$5,0*
20,1,$1+$1,$4,$5,$6,$7,0*
20,1,$1+$1,$6,$7,$8,$9,0*
20,1,$1+$1,$8,$9,$2,$3,0*%
%AMFreePoly0*
4,1,37,0.603843,0.796157,0.639018,0.796157,0.711114,0.766294,0.766294,0.711114,0.796157,0.639018,0.796157,0.603843,0.800000,0.600000,0.800000,-0.600000,0.796157,-0.603843,0.796157,-0.639018,0.766294,-0.711114,0.711114,-0.766294,0.639018,-0.796157,0.603843,-0.796157,0.600000,-0.800000,0.000000,-0.800000,0.000000,-0.796148,-0.078414,-0.796148,-0.232228,-0.765552,-0.377117,-0.705537,
-0.507515,-0.618408,-0.618408,-0.507515,-0.705537,-0.377117,-0.765552,-0.232228,-0.796148,-0.078414,-0.796148,0.078414,-0.765552,0.232228,-0.705537,0.377117,-0.618408,0.507515,-0.507515,0.618408,-0.377117,0.705537,-0.232228,0.765552,-0.078414,0.796148,0.000000,0.796148,0.000000,0.800000,0.600000,0.800000,0.603843,0.796157,0.603843,0.796157,$1*%
%AMFreePoly1*
4,1,37,0.000000,0.796148,0.078414,0.796148,0.232228,0.765552,0.377117,0.705537,0.507515,0.618408,0.618408,0.507515,0.705537,0.377117,0.765552,0.232228,0.796148,0.078414,0.796148,-0.078414,0.765552,-0.232228,0.705537,-0.377117,0.618408,-0.507515,0.507515,-0.618408,0.377117,-0.705537,0.232228,-0.765552,0.078414,-0.796148,0.000000,-0.796148,0.000000,-0.800000,-0.600000,-0.800000,
-0.603843,-0.796157,-0.639018,-0.796157,-0.711114,-0.766294,-0.766294,-0.711114,-0.796157,-0.639018,-0.796157,-0.603843,-0.800000,-0.600000,-0.800000,0.600000,-0.796157,0.603843,-0.796157,0.639018,-0.766294,0.711114,-0.711114,0.766294,-0.639018,0.796157,-0.603843,0.796157,-0.600000,0.800000,0.000000,0.800000,0.000000,0.796148,0.000000,0.796148,$1*%
G04 Aperture macros list end*
%TA.AperFunction,ComponentPad*%
%ADD10C,2.500000*%
%TD*%
%TA.AperFunction,ComponentPad*%
%ADD11RoundRect,0.250000X0.550000X-0.550000X0.550000X0.550000X-0.550000X0.550000X-0.550000X-0.550000X0*%
%TD*%
%TA.AperFunction,ComponentPad*%
%ADD12C,1.600000*%
%TD*%
%TA.AperFunction,ComponentPad*%
%ADD13R,1.700000X1.700000*%
%TD*%
%TA.AperFunction,ComponentPad*%
%ADD14O,1.700000X1.700000*%
%TD*%
%TA.AperFunction,ComponentPad*%
%ADD15O,2.300000X4.000000*%
%TD*%
%TA.AperFunction,ComponentPad*%
%ADD16C,1.800000*%
%TD*%
%TA.AperFunction,ComponentPad*%
%ADD17RoundRect,0.200000X-0.600000X0.600000X-0.600000X-0.600000X0.600000X-0.600000X0.600000X0.600000X0*%
%TD*%
%TA.AperFunction,ComponentPad*%
%ADD18FreePoly0,270.000000*%
%TD*%
%TA.AperFunction,ComponentPad*%
%ADD19FreePoly1,270.000000*%
%TD*%
%TA.AperFunction,ComponentPad*%
%ADD20C,1.400000*%
%TD*%
%TA.AperFunction,ViaPad*%
%ADD21C,0.600000*%
%TD*%
%TA.AperFunction,Conductor*%
%ADD22C,0.200000*%
%TD*%
G04 APERTURE END LIST*
D10*
%TO.P,SW52,1,1*%
%TO.N,/COL1*%
X242090000Y-111560000D03*
%TO.P,SW52,2,2*%
%TO.N,Net-(D52-A)*%
X248440000Y-109020000D03*
%TD*%
D11*
%TO.P,D106,1,K*%
%TO.N,/ROW10*%
X384100000Y-173810000D03*
D12*
%TO.P,D106,2,A*%
%TO.N,Net-(D106-A)*%
X384100000Y-166190000D03*
%TD*%
D11*
%TO.P,D42,1,K*%
%TO.N,/ROW4*%
X59800000Y-116720000D03*
D12*
%TO.P,D42,2,A*%
%TO.N,Net-(D42-A)*%
X59800000Y-109100000D03*
%TD*%
D11*
%TO.P,D38,1,K*%
%TO.N,/ROW3*%
X408100000Y-97720000D03*
D12*
%TO.P,D38,2,A*%
%TO.N,Net-(D38-A)*%
X408100000Y-90100000D03*
%TD*%
D10*
%TO.P,SW47,1,1*%
%TO.N,/COL6*%
X146832500Y-111560000D03*
%TO.P,SW47,2,2*%
%TO.N,Net-(D47-A)*%
X153182500Y-109020000D03*
%TD*%
D11*
%TO.P,D40,1,K*%
%TO.N,/ROW3*%
X446200000Y-97710000D03*
D12*
%TO.P,D40,2,A*%
%TO.N,Net-(D40-A)*%
X446200000Y-90090000D03*
%TD*%
D10*
%TO.P,SW20,1,1*%
%TO.N,/COL9*%
X451851169Y-64012685D03*
%TO.P,SW20,2,2*%
%TO.N,Net-(D20-A)*%
X458201169Y-61472685D03*
%TD*%
%TO.P,SW66,1,1*%
%TO.N,/COL5*%
X113390000Y-130660000D03*
%TO.P,SW66,2,2*%
%TO.N,Net-(D66-A)*%
X119740000Y-128120000D03*
%TD*%
%TO.P,SW64,1,1*%
%TO.N,/COL3*%
X75332500Y-130660000D03*
%TO.P,SW64,2,2*%
%TO.N,Net-(D64-A)*%
X81682500Y-128120000D03*
%TD*%
%TO.P,SW8,1,1*%
%TO.N,/COL7*%
X204230583Y-64025221D03*
%TO.P,SW8,2,2*%
%TO.N,Net-(D8-A)*%
X210580583Y-61485221D03*
%TD*%
D11*
%TO.P,D56,1,K*%
%TO.N,/ROW5*%
X346200000Y-116710000D03*
D12*
%TO.P,D56,2,A*%
%TO.N,Net-(D56-A)*%
X346200000Y-109090000D03*
%TD*%
D11*
%TO.P,D88,1,K*%
%TO.N,/ROW8*%
X250800000Y-154810000D03*
D12*
%TO.P,D88,2,A*%
%TO.N,Net-(D88-A)*%
X250800000Y-147190000D03*
%TD*%
D10*
%TO.P,SW73,1,1*%
%TO.N,/COL2*%
X246932500Y-130660000D03*
%TO.P,SW73,2,2*%
%TO.N,Net-(D73-A)*%
X253282500Y-128120000D03*
%TD*%
D11*
%TO.P,D55,1,K*%
%TO.N,/ROW5*%
X317800000Y-116600000D03*
D12*
%TO.P,D55,2,A*%
%TO.N,Net-(D55-A)*%
X317800000Y-108980000D03*
%TD*%
D11*
%TO.P,D98,1,K*%
%TO.N,/ROW9*%
X105600000Y-173910000D03*
D12*
%TO.P,D98,2,A*%
%TO.N,Net-(D98-A)*%
X105600000Y-166290000D03*
%TD*%
D11*
%TO.P,D97,1,K*%
%TO.N,/ROW9*%
X81800000Y-173910000D03*
D12*
%TO.P,D97,2,A*%
%TO.N,Net-(D97-A)*%
X81800000Y-166290000D03*
%TD*%
D13*
%TO.P,J1,1,Pin_1*%
%TO.N,GND*%
X370100000Y-128980000D03*
D14*
%TO.P,J1,2,Pin_2*%
%TO.N,+3.3V*%
X370100000Y-131520000D03*
%TO.P,J1,3,Pin_3*%
%TO.N,SCL*%
X370100000Y-134060000D03*
%TO.P,J1,4,Pin_4*%
%TO.N,SDA*%
X370100000Y-136600000D03*
%TD*%
D11*
%TO.P,D67,1,K*%
%TO.N,/ROW6*%
X145900000Y-135710000D03*
D12*
%TO.P,D67,2,A*%
%TO.N,Net-(D67-A)*%
X145900000Y-128090000D03*
%TD*%
D11*
%TO.P,D74,1,K*%
%TO.N,/ROW7*%
X279400000Y-135810000D03*
D12*
%TO.P,D74,2,A*%
%TO.N,Net-(D74-A)*%
X279400000Y-128190000D03*
%TD*%
D11*
%TO.P,D96,1,K*%
%TO.N,/ROW9*%
X57900000Y-174010000D03*
D12*
%TO.P,D96,2,A*%
%TO.N,Net-(D96-A)*%
X57900000Y-166390000D03*
%TD*%
D10*
%TO.P,SW98,1,1*%
%TO.N,/COL7*%
X92050000Y-168840000D03*
%TO.P,SW98,2,2*%
%TO.N,Net-(D98-A)*%
X98400000Y-166300000D03*
%TD*%
D11*
%TO.P,D82,1,K*%
%TO.N,/ROW8*%
X136300000Y-154810000D03*
D12*
%TO.P,D82,2,A*%
%TO.N,Net-(D82-A)*%
X136300000Y-147190000D03*
%TD*%
D10*
%TO.P,SW106,1,1*%
%TO.N,/COL5*%
X370696845Y-168765288D03*
%TO.P,SW106,2,2*%
%TO.N,Net-(D106-A)*%
X377046845Y-166225288D03*
%TD*%
D11*
%TO.P,D86,1,K*%
%TO.N,/ROW8*%
X212600000Y-154810000D03*
D12*
%TO.P,D86,2,A*%
%TO.N,Net-(D86-A)*%
X212600000Y-147190000D03*
%TD*%
D11*
%TO.P,D41,1,K*%
%TO.N,/ROW4*%
X465200000Y-97710000D03*
D12*
%TO.P,D41,2,A*%
%TO.N,Net-(D41-A)*%
X465200000Y-90090000D03*
%TD*%
D11*
%TO.P,D91,1,K*%
%TO.N,/ROW9*%
X365100000Y-154810000D03*
D12*
%TO.P,D91,2,A*%
%TO.N,Net-(D91-A)*%
X365100000Y-147190000D03*
%TD*%
D10*
%TO.P,SW76,1,1*%
%TO.N,/COL5*%
X394679492Y-130629059D03*
%TO.P,SW76,2,2*%
%TO.N,Net-(D76-A)*%
X401029492Y-128089059D03*
%TD*%
%TO.P,SW28,1,1*%
%TO.N,/COL7*%
X175550628Y-92516953D03*
%TO.P,SW28,2,2*%
%TO.N,Net-(D28-A)*%
X181900628Y-89976953D03*
%TD*%
%TO.P,SW31,1,1*%
%TO.N,/COL0*%
X232759228Y-92519152D03*
%TO.P,SW31,2,2*%
%TO.N,Net-(D31-A)*%
X239109228Y-89979152D03*
%TD*%
D11*
%TO.P,D26,1,K*%
%TO.N,/ROW2*%
X150800000Y-97620000D03*
D12*
%TO.P,D26,2,A*%
%TO.N,Net-(D26-A)*%
X150800000Y-90000000D03*
%TD*%
D10*
%TO.P,SW19,1,1*%
%TO.N,/COL8*%
X432803202Y-64004770D03*
%TO.P,SW19,2,2*%
%TO.N,Net-(D19-A)*%
X439153202Y-61464770D03*
%TD*%
D11*
%TO.P,D39,1,K*%
%TO.N,/ROW3*%
X427100000Y-97720000D03*
D12*
%TO.P,D39,2,A*%
%TO.N,Net-(D39-A)*%
X427100000Y-90100000D03*
%TD*%
D10*
%TO.P,SW25,1,1*%
%TO.N,/COL4*%
X118373388Y-92509899D03*
%TO.P,SW25,2,2*%
%TO.N,Net-(D25-A)*%
X124723388Y-89969899D03*
%TD*%
D11*
%TO.P,D83,1,K*%
%TO.N,/ROW8*%
X155400000Y-154810000D03*
D12*
%TO.P,D83,2,A*%
%TO.N,Net-(D83-A)*%
X155400000Y-147190000D03*
%TD*%
D11*
%TO.P,D11,1,K*%
%TO.N,/ROW1*%
X284200000Y-69310000D03*
D12*
%TO.P,D11,2,A*%
%TO.N,Net-(D11-A)*%
X284200000Y-61690000D03*
%TD*%
D10*
%TO.P,SW97,1,1*%
%TO.N,/COL6*%
X68250000Y-168840000D03*
%TO.P,SW97,2,2*%
%TO.N,Net-(D97-A)*%
X74600000Y-166300000D03*
%TD*%
D11*
%TO.P,D22,1,K*%
%TO.N,/ROW2*%
X74600000Y-97620000D03*
D12*
%TO.P,D22,2,A*%
%TO.N,Net-(D22-A)*%
X74600000Y-90000000D03*
%TD*%
D11*
%TO.P,D15,1,K*%
%TO.N,/ROW1*%
X365200000Y-69120000D03*
D12*
%TO.P,D15,2,A*%
%TO.N,Net-(D15-A)*%
X365200000Y-61500000D03*
%TD*%
D11*
%TO.P,D5,1,K*%
%TO.N,/ROW0*%
X151000000Y-69310000D03*
D12*
%TO.P,D5,2,A*%
%TO.N,Net-(D5-A)*%
X151000000Y-61690000D03*
%TD*%
D11*
%TO.P,D51,1,K*%
%TO.N,/ROW5*%
X236400000Y-116610000D03*
D12*
%TO.P,D51,2,A*%
%TO.N,Net-(D51-A)*%
X236400000Y-108990000D03*
%TD*%
D10*
%TO.P,SW54,1,1*%
%TO.N,/COL3*%
X280190000Y-111560000D03*
%TO.P,SW54,2,2*%
%TO.N,Net-(D54-A)*%
X286540000Y-109020000D03*
%TD*%
D11*
%TO.P,D58,1,K*%
%TO.N,/ROW5*%
X384300000Y-116610000D03*
D12*
%TO.P,D58,2,A*%
%TO.N,Net-(D58-A)*%
X384300000Y-108990000D03*
%TD*%
D10*
%TO.P,SW12,1,1*%
%TO.N,/COL1*%
X289952838Y-64021771D03*
%TO.P,SW12,2,2*%
%TO.N,Net-(D12-A)*%
X296302838Y-61481771D03*
%TD*%
D11*
%TO.P,D28,1,K*%
%TO.N,/ROW2*%
X188900000Y-97620000D03*
D12*
%TO.P,D28,2,A*%
%TO.N,Net-(D28-A)*%
X188900000Y-90000000D03*
%TD*%
D11*
%TO.P,D107,1,K*%
%TO.N,/ROW10*%
X417800000Y-173810000D03*
D12*
%TO.P,D107,2,A*%
%TO.N,Net-(D107-A)*%
X417800000Y-166190000D03*
%TD*%
D10*
%TO.P,SW1,1,1*%
%TO.N,/COL0*%
X42110000Y-63960000D03*
%TO.P,SW1,2,2*%
%TO.N,Net-(D1-A)*%
X48460000Y-61420000D03*
%TD*%
D11*
%TO.P,D19,1,K*%
%TO.N,/ROW1*%
X446100000Y-69310000D03*
D12*
%TO.P,D19,2,A*%
%TO.N,Net-(D19-A)*%
X446100000Y-61690000D03*
%TD*%
D10*
%TO.P,SW101,1,1*%
%TO.N,/COL0*%
X258810000Y-168760000D03*
%TO.P,SW101,2,2*%
%TO.N,Net-(D101-A)*%
X265160000Y-166220000D03*
%TD*%
%TO.P,SW11,1,1*%
%TO.N,/COL0*%
X270910794Y-64020145D03*
%TO.P,SW11,2,2*%
%TO.N,Net-(D11-A)*%
X277260794Y-61480145D03*
%TD*%
D11*
%TO.P,D8,1,K*%
%TO.N,/ROW0*%
X217600000Y-69310000D03*
D12*
%TO.P,D8,2,A*%
%TO.N,Net-(D8-A)*%
X217600000Y-61690000D03*
%TD*%
D10*
%TO.P,SW57,1,1*%
%TO.N,/COL6*%
X351842827Y-111637603D03*
%TO.P,SW57,2,2*%
%TO.N,Net-(D57-A)*%
X358192827Y-109097603D03*
%TD*%
%TO.P,SW37,1,1*%
%TO.N,/COL6*%
X370883584Y-92533693D03*
%TO.P,SW37,2,2*%
%TO.N,Net-(D37-A)*%
X377233584Y-89993693D03*
%TD*%
D11*
%TO.P,D70,1,K*%
%TO.N,/ROW6*%
X203000000Y-135710000D03*
D12*
%TO.P,D70,2,A*%
%TO.N,Net-(D70-A)*%
X203000000Y-128090000D03*
%TD*%
D11*
%TO.P,D72,1,K*%
%TO.N,/ROW7*%
X241200000Y-135710000D03*
D12*
%TO.P,D72,2,A*%
%TO.N,Net-(D72-A)*%
X241200000Y-128090000D03*
%TD*%
D10*
%TO.P,SW62,1,1*%
%TO.N,/COL1*%
X451814731Y-121111498D03*
%TO.P,SW62,2,2*%
%TO.N,Net-(D62-A)*%
X458164731Y-118571498D03*
%TD*%
D11*
%TO.P,D33,1,K*%
%TO.N,/ROW3*%
X284200000Y-97620000D03*
D12*
%TO.P,D33,2,A*%
%TO.N,Net-(D33-A)*%
X284200000Y-90000000D03*
%TD*%
D10*
%TO.P,SW18,1,1*%
%TO.N,/COL7*%
X413758740Y-64004870D03*
%TO.P,SW18,2,2*%
%TO.N,Net-(D18-A)*%
X420108740Y-61464870D03*
%TD*%
D11*
%TO.P,D37,1,K*%
%TO.N,/ROW3*%
X384300000Y-97720000D03*
D12*
%TO.P,D37,2,A*%
%TO.N,Net-(D37-A)*%
X384300000Y-90100000D03*
%TD*%
D10*
%TO.P,SW49,1,1*%
%TO.N,/COL8*%
X184932500Y-111560000D03*
%TO.P,SW49,2,2*%
%TO.N,Net-(D49-A)*%
X191282500Y-109020000D03*
%TD*%
D11*
%TO.P,D44,1,K*%
%TO.N,/ROW4*%
X103200000Y-116710000D03*
D12*
%TO.P,D44,2,A*%
%TO.N,Net-(D44-A)*%
X103200000Y-109090000D03*
%TD*%
D10*
%TO.P,SW78,1,1*%
%TO.N,/COL7*%
X432791238Y-130670224D03*
%TO.P,SW78,2,2*%
%TO.N,Net-(D78-A)*%
X439141238Y-128130224D03*
%TD*%
%TO.P,SW96,1,1*%
%TO.N,/COL5*%
X44457764Y-168864810D03*
%TO.P,SW96,2,2*%
%TO.N,Net-(D96-A)*%
X50807764Y-166324810D03*
%TD*%
%TO.P,SW27,1,1*%
%TO.N,/COL6*%
X156503179Y-92520614D03*
%TO.P,SW27,2,2*%
%TO.N,Net-(D27-A)*%
X162853179Y-89980614D03*
%TD*%
%TO.P,SW29,1,1*%
%TO.N,/COL8*%
X194626464Y-92516112D03*
%TO.P,SW29,2,2*%
%TO.N,Net-(D29-A)*%
X200976464Y-89976112D03*
%TD*%
D11*
%TO.P,D13,1,K*%
%TO.N,/ROW1*%
X322300000Y-69310000D03*
D12*
%TO.P,D13,2,A*%
%TO.N,Net-(D13-A)*%
X322300000Y-61690000D03*
%TD*%
D10*
%TO.P,SW107,1,1*%
%TO.N,/COL6*%
X404177041Y-168719077D03*
%TO.P,SW107,2,2*%
%TO.N,Net-(D107-A)*%
X410527041Y-166179077D03*
%TD*%
%TO.P,SW89,1,1*%
%TO.N,/COL8*%
X256463588Y-149739275D03*
%TO.P,SW89,2,2*%
%TO.N,Net-(D89-A)*%
X262813588Y-147199275D03*
%TD*%
%TO.P,SW70,1,1*%
%TO.N,/COL9*%
X189732500Y-130660000D03*
%TO.P,SW70,2,2*%
%TO.N,Net-(D70-A)*%
X196082500Y-128120000D03*
%TD*%
D11*
%TO.P,D73,1,K*%
%TO.N,/ROW7*%
X260300000Y-135710000D03*
D12*
%TO.P,D73,2,A*%
%TO.N,Net-(D73-A)*%
X260300000Y-128090000D03*
%TD*%
D10*
%TO.P,SW90,1,1*%
%TO.N,/COL9*%
X292178670Y-149739275D03*
%TO.P,SW90,2,2*%
%TO.N,Net-(D90-A)*%
X298528670Y-147199275D03*
%TD*%
D11*
%TO.P,D85,1,K*%
%TO.N,/ROW8*%
X193500000Y-154810000D03*
D12*
%TO.P,D85,2,A*%
%TO.N,Net-(D85-A)*%
X193500000Y-147190000D03*
%TD*%
D10*
%TO.P,SW71,1,1*%
%TO.N,/COL0*%
X208817290Y-130603301D03*
%TO.P,SW71,2,2*%
%TO.N,Net-(D71-A)*%
X215167290Y-128063301D03*
%TD*%
%TO.P,SW104,1,1*%
%TO.N,/COL3*%
X332629316Y-168763761D03*
%TO.P,SW104,2,2*%
%TO.N,Net-(D104-A)*%
X338979316Y-166223761D03*
%TD*%
D11*
%TO.P,D48,1,K*%
%TO.N,/ROW4*%
X179200000Y-116710000D03*
D12*
%TO.P,D48,2,A*%
%TO.N,Net-(D48-A)*%
X179200000Y-109090000D03*
%TD*%
D11*
%TO.P,D79,1,K*%
%TO.N,/ROW7*%
X67500000Y-154810000D03*
D12*
%TO.P,D79,2,A*%
%TO.N,Net-(D79-A)*%
X67500000Y-147190000D03*
%TD*%
D15*
%TO.P,SW109,6,6*%
%TO.N,unconnected-(SW109-Pad6)*%
X367900000Y-42700000D03*
%TO.P,SW109,7,7*%
%TO.N,unconnected-(SW109-Pad7)*%
X356900000Y-42700000D03*
D16*
%TO.P,SW109,A,A*%
%TO.N,/RotEncoder1A*%
X359860000Y-50200000D03*
%TO.P,SW109,B,B*%
%TO.N,/RotEncoder1B*%
X364940000Y-50200000D03*
%TO.P,SW109,C,C*%
%TO.N,GND*%
X362400000Y-50200000D03*
%TO.P,SW109,D,D*%
%TO.N,/RotEncoder1B1*%
X359860000Y-35700000D03*
%TO.P,SW109,E,E*%
%TO.N,/RotEncoder1B2*%
X364940000Y-35700000D03*
%TD*%
D11*
%TO.P,D29,1,K*%
%TO.N,/ROW2*%
X207984428Y-97619391D03*
D12*
%TO.P,D29,2,A*%
%TO.N,Net-(D29-A)*%
X207984428Y-89999391D03*
%TD*%
D11*
%TO.P,D46,1,K*%
%TO.N,/ROW4*%
X141200000Y-116610000D03*
D12*
%TO.P,D46,2,A*%
%TO.N,Net-(D46-A)*%
X141200000Y-108990000D03*
%TD*%
D11*
%TO.P,D75,1,K*%
%TO.N,/ROW7*%
X310200000Y-135810000D03*
D12*
%TO.P,D75,2,A*%
%TO.N,Net-(D75-A)*%
X310200000Y-128190000D03*
%TD*%
D11*
%TO.P,D30,1,K*%
%TO.N,/ROW2*%
X227000000Y-97620000D03*
D12*
%TO.P,D30,2,A*%
%TO.N,Net-(D30-A)*%
X227000000Y-90000000D03*
%TD*%
D10*
%TO.P,SW42,1,1*%
%TO.N,/COL1*%
X46836884Y-111584031D03*
%TO.P,SW42,2,2*%
%TO.N,Net-(D42-A)*%
X53186884Y-109044031D03*
%TD*%
%TO.P,SW80,1,1*%
%TO.N,/COL9*%
X84923426Y-149749712D03*
%TO.P,SW80,2,2*%
%TO.N,Net-(D80-A)*%
X91273426Y-147209712D03*
%TD*%
%TO.P,SW93,1,1*%
%TO.N,/COL2*%
X413730519Y-149707722D03*
%TO.P,SW93,2,2*%
%TO.N,Net-(D93-A)*%
X420080519Y-147167722D03*
%TD*%
%TO.P,SW2,1,1*%
%TO.N,/COL1*%
X80366232Y-63984027D03*
%TO.P,SW2,2,2*%
%TO.N,Net-(D2-A)*%
X86716232Y-61444027D03*
%TD*%
D11*
%TO.P,D90,1,K*%
%TO.N,/ROW8*%
X305800000Y-154810000D03*
D12*
%TO.P,D90,2,A*%
%TO.N,Net-(D90-A)*%
X305800000Y-147190000D03*
%TD*%
D10*
%TO.P,SW77,1,1*%
%TO.N,/COL6*%
X413732500Y-130660000D03*
%TO.P,SW77,2,2*%
%TO.N,Net-(D77-A)*%
X420082500Y-128120000D03*
%TD*%
D11*
%TO.P,D87,1,K*%
%TO.N,/ROW8*%
X231700000Y-154810000D03*
D12*
%TO.P,D87,2,A*%
%TO.N,Net-(D87-A)*%
X231700000Y-147190000D03*
%TD*%
D11*
%TO.P,D69,1,K*%
%TO.N,/ROW6*%
X184000000Y-135710000D03*
D12*
%TO.P,D69,2,A*%
%TO.N,Net-(D69-A)*%
X184000000Y-128090000D03*
%TD*%
D11*
%TO.P,D9,1,K*%
%TO.N,/ROW0*%
X236700000Y-69310000D03*
D12*
%TO.P,D9,2,A*%
%TO.N,Net-(D9-A)*%
X236700000Y-61690000D03*
%TD*%
D11*
%TO.P,D12,1,K*%
%TO.N,/ROW1*%
X303200000Y-69310000D03*
D12*
%TO.P,D12,2,A*%
%TO.N,Net-(D12-A)*%
X303200000Y-61690000D03*
%TD*%
D10*
%TO.P,SW3,1,1*%
%TO.N,/COL2*%
X99446082Y-63984027D03*
%TO.P,SW3,2,2*%
%TO.N,Net-(D3-A)*%
X105796082Y-61444027D03*
%TD*%
D11*
%TO.P,D4,1,K*%
%TO.N,/ROW0*%
X131900000Y-69310000D03*
D12*
%TO.P,D4,2,A*%
%TO.N,Net-(D4-A)*%
X131900000Y-61690000D03*
%TD*%
D10*
%TO.P,SW92,1,1*%
%TO.N,/COL1*%
X394676959Y-149683978D03*
%TO.P,SW92,2,2*%
%TO.N,Net-(D92-A)*%
X401026959Y-147143978D03*
%TD*%
%TO.P,SW95,1,1*%
%TO.N,/COL4*%
X451821832Y-159206246D03*
%TO.P,SW95,2,2*%
%TO.N,Net-(D95-A)*%
X458171832Y-156666246D03*
%TD*%
%TO.P,SW14,1,1*%
%TO.N,/COL3*%
X332829249Y-64017158D03*
%TO.P,SW14,2,2*%
%TO.N,Net-(D14-A)*%
X339179249Y-61477158D03*
%TD*%
D11*
%TO.P,D20,1,K*%
%TO.N,/ROW1*%
X465200000Y-69310000D03*
D12*
%TO.P,D20,2,A*%
%TO.N,Net-(D20-A)*%
X465200000Y-61690000D03*
%TD*%
D11*
%TO.P,D25,1,K*%
%TO.N,/ROW2*%
X131700000Y-97620000D03*
D12*
%TO.P,D25,2,A*%
%TO.N,Net-(D25-A)*%
X131700000Y-90000000D03*
%TD*%
D10*
%TO.P,SW83,1,1*%
%TO.N,/COL2*%
X142081076Y-149728228D03*
%TO.P,SW83,2,2*%
%TO.N,Net-(D83-A)*%
X148431076Y-147188228D03*
%TD*%
D11*
%TO.P,D108,1,K*%
%TO.N,/ROW10*%
X445600000Y-173910000D03*
D12*
%TO.P,D108,2,A*%
%TO.N,Net-(D108-A)*%
X445600000Y-166290000D03*
%TD*%
D11*
%TO.P,D84,1,K*%
%TO.N,/ROW8*%
X174500000Y-154810000D03*
D12*
%TO.P,D84,2,A*%
%TO.N,Net-(D84-A)*%
X174500000Y-147190000D03*
%TD*%
D10*
%TO.P,SW86,1,1*%
%TO.N,/COL5*%
X199269911Y-149710223D03*
%TO.P,SW86,2,2*%
%TO.N,Net-(D86-A)*%
X205619911Y-147170223D03*
%TD*%
D11*
%TO.P,D1,1,K*%
%TO.N,/ROW0*%
X55500000Y-69000000D03*
D12*
%TO.P,D1,2,A*%
%TO.N,Net-(D1-A)*%
X55500000Y-61380000D03*
%TD*%
D11*
%TO.P,D62,1,K*%
%TO.N,/ROW6*%
X465100000Y-126220000D03*
D12*
%TO.P,D62,2,A*%
%TO.N,Net-(D62-A)*%
X465100000Y-118600000D03*
%TD*%
D11*
%TO.P,D101,1,K*%
%TO.N,/ROW10*%
X272200000Y-173820000D03*
D12*
%TO.P,D101,2,A*%
%TO.N,Net-(D101-A)*%
X272200000Y-166200000D03*
%TD*%
D11*
%TO.P,D7,1,K*%
%TO.N,/ROW0*%
X198500000Y-69310000D03*
D12*
%TO.P,D7,2,A*%
%TO.N,Net-(D7-A)*%
X198500000Y-61690000D03*
%TD*%
D11*
%TO.P,D50,1,K*%
%TO.N,/ROW4*%
X217400000Y-116610000D03*
D12*
%TO.P,D50,2,A*%
%TO.N,Net-(D50-A)*%
X217400000Y-108990000D03*
%TD*%
D11*
%TO.P,D99,1,K*%
%TO.N,/ROW9*%
X177100000Y-173910000D03*
D12*
%TO.P,D99,2,A*%
%TO.N,Net-(D99-A)*%
X177100000Y-166290000D03*
%TD*%
D11*
%TO.P,D36,1,K*%
%TO.N,/ROW3*%
X365200000Y-97720000D03*
D12*
%TO.P,D36,2,A*%
%TO.N,Net-(D36-A)*%
X365200000Y-90100000D03*
%TD*%
D11*
%TO.P,D95,1,K*%
%TO.N,/ROW9*%
X465100000Y-164310000D03*
D12*
%TO.P,D95,2,A*%
%TO.N,Net-(D95-A)*%
X465100000Y-156690000D03*
%TD*%
D11*
%TO.P,D105,1,K*%
%TO.N,/ROW10*%
X365100000Y-173820000D03*
D12*
%TO.P,D105,2,A*%
%TO.N,Net-(D105-A)*%
X365100000Y-166200000D03*
%TD*%
D11*
%TO.P,D100,1,K*%
%TO.N,/ROW9*%
X248600000Y-173820000D03*
D12*
%TO.P,D100,2,A*%
%TO.N,Net-(D100-A)*%
X248600000Y-166200000D03*
%TD*%
D11*
%TO.P,D92,1,K*%
%TO.N,/ROW9*%
X408000000Y-154800000D03*
D12*
%TO.P,D92,2,A*%
%TO.N,Net-(D92-A)*%
X408000000Y-147180000D03*
%TD*%
D11*
%TO.P,D2,1,K*%
%TO.N,/ROW0*%
X93700000Y-69310000D03*
D12*
%TO.P,D2,2,A*%
%TO.N,Net-(D2-A)*%
X93700000Y-61690000D03*
%TD*%
D10*
%TO.P,SW10,1,1*%
%TO.N,/COL9*%
X251860582Y-64032622D03*
%TO.P,SW10,2,2*%
%TO.N,Net-(D10-A)*%
X258210582Y-61492622D03*
%TD*%
%TO.P,SW105,1,1*%
%TO.N,/COL4*%
X351656005Y-168763761D03*
%TO.P,SW105,2,2*%
%TO.N,Net-(D105-A)*%
X358006005Y-166223761D03*
%TD*%
%TO.P,SW100,1,1*%
%TO.N,/COL9*%
X235010000Y-168760000D03*
%TO.P,SW100,2,2*%
%TO.N,Net-(D100-A)*%
X241360000Y-166220000D03*
%TD*%
D11*
%TO.P,D31,1,K*%
%TO.N,/ROW3*%
X246100000Y-97620000D03*
D12*
%TO.P,D31,2,A*%
%TO.N,Net-(D31-A)*%
X246100000Y-90000000D03*
%TD*%
D10*
%TO.P,SW85,1,1*%
%TO.N,/COL4*%
X180200000Y-149700000D03*
%TO.P,SW85,2,2*%
%TO.N,Net-(D85-A)*%
X186550000Y-147160000D03*
%TD*%
%TO.P,SW30,1,1*%
%TO.N,/COL9*%
X213709015Y-92519507D03*
%TO.P,SW30,2,2*%
%TO.N,Net-(D30-A)*%
X220059015Y-89979507D03*
%TD*%
D11*
%TO.P,D66,1,K*%
%TO.N,/ROW6*%
X126800000Y-135710000D03*
D12*
%TO.P,D66,2,A*%
%TO.N,Net-(D66-A)*%
X126800000Y-128090000D03*
%TD*%
D10*
%TO.P,SW36,1,1*%
%TO.N,/COL5*%
X351842827Y-92533693D03*
%TO.P,SW36,2,2*%
%TO.N,Net-(D36-A)*%
X358192827Y-89993693D03*
%TD*%
%TO.P,SW108,1,1*%
%TO.N,/COL7*%
X432763438Y-168719077D03*
%TO.P,SW108,2,2*%
%TO.N,Net-(D108-A)*%
X439113438Y-166179077D03*
%TD*%
%TO.P,SW34,1,1*%
%TO.N,/COL3*%
X299461745Y-92527979D03*
%TO.P,SW34,2,2*%
%TO.N,Net-(D34-A)*%
X305811745Y-89987979D03*
%TD*%
%TO.P,SW7,1,1*%
%TO.N,/COL6*%
X185163182Y-64001772D03*
%TO.P,SW7,2,2*%
%TO.N,Net-(D7-A)*%
X191513182Y-61461772D03*
%TD*%
%TO.P,SW102,1,1*%
%TO.N,/COL1*%
X282632500Y-168760000D03*
%TO.P,SW102,2,2*%
%TO.N,Net-(D102-A)*%
X288982500Y-166220000D03*
%TD*%
D12*
%TO.P,C1,1,1*%
%TO.N,Net-(U1-VDD)*%
X395840000Y-49500000D03*
%TO.P,C1,2,2*%
%TO.N,+5V*%
X390760000Y-49500000D03*
%TD*%
D11*
%TO.P,D93,1,K*%
%TO.N,/ROW9*%
X427100000Y-154810000D03*
D12*
%TO.P,D93,2,A*%
%TO.N,Net-(D93-A)*%
X427100000Y-147190000D03*
%TD*%
D11*
%TO.P,D43,1,K*%
%TO.N,/ROW4*%
X84100000Y-116620000D03*
D12*
%TO.P,D43,2,A*%
%TO.N,Net-(D43-A)*%
X84100000Y-109000000D03*
%TD*%
D11*
%TO.P,D103,1,K*%
%TO.N,/ROW10*%
X319900000Y-173820000D03*
D12*
%TO.P,D103,2,A*%
%TO.N,Net-(D103-A)*%
X319900000Y-166200000D03*
%TD*%
D11*
%TO.P,U1,1,GPB0*%
%TO.N,/RotEncoder1B*%
X376140000Y-46820000D03*
D12*
%TO.P,U1,2,GPB1*%
%TO.N,/RotEncoder1A*%
X378680000Y-46820000D03*
%TO.P,U1,3,GPB2*%
%TO.N,/RotEncoder2B*%
X381220000Y-46820000D03*
%TO.P,U1,4,GPB3*%
%TO.N,/RotEncoder2A*%
X383760000Y-46820000D03*
%TO.P,U1,5,GPB4*%
%TO.N,unconnected-(U1-GPB4-Pad5)*%
X386300000Y-46820000D03*
%TO.P,U1,6,GPB5*%
%TO.N,unconnected-(U1-GPB5-Pad6)*%
X388840000Y-46820000D03*
%TO.P,U1,7,GPB6*%
%TO.N,unconnected-(U1-GPB6-Pad7)*%
X391380000Y-46820000D03*
%TO.P,U1,8,GPB7*%
%TO.N,unconnected-(U1-GPB7-Pad8)*%
X393920000Y-46820000D03*
%TO.P,U1,9,VDD*%
%TO.N,Net-(U1-VDD)*%
X396460000Y-46820000D03*
%TO.P,U1,10,VSS*%
%TO.N,Net-(U1-VSS)*%
X399000000Y-46820000D03*
%TO.P,U1,11,NC*%
%TO.N,unconnected-(U1-NC-Pad11)*%
X401540000Y-46820000D03*
%TO.P,U1,12,SCK*%
%TO.N,SCL*%
X404080000Y-46820000D03*
%TO.P,U1,13,SDA*%
%TO.N,SDA*%
X406620000Y-46820000D03*
%TO.P,U1,14,NC__1*%
%TO.N,unconnected-(U1-NC__1-Pad14)*%
X409160000Y-46820000D03*
%TO.P,U1,15,A0*%
%TO.N,GND*%
X409160000Y-39200000D03*
%TO.P,U1,16,A1*%
X406620000Y-39200000D03*
%TO.P,U1,17,A2*%
X404080000Y-39200000D03*
%TO.P,U1,18,~{RESET}*%
%TO.N,Net-(U1-~{RESET})*%
X401540000Y-39200000D03*
%TO.P,U1,19,INTB*%
%TO.N,unconnected-(U1-INTB-Pad19)*%
X399000000Y-39200000D03*
%TO.P,U1,20,INTA*%
%TO.N,unconnected-(U1-INTA-Pad20)*%
X396460000Y-39200000D03*
%TO.P,U1,21,GPA0*%
%TO.N,unconnected-(U1-GPA0-Pad21)*%
X393920000Y-39200000D03*
%TO.P,U1,22,GPA1*%
%TO.N,unconnected-(U1-GPA1-Pad22)*%
X391380000Y-39200000D03*
%TO.P,U1,23,GPA2*%
%TO.N,unconnected-(U1-GPA2-Pad23)*%
X388840000Y-39200000D03*
%TO.P,U1,24,GPA3*%
%TO.N,unconnected-(U1-GPA3-Pad24)*%
X386300000Y-39200000D03*
%TO.P,U1,25,GPA4*%
%TO.N,/RotEncoder2B1*%
X383760000Y-39200000D03*
%TO.P,U1,26,GPA5*%
%TO.N,/RotEncoder2B2*%
X381220000Y-39200000D03*
%TO.P,U1,27,GPA6*%
%TO.N,/RotEncoder1B1*%
X378680000Y-39200000D03*
%TO.P,U1,28,GPA7*%
%TO.N,/RotEncoder1B2*%
X376140000Y-39200000D03*
%TD*%
D11*
%TO.P,D104,1,K*%
%TO.N,/ROW10*%
X346000000Y-173820000D03*
D12*
%TO.P,D104,2,A*%
%TO.N,Net-(D104-A)*%
X346000000Y-166200000D03*
%TD*%
D10*
%TO.P,SW59,1,1*%
%TO.N,/COL8*%
X394700000Y-111600000D03*
%TO.P,SW59,2,2*%
%TO.N,Net-(D59-A)*%
X401050000Y-109060000D03*
%TD*%
D11*
%TO.P,D17,1,K*%
%TO.N,/ROW1*%
X408000000Y-69310000D03*
D12*
%TO.P,D17,2,A*%
%TO.N,Net-(D17-A)*%
X408000000Y-61690000D03*
%TD*%
D10*
%TO.P,SW63,1,1*%
%TO.N,/COL2*%
X49190000Y-130660000D03*
%TO.P,SW63,2,2*%
%TO.N,Net-(D63-A)*%
X55540000Y-128120000D03*
%TD*%
D15*
%TO.P,SW110,6,6*%
%TO.N,unconnected-(SW110-Pad6)*%
X351860000Y-43000000D03*
%TO.P,SW110,7,7*%
%TO.N,unconnected-(SW110-Pad7)*%
X340860000Y-43000000D03*
D16*
%TO.P,SW110,A,A*%
%TO.N,/RotEncoder2A*%
X343820000Y-50500000D03*
%TO.P,SW110,B,B*%
%TO.N,/RotEncoder2B*%
X348900000Y-50500000D03*
%TO.P,SW110,C,C*%
%TO.N,GND*%
X346360000Y-50500000D03*
%TO.P,SW110,D,D*%
%TO.N,/RotEncoder2B1*%
X343820000Y-36000000D03*
%TO.P,SW110,E,E*%
%TO.N,/RotEncoder2B2*%
X348900000Y-36000000D03*
%TD*%
D11*
%TO.P,D32,1,K*%
%TO.N,/ROW3*%
X265200000Y-97620000D03*
D12*
%TO.P,D32,2,A*%
%TO.N,Net-(D32-A)*%
X265200000Y-90000000D03*
%TD*%
D10*
%TO.P,SW75,1,1*%
%TO.N,/COL4*%
X296932500Y-130660000D03*
%TO.P,SW75,2,2*%
%TO.N,Net-(D75-A)*%
X303282500Y-128120000D03*
%TD*%
%TO.P,SW39,1,1*%
%TO.N,/COL8*%
X413739689Y-92533863D03*
%TO.P,SW39,2,2*%
%TO.N,Net-(D39-A)*%
X420089689Y-89993863D03*
%TD*%
%TO.P,SW48,1,1*%
%TO.N,/COL7*%
X165932500Y-111560000D03*
%TO.P,SW48,2,2*%
%TO.N,Net-(D48-A)*%
X172282500Y-109020000D03*
%TD*%
D11*
%TO.P,D65,1,K*%
%TO.N,/ROW6*%
X107800000Y-135710000D03*
D12*
%TO.P,D65,2,A*%
%TO.N,Net-(D65-A)*%
X107800000Y-128090000D03*
%TD*%
D11*
%TO.P,D54,1,K*%
%TO.N,/ROW5*%
X293600000Y-116610000D03*
D12*
%TO.P,D54,2,A*%
%TO.N,Net-(D54-A)*%
X293600000Y-108990000D03*
%TD*%
D11*
%TO.P,D14,1,K*%
%TO.N,/ROW1*%
X346100000Y-69310000D03*
D12*
%TO.P,D14,2,A*%
%TO.N,Net-(D14-A)*%
X346100000Y-61690000D03*
%TD*%
D10*
%TO.P,SW50,1,1*%
%TO.N,/COL9*%
X203932500Y-111560000D03*
%TO.P,SW50,2,2*%
%TO.N,Net-(D50-A)*%
X210282500Y-109020000D03*
%TD*%
D11*
%TO.P,D16,1,K*%
%TO.N,/ROW1*%
X384300000Y-69120000D03*
D12*
%TO.P,D16,2,A*%
%TO.N,Net-(D16-A)*%
X384300000Y-61500000D03*
%TD*%
D10*
%TO.P,SW9,1,1*%
%TO.N,/COL8*%
X223308013Y-64025221D03*
%TO.P,SW9,2,2*%
%TO.N,Net-(D9-A)*%
X229658013Y-61485221D03*
%TD*%
D11*
%TO.P,D34,1,K*%
%TO.N,/ROW3*%
X312600000Y-98110000D03*
D12*
%TO.P,D34,2,A*%
%TO.N,Net-(D34-A)*%
X312600000Y-90490000D03*
%TD*%
D10*
%TO.P,SW44,1,1*%
%TO.N,/COL3*%
X89790000Y-111560000D03*
%TO.P,SW44,2,2*%
%TO.N,Net-(D44-A)*%
X96140000Y-109020000D03*
%TD*%
D17*
%TO.P,A1,1,GPIO0*%
%TO.N,SDA*%
X467317500Y-34500000D03*
D12*
%TO.P,A1,2,GPIO1*%
%TO.N,SCL*%
X464777500Y-34500000D03*
D18*
%TO.P,A1,3,GND*%
%TO.N,GND*%
X462237500Y-34500000D03*
D12*
%TO.P,A1,4,GPIO2*%
%TO.N,/COL0*%
X459697500Y-34500000D03*
%TO.P,A1,5,GPIO3*%
%TO.N,/COL1*%
X457157500Y-34500000D03*
%TO.P,A1,6,GPIO4*%
%TO.N,/COL2*%
X454617500Y-34500000D03*
%TO.P,A1,7,GPIO5*%
%TO.N,/COL3*%
X452077500Y-34500000D03*
D18*
%TO.P,A1,8,GND*%
%TO.N,GND*%
X449537500Y-34500000D03*
D12*
%TO.P,A1,9,GPIO6*%
%TO.N,/COL4*%
X446997500Y-34500000D03*
%TO.P,A1,10,GPIO7*%
%TO.N,/COL5*%
X444457500Y-34500000D03*
%TO.P,A1,11,GPIO8*%
%TO.N,/COL6*%
X441917500Y-34500000D03*
%TO.P,A1,12,GPIO9*%
%TO.N,/COL7*%
X439377500Y-34500000D03*
D18*
%TO.P,A1,13,GND*%
%TO.N,GND*%
X436837500Y-34500000D03*
D12*
%TO.P,A1,14,GPIO10*%
%TO.N,/COL8*%
X434297500Y-34500000D03*
%TO.P,A1,15,GPIO11*%
%TO.N,/COL9*%
X431757500Y-34500000D03*
%TO.P,A1,16,GPIO12*%
%TO.N,/ROW0*%
X429217500Y-34500000D03*
%TO.P,A1,17,GPIO13*%
%TO.N,/ROW1*%
X426677500Y-34500000D03*
D18*
%TO.P,A1,18,GND*%
%TO.N,GND*%
X424137500Y-34500000D03*
D12*
%TO.P,A1,19,GPIO14*%
%TO.N,/ROW2*%
X421597500Y-34500000D03*
%TO.P,A1,20,GPIO15*%
%TO.N,/ROW3*%
X419057500Y-34500000D03*
%TO.P,A1,21,GPIO16*%
%TO.N,/ROW4*%
X419057500Y-52280000D03*
%TO.P,A1,22,GPIO17*%
%TO.N,/ROW5*%
X421597500Y-52280000D03*
D19*
%TO.P,A1,23,GND*%
%TO.N,GND*%
X424137500Y-52280000D03*
D12*
%TO.P,A1,24,GPIO18*%
%TO.N,/ROW6*%
X426677500Y-52280000D03*
%TO.P,A1,25,GPIO19*%
%TO.N,/ROW7*%
X429217500Y-52280000D03*
%TO.P,A1,26,GPIO20*%
%TO.N,/ROW8*%
X431757500Y-52280000D03*
%TO.P,A1,27,GPIO21*%
%TO.N,/ROW9*%
X434297500Y-52280000D03*
D19*
%TO.P,A1,28,GND*%
%TO.N,GND*%
X436837500Y-52280000D03*
D12*
%TO.P,A1,29,GPIO22*%
%TO.N,/ROW10*%
X439377500Y-52280000D03*
%TO.P,A1,30,RUN*%
%TO.N,unconnected-(A1-RUN-Pad30)*%
X441917500Y-52280000D03*
%TO.P,A1,31,GPIO26_ADC0*%
%TO.N,unconnected-(A1-GPIO26_ADC0-Pad31)*%
X444457500Y-52280000D03*
%TO.P,A1,32,GPIO27_ADC1*%
%TO.N,unconnected-(A1-GPIO27_ADC1-Pad32)*%
X446997500Y-52280000D03*
D19*
%TO.P,A1,33,AGND*%
%TO.N,unconnected-(A1-AGND-Pad33)*%
X449537500Y-52280000D03*
D12*
%TO.P,A1,34,GPIO28_ADC2*%
%TO.N,unconnected-(A1-GPIO28_ADC2-Pad34)*%
X452077500Y-52280000D03*
%TO.P,A1,35,ADC_VREF*%
%TO.N,unconnected-(A1-ADC_VREF-Pad35)*%
X454617500Y-52280000D03*
%TO.P,A1,36,3V3*%
%TO.N,+3.3V*%
X457157500Y-52280000D03*
%TO.P,A1,37,3V3_EN*%
%TO.N,unconnected-(A1-3V3_EN-Pad37)*%
X459697500Y-52280000D03*
D19*
%TO.P,A1,38,GND*%
%TO.N,GND*%
X462237500Y-52280000D03*
D12*
%TO.P,A1,39,VSYS*%
%TO.N,unconnected-(A1-VSYS-Pad39)*%
X464777500Y-52280000D03*
%TO.P,A1,40,VBUS*%
%TO.N,+5V*%
X467317500Y-52280000D03*
%TD*%
D10*
%TO.P,SW79,1,1*%
%TO.N,/COL8*%
X53961964Y-149738970D03*
%TO.P,SW79,2,2*%
%TO.N,Net-(D79-A)*%
X60311964Y-147198970D03*
%TD*%
D11*
%TO.P,D23,1,K*%
%TO.N,/ROW2*%
X93700000Y-97620000D03*
D12*
%TO.P,D23,2,A*%
%TO.N,Net-(D23-A)*%
X93700000Y-90000000D03*
%TD*%
D11*
%TO.P,D3,1,K*%
%TO.N,/ROW0*%
X112800000Y-69000000D03*
D12*
%TO.P,D3,2,A*%
%TO.N,Net-(D3-A)*%
X112800000Y-61380000D03*
%TD*%
D11*
%TO.P,D77,1,K*%
%TO.N,/ROW7*%
X427100000Y-135810000D03*
D12*
%TO.P,D77,2,A*%
%TO.N,Net-(D77-A)*%
X427100000Y-128190000D03*
%TD*%
D10*
%TO.P,SW56,1,1*%
%TO.N,/COL5*%
X332796374Y-111637603D03*
%TO.P,SW56,2,2*%
%TO.N,Net-(D56-A)*%
X339146374Y-109097603D03*
%TD*%
%TO.P,SW38,1,1*%
%TO.N,/COL7*%
X394684630Y-92522451D03*
%TO.P,SW38,2,2*%
%TO.N,Net-(D38-A)*%
X401034630Y-89982451D03*
%TD*%
%TO.P,SW74,1,1*%
%TO.N,/COL3*%
X265990000Y-130660000D03*
%TO.P,SW74,2,2*%
%TO.N,Net-(D74-A)*%
X272340000Y-128120000D03*
%TD*%
D20*
%TO.P,R3,1,1*%
%TO.N,Net-(U1-~{RESET})*%
X401700000Y-36825000D03*
%TO.P,R3,2,2*%
%TO.N,+3.3V*%
X401700000Y-34925000D03*
%TD*%
D11*
%TO.P,D102,1,K*%
%TO.N,/ROW10*%
X295600000Y-173810000D03*
D12*
%TO.P,D102,2,A*%
%TO.N,Net-(D102-A)*%
X295600000Y-166190000D03*
%TD*%
D10*
%TO.P,SW35,1,1*%
%TO.N,/COL4*%
X332795641Y-92529136D03*
%TO.P,SW35,2,2*%
%TO.N,Net-(D35-A)*%
X339145641Y-89989136D03*
%TD*%
%TO.P,SW72,1,1*%
%TO.N,/COL1*%
X227890000Y-130660000D03*
%TO.P,SW72,2,2*%
%TO.N,Net-(D72-A)*%
X234240000Y-128120000D03*
%TD*%
D11*
%TO.P,D71,1,K*%
%TO.N,/ROW7*%
X222100000Y-135700000D03*
D12*
%TO.P,D71,2,A*%
%TO.N,Net-(D71-A)*%
X222100000Y-128080000D03*
%TD*%
D10*
%TO.P,SW22,1,1*%
%TO.N,/COL1*%
X61173415Y-92509899D03*
%TO.P,SW22,2,2*%
%TO.N,Net-(D22-A)*%
X67523415Y-89969899D03*
%TD*%
%TO.P,SW6,1,1*%
%TO.N,/COL5*%
X166098687Y-63994126D03*
%TO.P,SW6,2,2*%
%TO.N,Net-(D6-A)*%
X172448687Y-61454126D03*
%TD*%
D11*
%TO.P,D27,1,K*%
%TO.N,/ROW2*%
X169900000Y-97620000D03*
D12*
%TO.P,D27,2,A*%
%TO.N,Net-(D27-A)*%
X169900000Y-90000000D03*
%TD*%
%TO.P,C2,1,1*%
%TO.N,Net-(U1-VSS)*%
X397760000Y-49500000D03*
%TO.P,C2,2,2*%
%TO.N,GND*%
X402840000Y-49500000D03*
%TD*%
D10*
%TO.P,SW21,1,1*%
%TO.N,/COL0*%
X42106758Y-92509899D03*
%TO.P,SW21,2,2*%
%TO.N,Net-(D21-A)*%
X48456758Y-89969899D03*
%TD*%
%TO.P,SW103,1,1*%
%TO.N,/COL2*%
X306490000Y-168760000D03*
%TO.P,SW103,2,2*%
%TO.N,Net-(D103-A)*%
X312840000Y-166220000D03*
%TD*%
%TO.P,SW58,1,1*%
%TO.N,/COL7*%
X370909465Y-111606026D03*
%TO.P,SW58,2,2*%
%TO.N,Net-(D58-A)*%
X377259465Y-109066026D03*
%TD*%
D11*
%TO.P,D35,1,K*%
%TO.N,/ROW3*%
X346200000Y-97720000D03*
D12*
%TO.P,D35,2,A*%
%TO.N,Net-(D35-A)*%
X346200000Y-90100000D03*
%TD*%
D11*
%TO.P,D6,1,K*%
%TO.N,/ROW0*%
X179400000Y-69310000D03*
D12*
%TO.P,D6,2,A*%
%TO.N,Net-(D6-A)*%
X179400000Y-61690000D03*
%TD*%
D11*
%TO.P,D24,1,K*%
%TO.N,/ROW2*%
X112600000Y-97620000D03*
D12*
%TO.P,D24,2,A*%
%TO.N,Net-(D24-A)*%
X112600000Y-90000000D03*
%TD*%
D10*
%TO.P,SW69,1,1*%
%TO.N,/COL8*%
X170640509Y-130622456D03*
%TO.P,SW69,2,2*%
%TO.N,Net-(D69-A)*%
X176990509Y-128082456D03*
%TD*%
%TO.P,SW5,1,1*%
%TO.N,/COL4*%
X137553733Y-63983628D03*
%TO.P,SW5,2,2*%
%TO.N,Net-(D5-A)*%
X143903733Y-61443628D03*
%TD*%
%TO.P,SW87,1,1*%
%TO.N,/COL6*%
X218309430Y-149710223D03*
%TO.P,SW87,2,2*%
%TO.N,Net-(D87-A)*%
X224659430Y-147170223D03*
%TD*%
%TO.P,SW55,1,1*%
%TO.N,/COL4*%
X304132500Y-111560000D03*
%TO.P,SW55,2,2*%
%TO.N,Net-(D55-A)*%
X310482500Y-109020000D03*
%TD*%
D11*
%TO.P,D45,1,K*%
%TO.N,/ROW4*%
X122300000Y-116620000D03*
D12*
%TO.P,D45,2,A*%
%TO.N,Net-(D45-A)*%
X122300000Y-109000000D03*
%TD*%
D10*
%TO.P,SW23,1,1*%
%TO.N,/COL2*%
X80243967Y-92509899D03*
%TO.P,SW23,2,2*%
%TO.N,Net-(D23-A)*%
X86593967Y-89969899D03*
%TD*%
%TO.P,SW17,1,1*%
%TO.N,/COL6*%
X394749361Y-64006744D03*
%TO.P,SW17,2,2*%
%TO.N,Net-(D17-A)*%
X401099361Y-61466744D03*
%TD*%
%TO.P,SW60,1,1*%
%TO.N,/COL9*%
X413732500Y-111560000D03*
%TO.P,SW60,2,2*%
%TO.N,Net-(D60-A)*%
X420082500Y-109020000D03*
%TD*%
%TO.P,SW41,1,1*%
%TO.N,/COL0*%
X451822642Y-92535064D03*
%TO.P,SW41,2,2*%
%TO.N,Net-(D41-A)*%
X458172642Y-89995064D03*
%TD*%
D11*
%TO.P,D18,1,K*%
%TO.N,/ROW1*%
X427100000Y-69310000D03*
D12*
%TO.P,D18,2,A*%
%TO.N,Net-(D18-A)*%
X427100000Y-61690000D03*
%TD*%
D11*
%TO.P,D61,1,K*%
%TO.N,/ROW6*%
X445500000Y-117510000D03*
D12*
%TO.P,D61,2,A*%
%TO.N,Net-(D61-A)*%
X445500000Y-109890000D03*
%TD*%
D11*
%TO.P,D64,1,K*%
%TO.N,/ROW6*%
X88700000Y-135710000D03*
D12*
%TO.P,D64,2,A*%
%TO.N,Net-(D64-A)*%
X88700000Y-128090000D03*
%TD*%
D10*
%TO.P,SW43,1,1*%
%TO.N,/COL2*%
X70690000Y-111560000D03*
%TO.P,SW43,2,2*%
%TO.N,Net-(D43-A)*%
X77040000Y-109020000D03*
%TD*%
D11*
%TO.P,D81,1,K*%
%TO.N,/ROW8*%
X117300000Y-154810000D03*
D12*
%TO.P,D81,2,A*%
%TO.N,Net-(D81-A)*%
X117300000Y-147190000D03*
%TD*%
D10*
%TO.P,SW53,1,1*%
%TO.N,/COL2*%
X261132500Y-111560000D03*
%TO.P,SW53,2,2*%
%TO.N,Net-(D53-A)*%
X267482500Y-109020000D03*
%TD*%
%TO.P,SW33,1,1*%
%TO.N,/COL2*%
X270892197Y-92530082D03*
%TO.P,SW33,2,2*%
%TO.N,Net-(D33-A)*%
X277242197Y-89990082D03*
%TD*%
D11*
%TO.P,D68,1,K*%
%TO.N,/ROW6*%
X164900000Y-135710000D03*
D12*
%TO.P,D68,2,A*%
%TO.N,Net-(D68-A)*%
X164900000Y-128090000D03*
%TD*%
D10*
%TO.P,SW88,1,1*%
%TO.N,/COL7*%
X237400000Y-149700000D03*
%TO.P,SW88,2,2*%
%TO.N,Net-(D88-A)*%
X243750000Y-147160000D03*
%TD*%
D11*
%TO.P,D63,1,K*%
%TO.N,/ROW6*%
X62500000Y-135710000D03*
D12*
%TO.P,D63,2,A*%
%TO.N,Net-(D63-A)*%
X62500000Y-128090000D03*
%TD*%
D10*
%TO.P,SW26,1,1*%
%TO.N,/COL5*%
X137440045Y-92509899D03*
%TO.P,SW26,2,2*%
%TO.N,Net-(D26-A)*%
X143790045Y-89969899D03*
%TD*%
D11*
%TO.P,D47,1,K*%
%TO.N,/ROW4*%
X160300000Y-116610000D03*
D12*
%TO.P,D47,2,A*%
%TO.N,Net-(D47-A)*%
X160300000Y-108990000D03*
%TD*%
D10*
%TO.P,SW40,1,1*%
%TO.N,/COL9*%
X432780280Y-92535861D03*
%TO.P,SW40,2,2*%
%TO.N,Net-(D40-A)*%
X439130280Y-89995861D03*
%TD*%
%TO.P,SW82,1,1*%
%TO.N,/COL1*%
X123016598Y-149719363D03*
%TO.P,SW82,2,2*%
%TO.N,Net-(D82-A)*%
X129366598Y-147179363D03*
%TD*%
%TO.P,SW51,1,1*%
%TO.N,/COL0*%
X223032500Y-111560000D03*
%TO.P,SW51,2,2*%
%TO.N,Net-(D51-A)*%
X229382500Y-109020000D03*
%TD*%
D11*
%TO.P,D89,1,K*%
%TO.N,/ROW8*%
X269900000Y-154810000D03*
D12*
%TO.P,D89,2,A*%
%TO.N,Net-(D89-A)*%
X269900000Y-147190000D03*
%TD*%
D11*
%TO.P,D21,1,K*%
%TO.N,/ROW2*%
X55500000Y-97720000D03*
D12*
%TO.P,D21,2,A*%
%TO.N,Net-(D21-A)*%
X55500000Y-90100000D03*
%TD*%
D10*
%TO.P,SW45,1,1*%
%TO.N,/COL4*%
X108832500Y-111560000D03*
%TO.P,SW45,2,2*%
%TO.N,Net-(D45-A)*%
X115182500Y-109020000D03*
%TD*%
D11*
%TO.P,D53,1,K*%
%TO.N,/ROW5*%
X274500000Y-116700000D03*
D12*
%TO.P,D53,2,A*%
%TO.N,Net-(D53-A)*%
X274500000Y-109080000D03*
%TD*%
D10*
%TO.P,SW46,1,1*%
%TO.N,/COL5*%
X127832500Y-111560000D03*
%TO.P,SW46,2,2*%
%TO.N,Net-(D46-A)*%
X134182500Y-109020000D03*
%TD*%
%TO.P,SW67,1,1*%
%TO.N,/COL6*%
X132490000Y-130660000D03*
%TO.P,SW67,2,2*%
%TO.N,Net-(D67-A)*%
X138840000Y-128120000D03*
%TD*%
%TO.P,SW99,1,1*%
%TO.N,/COL8*%
X163532500Y-168860000D03*
%TO.P,SW99,2,2*%
%TO.N,Net-(D99-A)*%
X169882500Y-166320000D03*
%TD*%
D11*
%TO.P,D78,1,K*%
%TO.N,/ROW7*%
X445900000Y-135800000D03*
D12*
%TO.P,D78,2,A*%
%TO.N,Net-(D78-A)*%
X445900000Y-128180000D03*
%TD*%
D11*
%TO.P,D59,1,K*%
%TO.N,/ROW5*%
X408100000Y-116710000D03*
D12*
%TO.P,D59,2,A*%
%TO.N,Net-(D59-A)*%
X408100000Y-109090000D03*
%TD*%
D10*
%TO.P,SW32,1,1*%
%TO.N,/COL1*%
X251837055Y-92519152D03*
%TO.P,SW32,2,2*%
%TO.N,Net-(D32-A)*%
X258187055Y-89979152D03*
%TD*%
D11*
%TO.P,D49,1,K*%
%TO.N,/ROW4*%
X198200000Y-116610000D03*
D12*
%TO.P,D49,2,A*%
%TO.N,Net-(D49-A)*%
X198200000Y-108990000D03*
%TD*%
D11*
%TO.P,D76,1,K*%
%TO.N,/ROW7*%
X408000000Y-135720000D03*
D12*
%TO.P,D76,2,A*%
%TO.N,Net-(D76-A)*%
X408000000Y-128100000D03*
%TD*%
D11*
%TO.P,D57,1,K*%
%TO.N,/ROW5*%
X365200000Y-116710000D03*
D12*
%TO.P,D57,2,A*%
%TO.N,Net-(D57-A)*%
X365200000Y-109090000D03*
%TD*%
D10*
%TO.P,SW13,1,1*%
%TO.N,/COL2*%
X309048874Y-64021771D03*
%TO.P,SW13,2,2*%
%TO.N,Net-(D13-A)*%
X315398874Y-61481771D03*
%TD*%
D11*
%TO.P,D10,1,K*%
%TO.N,/ROW0*%
X265100000Y-69310000D03*
D12*
%TO.P,D10,2,A*%
%TO.N,Net-(D10-A)*%
X265100000Y-61690000D03*
%TD*%
D10*
%TO.P,SW15,1,1*%
%TO.N,/COL4*%
X351903592Y-64015156D03*
%TO.P,SW15,2,2*%
%TO.N,Net-(D15-A)*%
X358253592Y-61475156D03*
%TD*%
%TO.P,SW61,1,1*%
%TO.N,/COL0*%
X432776395Y-111579686D03*
%TO.P,SW61,2,2*%
%TO.N,Net-(D61-A)*%
X439126395Y-109039686D03*
%TD*%
%TO.P,SW84,1,1*%
%TO.N,/COL3*%
X161110000Y-149760000D03*
%TO.P,SW84,2,2*%
%TO.N,Net-(D84-A)*%
X167460000Y-147220000D03*
%TD*%
%TO.P,SW91,1,1*%
%TO.N,/COL0*%
X351610000Y-149707386D03*
%TO.P,SW91,2,2*%
%TO.N,Net-(D91-A)*%
X357960000Y-147167386D03*
%TD*%
%TO.P,SW81,1,1*%
%TO.N,/COL0*%
X103961487Y-149730105D03*
%TO.P,SW81,2,2*%
%TO.N,Net-(D81-A)*%
X110311487Y-147190105D03*
%TD*%
D11*
%TO.P,D80,1,K*%
%TO.N,/ROW7*%
X98300000Y-154810000D03*
D12*
%TO.P,D80,2,A*%
%TO.N,Net-(D80-A)*%
X98300000Y-147190000D03*
%TD*%
D11*
%TO.P,D60,1,K*%
%TO.N,/ROW5*%
X427100000Y-116610000D03*
D12*
%TO.P,D60,2,A*%
%TO.N,Net-(D60-A)*%
X427100000Y-108990000D03*
%TD*%
D10*
%TO.P,SW16,1,1*%
%TO.N,/COL5*%
X370959413Y-64015156D03*
%TO.P,SW16,2,2*%
%TO.N,Net-(D16-A)*%
X377309413Y-61475156D03*
%TD*%
%TO.P,SW68,1,1*%
%TO.N,/COL7*%
X151550913Y-130596827D03*
%TO.P,SW68,2,2*%
%TO.N,Net-(D68-A)*%
X157900913Y-128056827D03*
%TD*%
%TO.P,SW94,1,1*%
%TO.N,/COL3*%
X432760198Y-149710905D03*
%TO.P,SW94,2,2*%
%TO.N,Net-(D94-A)*%
X439110198Y-147170905D03*
%TD*%
%TO.P,SW4,1,1*%
%TO.N,/COL3*%
X118502082Y-63975570D03*
%TO.P,SW4,2,2*%
%TO.N,Net-(D4-A)*%
X124852082Y-61435570D03*
%TD*%
%TO.P,SW24,1,1*%
%TO.N,/COL3*%
X99306730Y-92509899D03*
%TO.P,SW24,2,2*%
%TO.N,Net-(D24-A)*%
X105656730Y-89969899D03*
%TD*%
%TO.P,SW65,1,1*%
%TO.N,/COL4*%
X94390000Y-130660000D03*
%TO.P,SW65,2,2*%
%TO.N,Net-(D65-A)*%
X100740000Y-128120000D03*
%TD*%
D11*
%TO.P,D94,1,K*%
%TO.N,/ROW9*%
X445400000Y-155410000D03*
D12*
%TO.P,D94,2,A*%
%TO.N,Net-(D94-A)*%
X445400000Y-147790000D03*
%TD*%
D11*
%TO.P,D52,1,K*%
%TO.N,/ROW5*%
X255400000Y-116610000D03*
D12*
%TO.P,D52,2,A*%
%TO.N,Net-(D52-A)*%
X255400000Y-108990000D03*
%TD*%
D21*
%TO.N,/ROW9*%
X253500000Y-161000000D03*
X467000000Y-56000000D03*
X434250000Y-56000000D03*
X336750000Y-155000000D03*
X337000000Y-160000000D03*
X253250000Y-173750000D03*
%TO.N,/ROW10*%
X467500000Y-175000000D03*
X439250000Y-56600000D03*
X468100000Y-56750000D03*
%TO.N,GND*%
X402500000Y-52500000D03*
X388500000Y-71500000D03*
X389000000Y-52500000D03*
X387500000Y-129000000D03*
X388000000Y-78000000D03*
%TO.N,/ROW2*%
X242500000Y-26750000D03*
X242250000Y-65500000D03*
X421250000Y-27500000D03*
X242250000Y-68250000D03*
%TO.N,/ROW8*%
X429250000Y-66000000D03*
X328250000Y-94750000D03*
X431250000Y-76000000D03*
X432000000Y-56250000D03*
X328549265Y-96799265D03*
X430000000Y-67500000D03*
X324750000Y-155000000D03*
X430962511Y-74462511D03*
X328250000Y-80250000D03*
X428750000Y-56250000D03*
X431000000Y-79000000D03*
%TO.N,/COL2*%
X98500000Y-143000000D03*
X95500000Y-143000000D03*
X454500000Y-22600000D03*
X306750000Y-183250000D03*
X100000000Y-23000000D03*
X247000000Y-138000000D03*
X49000000Y-142500000D03*
X141500000Y-142500000D03*
X304750000Y-157250000D03*
X253000000Y-138000000D03*
X253000000Y-157250000D03*
X309000000Y-22600000D03*
X414000000Y-183250000D03*
%TO.N,/ROW7*%
X443500000Y-55250000D03*
X447000000Y-77250000D03*
X429500000Y-55500000D03*
X447750000Y-81250000D03*
%TO.N,/COL8*%
X255500000Y-181800000D03*
X223250000Y-25600000D03*
X434250000Y-25750000D03*
X433500000Y-57750000D03*
X163532500Y-181782500D03*
%TO.N,/COL0*%
X459690000Y-21560000D03*
X270890000Y-21560000D03*
X351500000Y-142000000D03*
X429000000Y-141500000D03*
X429000000Y-111500000D03*
X64000000Y-114000000D03*
X209500000Y-141500000D03*
X42100000Y-21560000D03*
X58500000Y-103500000D03*
X51500000Y-103500000D03*
X64500000Y-116500000D03*
X258500000Y-141500000D03*
X452000000Y-100500000D03*
X70500000Y-141500000D03*
X433500000Y-101000000D03*
X456000000Y-84250000D03*
%TO.N,+3.3V*%
X458000000Y-29000000D03*
X388500000Y-76000000D03*
X388500000Y-73000000D03*
X386500000Y-131500000D03*
X401820000Y-33190000D03*
%TO.N,/ROW3*%
X422250000Y-83000000D03*
X423250000Y-84000000D03*
%TO.N,/COL1*%
X454500000Y-82000000D03*
X79250000Y-22250000D03*
X290000000Y-22160000D03*
X228750000Y-159500000D03*
X67000000Y-157000000D03*
X43500000Y-156000000D03*
X451750000Y-138750000D03*
X394500000Y-138750000D03*
X457000000Y-22160000D03*
X122500000Y-156500000D03*
X454250000Y-85250000D03*
X280500000Y-160250000D03*
X64000000Y-157000000D03*
%TO.N,/COL9*%
X275250000Y-175750000D03*
X451000000Y-36750000D03*
X85250000Y-138250000D03*
X274250000Y-151500000D03*
X431500000Y-26250000D03*
X251750000Y-26100000D03*
X187500000Y-130750000D03*
X432500000Y-37000000D03*
X188500000Y-169000000D03*
X85000000Y-144000000D03*
X235000000Y-176250000D03*
X187000000Y-138500000D03*
%TO.N,/ROW0*%
X268500000Y-26600000D03*
X429250000Y-26600000D03*
%TO.N,/COL3*%
X452000000Y-23100000D03*
X427000000Y-185250000D03*
X332750000Y-140250000D03*
X266500000Y-138250000D03*
X332750000Y-185250000D03*
X118500000Y-24500000D03*
X333000000Y-23100000D03*
X161000000Y-139500000D03*
X75500000Y-138500000D03*
%TO.N,/COL6*%
X442000000Y-24750000D03*
X412750000Y-125250000D03*
X351750000Y-124250000D03*
X392750000Y-43750000D03*
X392750000Y-42400000D03*
X185250000Y-24600000D03*
X68500000Y-176000000D03*
X392750000Y-24600000D03*
X219000000Y-176000000D03*
%TO.N,/COL7*%
X204250000Y-25100000D03*
X159510515Y-163989485D03*
X157911985Y-164088015D03*
X371250000Y-124000000D03*
X393750000Y-110000000D03*
X413750000Y-25100000D03*
X237000000Y-165500000D03*
X432500000Y-124000000D03*
X439500000Y-25250000D03*
%TO.N,/ROW4*%
X219750000Y-116750000D03*
X446500000Y-80000000D03*
X445500000Y-78750000D03*
X431500000Y-57750000D03*
X219750000Y-103250000D03*
X419250000Y-57750000D03*
%TO.N,/COL5*%
X332750000Y-124250000D03*
X45000000Y-177000000D03*
X394250000Y-126750000D03*
X199500000Y-179000000D03*
X371000000Y-24100000D03*
X166000000Y-24100000D03*
X444398000Y-24102000D03*
%TO.N,/ROW5*%
X429000000Y-95500000D03*
X428974923Y-93724923D03*
X428462511Y-76962511D03*
X428750000Y-78500000D03*
%TO.N,/ROW6*%
X205000000Y-122250000D03*
X432250000Y-60000000D03*
X442500000Y-84250000D03*
X442483806Y-81983806D03*
X427250000Y-59250000D03*
%TO.N,SDA*%
X408000000Y-31000000D03*
X406500000Y-56500000D03*
X391000000Y-71500000D03*
X391000000Y-73500000D03*
X467500000Y-31000000D03*
X391100000Y-56500000D03*
X391000000Y-135000000D03*
%TO.N,SCL*%
X390000000Y-74500000D03*
X405500000Y-30500000D03*
X390500000Y-55500000D03*
X388500000Y-133000000D03*
X390000000Y-72000000D03*
X404000000Y-55500000D03*
X465000000Y-30000000D03*
%TO.N,+5V*%
X391000000Y-54500000D03*
X467000000Y-54500000D03*
%TO.N,/COL4*%
X309250000Y-156750000D03*
X137500000Y-25100000D03*
X180000000Y-137500000D03*
X309000000Y-140000000D03*
X94500000Y-137500000D03*
X297000000Y-139000000D03*
X354250000Y-23600000D03*
X447000000Y-23600000D03*
X351750000Y-157500000D03*
%TD*%
D22*
%TO.N,/ROW9*%
X450369059Y-155410000D02*
X445824264Y-155410000D01*
X253250000Y-173750000D02*
X253215000Y-173785000D01*
X332098896Y-162871000D02*
X256693996Y-162871000D01*
X444375735Y-154810000D02*
X365100000Y-154810000D01*
X335564500Y-161435500D02*
X337000000Y-160000000D01*
X365100000Y-154810000D02*
X337074350Y-154810000D01*
X239855649Y-174010000D02*
X57900000Y-174010000D01*
X240314350Y-173820000D02*
X248600000Y-173820000D01*
X253500000Y-161000000D02*
X254435500Y-161935500D01*
X336845000Y-154905000D02*
X336750000Y-155000000D01*
X454216815Y-157003792D02*
X460258370Y-163045347D01*
X253130502Y-173820000D02*
X248600000Y-173820000D01*
X434250000Y-56000000D02*
X467000000Y-56000000D01*
X463311511Y-164310000D02*
X465100000Y-164310000D01*
X463311511Y-164310000D02*
G75*
G02*
X460258363Y-163045354I-11J4317800D01*
G01*
X454216815Y-157003792D02*
G75*
G03*
X450369059Y-155410044I-3847715J-3847808D01*
G01*
X254435500Y-161935500D02*
G75*
G03*
X256693996Y-162871001I2258500J2258500D01*
G01*
X445100000Y-155110000D02*
G75*
G03*
X445824264Y-155410015I724300J724300D01*
G01*
X253130502Y-173820000D02*
G75*
G03*
X253214999Y-173784999I-2J119500D01*
G01*
X444375735Y-154810000D02*
G75*
G02*
X445099989Y-155110011I-35J-1024300D01*
G01*
X240314350Y-173820000D02*
G75*
G03*
X240084985Y-173914985I-50J-324300D01*
G01*
X332098896Y-162871000D02*
G75*
G03*
X335564501Y-161435501I4J4901100D01*
G01*
X336845000Y-154905000D02*
G75*
G02*
X337074350Y-154810021I229300J-229300D01*
G01*
X240085000Y-173915000D02*
G75*
G02*
X239855649Y-174010021I-229400J229400D01*
G01*
%TO.N,/ROW10*%
X439250000Y-56600000D02*
X439325000Y-56675000D01*
X446610500Y-174920500D02*
X445690000Y-174000000D01*
X439506066Y-56750000D02*
X468100000Y-56750000D01*
X449050062Y-175931000D02*
X465910683Y-175931000D01*
X445446360Y-173820000D02*
X272200000Y-173820000D01*
X467034500Y-175465500D02*
X467500000Y-175000000D01*
X445600000Y-173910000D02*
X445690000Y-174000000D01*
X445600000Y-173910000D02*
X445555000Y-173865000D01*
X446610500Y-174920500D02*
G75*
G03*
X449050062Y-175931015I2439600J2439600D01*
G01*
X467034500Y-175465500D02*
G75*
G02*
X465910683Y-175930993I-1123800J1123800D01*
G01*
X445555000Y-173865000D02*
G75*
G03*
X445446360Y-173820016I-108600J-108600D01*
G01*
X439325000Y-56675000D02*
G75*
G03*
X439506066Y-56750014I181100J181100D01*
G01*
%TO.N,GND*%
X423387500Y-35250000D02*
X424137500Y-34500000D01*
X347110000Y-49750000D02*
X346360000Y-50500000D01*
X402500000Y-52500000D02*
X389000000Y-52500000D01*
X410766207Y-37593792D02*
X409160000Y-39200000D01*
X369134963Y-45719000D02*
X395307036Y-45719000D01*
X348920660Y-49000000D02*
X360351471Y-49000000D01*
X403385500Y-50045500D02*
X402840000Y-49500000D01*
X404080000Y-39200000D02*
X399154792Y-44125207D01*
X387465857Y-128980000D02*
X370100000Y-128980000D01*
X404702453Y-50591000D02*
X421254196Y-50591000D01*
X421576839Y-36000000D02*
X414613963Y-36000000D01*
X387899000Y-77827582D02*
X387899000Y-72525971D01*
X387949500Y-77949500D02*
X388000000Y-78000000D01*
X409160000Y-39200000D02*
X404080000Y-39200000D01*
X388500000Y-71500000D02*
X388199500Y-71800500D01*
X423293000Y-51435500D02*
X424137500Y-52280000D01*
X362999999Y-49599999D02*
X365287207Y-47312792D01*
X387490000Y-128990000D02*
X387500000Y-129000000D01*
X361800000Y-49600000D02*
G75*
G03*
X363000000Y-49600000I600000J600000D01*
G01*
X387949500Y-77949500D02*
G75*
G02*
X387899007Y-77827582I121900J121900D01*
G01*
X387490000Y-128990000D02*
G75*
G03*
X387465857Y-128980017I-24100J-24100D01*
G01*
X369134963Y-45719000D02*
G75*
G03*
X365287236Y-47312821I37J-5441500D01*
G01*
X388199500Y-71800500D02*
G75*
G03*
X387898988Y-72525971I725500J-725500D01*
G01*
X421254196Y-50591000D02*
G75*
G02*
X423293001Y-51435499I4J-2883300D01*
G01*
X410766207Y-37593792D02*
G75*
G02*
X414613963Y-35999959I3847793J-3847708D01*
G01*
X361800000Y-49600000D02*
G75*
G03*
X360351471Y-49000012I-1448500J-1448500D01*
G01*
X347110000Y-49750000D02*
G75*
G02*
X348920660Y-48999954I1810700J-1810600D01*
G01*
X404702453Y-50591000D02*
G75*
G02*
X403385514Y-50045486I47J1862500D01*
G01*
X395307036Y-45719000D02*
G75*
G03*
X399154785Y-44125200I-36J5441600D01*
G01*
X421576839Y-36000000D02*
G75*
G03*
X423387488Y-35249988I-39J2560700D01*
G01*
%TO.N,/ROW2*%
X243353553Y-27250000D02*
X420823223Y-27250000D01*
X226829289Y-97720000D02*
X55500000Y-97720000D01*
X242750000Y-27000000D02*
X242500000Y-26750000D01*
X421250000Y-27500000D02*
X421125000Y-27375000D01*
X226950000Y-97670000D02*
X227000000Y-97620000D01*
X242250000Y-68250000D02*
X242250000Y-65500000D01*
X421125000Y-27375000D02*
G75*
G03*
X420823223Y-27249990I-301800J-301800D01*
G01*
X243353553Y-27250000D02*
G75*
G02*
X242750014Y-26999986I47J853600D01*
G01*
X226829289Y-97720000D02*
G75*
G03*
X226950003Y-97670003I11J170700D01*
G01*
%TO.N,/ROW8*%
X430375000Y-79625000D02*
X431000000Y-79000000D01*
X431250000Y-74953285D02*
X431250000Y-76000000D01*
X328250000Y-80250000D02*
X428866116Y-80250000D01*
X432000000Y-56250000D02*
X428750000Y-56250000D01*
X430000000Y-67500000D02*
X430000000Y-67125000D01*
X328549265Y-96799265D02*
X328549265Y-95260877D01*
X431106255Y-74606255D02*
X430962511Y-74462511D01*
X328399632Y-94899632D02*
X328250000Y-94750000D01*
X305800000Y-154810000D02*
X324425649Y-154810000D01*
X429734834Y-66484834D02*
X429250000Y-66000000D01*
X269900000Y-154810000D02*
X117300000Y-154810000D01*
X324655000Y-154905000D02*
X324750000Y-155000000D01*
X305800000Y-154810000D02*
X269900000Y-154810000D01*
X430375000Y-79625000D02*
G75*
G02*
X428866116Y-80250007I-1508900J1508900D01*
G01*
X429734834Y-66484834D02*
G75*
G02*
X430000009Y-67125000I-640134J-640166D01*
G01*
X324655000Y-154905000D02*
G75*
G03*
X324425649Y-154810021I-229300J-229300D01*
G01*
X328399632Y-94899632D02*
G75*
G02*
X328549285Y-95260877I-361232J-361268D01*
G01*
X431250000Y-74953285D02*
G75*
G03*
X431106253Y-74606257I-490800J-15D01*
G01*
%TO.N,/COL2*%
X100000000Y-23000000D02*
X100250000Y-22750000D01*
X49853553Y-143000000D02*
X95500000Y-143000000D01*
X253000000Y-138000000D02*
X247000000Y-138000000D01*
X49250000Y-142750000D02*
X49000000Y-142500000D01*
X270518797Y-22562000D02*
X271261202Y-22562000D01*
X253000000Y-157250000D02*
X304750000Y-157250000D01*
X271410883Y-22500000D02*
X289305502Y-22500000D01*
X309050000Y-22550000D02*
X309000000Y-22600000D01*
X290526308Y-22540791D02*
X290536600Y-22530500D01*
X290348942Y-22660999D02*
X290428734Y-22581208D01*
X306750000Y-183250000D02*
X414000000Y-183250000D01*
X99353553Y-142500000D02*
X141500000Y-142500000D01*
X454500000Y-22600000D02*
X454450000Y-22550000D01*
X290610233Y-22500000D02*
X308829289Y-22500000D01*
X98500000Y-143000000D02*
X98750000Y-142750000D01*
X100853553Y-22500000D02*
X270369116Y-22500000D01*
X454329289Y-22500000D02*
X309170710Y-22500000D01*
X308950000Y-22550000D02*
X309000000Y-22600000D01*
X289935611Y-22761000D02*
X290107521Y-22761000D01*
X289620557Y-22630500D02*
G75*
G03*
X289935611Y-22760978I315043J315100D01*
G01*
X290610233Y-22500000D02*
G75*
G03*
X290536590Y-22530490I-33J-104100D01*
G01*
X308950000Y-22550000D02*
G75*
G03*
X308829289Y-22500004I-120700J-120700D01*
G01*
X49250000Y-142750000D02*
G75*
G03*
X49853553Y-143000019I603600J603600D01*
G01*
X271410883Y-22500000D02*
G75*
G03*
X271336060Y-22531017I17J-105800D01*
G01*
X290477521Y-22561000D02*
G75*
G03*
X290526299Y-22540782I-21J69000D01*
G01*
X100853553Y-22500000D02*
G75*
G03*
X100249984Y-22749984I-53J-853500D01*
G01*
X454329289Y-22500000D02*
G75*
G02*
X454450003Y-22549997I11J-170700D01*
G01*
X290348942Y-22660999D02*
G75*
G02*
X290107521Y-22761020I-241442J241399D01*
G01*
X290477521Y-22561000D02*
G75*
G03*
X290428723Y-22581197I-21J-69000D01*
G01*
X271261202Y-22562000D02*
G75*
G03*
X271336033Y-22530990I-2J105800D01*
G01*
X99353553Y-142500000D02*
G75*
G03*
X98749984Y-142749984I-53J-853500D01*
G01*
X309050000Y-22550000D02*
G75*
G02*
X309170710Y-22500004I120700J-120700D01*
G01*
X270443957Y-22531000D02*
G75*
G03*
X270369116Y-22499977I-74857J-74800D01*
G01*
X289620557Y-22630500D02*
G75*
G03*
X289305502Y-22499982I-315057J-315000D01*
G01*
X270443957Y-22531000D02*
G75*
G03*
X270518797Y-22562014I74843J74800D01*
G01*
%TO.N,/ROW7*%
X107581970Y-149919105D02*
X114080340Y-149919105D01*
X381093792Y-139406207D02*
X383186206Y-137313792D01*
X205456207Y-137293792D02*
X201093792Y-141656207D01*
X329446036Y-135700000D02*
X222100000Y-135700000D01*
X377246036Y-141000000D02*
X339253963Y-141000000D01*
X209303963Y-135700000D02*
X222100000Y-135700000D01*
X429625000Y-55375000D02*
X429500000Y-55500000D01*
X447000000Y-77250000D02*
X447375000Y-77625000D01*
X103153054Y-153542363D02*
X106206626Y-150488791D01*
X408000000Y-135720000D02*
X387033963Y-135720000D01*
X408000000Y-135720000D02*
X445763431Y-135720000D01*
X98300000Y-154810000D02*
X67500000Y-154810000D01*
X445860000Y-135760000D02*
X445900000Y-135800000D01*
X429926776Y-55250000D02*
X443500000Y-55250000D01*
X100092709Y-154810000D02*
X98300000Y-154810000D01*
X335406207Y-139406207D02*
X333293792Y-137293792D01*
X447750000Y-78530330D02*
X447750000Y-81250000D01*
X125257372Y-143250000D02*
X197246036Y-143250000D01*
X121409616Y-144843792D02*
X117928096Y-148325312D01*
X121409616Y-144843792D02*
G75*
G02*
X125257372Y-143249965I3847784J-3847708D01*
G01*
X205456207Y-137293792D02*
G75*
G02*
X209303963Y-135699959I3847793J-3847708D01*
G01*
X381093792Y-139406207D02*
G75*
G02*
X377246036Y-141000010I-3847792J3847807D01*
G01*
X117928096Y-148325312D02*
G75*
G02*
X114080340Y-149919117I-3847796J3847812D01*
G01*
X107581970Y-149919105D02*
G75*
G03*
X106206648Y-150488813I30J-1944995D01*
G01*
X335406207Y-139406207D02*
G75*
G03*
X339253963Y-141000011I3847793J3847807D01*
G01*
X447375000Y-77625000D02*
G75*
G02*
X447749988Y-78530330I-905300J-905300D01*
G01*
X100092709Y-154810000D02*
G75*
G03*
X103153054Y-153542363I-9J4328000D01*
G01*
X429625000Y-55375000D02*
G75*
G02*
X429926776Y-55249990I301800J-301800D01*
G01*
X445860000Y-135760000D02*
G75*
G03*
X445763431Y-135719987I-96600J-96600D01*
G01*
X329446036Y-135700000D02*
G75*
G02*
X333293784Y-137293800I-36J-5441600D01*
G01*
X201093792Y-141656207D02*
G75*
G02*
X197246036Y-143250010I-3847792J3847807D01*
G01*
X387033963Y-135720000D02*
G75*
G03*
X383186215Y-137313801I37J-5441600D01*
G01*
%TO.N,/COL8*%
X218599495Y-181800000D02*
X255500000Y-181800000D01*
X433151601Y-63656371D02*
X432803202Y-64004770D01*
X370420978Y-25503000D02*
X371579021Y-25503000D01*
X164920125Y-181782500D02*
X163532500Y-181782500D01*
X413643185Y-25701000D02*
X413856814Y-25701000D01*
X223420710Y-25500000D02*
X370413735Y-25500000D01*
X433500000Y-62815261D02*
X433500000Y-57750000D01*
X413157928Y-25500000D02*
X393339167Y-25500000D01*
X57576580Y-149738970D02*
X53961964Y-149738970D01*
X371586264Y-25500000D02*
X392160832Y-25500000D01*
X164962374Y-181800000D02*
X216074372Y-181800000D01*
X414342071Y-25500000D02*
X433823223Y-25500000D01*
X65443049Y-156625239D02*
X59249886Y-150432076D01*
X154485324Y-159812824D02*
X163532500Y-168860000D01*
X150637568Y-158219032D02*
X69290805Y-158219032D01*
X223250000Y-25600000D02*
X223300000Y-25550000D01*
X434125000Y-25625000D02*
X434250000Y-25750000D01*
X218191147Y-181969143D02*
X216482720Y-181969143D01*
X392407081Y-25602000D02*
X393092918Y-25602000D01*
X223420710Y-25500000D02*
G75*
G03*
X223299997Y-25549997I-10J-170700D01*
G01*
X413157928Y-25500000D02*
G75*
G02*
X413400537Y-25600520I-28J-343100D01*
G01*
X393339167Y-25500000D02*
G75*
G03*
X393216064Y-25551021I33J-174100D01*
G01*
X434125000Y-25625000D02*
G75*
G03*
X433823223Y-25499990I-301800J-301800D01*
G01*
X370413735Y-25500000D02*
G75*
G02*
X370417335Y-25501522I-35J-5100D01*
G01*
X371586264Y-25500000D02*
G75*
G03*
X371582665Y-25501522I36J-5100D01*
G01*
X216278546Y-181884571D02*
G75*
G03*
X216482720Y-181969129I204154J204171D01*
G01*
X218191147Y-181969143D02*
G75*
G03*
X218395297Y-181884547I-47J288743D01*
G01*
X392160832Y-25500000D02*
G75*
G02*
X392283936Y-25551021I-32J-174100D01*
G01*
X218599495Y-181800000D02*
G75*
G03*
X218395333Y-181884583I5J-288700D01*
G01*
X164920125Y-181782500D02*
G75*
G02*
X164941243Y-181791257I-25J-29900D01*
G01*
X164941250Y-181791250D02*
G75*
G03*
X164962374Y-181800011I21150J21150D01*
G01*
X414099443Y-25600500D02*
G75*
G02*
X413856814Y-25701019I-242643J242600D01*
G01*
X393092918Y-25602000D02*
G75*
G03*
X393216029Y-25550986I-18J174100D01*
G01*
X392407081Y-25602000D02*
G75*
G02*
X392283971Y-25550986I19J174100D01*
G01*
X413643185Y-25701000D02*
G75*
G02*
X413400570Y-25600487I15J343100D01*
G01*
X414342071Y-25500000D02*
G75*
G03*
X414099463Y-25600520I29J-343100D01*
G01*
X370420978Y-25503000D02*
G75*
G02*
X370417372Y-25501485I22J5100D01*
G01*
X57576580Y-149738970D02*
G75*
G02*
X59249900Y-150432062I20J-2366430D01*
G01*
X150637568Y-158219032D02*
G75*
G02*
X154485344Y-159812804I32J-5441568D01*
G01*
X216278546Y-181884571D02*
G75*
G03*
X216074372Y-181800006I-204146J-204129D01*
G01*
X371582643Y-25501500D02*
G75*
G02*
X371579021Y-25503022I-3643J3600D01*
G01*
X433151601Y-63656371D02*
G75*
G03*
X433499975Y-62815261I-841101J841071D01*
G01*
X65443049Y-156625239D02*
G75*
G03*
X69290805Y-158219033I3847751J3847739D01*
G01*
%TO.N,/COL0*%
X258500000Y-141500000D02*
X209500000Y-141500000D01*
X64000000Y-115646446D02*
X64000000Y-114000000D01*
X430136032Y-111579686D02*
X432776395Y-111579686D01*
X459690000Y-21560000D02*
X270890000Y-21560000D01*
X451146446Y-101000000D02*
X433500000Y-101000000D01*
X64500000Y-116500000D02*
X64250000Y-116250000D01*
X42100000Y-21560000D02*
X270890000Y-21560000D01*
X97325174Y-143093792D02*
X103961487Y-149730105D01*
X454547706Y-89809999D02*
X451822642Y-92535064D01*
X93477418Y-141500000D02*
X70500000Y-141500000D01*
X351500000Y-142000000D02*
X428146446Y-142000000D01*
X429943653Y-111500000D02*
X429000000Y-111500000D01*
X456000000Y-84250000D02*
X456000000Y-86303853D01*
X429000000Y-141500000D02*
X428750000Y-141750000D01*
X452000000Y-100500000D02*
X451750000Y-100750000D01*
X51500000Y-103500000D02*
X58500000Y-103500000D01*
X430039843Y-111539843D02*
G75*
G03*
X430136032Y-111579677I96157J96143D01*
G01*
X429943653Y-111500000D02*
G75*
G02*
X430039860Y-111539826I47J-136000D01*
G01*
X451146446Y-101000000D02*
G75*
G03*
X451749986Y-100749986I-46J853600D01*
G01*
X428146446Y-142000000D02*
G75*
G03*
X428749986Y-141749986I-46J853600D01*
G01*
X454547706Y-89809999D02*
G75*
G03*
X455999978Y-86303853I-3506106J3506099D01*
G01*
X64000000Y-115646446D02*
G75*
G03*
X64249984Y-116250016I853500J-54D01*
G01*
X93477418Y-141500000D02*
G75*
G02*
X97325175Y-143093791I-18J-5441600D01*
G01*
%TO.N,+3.3V*%
X386465857Y-131520000D02*
X370100000Y-131520000D01*
X401820000Y-33190000D02*
X404666207Y-30343792D01*
X408513963Y-28750000D02*
X457573223Y-28750000D01*
X457875000Y-28875000D02*
X458000000Y-29000000D01*
X388500000Y-73000000D02*
X388500000Y-76000000D01*
X386490000Y-131510000D02*
X386500000Y-131500000D01*
X457875000Y-28875000D02*
G75*
G03*
X457573223Y-28749990I-301800J-301800D01*
G01*
X408513963Y-28750000D02*
G75*
G03*
X404666236Y-30343821I37J-5441500D01*
G01*
X386465857Y-131520000D02*
G75*
G03*
X386490012Y-131510012I43J34100D01*
G01*
%TO.N,/ROW3*%
X307533639Y-97710000D02*
X446200000Y-97710000D01*
X423250000Y-84000000D02*
X422250000Y-83000000D01*
X307316360Y-97620000D02*
X246100000Y-97620000D01*
X307533639Y-97710000D02*
G75*
G02*
X307424988Y-97665012I-39J153600D01*
G01*
X307316360Y-97620000D02*
G75*
G02*
X307425012Y-97664988I40J-153600D01*
G01*
%TO.N,/COL1*%
X280500000Y-160250000D02*
X230030330Y-160250000D01*
X270754901Y-22161000D02*
X271025098Y-22161000D01*
X456920000Y-22080000D02*
X457000000Y-22160000D01*
X394500000Y-138750000D02*
X451750000Y-138750000D01*
X456726862Y-22000000D02*
X290613137Y-22000000D01*
X454250000Y-85250000D02*
X454250000Y-82426776D01*
X454375000Y-82125000D02*
X454500000Y-82000000D01*
X290226862Y-22160000D02*
X290000000Y-22160000D01*
X289920000Y-22080000D02*
X290000000Y-22160000D01*
X121646446Y-157000000D02*
X67000000Y-157000000D01*
X289726862Y-22000000D02*
X271413787Y-22000000D01*
X43500000Y-156000000D02*
X62292893Y-156000000D01*
X122500000Y-156500000D02*
X122250000Y-156750000D01*
X64000000Y-157000000D02*
X63500000Y-156500000D01*
X79676776Y-22000000D02*
X270366212Y-22000000D01*
X228750000Y-159500000D02*
X229125000Y-159875000D01*
X79250000Y-22250000D02*
X79375000Y-22125000D01*
X454375000Y-82125000D02*
G75*
G03*
X454249990Y-82426776I301800J-301800D01*
G01*
X79375000Y-22125000D02*
G75*
G02*
X79676776Y-21999990I301800J-301800D01*
G01*
X290613137Y-22000000D02*
G75*
G03*
X290419989Y-22079989I-37J-273100D01*
G01*
X456726862Y-22000000D02*
G75*
G02*
X456920011Y-22079989I38J-273100D01*
G01*
X63500000Y-156500000D02*
G75*
G03*
X62292893Y-156000003I-1207100J-1207100D01*
G01*
X270560557Y-22080500D02*
G75*
G03*
X270754901Y-22161012I194343J194300D01*
G01*
X271219443Y-22080500D02*
G75*
G02*
X271025098Y-22160983I-194343J194400D01*
G01*
X121646446Y-157000000D02*
G75*
G03*
X122249986Y-156749986I-46J853600D01*
G01*
X271219443Y-22080500D02*
G75*
G02*
X271413787Y-21999978I194357J-194300D01*
G01*
X290226862Y-22160000D02*
G75*
G03*
X290420011Y-22080011I38J273100D01*
G01*
X229125000Y-159875000D02*
G75*
G03*
X230030330Y-160249988I905300J905300D01*
G01*
X289726862Y-22000000D02*
G75*
G02*
X289920011Y-22079989I38J-273100D01*
G01*
X270560557Y-22080500D02*
G75*
G03*
X270366212Y-21999978I-194357J-194300D01*
G01*
%TO.N,/ROW1*%
X284200000Y-69310000D02*
X465200000Y-69310000D01*
%TO.N,/COL9*%
X84961713Y-144038287D02*
X85000000Y-144000000D01*
X84923426Y-144130719D02*
X84923426Y-149749712D01*
X413160832Y-26000000D02*
X393336264Y-26000000D01*
X186573223Y-138250000D02*
X85250000Y-138250000D01*
X251800000Y-26050000D02*
X251750000Y-26100000D01*
X235853553Y-175750000D02*
X275250000Y-175750000D01*
X235250000Y-176000000D02*
X235000000Y-176250000D01*
X432926776Y-36750000D02*
X451000000Y-36750000D01*
X186875000Y-138375000D02*
X187000000Y-138500000D01*
X413407081Y-26102000D02*
X414092918Y-26102000D01*
X431500000Y-26250000D02*
X431375000Y-26125000D01*
X187500000Y-130750000D02*
X187545000Y-130705000D01*
X251920710Y-26000000D02*
X392163735Y-26000000D01*
X432500000Y-37000000D02*
X432625000Y-36875000D01*
X188620000Y-168880000D02*
X188500000Y-169000000D01*
X392170978Y-26003000D02*
X393329021Y-26003000D01*
X188909705Y-168760000D02*
X235010000Y-168760000D01*
X431073223Y-26000000D02*
X414339167Y-26000000D01*
X275130362Y-150619637D02*
X274250000Y-151500000D01*
X277255745Y-149739275D02*
X292178670Y-149739275D01*
X187653639Y-130660000D02*
X189732500Y-130660000D01*
X393332643Y-26001500D02*
G75*
G02*
X393336264Y-25999968I3657J-3600D01*
G01*
X392167357Y-26001500D02*
G75*
G03*
X392163735Y-25999968I-3657J-3600D01*
G01*
X392170978Y-26003000D02*
G75*
G02*
X392167372Y-26001485I22J5100D01*
G01*
X235853553Y-175750000D02*
G75*
G03*
X235249984Y-175999984I-53J-853500D01*
G01*
X277255745Y-149739275D02*
G75*
G03*
X275130344Y-150619619I-45J-3005725D01*
G01*
X393329021Y-26003000D02*
G75*
G03*
X393332628Y-26001485I-21J5100D01*
G01*
X431073223Y-26000000D02*
G75*
G02*
X431374993Y-26125007I-23J-426800D01*
G01*
X413283957Y-26051000D02*
G75*
G03*
X413407081Y-26102020I123143J123100D01*
G01*
X251800000Y-26050000D02*
G75*
G02*
X251920710Y-26000004I120700J-120700D01*
G01*
X432625000Y-36875000D02*
G75*
G02*
X432926776Y-36749990I301800J-301800D01*
G01*
X414216043Y-26051000D02*
G75*
G02*
X414339167Y-25999970I123157J-123100D01*
G01*
X414216043Y-26051000D02*
G75*
G02*
X414092918Y-26102020I-123143J123100D01*
G01*
X188620000Y-168880000D02*
G75*
G02*
X188909705Y-168760002I289700J-289700D01*
G01*
X413160832Y-26000000D02*
G75*
G02*
X413283936Y-26051021I-32J-174100D01*
G01*
X186875000Y-138375000D02*
G75*
G03*
X186573223Y-138249990I-301800J-301800D01*
G01*
X84961713Y-144038287D02*
G75*
G03*
X84923427Y-144130719I92387J-92413D01*
G01*
X187545000Y-130705000D02*
G75*
G02*
X187653639Y-130660016I108600J-108600D01*
G01*
%TO.N,/ROW0*%
X264570796Y-69000000D02*
X55500000Y-69000000D01*
X268500000Y-26600000D02*
X429250000Y-26600000D01*
X264945000Y-69155000D02*
X265100000Y-69310000D01*
X264570796Y-69000000D02*
G75*
G02*
X264945001Y-69154999I4J-529200D01*
G01*
%TO.N,/COL3*%
X451950000Y-23050000D02*
X452000000Y-23100000D01*
X289308405Y-23000000D02*
X121060660Y-23000000D01*
X329335786Y-138250000D02*
X266500000Y-138250000D01*
X309592071Y-23000000D02*
X332829289Y-23000000D01*
X289699508Y-23162000D02*
X290300491Y-23162000D01*
X332750000Y-140250000D02*
X331750000Y-139250000D01*
X118500000Y-24500000D02*
X119250000Y-23750000D01*
X308407928Y-23000000D02*
X290691594Y-23000000D01*
X309106814Y-23201000D02*
X308893185Y-23201000D01*
X333170710Y-23000000D02*
X451829289Y-23000000D01*
X77207106Y-139500000D02*
X161000000Y-139500000D01*
X76000000Y-139000000D02*
X75500000Y-138500000D01*
X333050000Y-23050000D02*
X333000000Y-23100000D01*
X332950000Y-23050000D02*
X333000000Y-23100000D01*
X332750000Y-185250000D02*
X427000000Y-185250000D01*
X76000000Y-139000000D02*
G75*
G03*
X77207106Y-139499997I1207100J1207100D01*
G01*
X289308405Y-23000000D02*
G75*
G02*
X289503964Y-23080993I-5J-276600D01*
G01*
X290691594Y-23000000D02*
G75*
G03*
X290496056Y-23081013I6J-276500D01*
G01*
X290496043Y-23081000D02*
G75*
G02*
X290300491Y-23161980I-195543J195600D01*
G01*
X332950000Y-23050000D02*
G75*
G03*
X332829289Y-23000004I-120700J-120700D01*
G01*
X309106814Y-23201000D02*
G75*
G03*
X309349430Y-23100487I-14J343100D01*
G01*
X333170710Y-23000000D02*
G75*
G03*
X333049997Y-23049997I-10J-170700D01*
G01*
X308650557Y-23100500D02*
G75*
G03*
X308893185Y-23201019I242643J242600D01*
G01*
X309349443Y-23100500D02*
G75*
G02*
X309592071Y-22999971I242657J-242600D01*
G01*
X329335786Y-138250000D02*
G75*
G02*
X331750004Y-139249996I14J-3414200D01*
G01*
X308407928Y-23000000D02*
G75*
G02*
X308650537Y-23100520I-28J-343100D01*
G01*
X451950000Y-23050000D02*
G75*
G03*
X451829289Y-23000004I-120700J-120700D01*
G01*
X121060660Y-23000000D02*
G75*
G03*
X119250032Y-23750032I40J-2560600D01*
G01*
X289699508Y-23162000D02*
G75*
G02*
X289503943Y-23081014I-8J276600D01*
G01*
%TO.N,/COL6*%
X185300000Y-24550000D02*
X185250000Y-24600000D01*
X370407928Y-24500000D02*
X354839167Y-24500000D01*
X219000000Y-176000000D02*
X68500000Y-176000000D01*
X441875000Y-24625000D02*
X442000000Y-24750000D01*
X392750000Y-43750000D02*
X392750000Y-42400000D01*
X351750000Y-124250000D02*
X352250000Y-124750000D01*
X370893185Y-24701000D02*
X371106814Y-24701000D01*
X353457106Y-125250000D02*
X412750000Y-125250000D01*
X185420710Y-24500000D02*
X332413735Y-24500000D01*
X441573223Y-24500000D02*
X371592071Y-24500000D01*
X333579021Y-24503000D02*
X332420978Y-24503000D01*
X353907081Y-24602000D02*
X354592918Y-24602000D01*
X333586264Y-24500000D02*
X353660832Y-24500000D01*
X371349443Y-24600500D02*
G75*
G02*
X371106814Y-24701019I-242643J242600D01*
G01*
X370893185Y-24701000D02*
G75*
G02*
X370650570Y-24600487I15J343100D01*
G01*
X353783957Y-24551000D02*
G75*
G03*
X353907081Y-24602020I123143J123100D01*
G01*
X370407928Y-24500000D02*
G75*
G02*
X370650537Y-24600520I-28J-343100D01*
G01*
X332413735Y-24500000D02*
G75*
G02*
X332417335Y-24501522I-35J-5100D01*
G01*
X371349443Y-24600500D02*
G75*
G02*
X371592071Y-24499971I242657J-242600D01*
G01*
X333582643Y-24501500D02*
G75*
G02*
X333579021Y-24503022I-3643J3600D01*
G01*
X354716043Y-24551000D02*
G75*
G02*
X354592918Y-24602020I-123143J123100D01*
G01*
X185420710Y-24500000D02*
G75*
G03*
X185299997Y-24549997I-10J-170700D01*
G01*
X333586264Y-24500000D02*
G75*
G03*
X333582665Y-24501522I36J-5100D01*
G01*
X332420978Y-24503000D02*
G75*
G02*
X332417372Y-24501485I22J5100D01*
G01*
X353783957Y-24551000D02*
G75*
G03*
X353660832Y-24499970I-123157J-123100D01*
G01*
X354716043Y-24551000D02*
G75*
G02*
X354839167Y-24499970I123157J-123100D01*
G01*
X441875000Y-24625000D02*
G75*
G03*
X441573223Y-24499990I-301800J-301800D01*
G01*
X353457106Y-125250000D02*
G75*
G02*
X352249998Y-124750002I-6J1707100D01*
G01*
%TO.N,/COL7*%
X204300000Y-25050000D02*
X204250000Y-25100000D01*
X392157928Y-25000000D02*
X371589167Y-25000000D01*
X392946987Y-110803013D02*
X393750000Y-110000000D01*
X180222548Y-166254143D02*
X235712597Y-166254143D01*
X150906036Y-168840000D02*
X92050000Y-168840000D01*
X371250000Y-124000000D02*
X432500000Y-124000000D01*
X236622928Y-165877071D02*
X237000000Y-165500000D01*
X353663735Y-25000000D02*
X204420710Y-25000000D01*
X354829021Y-25003000D02*
X353670978Y-25003000D01*
X392643185Y-25201000D02*
X392856814Y-25201000D01*
X354836264Y-25000000D02*
X370410832Y-25000000D01*
X154753792Y-167246207D02*
X157911985Y-164088015D01*
X439073223Y-25000000D02*
X393342071Y-25000000D01*
X174755179Y-163989485D02*
X159510515Y-163989485D01*
X391008342Y-111606026D02*
X370909465Y-111606026D01*
X439375000Y-25125000D02*
X439500000Y-25250000D01*
X370657081Y-25102000D02*
X371342918Y-25102000D01*
X371466043Y-25051000D02*
G75*
G02*
X371342918Y-25102020I-123143J123100D01*
G01*
X180222548Y-166254143D02*
G75*
G02*
X177488834Y-165121844I-48J3866043D01*
G01*
X154753792Y-167246207D02*
G75*
G02*
X150906036Y-168840010I-3847792J3847807D01*
G01*
X439375000Y-25125000D02*
G75*
G03*
X439073223Y-24999990I-301800J-301800D01*
G01*
X354829021Y-25003000D02*
G75*
G03*
X354832628Y-25001485I-21J5100D01*
G01*
X353663735Y-25000000D02*
G75*
G02*
X353667335Y-25001522I-35J-5100D01*
G01*
X370533957Y-25051000D02*
G75*
G03*
X370657081Y-25102020I123143J123100D01*
G01*
X174755179Y-163989485D02*
G75*
G02*
X177488874Y-165121804I21J-3866015D01*
G01*
X353670978Y-25003000D02*
G75*
G02*
X353667372Y-25001485I22J5100D01*
G01*
X370533957Y-25051000D02*
G75*
G03*
X370410832Y-24999970I-123157J-123100D01*
G01*
X393099443Y-25100500D02*
G75*
G02*
X392856814Y-25201019I-242643J242600D01*
G01*
X236622928Y-165877071D02*
G75*
G02*
X235712597Y-166254129I-910328J910371D01*
G01*
X204300000Y-25050000D02*
G75*
G02*
X204420710Y-25000004I120700J-120700D01*
G01*
X392157928Y-25000000D02*
G75*
G02*
X392400537Y-25100520I-28J-343100D01*
G01*
X371466043Y-25051000D02*
G75*
G02*
X371589167Y-24999970I123157J-123100D01*
G01*
X392643185Y-25201000D02*
G75*
G02*
X392400570Y-25100487I15J343100D01*
G01*
X393342071Y-25000000D02*
G75*
G03*
X393099463Y-25100520I29J-343100D01*
G01*
X392946987Y-110803013D02*
G75*
G02*
X391008342Y-111606065I-1938687J1938613D01*
G01*
X354836264Y-25000000D02*
G75*
G03*
X354832665Y-25001522I36J-5100D01*
G01*
%TO.N,/ROW4*%
X419250000Y-57750000D02*
X431500000Y-57750000D01*
X59990500Y-116910500D02*
X59800000Y-116720000D01*
X219680000Y-116680000D02*
X219750000Y-116750000D01*
X60450407Y-117101000D02*
X216561810Y-117101000D01*
X446500000Y-79875000D02*
X446500000Y-80000000D01*
X219750000Y-103250000D02*
X221507207Y-101492792D01*
X464105500Y-98804500D02*
X465200000Y-97710000D01*
X225354963Y-99899000D02*
X461463143Y-99899000D01*
X445500000Y-78750000D02*
X446411611Y-79661611D01*
X219511005Y-116610000D02*
X217747189Y-116610000D01*
X216561810Y-117101000D02*
G75*
G03*
X217154497Y-116855497I-10J838200D01*
G01*
X446500000Y-79875000D02*
G75*
G03*
X446411616Y-79661606I-301800J0D01*
G01*
X59990500Y-116910500D02*
G75*
G03*
X60450407Y-117100997I459900J459900D01*
G01*
X219680000Y-116680000D02*
G75*
G03*
X219511005Y-116609998I-169000J-169000D01*
G01*
X221507207Y-101492792D02*
G75*
G02*
X225354963Y-99898959I3847793J-3847708D01*
G01*
X217747189Y-116610000D02*
G75*
G03*
X217154503Y-116855503I11J-838200D01*
G01*
X461463143Y-99899000D02*
G75*
G03*
X464105487Y-98804487I-43J3736900D01*
G01*
%TO.N,/COL5*%
X353657928Y-24000000D02*
X333589167Y-24000000D01*
X309579021Y-24003000D02*
X308420978Y-24003000D01*
X166050000Y-24050000D02*
X166000000Y-24100000D01*
X308413735Y-24000000D02*
X166170710Y-24000000D01*
X354143185Y-24201000D02*
X354356814Y-24201000D01*
X309586264Y-24000000D02*
X332410832Y-24000000D01*
X198500000Y-178000000D02*
X199500000Y-179000000D01*
X444398000Y-24102000D02*
X444500000Y-24000000D01*
X444398000Y-24102000D02*
X444347000Y-24051000D01*
X444223875Y-24000000D02*
X354842071Y-24000000D01*
X45000000Y-177000000D02*
X196085786Y-177000000D01*
X337017766Y-126750000D02*
X394250000Y-126750000D01*
X334000000Y-125500000D02*
X332750000Y-124250000D01*
X332657081Y-24102000D02*
X333342918Y-24102000D01*
X166050000Y-24050000D02*
G75*
G02*
X166170710Y-24000004I120700J-120700D01*
G01*
X308413735Y-24000000D02*
G75*
G02*
X308417335Y-24001522I-35J-5100D01*
G01*
X337017766Y-126750000D02*
G75*
G02*
X334000010Y-125499990I34J4267800D01*
G01*
X309582643Y-24001500D02*
G75*
G02*
X309579021Y-24003022I-3643J3600D01*
G01*
X354143185Y-24201000D02*
G75*
G02*
X353900570Y-24100487I15J343100D01*
G01*
X332410832Y-24000000D02*
G75*
G02*
X332533936Y-24051021I-32J-174100D01*
G01*
X309586264Y-24000000D02*
G75*
G03*
X309582665Y-24001522I36J-5100D01*
G01*
X332657081Y-24102000D02*
G75*
G02*
X332533971Y-24050986I19J174100D01*
G01*
X444223875Y-24000000D02*
G75*
G02*
X444347007Y-24050993I25J-174100D01*
G01*
X353657928Y-24000000D02*
G75*
G02*
X353900537Y-24100520I-28J-343100D01*
G01*
X198500000Y-178000000D02*
G75*
G03*
X196085786Y-177000006I-2414200J-2414200D01*
G01*
X308420978Y-24003000D02*
G75*
G02*
X308417372Y-24001485I22J5100D01*
G01*
X333466043Y-24051000D02*
G75*
G02*
X333342918Y-24102020I-123143J123100D01*
G01*
X354599443Y-24100500D02*
G75*
G02*
X354842071Y-23999971I242657J-242600D01*
G01*
X333466043Y-24051000D02*
G75*
G02*
X333589167Y-23999970I123157J-123100D01*
G01*
X354599443Y-24100500D02*
G75*
G02*
X354356814Y-24201019I-242643J242600D01*
G01*
%TO.N,/ROW5*%
X429000000Y-95500000D02*
X429000000Y-93767732D01*
X428987461Y-93737461D02*
X428974923Y-93724923D01*
X428606255Y-77106255D02*
X428462511Y-76962511D01*
X428750000Y-77453285D02*
X428750000Y-78500000D01*
X236400000Y-116610000D02*
X427100000Y-116610000D01*
X428750000Y-77453285D02*
G75*
G03*
X428606253Y-77106257I-490800J-15D01*
G01*
X428987461Y-93737461D02*
G75*
G02*
X428999980Y-93767732I-30261J-30239D01*
G01*
%TO.N,/ROW6*%
X442483806Y-81983806D02*
X442491903Y-81991903D01*
X442353792Y-120656207D02*
X445500000Y-117510000D01*
X205000000Y-122250000D02*
X438506036Y-122250000D01*
X428530330Y-60000000D02*
X432250000Y-60000000D01*
X427625000Y-59625000D02*
X427250000Y-59250000D01*
X442500000Y-84250000D02*
X442500000Y-82011450D01*
X62500000Y-135710000D02*
X203000000Y-135710000D01*
X442500000Y-82011450D02*
G75*
G03*
X442491869Y-81991937I-27600J-50D01*
G01*
X428530330Y-60000000D02*
G75*
G02*
X427624991Y-59625009I-30J1280300D01*
G01*
X442353792Y-120656207D02*
G75*
G02*
X438506036Y-122250010I-3847792J3847807D01*
G01*
%TO.N,SDA*%
X370900000Y-135800000D02*
X370100000Y-136600000D01*
X372831370Y-135000000D02*
X391000000Y-135000000D01*
X391000000Y-71500000D02*
X391000000Y-73500000D01*
X391100000Y-56500000D02*
X406500000Y-56500000D01*
X467500000Y-31000000D02*
X408000000Y-31000000D01*
X372831370Y-135000000D02*
G75*
G03*
X370900009Y-135800009I30J-2731400D01*
G01*
%TO.N,SCL*%
X404000000Y-55500000D02*
X390500000Y-55500000D01*
X406353553Y-30000000D02*
X431813712Y-30000000D01*
X441186288Y-30000000D02*
X436500000Y-30000000D01*
X436500000Y-30000000D02*
X431813712Y-30000000D01*
X370630000Y-133530000D02*
X370100000Y-134060000D01*
X371909533Y-133000000D02*
X388500000Y-133000000D01*
X441186288Y-30000000D02*
X465000000Y-30000000D01*
X405750000Y-30250000D02*
X405500000Y-30500000D01*
X390000000Y-74500000D02*
X390000000Y-72000000D01*
X405750000Y-30250000D02*
G75*
G02*
X406353553Y-30000022I603500J-603500D01*
G01*
X371909533Y-133000000D02*
G75*
G03*
X370629990Y-133529990I-33J-1809500D01*
G01*
%TO.N,+5V*%
X467000000Y-54500000D02*
X391000000Y-54500000D01*
%TO.N,/COL4*%
X140231370Y-23500000D02*
X289311309Y-23500000D01*
X309250000Y-156750000D02*
X309625000Y-157125000D01*
X290688690Y-23500000D02*
X308410832Y-23500000D01*
X332407928Y-23500000D02*
X309589167Y-23500000D01*
X351750000Y-157500000D02*
X310530330Y-157500000D01*
X446950000Y-23550000D02*
X447000000Y-23600000D01*
X333106814Y-23701000D02*
X332893185Y-23701000D01*
X94500000Y-137500000D02*
X180000000Y-137500000D01*
X137500000Y-25100000D02*
X138300000Y-24300000D01*
X309000000Y-140000000D02*
X298707106Y-140000000D01*
X289463404Y-23563000D02*
X290536595Y-23563000D01*
X297500000Y-139500000D02*
X297000000Y-139000000D01*
X358936288Y-23500000D02*
X446829289Y-23500000D01*
X354250000Y-23500000D02*
X349563712Y-23500000D01*
X349563712Y-23500000D02*
X333592071Y-23500000D01*
X363467483Y-159206246D02*
X451821832Y-159206246D01*
X358936288Y-23500000D02*
X354250000Y-23500000D01*
X359619727Y-160800038D02*
X351656005Y-168763761D01*
X308657081Y-23602000D02*
X309342918Y-23602000D01*
X332407928Y-23500000D02*
G75*
G02*
X332650537Y-23600520I-28J-343100D01*
G01*
X333349443Y-23600500D02*
G75*
G02*
X333592071Y-23499971I242657J-242600D01*
G01*
X289387357Y-23531500D02*
G75*
G03*
X289311309Y-23499979I-76057J-76000D01*
G01*
X332650557Y-23600500D02*
G75*
G03*
X332893185Y-23701019I242643J242600D01*
G01*
X308657081Y-23602000D02*
G75*
G02*
X308533971Y-23550986I19J174100D01*
G01*
X309466043Y-23551000D02*
G75*
G02*
X309589167Y-23499970I123157J-123100D01*
G01*
X446950000Y-23550000D02*
G75*
G03*
X446829289Y-23500004I-120700J-120700D01*
G01*
X309625000Y-157125000D02*
G75*
G03*
X310530330Y-157499988I905300J905300D01*
G01*
X290688690Y-23500000D02*
G75*
G03*
X290612658Y-23531515I10J-107500D01*
G01*
X297500000Y-139500000D02*
G75*
G03*
X298707106Y-139999997I1207100J1207100D01*
G01*
X290612643Y-23531500D02*
G75*
G02*
X290536595Y-23562981I-76043J76100D01*
G01*
X333349443Y-23600500D02*
G75*
G02*
X333106814Y-23701019I-242643J242600D01*
G01*
X309466043Y-23551000D02*
G75*
G02*
X309342918Y-23602020I-123143J123100D01*
G01*
X359619727Y-160800038D02*
G75*
G02*
X363467483Y-159206235I3847773J-3847762D01*
G01*
X289387357Y-23531500D02*
G75*
G03*
X289463404Y-23563011I76043J76000D01*
G01*
X138300000Y-24300000D02*
G75*
G02*
X140231370Y-23499988I1931400J-1931400D01*
G01*
X308410832Y-23500000D02*
G75*
G02*
X308533936Y-23551021I-32J-174100D01*
G01*
%TO.N,Net-(D1-A)*%
X55431715Y-61420000D02*
X48460000Y-61420000D01*
X55480000Y-61400000D02*
X55500000Y-61380000D01*
X55480000Y-61400000D02*
G75*
G02*
X55431715Y-61420007I-48300J48300D01*
G01*
%TO.N,Net-(D2-A)*%
X93280097Y-61444027D02*
X86716232Y-61444027D01*
X93577013Y-61567013D02*
X93700000Y-61690000D01*
X93280097Y-61444027D02*
G75*
G02*
X93577008Y-61567018I3J-419873D01*
G01*
%TO.N,Net-(D3-A)*%
X112767986Y-61412013D02*
X112800000Y-61380000D01*
X112690699Y-61444027D02*
X105796082Y-61444027D01*
X112767986Y-61412013D02*
G75*
G02*
X112690699Y-61444018I-77286J77313D01*
G01*
%TO.N,Net-(D4-A)*%
X131772785Y-61562785D02*
X131900000Y-61690000D01*
X131465660Y-61435570D02*
X124852082Y-61435570D01*
X131772785Y-61562785D02*
G75*
G03*
X131465660Y-61435595I-307085J-307115D01*
G01*
%TO.N,Net-(D5-A)*%
X150579416Y-61443628D02*
X143903733Y-61443628D01*
X150876814Y-61566814D02*
X151000000Y-61690000D01*
X150579416Y-61443628D02*
G75*
G02*
X150876803Y-61566825I-16J-420572D01*
G01*
%TO.N,Net-(D6-A)*%
X178997337Y-61454126D02*
X172448687Y-61454126D01*
X179282063Y-61572063D02*
X179400000Y-61690000D01*
X178997337Y-61454126D02*
G75*
G02*
X179282047Y-61572079I-37J-402674D01*
G01*
%TO.N,Net-(D7-A)*%
X198385886Y-61575886D02*
X198500000Y-61690000D01*
X198110390Y-61461772D02*
X191513182Y-61461772D01*
X198110390Y-61461772D02*
G75*
G02*
X198385895Y-61575877I10J-389628D01*
G01*
%TO.N,Net-(D8-A)*%
X217250420Y-61485221D02*
X210580583Y-61485221D01*
X217497610Y-61587610D02*
X217600000Y-61690000D01*
X217497610Y-61587610D02*
G75*
G03*
X217250420Y-61485206I-247210J-247190D01*
G01*
%TO.N,Net-(D9-A)*%
X236350420Y-61485221D02*
X229658013Y-61485221D01*
X236597610Y-61587610D02*
X236700000Y-61690000D01*
X236597610Y-61587610D02*
G75*
G03*
X236350420Y-61485206I-247210J-247190D01*
G01*
%TO.N,Net-(D10-A)*%
X264763054Y-61492622D02*
X258210582Y-61492622D01*
X265001311Y-61591311D02*
X265100000Y-61690000D01*
X264763054Y-61492622D02*
G75*
G02*
X265001340Y-61591282I46J-336978D01*
G01*
%TO.N,Net-(D11-A)*%
X283841755Y-61480145D02*
X277260794Y-61480145D01*
X284095072Y-61585072D02*
X284200000Y-61690000D01*
X284095072Y-61585072D02*
G75*
G03*
X283841755Y-61480180I-253272J-253328D01*
G01*
%TO.N,Net-(D12-A)*%
X302844530Y-61481771D02*
X296302838Y-61481771D01*
X303095885Y-61585885D02*
X303200000Y-61690000D01*
X303095885Y-61585885D02*
G75*
G03*
X302844530Y-61481737I-251385J-251315D01*
G01*
%TO.N,Net-(D13-A)*%
X321944530Y-61481771D02*
X315398874Y-61481771D01*
X322195885Y-61585885D02*
X322300000Y-61690000D01*
X322195885Y-61585885D02*
G75*
G03*
X321944530Y-61481737I-251385J-251315D01*
G01*
%TO.N,Net-(D14-A)*%
X345736655Y-61477158D02*
X339179249Y-61477158D01*
X345993579Y-61583579D02*
X346100000Y-61690000D01*
X345736655Y-61477158D02*
G75*
G02*
X345993601Y-61583557I45J-363342D01*
G01*
%TO.N,Net-(D15-A)*%
X365157588Y-61475156D02*
X358253592Y-61475156D01*
X365187578Y-61487578D02*
X365200000Y-61500000D01*
X365187578Y-61487578D02*
G75*
G03*
X365157588Y-61475174I-29978J-30022D01*
G01*
%TO.N,Net-(D16-A)*%
X384257588Y-61475156D02*
X377309413Y-61475156D01*
X384287578Y-61487578D02*
X384300000Y-61500000D01*
X384287578Y-61487578D02*
G75*
G03*
X384257588Y-61475174I-29978J-30022D01*
G01*
%TO.N,Net-(D17-A)*%
X407888372Y-61578372D02*
X408000000Y-61690000D01*
X407618878Y-61466744D02*
X401099361Y-61466744D01*
X407888372Y-61578372D02*
G75*
G03*
X407618878Y-61466769I-269472J-269528D01*
G01*
%TO.N,Net-(D18-A)*%
X426715679Y-61464870D02*
X420108740Y-61464870D01*
X426987435Y-61577435D02*
X427100000Y-61690000D01*
X426987435Y-61577435D02*
G75*
G03*
X426715679Y-61464887I-271735J-271765D01*
G01*
%TO.N,Net-(D19-A)*%
X445715508Y-61464770D02*
X439153202Y-61464770D01*
X445987385Y-61577385D02*
X446100000Y-61690000D01*
X445715508Y-61464770D02*
G75*
G02*
X445987389Y-61577381I-8J-384530D01*
G01*
%TO.N,Net-(D20-A)*%
X465091342Y-61581342D02*
X465200000Y-61690000D01*
X464829020Y-61472685D02*
X458201169Y-61472685D01*
X465091342Y-61581342D02*
G75*
G03*
X464829020Y-61472681I-262342J-262358D01*
G01*
%TO.N,Net-(D21-A)*%
X48521808Y-90034949D02*
X48456758Y-89969899D01*
X48678854Y-90100000D02*
X55500000Y-90100000D01*
X48521808Y-90034949D02*
G75*
G03*
X48678854Y-90100031I157092J157049D01*
G01*
%TO.N,Net-(D22-A)*%
X67574800Y-90000000D02*
X74600000Y-90000000D01*
X67538465Y-89984949D02*
X67523415Y-89969899D01*
X67574800Y-90000000D02*
G75*
G02*
X67538462Y-89984952I0J51400D01*
G01*
%TO.N,Net-(D23-A)*%
X86645352Y-90000000D02*
X93700000Y-90000000D01*
X86609017Y-89984949D02*
X86593967Y-89969899D01*
X86609017Y-89984949D02*
G75*
G03*
X86645352Y-90000029I36383J36349D01*
G01*
%TO.N,Net-(D24-A)*%
X105708115Y-90000000D02*
X112600000Y-90000000D01*
X105671780Y-89984949D02*
X105656730Y-89969899D01*
X105671780Y-89984949D02*
G75*
G03*
X105708115Y-89999985I36320J36349D01*
G01*
%TO.N,Net-(D25-A)*%
X124774773Y-90000000D02*
X131700000Y-90000000D01*
X124738438Y-89984949D02*
X124723388Y-89969899D01*
X124738438Y-89984949D02*
G75*
G03*
X124774773Y-90000014I36362J36349D01*
G01*
%TO.N,Net-(D26-A)*%
X143841430Y-90000000D02*
X150800000Y-90000000D01*
X143805095Y-89984949D02*
X143790045Y-89969899D01*
X143841430Y-90000000D02*
G75*
G02*
X143805077Y-89984967I-30J51400D01*
G01*
%TO.N,Net-(D27-A)*%
X162886272Y-90000000D02*
X169900000Y-90000000D01*
X162862872Y-89990307D02*
X162853179Y-89980614D01*
X162862872Y-89990307D02*
G75*
G03*
X162886272Y-90000017I23428J23407D01*
G01*
%TO.N,Net-(D28-A)*%
X181912151Y-89988476D02*
X181900628Y-89976953D01*
X181939971Y-90000000D02*
X188900000Y-90000000D01*
X181939971Y-90000000D02*
G75*
G02*
X181912174Y-89988453I29J39300D01*
G01*
%TO.N,Net-(D29-A)*%
X200988103Y-89987751D02*
X200976464Y-89976112D01*
X201016203Y-89999391D02*
X207984428Y-89999391D01*
X200988103Y-89987751D02*
G75*
G03*
X201016203Y-89999373I28097J28151D01*
G01*
%TO.N,Net-(D30-A)*%
X220093998Y-90000000D02*
X227000000Y-90000000D01*
X220069261Y-89989753D02*
X220059015Y-89979507D01*
X220093998Y-90000000D02*
G75*
G02*
X220069258Y-89989756I2J35000D01*
G01*
%TO.N,Net-(D31-A)*%
X239144817Y-90000000D02*
X246100000Y-90000000D01*
X239119652Y-89989576D02*
X239109228Y-89979152D01*
X239119652Y-89989576D02*
G75*
G03*
X239144817Y-89999984I25148J25176D01*
G01*
%TO.N,Net-(D32-A)*%
X258222644Y-90000000D02*
X265200000Y-90000000D01*
X258197479Y-89989576D02*
X258187055Y-89979152D01*
X258197479Y-89989576D02*
G75*
G03*
X258222644Y-89999965I25121J25176D01*
G01*
%TO.N,Net-(D33-A)*%
X277259128Y-90000000D02*
X284200000Y-90000000D01*
X277247156Y-89995041D02*
X277242197Y-89990082D01*
X277259128Y-90000000D02*
G75*
G02*
X277247148Y-89995049I-28J16900D01*
G01*
%TO.N,Net-(D34-A)*%
X306062755Y-90238989D02*
X305811745Y-89987979D01*
X306668748Y-90490000D02*
X312600000Y-90490000D01*
X306062755Y-90238989D02*
G75*
G03*
X306668748Y-90489967I605945J605989D01*
G01*
%TO.N,Net-(D35-A)*%
X339201073Y-90044568D02*
X339145641Y-89989136D01*
X339334897Y-90100000D02*
X346200000Y-90100000D01*
X339334897Y-90100000D02*
G75*
G02*
X339201065Y-90044576I3J189300D01*
G01*
%TO.N,Net-(D36-A)*%
X358245980Y-90046846D02*
X358192827Y-89993693D01*
X358374304Y-90100000D02*
X365200000Y-90100000D01*
X358374304Y-90100000D02*
G75*
G02*
X358245973Y-90046853I-4J181500D01*
G01*
%TO.N,Net-(D37-A)*%
X377415061Y-90100000D02*
X384300000Y-90100000D01*
X377286737Y-90046846D02*
X377233584Y-89993693D01*
X377415061Y-90100000D02*
G75*
G02*
X377286752Y-90046831I39J181500D01*
G01*
%TO.N,Net-(D38-A)*%
X401093404Y-90041225D02*
X401034630Y-89982451D01*
X401235298Y-90100000D02*
X408100000Y-90100000D01*
X401235298Y-90100000D02*
G75*
G02*
X401093398Y-90041231I2J200700D01*
G01*
%TO.N,Net-(D39-A)*%
X420270876Y-90100000D02*
X427100000Y-90100000D01*
X420142757Y-90046931D02*
X420089689Y-89993863D01*
X420142757Y-90046931D02*
G75*
G03*
X420270876Y-90100013I128143J128131D01*
G01*
%TO.N,Net-(D40-A)*%
X439177349Y-90042930D02*
X439130280Y-89995861D01*
X439290985Y-90090000D02*
X446200000Y-90090000D01*
X439290985Y-90090000D02*
G75*
G02*
X439177357Y-90042922I15J160700D01*
G01*
%TO.N,Net-(D41-A)*%
X458220110Y-90042532D02*
X458172642Y-89995064D01*
X458334707Y-90090000D02*
X465200000Y-90090000D01*
X458334707Y-90090000D02*
G75*
G02*
X458220099Y-90042543I-7J162100D01*
G01*
%TO.N,Net-(D42-A)*%
X59704454Y-109044031D02*
X53186884Y-109044031D01*
X59772015Y-109072015D02*
X59800000Y-109100000D01*
X59704454Y-109044031D02*
G75*
G02*
X59772042Y-109071987I46J-95569D01*
G01*
%TO.N,Net-(D43-A)*%
X84090000Y-109010000D02*
X84100000Y-109000000D01*
X84065857Y-109020000D02*
X77040000Y-109020000D01*
X84065857Y-109020000D02*
G75*
G03*
X84090012Y-109010012I43J34100D01*
G01*
%TO.N,Net-(D44-A)*%
X103165000Y-109055000D02*
X103200000Y-109090000D01*
X103080502Y-109020000D02*
X96140000Y-109020000D01*
X103080502Y-109020000D02*
G75*
G02*
X103164999Y-109055001I-2J-119500D01*
G01*
%TO.N,Net-(D45-A)*%
X122290000Y-109010000D02*
X122300000Y-109000000D01*
X122265857Y-109020000D02*
X115182500Y-109020000D01*
X122265857Y-109020000D02*
G75*
G03*
X122290012Y-109010012I43J34100D01*
G01*
%TO.N,Net-(D46-A)*%
X141148786Y-109020000D02*
X134182500Y-109020000D01*
X141185000Y-109005000D02*
X141200000Y-108990000D01*
X141148786Y-109020000D02*
G75*
G03*
X141185004Y-109005004I14J51200D01*
G01*
%TO.N,Net-(D47-A)*%
X160248786Y-109020000D02*
X153182500Y-109020000D01*
X160285000Y-109005000D02*
X160300000Y-108990000D01*
X160248786Y-109020000D02*
G75*
G03*
X160285004Y-109005004I14J51200D01*
G01*
%TO.N,Net-(D48-A)*%
X179080502Y-109020000D02*
X172282500Y-109020000D01*
X179165000Y-109055000D02*
X179200000Y-109090000D01*
X179080502Y-109020000D02*
G75*
G02*
X179164999Y-109055001I-2J-119500D01*
G01*
%TO.N,Net-(D49-A)*%
X198185000Y-109005000D02*
X198200000Y-108990000D01*
X198148786Y-109020000D02*
X191282500Y-109020000D01*
X198185000Y-109005000D02*
G75*
G02*
X198148786Y-109019995I-36200J36200D01*
G01*
%TO.N,Net-(D50-A)*%
X217385000Y-109005000D02*
X217400000Y-108990000D01*
X217348786Y-109020000D02*
X210282500Y-109020000D01*
X217348786Y-109020000D02*
G75*
G03*
X217385004Y-109005004I14J51200D01*
G01*
%TO.N,Net-(D51-A)*%
X236385000Y-109005000D02*
X236400000Y-108990000D01*
X236348786Y-109020000D02*
X229382500Y-109020000D01*
X236348786Y-109020000D02*
G75*
G03*
X236385004Y-109005004I14J51200D01*
G01*
%TO.N,Net-(D52-A)*%
X255348786Y-109020000D02*
X248440000Y-109020000D01*
X255385000Y-109005000D02*
X255400000Y-108990000D01*
X255348786Y-109020000D02*
G75*
G03*
X255385004Y-109005004I14J51200D01*
G01*
%TO.N,Net-(D53-A)*%
X274397573Y-109020000D02*
X267482500Y-109020000D01*
X274470000Y-109050000D02*
X274500000Y-109080000D01*
X274397573Y-109020000D02*
G75*
G02*
X274470008Y-109049992I27J-102400D01*
G01*
%TO.N,Net-(D54-A)*%
X293585000Y-109005000D02*
X293600000Y-108990000D01*
X293548786Y-109020000D02*
X286540000Y-109020000D01*
X293548786Y-109020000D02*
G75*
G03*
X293585004Y-109005004I14J51200D01*
G01*
%TO.N,Net-(D55-A)*%
X317731715Y-109020000D02*
X310482500Y-109020000D01*
X317780000Y-109000000D02*
X317800000Y-108980000D01*
X317780000Y-109000000D02*
G75*
G02*
X317731715Y-109020007I-48300J48300D01*
G01*
%TO.N,Net-(D56-A)*%
X346196198Y-109093801D02*
X346200000Y-109090000D01*
X346187020Y-109097603D02*
X339146374Y-109097603D01*
X346196198Y-109093801D02*
G75*
G02*
X346187020Y-109097610I-9198J9201D01*
G01*
%TO.N,Net-(D57-A)*%
X365187020Y-109097603D02*
X358192827Y-109097603D01*
X365196198Y-109093801D02*
X365200000Y-109090000D01*
X365187020Y-109097603D02*
G75*
G03*
X365196193Y-109093796I-20J13003D01*
G01*
%TO.N,Net-(D58-A)*%
X384170215Y-109066026D02*
X377259465Y-109066026D01*
X384261987Y-109028013D02*
X384300000Y-108990000D01*
X384170215Y-109066026D02*
G75*
G03*
X384261988Y-109028014I-15J129826D01*
G01*
%TO.N,Net-(D59-A)*%
X408048786Y-109060000D02*
X401050000Y-109060000D01*
X408085000Y-109075000D02*
X408100000Y-109090000D01*
X408085000Y-109075000D02*
G75*
G03*
X408048786Y-109060005I-36200J-36200D01*
G01*
%TO.N,Net-(D60-A)*%
X427048786Y-109020000D02*
X420082500Y-109020000D01*
X427085000Y-109005000D02*
X427100000Y-108990000D01*
X427085000Y-109005000D02*
G75*
G02*
X427048786Y-109019995I-36200J36200D01*
G01*
%TO.N,Net-(D61-A)*%
X444048423Y-109039686D02*
X439126395Y-109039686D01*
X445074843Y-109464843D02*
X445500000Y-109890000D01*
X444048423Y-109039686D02*
G75*
G02*
X445074839Y-109464847I-23J-1451614D01*
G01*
%TO.N,Net-(D62-A)*%
X465051344Y-118571498D02*
X458164731Y-118571498D01*
X465085749Y-118585749D02*
X465100000Y-118600000D01*
X465051344Y-118571498D02*
G75*
G02*
X465085716Y-118585782I-44J-48602D01*
G01*
%TO.N,Net-(D63-A)*%
X55555000Y-128105000D02*
X55540000Y-128120000D01*
X55591213Y-128090000D02*
X62500000Y-128090000D01*
X55555000Y-128105000D02*
G75*
G02*
X55591213Y-128090005I36200J-36200D01*
G01*
%TO.N,Net-(D64-A)*%
X81697500Y-128105000D02*
X81682500Y-128120000D01*
X81733713Y-128090000D02*
X88700000Y-128090000D01*
X81733713Y-128090000D02*
G75*
G03*
X81697496Y-128104996I-13J-51200D01*
G01*
%TO.N,Net-(D65-A)*%
X100791213Y-128090000D02*
X107800000Y-128090000D01*
X100755000Y-128105000D02*
X100740000Y-128120000D01*
X100791213Y-128090000D02*
G75*
G03*
X100754996Y-128104996I-13J-51200D01*
G01*
%TO.N,Net-(D66-A)*%
X119791213Y-128090000D02*
X126800000Y-128090000D01*
X119755000Y-128105000D02*
X119740000Y-128120000D01*
X119791213Y-128090000D02*
G75*
G03*
X119754996Y-128104996I-13J-51200D01*
G01*
%TO.N,Net-(D67-A)*%
X138891213Y-128090000D02*
X145900000Y-128090000D01*
X138855000Y-128105000D02*
X138840000Y-128120000D01*
X138891213Y-128090000D02*
G75*
G03*
X138854996Y-128104996I-13J-51200D01*
G01*
%TO.N,Net-(D68-A)*%
X164843370Y-128056827D02*
X157924369Y-128056827D01*
X164883413Y-128073413D02*
X164900000Y-128090000D01*
X157917499Y-128073413D02*
X157934086Y-128090000D01*
X164843370Y-128056827D02*
G75*
G02*
X164883437Y-128073389I30J-56673D01*
G01*
X157917499Y-128073413D02*
G75*
G02*
X157924369Y-128056732I6901J6913D01*
G01*
%TO.N,Net-(D69-A)*%
X177003387Y-128090000D02*
X184000000Y-128090000D01*
X176994281Y-128086228D02*
X176990509Y-128082456D01*
X177003387Y-128090000D02*
G75*
G02*
X176994283Y-128086226I13J12900D01*
G01*
%TO.N,Net-(D70-A)*%
X196133713Y-128090000D02*
X203000000Y-128090000D01*
X196097500Y-128105000D02*
X196082500Y-128120000D01*
X196097500Y-128105000D02*
G75*
G02*
X196133713Y-128090005I36200J-36200D01*
G01*
%TO.N,Net-(D71-A)*%
X215175639Y-128071650D02*
X215167290Y-128063301D01*
X215195796Y-128080000D02*
X222100000Y-128080000D01*
X215195796Y-128080000D02*
G75*
G02*
X215175642Y-128071647I4J28500D01*
G01*
%TO.N,Net-(D72-A)*%
X234255000Y-128105000D02*
X234240000Y-128120000D01*
X234291213Y-128090000D02*
X241200000Y-128090000D01*
X234255000Y-128105000D02*
G75*
G02*
X234291213Y-128090005I36200J-36200D01*
G01*
%TO.N,Net-(D73-A)*%
X253333713Y-128090000D02*
X260300000Y-128090000D01*
X253297500Y-128105000D02*
X253282500Y-128120000D01*
X253297500Y-128105000D02*
G75*
G02*
X253333713Y-128090005I36200J-36200D01*
G01*
%TO.N,Net-(D74-A)*%
X272459497Y-128190000D02*
X279400000Y-128190000D01*
X272375000Y-128155000D02*
X272340000Y-128120000D01*
X272459497Y-128190000D02*
G75*
G02*
X272375001Y-128154999I3J119500D01*
G01*
%TO.N,Net-(D75-A)*%
X303317500Y-128155000D02*
X303282500Y-128120000D01*
X303401997Y-128190000D02*
X310200000Y-128190000D01*
X303401997Y-128190000D02*
G75*
G02*
X303317501Y-128154999I3J119500D01*
G01*
%TO.N,Net-(D76-A)*%
X401048169Y-128100000D02*
X408000000Y-128100000D01*
X401034962Y-128094529D02*
X401029492Y-128089059D01*
X401034962Y-128094529D02*
G75*
G03*
X401048169Y-128100015I13238J13229D01*
G01*
%TO.N,Net-(D77-A)*%
X420201997Y-128190000D02*
X427100000Y-128190000D01*
X420117500Y-128155000D02*
X420082500Y-128120000D01*
X420117500Y-128155000D02*
G75*
G03*
X420201997Y-128190001I84500J84500D01*
G01*
%TO.N,Net-(D78-A)*%
X439226210Y-128180000D02*
X445900000Y-128180000D01*
X439166126Y-128155112D02*
X439141238Y-128130224D01*
X439226210Y-128180000D02*
G75*
G02*
X439166115Y-128155123I-10J85000D01*
G01*
%TO.N,Net-(D79-A)*%
X67484687Y-147198970D02*
X60311964Y-147198970D01*
X67495515Y-147194485D02*
X67500000Y-147190000D01*
X67495515Y-147194485D02*
G75*
G02*
X67484687Y-147198974I-10815J10785D01*
G01*
%TO.N,Net-(D80-A)*%
X98290144Y-147199856D02*
X98300000Y-147190000D01*
X98266349Y-147209712D02*
X91273426Y-147209712D01*
X98266349Y-147209712D02*
G75*
G03*
X98290111Y-147199823I-49J33612D01*
G01*
%TO.N,Net-(D81-A)*%
X117299820Y-147190105D02*
X110311487Y-147190105D01*
X117299947Y-147190052D02*
X117300000Y-147190000D01*
X117299947Y-147190052D02*
G75*
G02*
X117299821Y-147190110I-147J152D01*
G01*
%TO.N,Net-(D82-A)*%
X136294681Y-147184681D02*
X136300000Y-147190000D01*
X136281841Y-147179363D02*
X129366598Y-147179363D01*
X136294681Y-147184681D02*
G75*
G03*
X136281841Y-147179327I-12881J-12819D01*
G01*
%TO.N,Net-(D83-A)*%
X155396975Y-147188228D02*
X148431076Y-147188228D01*
X155399114Y-147189114D02*
X155400000Y-147190000D01*
X155399114Y-147189114D02*
G75*
G03*
X155396975Y-147188259I-2114J-2186D01*
G01*
%TO.N,Net-(D84-A)*%
X174448786Y-147220000D02*
X167460000Y-147220000D01*
X174485000Y-147205000D02*
X174500000Y-147190000D01*
X174485000Y-147205000D02*
G75*
G02*
X174448786Y-147219995I-36200J36200D01*
G01*
%TO.N,Net-(D85-A)*%
X193448786Y-147160000D02*
X186550000Y-147160000D01*
X193485000Y-147175000D02*
X193500000Y-147190000D01*
X193448786Y-147160000D02*
G75*
G02*
X193485004Y-147174996I14J-51200D01*
G01*
%TO.N,Net-(D86-A)*%
X212590111Y-147180111D02*
X212600000Y-147190000D01*
X212566238Y-147170223D02*
X205619911Y-147170223D01*
X212590111Y-147180111D02*
G75*
G03*
X212566238Y-147170200I-23911J-23889D01*
G01*
%TO.N,Net-(D87-A)*%
X231690111Y-147180111D02*
X231700000Y-147190000D01*
X231666238Y-147170223D02*
X224659430Y-147170223D01*
X231690111Y-147180111D02*
G75*
G03*
X231666238Y-147170200I-23911J-23889D01*
G01*
%TO.N,Net-(D88-A)*%
X250748786Y-147160000D02*
X243750000Y-147160000D01*
X250785000Y-147175000D02*
X250800000Y-147190000D01*
X250748786Y-147160000D02*
G75*
G02*
X250785004Y-147174996I14J-51200D01*
G01*
%TO.N,Net-(D89-A)*%
X269884166Y-147199275D02*
X262813588Y-147199275D01*
X269895362Y-147194637D02*
X269900000Y-147190000D01*
X269884166Y-147199275D02*
G75*
G03*
X269895388Y-147194663I34J15875D01*
G01*
%TO.N,Net-(D90-A)*%
X305795362Y-147194637D02*
X305800000Y-147190000D01*
X305784166Y-147199275D02*
X298528670Y-147199275D01*
X305795362Y-147194637D02*
G75*
G02*
X305784166Y-147199239I-11162J11237D01*
G01*
%TO.N,Net-(D91-A)*%
X365061395Y-147167386D02*
X357960000Y-147167386D01*
X365088693Y-147178693D02*
X365100000Y-147190000D01*
X365061395Y-147167386D02*
G75*
G02*
X365088697Y-147178689I5J-38614D01*
G01*
%TO.N,Net-(D92-A)*%
X407938506Y-147143978D02*
X401026959Y-147143978D01*
X407981989Y-147161989D02*
X408000000Y-147180000D01*
X407938506Y-147143978D02*
G75*
G02*
X407981992Y-147161986I-6J-61522D01*
G01*
%TO.N,Net-(D93-A)*%
X427061969Y-147167722D02*
X420080519Y-147167722D01*
X427088861Y-147178861D02*
X427100000Y-147190000D01*
X427061969Y-147167722D02*
G75*
G02*
X427088866Y-147178856I31J-37978D01*
G01*
%TO.N,Net-(D94-A)*%
X445090452Y-147480452D02*
X445400000Y-147790000D01*
X444343138Y-147170905D02*
X439110198Y-147170905D01*
X444343138Y-147170905D02*
G75*
G02*
X445090440Y-147480464I-38J-1056895D01*
G01*
%TO.N,Net-(D95-A)*%
X465088123Y-156678123D02*
X465100000Y-156690000D01*
X465059449Y-156666246D02*
X458171832Y-156666246D01*
X465088123Y-156678123D02*
G75*
G03*
X465059449Y-156666283I-28623J-28677D01*
G01*
%TO.N,Net-(D96-A)*%
X50840359Y-166357405D02*
X50807764Y-166324810D01*
X50919050Y-166390000D02*
X57900000Y-166390000D01*
X50919050Y-166390000D02*
G75*
G02*
X50840381Y-166357383I50J111300D01*
G01*
%TO.N,Net-(D97-A)*%
X74605000Y-166295000D02*
X74600000Y-166300000D01*
X74617071Y-166290000D02*
X81800000Y-166290000D01*
X74617071Y-166290000D02*
G75*
G03*
X74605008Y-166295008I29J-17100D01*
G01*
%TO.N,Net-(D98-A)*%
X105582928Y-166300000D02*
X98400000Y-166300000D01*
X105595000Y-166295000D02*
X105600000Y-166290000D01*
X105582928Y-166300000D02*
G75*
G03*
X105594992Y-166294992I-28J17100D01*
G01*
%TO.N,Net-(D99-A)*%
X169933713Y-166290000D02*
X177100000Y-166290000D01*
X169897500Y-166305000D02*
X169882500Y-166320000D01*
X169933713Y-166290000D02*
G75*
G03*
X169897496Y-166304996I-13J-51200D01*
G01*
%TO.N,Net-(D100-A)*%
X241394142Y-166200000D02*
X248600000Y-166200000D01*
X241370000Y-166210000D02*
X241360000Y-166220000D01*
X241370000Y-166210000D02*
G75*
G02*
X241394142Y-166200017I24100J-24100D01*
G01*
%TO.N,Net-(D101-A)*%
X265194142Y-166200000D02*
X272200000Y-166200000D01*
X265170000Y-166210000D02*
X265160000Y-166220000D01*
X265170000Y-166210000D02*
G75*
G02*
X265194142Y-166200017I24100J-24100D01*
G01*
%TO.N,Net-(D102-A)*%
X288997500Y-166205000D02*
X288982500Y-166220000D01*
X289033713Y-166190000D02*
X295600000Y-166190000D01*
X289033713Y-166190000D02*
G75*
G03*
X288997496Y-166204996I-13J-51200D01*
G01*
%TO.N,Net-(D103-A)*%
X312874142Y-166200000D02*
X319900000Y-166200000D01*
X312850000Y-166210000D02*
X312840000Y-166220000D01*
X312850000Y-166210000D02*
G75*
G02*
X312874142Y-166200017I24100J-24100D01*
G01*
%TO.N,/RotEncoder1B2*%
X370386036Y-35700000D02*
X364940000Y-35700000D01*
X374233792Y-37293792D02*
X376140000Y-39200000D01*
X370386036Y-35700000D02*
G75*
G02*
X374233784Y-37293800I-36J-5441600D01*
G01*
%TO.N,/RotEncoder1A*%
X375692792Y-49807207D02*
X378680000Y-46820000D01*
X371845036Y-51401000D02*
X361910235Y-51401000D01*
X360460500Y-50800500D02*
X359860000Y-50200000D01*
X375692792Y-49807207D02*
G75*
G02*
X371845036Y-51401010I-3847792J3847807D01*
G01*
X361910235Y-51401000D02*
G75*
G02*
X360460490Y-50800510I-35J2050200D01*
G01*
%TO.N,/RotEncoder1B1*%
X371725036Y-34499000D02*
X361910235Y-34499000D01*
X360460500Y-35099500D02*
X359860000Y-35700000D01*
X375572792Y-36092792D02*
X378680000Y-39200000D01*
X360460500Y-35099500D02*
G75*
G02*
X361910235Y-34499015I1449700J-1449700D01*
G01*
X371725036Y-34499000D02*
G75*
G02*
X375572784Y-36092800I-36J-5441600D01*
G01*
%TO.N,/RotEncoder1B*%
X370573963Y-46820000D02*
X376140000Y-46820000D01*
X366726207Y-48413792D02*
X364940000Y-50200000D01*
X366726207Y-48413792D02*
G75*
G02*
X370573963Y-46819959I3847793J-3847708D01*
G01*
%TO.N,Net-(D104-A)*%
X339019878Y-166200000D02*
X346000000Y-166200000D01*
X338991196Y-166211880D02*
X338979316Y-166223761D01*
X339019878Y-166200000D02*
G75*
G03*
X338991199Y-166211883I22J-40600D01*
G01*
%TO.N,Net-(D105-A)*%
X358017885Y-166211880D02*
X358006005Y-166223761D01*
X358046567Y-166200000D02*
X365100000Y-166200000D01*
X358046567Y-166200000D02*
G75*
G03*
X358017894Y-166211889I33J-40600D01*
G01*
%TO.N,Net-(D106-A)*%
X377064489Y-166207644D02*
X377046845Y-166225288D01*
X377107085Y-166190000D02*
X384100000Y-166190000D01*
X377064489Y-166207644D02*
G75*
G02*
X377107085Y-166189978I42611J-42556D01*
G01*
%TO.N,Net-(D107-A)*%
X410532502Y-166184538D02*
X410527041Y-166179077D01*
X410545687Y-166190000D02*
X417800000Y-166190000D01*
X410545687Y-166190000D02*
G75*
G02*
X410532518Y-166184522I13J18600D01*
G01*
%TO.N,Net-(D108-A)*%
X439168899Y-166234538D02*
X439113438Y-166179077D01*
X439302795Y-166290000D02*
X445600000Y-166290000D01*
X439168899Y-166234538D02*
G75*
G03*
X439302795Y-166289991I133901J133938D01*
G01*
%TO.N,/RotEncoder2B1*%
X345726207Y-34093792D02*
X343820000Y-36000000D01*
X374806036Y-32500000D02*
X349573963Y-32500000D01*
X378653792Y-34093792D02*
X383760000Y-39200000D01*
X345726207Y-34093792D02*
G75*
G02*
X349573963Y-32499959I3847793J-3847708D01*
G01*
X378653792Y-34093792D02*
G75*
G03*
X374806036Y-32499989I-3847792J-3847808D01*
G01*
%TO.N,/RotEncoder2B2*%
X377113792Y-35093792D02*
X381220000Y-39200000D01*
X350150000Y-34750000D02*
X348900000Y-36000000D01*
X353167766Y-33500000D02*
X373266036Y-33500000D01*
X377113792Y-35093792D02*
G75*
G03*
X373266036Y-33499989I-3847792J-3847808D01*
G01*
X350150000Y-34750000D02*
G75*
G02*
X353167766Y-33499986I3017800J-3017800D01*
G01*
%TO.N,/RotEncoder2A*%
X379970792Y-50609207D02*
X383760000Y-46820000D01*
X376123036Y-52203000D02*
X346727202Y-52203000D01*
X344671500Y-51351500D02*
X343820000Y-50500000D01*
X344671500Y-51351500D02*
G75*
G03*
X346727202Y-52202999I2055700J2055700D01*
G01*
X376123036Y-52203000D02*
G75*
G03*
X379970785Y-50609200I-36J5441600D01*
G01*
%TO.N,/RotEncoder2B*%
X349551000Y-51151000D02*
X348900000Y-50500000D01*
X373984036Y-51802000D02*
X351122653Y-51802000D01*
X377831792Y-50208207D02*
X381220000Y-46820000D01*
X349551000Y-51151000D02*
G75*
G03*
X351122653Y-51802019I1571700J1571700D01*
G01*
X373984036Y-51802000D02*
G75*
G03*
X377831785Y-50208200I-36J5441600D01*
G01*
%TO.N,/ROW6*%
X452655823Y-117510000D02*
X445500000Y-117510000D01*
X456503579Y-119103792D02*
X458879990Y-121480203D01*
X456503579Y-119103792D02*
G75*
G03*
X452655823Y-117509998I-3847779J-3847808D01*
G01*
X461162151Y-122425495D02*
G75*
G02*
X458879984Y-121480209I-51J3227395D01*
G01*
X461162151Y-122425495D02*
G75*
G02*
X461406886Y-122526820I49J-346105D01*
G01*
X461406853Y-122526853D02*
X465100000Y-126220000D01*
%TD*%
M02*
