%TF.GenerationSoftware,KiCad,Pcbnew,9.0.6-1.fc43*%
%TF.CreationDate,2025-12-24T21:45:28-06:00*%
%TF.ProjectId,full-keyboard,66756c6c-2d6b-4657-9962-6f6172642e6b,1*%
%TF.SameCoordinates,Original*%
%TF.FileFunction,Paste,Bot*%
%TF.FilePolarity,Positive*%
%FSLAX46Y46*%
G04 Gerber Fmt 4.6, Leading zero omitted, Abs format (unit mm)*
G04 Created by KiCad (PCBNEW 9.0.6-1.fc43) date 2025-12-24 21:45:28*
%MOMM*%
%LPD*%
G01*
G04 APERTURE LIST*
G04 Aperture macros list*
%AMRoundRect*
0 Rectangle with rounded corners*
0 $1 Rounding radius*
0 $2 $3 $4 $5 $6 $7 $8 $9 X,Y pos of 4 corners*
0 Add a 4 corners polygon primitive as box body*
4,1,4,$2,$3,$4,$5,$6,$7,$8,$9,$2,$3,0*
0 Add four circle primitives for the rounded corners*
1,1,$1+$1,$2,$3*
1,1,$1+$1,$4,$5*
1,1,$1+$1,$6,$7*
1,1,$1+$1,$8,$9*
0 Add four rect primitives between the rounded corners*
20,1,$1+$1,$2,$3,$4,$5,0*
20,1,$1+$1,$4,$5,$6,$7,0*
20,1,$1+$1,$6,$7,$8,$9,0*
20,1,$1+$1,$8,$9,$2,$3,0*%
G04 Aperture macros list end*
%ADD10RoundRect,0.250000X-1.025000X-1.000000X1.025000X-1.000000X1.025000X1.000000X-1.025000X1.000000X0*%
G04 APERTURE END LIST*
D10*
%TO.C,SW52*%
X238815000Y-111560000D03*
X251742000Y-109020000D03*
%TD*%
%TO.C,SW47*%
X143557500Y-111560000D03*
X156484500Y-109020000D03*
%TD*%
%TO.C,SW20*%
X448576169Y-64012685D03*
X461503169Y-61472685D03*
%TD*%
%TO.C,SW66*%
X110115000Y-130660000D03*
X123042000Y-128120000D03*
%TD*%
%TO.C,SW64*%
X72057500Y-130660000D03*
X84984500Y-128120000D03*
%TD*%
%TO.C,SW8*%
X200955583Y-64025221D03*
X213882583Y-61485221D03*
%TD*%
%TO.C,SW73*%
X243657500Y-130660000D03*
X256584500Y-128120000D03*
%TD*%
%TO.C,SW98*%
X88775000Y-168840000D03*
X101702000Y-166300000D03*
%TD*%
%TO.C,SW106*%
X367421845Y-168765288D03*
X380348845Y-166225288D03*
%TD*%
%TO.C,SW76*%
X391404492Y-130629059D03*
X404331492Y-128089059D03*
%TD*%
%TO.C,SW28*%
X172275628Y-92516953D03*
X185202628Y-89976953D03*
%TD*%
%TO.C,SW31*%
X229484228Y-92519152D03*
X242411228Y-89979152D03*
%TD*%
%TO.C,SW19*%
X429528202Y-64004770D03*
X442455202Y-61464770D03*
%TD*%
%TO.C,SW25*%
X115098388Y-92509899D03*
X128025388Y-89969899D03*
%TD*%
%TO.C,SW97*%
X64975000Y-168840000D03*
X77902000Y-166300000D03*
%TD*%
%TO.C,SW54*%
X276915000Y-111560000D03*
X289842000Y-109020000D03*
%TD*%
%TO.C,SW12*%
X286677838Y-64021771D03*
X299604838Y-61481771D03*
%TD*%
%TO.C,SW1*%
X38835000Y-63960000D03*
X51762000Y-61420000D03*
%TD*%
%TO.C,SW101*%
X255535000Y-168760000D03*
X268462000Y-166220000D03*
%TD*%
%TO.C,SW11*%
X267635794Y-64020145D03*
X280562794Y-61480145D03*
%TD*%
%TO.C,SW57*%
X348567827Y-111637603D03*
X361494827Y-109097603D03*
%TD*%
%TO.C,SW37*%
X367608584Y-92533693D03*
X380535584Y-89993693D03*
%TD*%
%TO.C,SW62*%
X448539731Y-121111498D03*
X461466731Y-118571498D03*
%TD*%
%TO.C,SW18*%
X410483740Y-64004870D03*
X423410740Y-61464870D03*
%TD*%
%TO.C,SW49*%
X181657500Y-111560000D03*
X194584500Y-109020000D03*
%TD*%
%TO.C,SW78*%
X429516238Y-130670224D03*
X442443238Y-128130224D03*
%TD*%
%TO.C,SW96*%
X41182764Y-168864810D03*
X54109764Y-166324810D03*
%TD*%
%TO.C,SW27*%
X153228179Y-92520614D03*
X166155179Y-89980614D03*
%TD*%
%TO.C,SW29*%
X191351464Y-92516112D03*
X204278464Y-89976112D03*
%TD*%
%TO.C,SW107*%
X400902041Y-168719077D03*
X413829041Y-166179077D03*
%TD*%
%TO.C,SW89*%
X253188588Y-149739275D03*
X266115588Y-147199275D03*
%TD*%
%TO.C,SW70*%
X186457500Y-130660000D03*
X199384500Y-128120000D03*
%TD*%
%TO.C,SW90*%
X288903670Y-149739275D03*
X301830670Y-147199275D03*
%TD*%
%TO.C,SW71*%
X205542290Y-130603301D03*
X218469290Y-128063301D03*
%TD*%
%TO.C,SW104*%
X329354316Y-168763761D03*
X342281316Y-166223761D03*
%TD*%
%TO.C,SW42*%
X43561884Y-111584031D03*
X56488884Y-109044031D03*
%TD*%
%TO.C,SW80*%
X81648426Y-149749712D03*
X94575426Y-147209712D03*
%TD*%
%TO.C,SW93*%
X410455519Y-149707722D03*
X423382519Y-147167722D03*
%TD*%
%TO.C,SW2*%
X77091232Y-63984027D03*
X90018232Y-61444027D03*
%TD*%
%TO.C,SW77*%
X410457500Y-130660000D03*
X423384500Y-128120000D03*
%TD*%
%TO.C,SW3*%
X96171082Y-63984027D03*
X109098082Y-61444027D03*
%TD*%
%TO.C,SW92*%
X391401959Y-149683978D03*
X404328959Y-147143978D03*
%TD*%
%TO.C,SW95*%
X448546832Y-159206246D03*
X461473832Y-156666246D03*
%TD*%
%TO.C,SW14*%
X329554249Y-64017158D03*
X342481249Y-61477158D03*
%TD*%
%TO.C,SW83*%
X138806076Y-149728228D03*
X151733076Y-147188228D03*
%TD*%
%TO.C,SW86*%
X195994911Y-149710223D03*
X208921911Y-147170223D03*
%TD*%
%TO.C,SW10*%
X248585582Y-64032622D03*
X261512582Y-61492622D03*
%TD*%
%TO.C,SW105*%
X348381005Y-168763761D03*
X361308005Y-166223761D03*
%TD*%
%TO.C,SW100*%
X231735000Y-168760000D03*
X244662000Y-166220000D03*
%TD*%
%TO.C,SW85*%
X176925000Y-149700000D03*
X189852000Y-147160000D03*
%TD*%
%TO.C,SW30*%
X210434015Y-92519507D03*
X223361015Y-89979507D03*
%TD*%
%TO.C,SW36*%
X348567827Y-92533693D03*
X361494827Y-89993693D03*
%TD*%
%TO.C,SW108*%
X429488438Y-168719077D03*
X442415438Y-166179077D03*
%TD*%
%TO.C,SW34*%
X296186745Y-92527979D03*
X309113745Y-89987979D03*
%TD*%
%TO.C,SW7*%
X181888182Y-64001772D03*
X194815182Y-61461772D03*
%TD*%
%TO.C,SW102*%
X279357500Y-168760000D03*
X292284500Y-166220000D03*
%TD*%
%TO.C,SW59*%
X391425000Y-111600000D03*
X404352000Y-109060000D03*
%TD*%
%TO.C,SW63*%
X45915000Y-130660000D03*
X58842000Y-128120000D03*
%TD*%
%TO.C,SW75*%
X293657500Y-130660000D03*
X306584500Y-128120000D03*
%TD*%
%TO.C,SW39*%
X410464689Y-92533863D03*
X423391689Y-89993863D03*
%TD*%
%TO.C,SW48*%
X162657500Y-111560000D03*
X175584500Y-109020000D03*
%TD*%
%TO.C,SW50*%
X200657500Y-111560000D03*
X213584500Y-109020000D03*
%TD*%
%TO.C,SW9*%
X220033013Y-64025221D03*
X232960013Y-61485221D03*
%TD*%
%TO.C,SW44*%
X86515000Y-111560000D03*
X99442000Y-109020000D03*
%TD*%
%TO.C,SW79*%
X50686964Y-149738970D03*
X63613964Y-147198970D03*
%TD*%
%TO.C,SW56*%
X329521374Y-111637603D03*
X342448374Y-109097603D03*
%TD*%
%TO.C,SW38*%
X391409630Y-92522451D03*
X404336630Y-89982451D03*
%TD*%
%TO.C,SW74*%
X262715000Y-130660000D03*
X275642000Y-128120000D03*
%TD*%
%TO.C,SW35*%
X329520641Y-92529136D03*
X342447641Y-89989136D03*
%TD*%
%TO.C,SW72*%
X224615000Y-130660000D03*
X237542000Y-128120000D03*
%TD*%
%TO.C,SW22*%
X57898415Y-92509899D03*
X70825415Y-89969899D03*
%TD*%
%TO.C,SW6*%
X162823687Y-63994126D03*
X175750687Y-61454126D03*
%TD*%
%TO.C,SW21*%
X38831758Y-92509899D03*
X51758758Y-89969899D03*
%TD*%
%TO.C,SW103*%
X303215000Y-168760000D03*
X316142000Y-166220000D03*
%TD*%
%TO.C,SW58*%
X367634465Y-111606026D03*
X380561465Y-109066026D03*
%TD*%
%TO.C,SW69*%
X167365509Y-130622456D03*
X180292509Y-128082456D03*
%TD*%
%TO.C,SW5*%
X134278733Y-63983628D03*
X147205733Y-61443628D03*
%TD*%
%TO.C,SW87*%
X215034430Y-149710223D03*
X227961430Y-147170223D03*
%TD*%
%TO.C,SW55*%
X300857500Y-111560000D03*
X313784500Y-109020000D03*
%TD*%
%TO.C,SW23*%
X76968967Y-92509899D03*
X89895967Y-89969899D03*
%TD*%
%TO.C,SW17*%
X391474361Y-64006744D03*
X404401361Y-61466744D03*
%TD*%
%TO.C,SW60*%
X410457500Y-111560000D03*
X423384500Y-109020000D03*
%TD*%
%TO.C,SW41*%
X448547642Y-92535064D03*
X461474642Y-89995064D03*
%TD*%
%TO.C,SW43*%
X67415000Y-111560000D03*
X80342000Y-109020000D03*
%TD*%
%TO.C,SW53*%
X257857500Y-111560000D03*
X270784500Y-109020000D03*
%TD*%
%TO.C,SW33*%
X267617197Y-92530082D03*
X280544197Y-89990082D03*
%TD*%
%TO.C,SW88*%
X234125000Y-149700000D03*
X247052000Y-147160000D03*
%TD*%
%TO.C,SW26*%
X134165045Y-92509899D03*
X147092045Y-89969899D03*
%TD*%
%TO.C,SW40*%
X429505280Y-92535861D03*
X442432280Y-89995861D03*
%TD*%
%TO.C,SW82*%
X119741598Y-149719363D03*
X132668598Y-147179363D03*
%TD*%
%TO.C,SW51*%
X219757500Y-111560000D03*
X232684500Y-109020000D03*
%TD*%
%TO.C,SW45*%
X105557500Y-111560000D03*
X118484500Y-109020000D03*
%TD*%
%TO.C,SW46*%
X124557500Y-111560000D03*
X137484500Y-109020000D03*
%TD*%
%TO.C,SW67*%
X129215000Y-130660000D03*
X142142000Y-128120000D03*
%TD*%
%TO.C,SW99*%
X160257500Y-168860000D03*
X173184500Y-166320000D03*
%TD*%
%TO.C,SW32*%
X248562055Y-92519152D03*
X261489055Y-89979152D03*
%TD*%
%TO.C,SW13*%
X305773874Y-64021771D03*
X318700874Y-61481771D03*
%TD*%
%TO.C,SW15*%
X348628592Y-64015156D03*
X361555592Y-61475156D03*
%TD*%
%TO.C,SW61*%
X429501395Y-111579686D03*
X442428395Y-109039686D03*
%TD*%
%TO.C,SW84*%
X157835000Y-149760000D03*
X170762000Y-147220000D03*
%TD*%
%TO.C,SW91*%
X348335000Y-149707386D03*
X361262000Y-147167386D03*
%TD*%
%TO.C,SW81*%
X100686487Y-149730105D03*
X113613487Y-147190105D03*
%TD*%
%TO.C,SW16*%
X367684413Y-64015156D03*
X380611413Y-61475156D03*
%TD*%
%TO.C,SW68*%
X148275913Y-130596827D03*
X161202913Y-128056827D03*
%TD*%
%TO.C,SW94*%
X429485198Y-149710905D03*
X442412198Y-147170905D03*
%TD*%
%TO.C,SW4*%
X115227082Y-63975570D03*
X128154082Y-61435570D03*
%TD*%
%TO.C,SW24*%
X96031730Y-92509899D03*
X108958730Y-89969899D03*
%TD*%
%TO.C,SW65*%
X91115000Y-130660000D03*
X104042000Y-128120000D03*
%TD*%
M02*
