%TF.GenerationSoftware,KiCad,Pcbnew,9.0.6-1.fc43*%
%TF.CreationDate,2025-12-24T21:45:29-06:00*%
%TF.ProjectId,full-keyboard,66756c6c-2d6b-4657-9962-6f6172642e6b,1*%
%TF.SameCoordinates,Original*%
%TF.FileFunction,Soldermask,Top*%
%TF.FilePolarity,Negative*%
%FSLAX46Y46*%
G04 Gerber Fmt 4.6, Leading zero omitted, Abs format (unit mm)*
G04 Created by KiCad (PCBNEW 9.0.6-1.fc43) date 2025-12-24 21:45:29*
%MOMM*%
%LPD*%
G01*
G04 APERTURE LIST*
G04 Aperture macros list*
%AMRoundRect*
0 Rectangle with rounded corners*
0 $1 Rounding radius*
0 $2 $3 $4 $5 $6 $7 $8 $9 X,Y pos of 4 corners*
0 Add a 4 corners polygon primitive as box body*
4,1,4,$2,$3,$4,$5,$6,$7,$8,$9,$2,$3,0*
0 Add four circle primitives for the rounded corners*
1,1,$1+$1,$2,$3*
1,1,$1+$1,$4,$5*
1,1,$1+$1,$6,$7*
1,1,$1+$1,$8,$9*
0 Add four rect primitives between the rounded corners*
20,1,$1+$1,$2,$3,$4,$5,0*
20,1,$1+$1,$4,$5,$6,$7,0*
20,1,$1+$1,$6,$7,$8,$9,0*
20,1,$1+$1,$8,$9,$2,$3,0*%
%AMFreePoly0*
4,1,37,0.603843,0.796157,0.639018,0.796157,0.711114,0.766294,0.766294,0.711114,0.796157,0.639018,0.796157,0.603843,0.800000,0.600000,0.800000,-0.600000,0.796157,-0.603843,0.796157,-0.639018,0.766294,-0.711114,0.711114,-0.766294,0.639018,-0.796157,0.603843,-0.796157,0.600000,-0.800000,0.000000,-0.800000,0.000000,-0.796148,-0.078414,-0.796148,-0.232228,-0.765552,-0.377117,-0.705537,
-0.507515,-0.618408,-0.618408,-0.507515,-0.705537,-0.377117,-0.765552,-0.232228,-0.796148,-0.078414,-0.796148,0.078414,-0.765552,0.232228,-0.705537,0.377117,-0.618408,0.507515,-0.507515,0.618408,-0.377117,0.705537,-0.232228,0.765552,-0.078414,0.796148,0.000000,0.796148,0.000000,0.800000,0.600000,0.800000,0.603843,0.796157,0.603843,0.796157,$1*%
%AMFreePoly1*
4,1,37,0.000000,0.796148,0.078414,0.796148,0.232228,0.765552,0.377117,0.705537,0.507515,0.618408,0.618408,0.507515,0.705537,0.377117,0.765552,0.232228,0.796148,0.078414,0.796148,-0.078414,0.765552,-0.232228,0.705537,-0.377117,0.618408,-0.507515,0.507515,-0.618408,0.377117,-0.705537,0.232228,-0.765552,0.078414,-0.796148,0.000000,-0.796148,0.000000,-0.800000,-0.600000,-0.800000,
-0.603843,-0.796157,-0.639018,-0.796157,-0.711114,-0.766294,-0.766294,-0.711114,-0.796157,-0.639018,-0.796157,-0.603843,-0.800000,-0.600000,-0.800000,0.600000,-0.796157,0.603843,-0.796157,0.639018,-0.766294,0.711114,-0.711114,0.766294,-0.639018,0.796157,-0.603843,0.796157,-0.600000,0.800000,0.000000,0.800000,0.000000,0.796148,0.000000,0.796148,$1*%
G04 Aperture macros list end*
%ADD10C,1.750000*%
%ADD11C,3.050000*%
%ADD12C,4.000000*%
%ADD13RoundRect,0.250000X0.550000X-0.550000X0.550000X0.550000X-0.550000X0.550000X-0.550000X-0.550000X0*%
%ADD14C,1.600000*%
%ADD15R,1.700000X1.700000*%
%ADD16O,1.700000X1.700000*%
%ADD17O,2.300000X4.000000*%
%ADD18C,1.800000*%
%ADD19RoundRect,0.200000X-0.600000X0.600000X-0.600000X-0.600000X0.600000X-0.600000X0.600000X0.600000X0*%
%ADD20FreePoly0,270.000000*%
%ADD21FreePoly1,270.000000*%
G04 APERTURE END LIST*
D10*
%TO.C,SW52*%
X240820000Y-114100000D03*
D11*
X242090000Y-111560000D03*
D12*
X245900000Y-114100000D03*
D11*
X248440000Y-109020000D03*
D10*
X250980000Y-114100000D03*
%TD*%
D13*
%TO.C,D106*%
X384100000Y-173810000D03*
D14*
X384100000Y-166190000D03*
%TD*%
D13*
%TO.C,D42*%
X59800000Y-116720000D03*
D14*
X59800000Y-109100000D03*
%TD*%
D13*
%TO.C,D38*%
X408100000Y-97720000D03*
D14*
X408100000Y-90100000D03*
%TD*%
D10*
%TO.C,SW47*%
X145562500Y-114100000D03*
D11*
X146832500Y-111560000D03*
D12*
X150642500Y-114100000D03*
D11*
X153182500Y-109020000D03*
D10*
X155722500Y-114100000D03*
%TD*%
D13*
%TO.C,D40*%
X446200000Y-97710000D03*
D14*
X446200000Y-90090000D03*
%TD*%
D10*
%TO.C,SW20*%
X450581169Y-66552685D03*
D11*
X451851169Y-64012685D03*
D12*
X455661169Y-66552685D03*
D11*
X458201169Y-61472685D03*
D10*
X460741169Y-66552685D03*
%TD*%
%TO.C,SW66*%
X112120000Y-133200000D03*
D11*
X113390000Y-130660000D03*
D12*
X117200000Y-133200000D03*
D11*
X119740000Y-128120000D03*
D10*
X122280000Y-133200000D03*
%TD*%
%TO.C,SW64*%
X74062500Y-133200000D03*
D11*
X75332500Y-130660000D03*
D12*
X79142500Y-133200000D03*
D11*
X81682500Y-128120000D03*
D10*
X84222500Y-133200000D03*
%TD*%
%TO.C,SW8*%
X202960583Y-66565221D03*
D11*
X204230583Y-64025221D03*
D12*
X208040583Y-66565221D03*
D11*
X210580583Y-61485221D03*
D10*
X213120583Y-66565221D03*
%TD*%
D13*
%TO.C,D56*%
X346200000Y-116710000D03*
D14*
X346200000Y-109090000D03*
%TD*%
D13*
%TO.C,D88*%
X250800000Y-154810000D03*
D14*
X250800000Y-147190000D03*
%TD*%
D10*
%TO.C,SW73*%
X245662500Y-133200000D03*
D11*
X246932500Y-130660000D03*
D12*
X250742500Y-133200000D03*
D11*
X253282500Y-128120000D03*
D10*
X255822500Y-133200000D03*
%TD*%
D13*
%TO.C,D55*%
X317800000Y-116600000D03*
D14*
X317800000Y-108980000D03*
%TD*%
D13*
%TO.C,D98*%
X105600000Y-173910000D03*
D14*
X105600000Y-166290000D03*
%TD*%
D13*
%TO.C,D97*%
X81800000Y-173910000D03*
D14*
X81800000Y-166290000D03*
%TD*%
D15*
%TO.C,J1*%
X370100000Y-128980000D03*
D16*
X370100000Y-131520000D03*
X370100000Y-134060000D03*
X370100000Y-136600000D03*
%TD*%
D13*
%TO.C,D67*%
X145900000Y-135710000D03*
D14*
X145900000Y-128090000D03*
%TD*%
D13*
%TO.C,D74*%
X279400000Y-135810000D03*
D14*
X279400000Y-128190000D03*
%TD*%
D13*
%TO.C,D96*%
X57900000Y-174010000D03*
D14*
X57900000Y-166390000D03*
%TD*%
D10*
%TO.C,SW98*%
X90780000Y-171380000D03*
D11*
X92050000Y-168840000D03*
D12*
X95860000Y-171380000D03*
D11*
X98400000Y-166300000D03*
D10*
X100940000Y-171380000D03*
%TD*%
D13*
%TO.C,D82*%
X136300000Y-154810000D03*
D14*
X136300000Y-147190000D03*
%TD*%
D10*
%TO.C,SW106*%
X369426845Y-171305288D03*
D11*
X370696845Y-168765288D03*
D12*
X374506845Y-171305288D03*
D11*
X377046845Y-166225288D03*
D10*
X379586845Y-171305288D03*
%TD*%
D13*
%TO.C,D86*%
X212600000Y-154810000D03*
D14*
X212600000Y-147190000D03*
%TD*%
D11*
%TO.C,REF\u002A\u002A*%
X448560000Y-149780000D03*
X448560000Y-173580000D03*
D12*
X463800000Y-149780000D03*
X463800000Y-173580000D03*
%TD*%
D13*
%TO.C,D41*%
X465200000Y-97710000D03*
D14*
X465200000Y-90090000D03*
%TD*%
D13*
%TO.C,D91*%
X365100000Y-154810000D03*
D14*
X365100000Y-147190000D03*
%TD*%
D10*
%TO.C,SW76*%
X393409492Y-133169059D03*
D11*
X394679492Y-130629059D03*
D12*
X398489492Y-133169059D03*
D11*
X401029492Y-128089059D03*
D10*
X403569492Y-133169059D03*
%TD*%
%TO.C,SW28*%
X174280628Y-95056953D03*
D11*
X175550628Y-92516953D03*
D12*
X179360628Y-95056953D03*
D11*
X181900628Y-89976953D03*
D10*
X184440628Y-95056953D03*
%TD*%
%TO.C,SW31*%
X231489228Y-95059152D03*
D11*
X232759228Y-92519152D03*
D12*
X236569228Y-95059152D03*
D11*
X239109228Y-89979152D03*
D10*
X241649228Y-95059152D03*
%TD*%
D13*
%TO.C,D26*%
X150800000Y-97620000D03*
D14*
X150800000Y-90000000D03*
%TD*%
D10*
%TO.C,SW19*%
X431533202Y-66544770D03*
D11*
X432803202Y-64004770D03*
D12*
X436613202Y-66544770D03*
D11*
X439153202Y-61464770D03*
D10*
X441693202Y-66544770D03*
%TD*%
D13*
%TO.C,D39*%
X427100000Y-97720000D03*
D14*
X427100000Y-90100000D03*
%TD*%
D10*
%TO.C,SW25*%
X117103388Y-95049899D03*
D11*
X118373388Y-92509899D03*
D12*
X122183388Y-95049899D03*
D11*
X124723388Y-89969899D03*
D10*
X127263388Y-95049899D03*
%TD*%
D13*
%TO.C,D83*%
X155400000Y-154810000D03*
D14*
X155400000Y-147190000D03*
%TD*%
D13*
%TO.C,D11*%
X284200000Y-69310000D03*
D14*
X284200000Y-61690000D03*
%TD*%
D10*
%TO.C,SW97*%
X66980000Y-171380000D03*
D11*
X68250000Y-168840000D03*
D12*
X72060000Y-171380000D03*
D11*
X74600000Y-166300000D03*
D10*
X77140000Y-171380000D03*
%TD*%
D13*
%TO.C,D22*%
X74600000Y-97620000D03*
D14*
X74600000Y-90000000D03*
%TD*%
D13*
%TO.C,D15*%
X365200000Y-69120000D03*
D14*
X365200000Y-61500000D03*
%TD*%
D13*
%TO.C,D5*%
X151000000Y-69310000D03*
D14*
X151000000Y-61690000D03*
%TD*%
D13*
%TO.C,D51*%
X236400000Y-116610000D03*
D14*
X236400000Y-108990000D03*
%TD*%
D11*
%TO.C,REF\u002A\u002A*%
X45903293Y-145330032D03*
D12*
X45903293Y-160570032D03*
D11*
X69703293Y-145330032D03*
D12*
X69703293Y-160570032D03*
%TD*%
D10*
%TO.C,SW54*%
X278920000Y-114100000D03*
D11*
X280190000Y-111560000D03*
D12*
X284000000Y-114100000D03*
D11*
X286540000Y-109020000D03*
D10*
X289080000Y-114100000D03*
%TD*%
D13*
%TO.C,D58*%
X384300000Y-116610000D03*
D14*
X384300000Y-108990000D03*
%TD*%
D10*
%TO.C,SW12*%
X288682838Y-66561771D03*
D11*
X289952838Y-64021771D03*
D12*
X293762838Y-66561771D03*
D11*
X296302838Y-61481771D03*
D10*
X298842838Y-66561771D03*
%TD*%
D13*
%TO.C,D28*%
X188900000Y-97620000D03*
D14*
X188900000Y-90000000D03*
%TD*%
D13*
%TO.C,D107*%
X417800000Y-173810000D03*
D14*
X417800000Y-166190000D03*
%TD*%
D10*
%TO.C,SW1*%
X40840000Y-66500000D03*
D11*
X42110000Y-63960000D03*
D12*
X45920000Y-66500000D03*
D11*
X48460000Y-61420000D03*
D10*
X51000000Y-66500000D03*
%TD*%
D13*
%TO.C,D19*%
X446100000Y-69310000D03*
D14*
X446100000Y-61690000D03*
%TD*%
D10*
%TO.C,SW101*%
X257540000Y-171300000D03*
D11*
X258810000Y-168760000D03*
D12*
X262620000Y-171300000D03*
D11*
X265160000Y-166220000D03*
D10*
X267700000Y-171300000D03*
%TD*%
D11*
%TO.C,REF\u002A\u002A*%
X117336934Y-164378143D03*
D12*
X117336934Y-179618143D03*
D11*
X217336934Y-164378143D03*
D12*
X217336934Y-179618143D03*
%TD*%
D10*
%TO.C,SW11*%
X269640794Y-66560145D03*
D11*
X270910794Y-64020145D03*
D12*
X274720794Y-66560145D03*
D11*
X277260794Y-61480145D03*
D10*
X279800794Y-66560145D03*
%TD*%
D13*
%TO.C,D8*%
X217600000Y-69310000D03*
D14*
X217600000Y-61690000D03*
%TD*%
D10*
%TO.C,SW57*%
X350572827Y-114177603D03*
D11*
X351842827Y-111637603D03*
D12*
X355652827Y-114177603D03*
D11*
X358192827Y-109097603D03*
D10*
X360732827Y-114177603D03*
%TD*%
%TO.C,SW37*%
X369613584Y-95073693D03*
D11*
X370883584Y-92533693D03*
D12*
X374693584Y-95073693D03*
D11*
X377233584Y-89993693D03*
D10*
X379773584Y-95073693D03*
%TD*%
D13*
%TO.C,D70*%
X203000000Y-135710000D03*
D14*
X203000000Y-128090000D03*
%TD*%
D13*
%TO.C,D72*%
X241200000Y-135710000D03*
D14*
X241200000Y-128090000D03*
%TD*%
D10*
%TO.C,SW62*%
X450544731Y-123651498D03*
D11*
X451814731Y-121111498D03*
D12*
X455624731Y-123651498D03*
D11*
X458164731Y-118571498D03*
D10*
X460704731Y-123651498D03*
%TD*%
D13*
%TO.C,D33*%
X284200000Y-97620000D03*
D14*
X284200000Y-90000000D03*
%TD*%
D10*
%TO.C,SW18*%
X412488740Y-66544870D03*
D11*
X413758740Y-64004870D03*
D12*
X417568740Y-66544870D03*
D11*
X420108740Y-61464870D03*
D10*
X422648740Y-66544870D03*
%TD*%
D13*
%TO.C,D37*%
X384300000Y-97720000D03*
D14*
X384300000Y-90100000D03*
%TD*%
D10*
%TO.C,SW49*%
X183662500Y-114100000D03*
D11*
X184932500Y-111560000D03*
D12*
X188742500Y-114100000D03*
D11*
X191282500Y-109020000D03*
D10*
X193822500Y-114100000D03*
%TD*%
D13*
%TO.C,D44*%
X103200000Y-116710000D03*
D14*
X103200000Y-109090000D03*
%TD*%
D10*
%TO.C,SW78*%
X431521238Y-133210224D03*
D11*
X432791238Y-130670224D03*
D12*
X436601238Y-133210224D03*
D11*
X439141238Y-128130224D03*
D10*
X441681238Y-133210224D03*
%TD*%
%TO.C,SW96*%
X43187764Y-171404810D03*
D11*
X44457764Y-168864810D03*
D12*
X48267764Y-171404810D03*
D11*
X50807764Y-166324810D03*
D10*
X53347764Y-171404810D03*
%TD*%
%TO.C,SW27*%
X155233179Y-95060614D03*
D11*
X156503179Y-92520614D03*
D12*
X160313179Y-95060614D03*
D11*
X162853179Y-89980614D03*
D10*
X165393179Y-95060614D03*
%TD*%
%TO.C,SW29*%
X193356464Y-95056112D03*
D11*
X194626464Y-92516112D03*
D12*
X198436464Y-95056112D03*
D11*
X200976464Y-89976112D03*
D10*
X203516464Y-95056112D03*
%TD*%
D13*
%TO.C,D13*%
X322300000Y-69310000D03*
D14*
X322300000Y-61690000D03*
%TD*%
D10*
%TO.C,SW107*%
X402907041Y-171259077D03*
D11*
X404177041Y-168719077D03*
D12*
X407987041Y-171259077D03*
D11*
X410527041Y-166179077D03*
D10*
X413067041Y-171259077D03*
%TD*%
%TO.C,SW89*%
X255193588Y-152279275D03*
D11*
X256463588Y-149739275D03*
D12*
X260273588Y-152279275D03*
D11*
X262813588Y-147199275D03*
D10*
X265353588Y-152279275D03*
%TD*%
%TO.C,SW70*%
X188462500Y-133200000D03*
D11*
X189732500Y-130660000D03*
D12*
X193542500Y-133200000D03*
D11*
X196082500Y-128120000D03*
D10*
X198622500Y-133200000D03*
%TD*%
D13*
%TO.C,D73*%
X260300000Y-135710000D03*
D14*
X260300000Y-128090000D03*
%TD*%
D10*
%TO.C,SW90*%
X290908670Y-152279275D03*
D11*
X292178670Y-149739275D03*
D12*
X295988670Y-152279275D03*
D11*
X298528670Y-147199275D03*
D10*
X301068670Y-152279275D03*
%TD*%
D13*
%TO.C,D85*%
X193500000Y-154810000D03*
D14*
X193500000Y-147190000D03*
%TD*%
D10*
%TO.C,SW71*%
X207547290Y-133143301D03*
D11*
X208817290Y-130603301D03*
D12*
X212627290Y-133143301D03*
D11*
X215167290Y-128063301D03*
D10*
X217707290Y-133143301D03*
%TD*%
%TO.C,SW104*%
X331359316Y-171303761D03*
D11*
X332629316Y-168763761D03*
D12*
X336439316Y-171303761D03*
D11*
X338979316Y-166223761D03*
D10*
X341519316Y-171303761D03*
%TD*%
D13*
%TO.C,D48*%
X179200000Y-116710000D03*
D14*
X179200000Y-109090000D03*
%TD*%
D13*
%TO.C,D79*%
X67500000Y-154810000D03*
D14*
X67500000Y-147190000D03*
%TD*%
D17*
%TO.C,SW109*%
X367900000Y-42700000D03*
X356900000Y-42700000D03*
D18*
X359860000Y-50200000D03*
X364940000Y-50200000D03*
X362400000Y-50200000D03*
X359860000Y-35700000D03*
X364940000Y-35700000D03*
%TD*%
D13*
%TO.C,D29*%
X207984428Y-97619391D03*
D14*
X207984428Y-89999391D03*
%TD*%
D13*
%TO.C,D46*%
X141200000Y-116610000D03*
D14*
X141200000Y-108990000D03*
%TD*%
D13*
%TO.C,D75*%
X310200000Y-135810000D03*
D14*
X310200000Y-128190000D03*
%TD*%
D13*
%TO.C,D30*%
X227000000Y-97620000D03*
D14*
X227000000Y-90000000D03*
%TD*%
D10*
%TO.C,SW42*%
X45566884Y-114124031D03*
D11*
X46836884Y-111584031D03*
D12*
X50646884Y-114124031D03*
D11*
X53186884Y-109044031D03*
D10*
X55726884Y-114124031D03*
%TD*%
%TO.C,SW80*%
X83653426Y-152289712D03*
D11*
X84923426Y-149749712D03*
D12*
X88733426Y-152289712D03*
D11*
X91273426Y-147209712D03*
D10*
X93813426Y-152289712D03*
%TD*%
%TO.C,SW93*%
X412460519Y-152247722D03*
D11*
X413730519Y-149707722D03*
D12*
X417540519Y-152247722D03*
D11*
X420080519Y-147167722D03*
D10*
X422620519Y-152247722D03*
%TD*%
D11*
%TO.C,REF\u002A\u002A*%
X284160000Y-145280000D03*
D12*
X284160000Y-160520000D03*
D11*
X307960000Y-145280000D03*
D12*
X307960000Y-160520000D03*
%TD*%
D10*
%TO.C,SW2*%
X79096232Y-66524027D03*
D11*
X80366232Y-63984027D03*
D12*
X84176232Y-66524027D03*
D11*
X86716232Y-61444027D03*
D10*
X89256232Y-66524027D03*
%TD*%
D13*
%TO.C,D90*%
X305800000Y-154810000D03*
D14*
X305800000Y-147190000D03*
%TD*%
D10*
%TO.C,SW77*%
X412462500Y-133200000D03*
D11*
X413732500Y-130660000D03*
D12*
X417542500Y-133200000D03*
D11*
X420082500Y-128120000D03*
D10*
X422622500Y-133200000D03*
%TD*%
D13*
%TO.C,D87*%
X231700000Y-154810000D03*
D14*
X231700000Y-147190000D03*
%TD*%
D13*
%TO.C,D69*%
X184000000Y-135710000D03*
D14*
X184000000Y-128090000D03*
%TD*%
D13*
%TO.C,D9*%
X236700000Y-69310000D03*
D14*
X236700000Y-61690000D03*
%TD*%
D13*
%TO.C,D12*%
X303200000Y-69310000D03*
D14*
X303200000Y-61690000D03*
%TD*%
D10*
%TO.C,SW3*%
X98176082Y-66524027D03*
D11*
X99446082Y-63984027D03*
D12*
X103256082Y-66524027D03*
D11*
X105796082Y-61444027D03*
D10*
X108336082Y-66524027D03*
%TD*%
D13*
%TO.C,D4*%
X131900000Y-69310000D03*
D14*
X131900000Y-61690000D03*
%TD*%
D10*
%TO.C,SW92*%
X393406959Y-152223978D03*
D11*
X394676959Y-149683978D03*
D12*
X398486959Y-152223978D03*
D11*
X401026959Y-147143978D03*
D10*
X403566959Y-152223978D03*
%TD*%
D11*
%TO.C,REF\u002A\u002A*%
X448660000Y-111780000D03*
X448660000Y-135580000D03*
D12*
X463900000Y-111780000D03*
X463900000Y-135580000D03*
%TD*%
D10*
%TO.C,SW95*%
X450551832Y-161746246D03*
D11*
X451821832Y-159206246D03*
D12*
X455631832Y-161746246D03*
D11*
X458171832Y-156666246D03*
D10*
X460711832Y-161746246D03*
%TD*%
%TO.C,SW14*%
X331559249Y-66557158D03*
D11*
X332829249Y-64017158D03*
D12*
X336639249Y-66557158D03*
D11*
X339179249Y-61477158D03*
D10*
X341719249Y-66557158D03*
%TD*%
D13*
%TO.C,D20*%
X465200000Y-69310000D03*
D14*
X465200000Y-61690000D03*
%TD*%
D13*
%TO.C,D25*%
X131700000Y-97620000D03*
D14*
X131700000Y-90000000D03*
%TD*%
D10*
%TO.C,SW83*%
X140811076Y-152268228D03*
D11*
X142081076Y-149728228D03*
D12*
X145891076Y-152268228D03*
D11*
X148431076Y-147188228D03*
D10*
X150971076Y-152268228D03*
%TD*%
D13*
%TO.C,D108*%
X445600000Y-173910000D03*
D14*
X445600000Y-166290000D03*
%TD*%
D13*
%TO.C,D84*%
X174500000Y-154810000D03*
D14*
X174500000Y-147190000D03*
%TD*%
D10*
%TO.C,SW86*%
X197999911Y-152250223D03*
D11*
X199269911Y-149710223D03*
D12*
X203079911Y-152250223D03*
D11*
X205619911Y-147170223D03*
D10*
X208159911Y-152250223D03*
%TD*%
D13*
%TO.C,D1*%
X55500000Y-69000000D03*
D14*
X55500000Y-61380000D03*
%TD*%
D13*
%TO.C,D62*%
X465100000Y-126220000D03*
D14*
X465100000Y-118600000D03*
%TD*%
D13*
%TO.C,D101*%
X272200000Y-173820000D03*
D14*
X272200000Y-166200000D03*
%TD*%
D13*
%TO.C,D7*%
X198500000Y-69310000D03*
D14*
X198500000Y-61690000D03*
%TD*%
D13*
%TO.C,D50*%
X217400000Y-116610000D03*
D14*
X217400000Y-108990000D03*
%TD*%
D13*
%TO.C,D99*%
X177100000Y-173910000D03*
D14*
X177100000Y-166290000D03*
%TD*%
D13*
%TO.C,D36*%
X365200000Y-97720000D03*
D14*
X365200000Y-90100000D03*
%TD*%
D13*
%TO.C,D95*%
X465100000Y-164310000D03*
D14*
X465100000Y-156690000D03*
%TD*%
D13*
%TO.C,D105*%
X365100000Y-173820000D03*
D14*
X365100000Y-166200000D03*
%TD*%
D13*
%TO.C,D100*%
X248600000Y-173820000D03*
D14*
X248600000Y-166200000D03*
%TD*%
D13*
%TO.C,D92*%
X408000000Y-154800000D03*
D14*
X408000000Y-147180000D03*
%TD*%
D13*
%TO.C,D2*%
X93700000Y-69310000D03*
D14*
X93700000Y-61690000D03*
%TD*%
D10*
%TO.C,SW10*%
X250590582Y-66572622D03*
D11*
X251860582Y-64032622D03*
D12*
X255670582Y-66572622D03*
D11*
X258210582Y-61492622D03*
D10*
X260750582Y-66572622D03*
%TD*%
%TO.C,SW105*%
X350386005Y-171303761D03*
D11*
X351656005Y-168763761D03*
D12*
X355466005Y-171303761D03*
D11*
X358006005Y-166223761D03*
D10*
X360546005Y-171303761D03*
%TD*%
%TO.C,SW100*%
X233740000Y-171300000D03*
D11*
X235010000Y-168760000D03*
D12*
X238820000Y-171300000D03*
D11*
X241360000Y-166220000D03*
D10*
X243900000Y-171300000D03*
%TD*%
D13*
%TO.C,D31*%
X246100000Y-97620000D03*
D14*
X246100000Y-90000000D03*
%TD*%
D10*
%TO.C,SW85*%
X178930000Y-152240000D03*
D11*
X180200000Y-149700000D03*
D12*
X184010000Y-152240000D03*
D11*
X186550000Y-147160000D03*
D10*
X189090000Y-152240000D03*
%TD*%
%TO.C,SW30*%
X212439015Y-95059507D03*
D11*
X213709015Y-92519507D03*
D12*
X217519015Y-95059507D03*
D11*
X220059015Y-89979507D03*
D10*
X222599015Y-95059507D03*
%TD*%
D13*
%TO.C,D66*%
X126800000Y-135710000D03*
D14*
X126800000Y-128090000D03*
%TD*%
D10*
%TO.C,SW36*%
X350572827Y-95073693D03*
D11*
X351842827Y-92533693D03*
D12*
X355652827Y-95073693D03*
D11*
X358192827Y-89993693D03*
D10*
X360732827Y-95073693D03*
%TD*%
D11*
%TO.C,REF\u002A\u002A*%
X396160000Y-164280000D03*
D12*
X396160000Y-179520000D03*
D11*
X419960000Y-164280000D03*
D12*
X419960000Y-179520000D03*
%TD*%
D10*
%TO.C,SW108*%
X431493438Y-171259077D03*
D11*
X432763438Y-168719077D03*
D12*
X436573438Y-171259077D03*
D11*
X439113438Y-166179077D03*
D10*
X441653438Y-171259077D03*
%TD*%
%TO.C,SW34*%
X298191745Y-95067979D03*
D11*
X299461745Y-92527979D03*
D12*
X303271745Y-95067979D03*
D11*
X305811745Y-89987979D03*
D10*
X308351745Y-95067979D03*
%TD*%
%TO.C,SW7*%
X183893182Y-66541772D03*
D11*
X185163182Y-64001772D03*
D12*
X188973182Y-66541772D03*
D11*
X191513182Y-61461772D03*
D10*
X194053182Y-66541772D03*
%TD*%
%TO.C,SW102*%
X281362500Y-171300000D03*
D11*
X282632500Y-168760000D03*
D12*
X286442500Y-171300000D03*
D11*
X288982500Y-166220000D03*
D10*
X291522500Y-171300000D03*
%TD*%
D14*
%TO.C,C1*%
X395840000Y-49200000D03*
X390760000Y-49200000D03*
%TD*%
D13*
%TO.C,D93*%
X427100000Y-154810000D03*
D14*
X427100000Y-147190000D03*
%TD*%
D13*
%TO.C,D43*%
X84100000Y-116620000D03*
D14*
X84100000Y-109000000D03*
%TD*%
D13*
%TO.C,D103*%
X319900000Y-173820000D03*
D14*
X319900000Y-166200000D03*
%TD*%
D13*
%TO.C,U1*%
X376140000Y-46820000D03*
D14*
X378680000Y-46820000D03*
X381220000Y-46820000D03*
X383760000Y-46820000D03*
X386300000Y-46820000D03*
X388840000Y-46820000D03*
X391380000Y-46820000D03*
X393920000Y-46820000D03*
X396460000Y-46820000D03*
X399000000Y-46820000D03*
X401540000Y-46820000D03*
X404080000Y-46820000D03*
X406620000Y-46820000D03*
X409160000Y-46820000D03*
X409160000Y-39200000D03*
X406620000Y-39200000D03*
X404080000Y-39200000D03*
X401540000Y-39200000D03*
X399000000Y-39200000D03*
X396460000Y-39200000D03*
X393920000Y-39200000D03*
X391380000Y-39200000D03*
X388840000Y-39200000D03*
X386300000Y-39200000D03*
X383760000Y-39200000D03*
X381220000Y-39200000D03*
X378680000Y-39200000D03*
X376140000Y-39200000D03*
%TD*%
D13*
%TO.C,D104*%
X346000000Y-173820000D03*
D14*
X346000000Y-166200000D03*
%TD*%
D10*
%TO.C,SW59*%
X393430000Y-114140000D03*
D11*
X394700000Y-111600000D03*
D12*
X398510000Y-114140000D03*
D11*
X401050000Y-109060000D03*
D10*
X403590000Y-114140000D03*
%TD*%
D13*
%TO.C,D17*%
X408000000Y-69310000D03*
D14*
X408000000Y-61690000D03*
%TD*%
D10*
%TO.C,SW63*%
X47920000Y-133200000D03*
D11*
X49190000Y-130660000D03*
D12*
X53000000Y-133200000D03*
D11*
X55540000Y-128120000D03*
D10*
X58080000Y-133200000D03*
%TD*%
D11*
%TO.C,REF\u002A\u002A*%
X291360000Y-88080000D03*
D12*
X291360000Y-103320000D03*
D11*
X315160000Y-88080000D03*
D12*
X315160000Y-103320000D03*
%TD*%
D17*
%TO.C,SW110*%
X351860000Y-43000000D03*
X340860000Y-43000000D03*
D18*
X343820000Y-50500000D03*
X348900000Y-50500000D03*
X346360000Y-50500000D03*
X343820000Y-36000000D03*
X348900000Y-36000000D03*
%TD*%
D13*
%TO.C,D32*%
X265200000Y-97620000D03*
D14*
X265200000Y-90000000D03*
%TD*%
D10*
%TO.C,SW75*%
X295662500Y-133200000D03*
D11*
X296932500Y-130660000D03*
D12*
X300742500Y-133200000D03*
D11*
X303282500Y-128120000D03*
D10*
X305822500Y-133200000D03*
%TD*%
%TO.C,SW39*%
X412469689Y-95073863D03*
D11*
X413739689Y-92533863D03*
D12*
X417549689Y-95073863D03*
D11*
X420089689Y-89993863D03*
D10*
X422629689Y-95073863D03*
%TD*%
%TO.C,SW48*%
X164662500Y-114100000D03*
D11*
X165932500Y-111560000D03*
D12*
X169742500Y-114100000D03*
D11*
X172282500Y-109020000D03*
D10*
X174822500Y-114100000D03*
%TD*%
D13*
%TO.C,D65*%
X107800000Y-135710000D03*
D14*
X107800000Y-128090000D03*
%TD*%
D13*
%TO.C,D54*%
X293600000Y-116610000D03*
D14*
X293600000Y-108990000D03*
%TD*%
D13*
%TO.C,D14*%
X346100000Y-69310000D03*
D14*
X346100000Y-61690000D03*
%TD*%
D10*
%TO.C,SW50*%
X202662500Y-114100000D03*
D11*
X203932500Y-111560000D03*
D12*
X207742500Y-114100000D03*
D11*
X210282500Y-109020000D03*
D10*
X212822500Y-114100000D03*
%TD*%
D13*
%TO.C,D16*%
X384300000Y-69120000D03*
D14*
X384300000Y-61500000D03*
%TD*%
D10*
%TO.C,SW9*%
X222038013Y-66565221D03*
D11*
X223308013Y-64025221D03*
D12*
X227118013Y-66565221D03*
D11*
X229658013Y-61485221D03*
D10*
X232198013Y-66565221D03*
%TD*%
D13*
%TO.C,D34*%
X312600000Y-98110000D03*
D14*
X312600000Y-90490000D03*
%TD*%
D10*
%TO.C,SW44*%
X88520000Y-114100000D03*
D11*
X89790000Y-111560000D03*
D12*
X93600000Y-114100000D03*
D11*
X96140000Y-109020000D03*
D10*
X98680000Y-114100000D03*
%TD*%
D19*
%TO.C,A1*%
X467317500Y-34500000D03*
D14*
X464777500Y-34500000D03*
D20*
X462237500Y-34500000D03*
D14*
X459697500Y-34500000D03*
X457157500Y-34500000D03*
X454617500Y-34500000D03*
X452077500Y-34500000D03*
D20*
X449537500Y-34500000D03*
D14*
X446997500Y-34500000D03*
X444457500Y-34500000D03*
X441917500Y-34500000D03*
X439377500Y-34500000D03*
D20*
X436837500Y-34500000D03*
D14*
X434297500Y-34500000D03*
X431757500Y-34500000D03*
X429217500Y-34500000D03*
X426677500Y-34500000D03*
D20*
X424137500Y-34500000D03*
D14*
X421597500Y-34500000D03*
X419057500Y-34500000D03*
X419057500Y-52280000D03*
X421597500Y-52280000D03*
D21*
X424137500Y-52280000D03*
D14*
X426677500Y-52280000D03*
X429217500Y-52280000D03*
X431757500Y-52280000D03*
X434297500Y-52280000D03*
D21*
X436837500Y-52280000D03*
D14*
X439377500Y-52280000D03*
X441917500Y-52280000D03*
X444457500Y-52280000D03*
X446997500Y-52280000D03*
D21*
X449537500Y-52280000D03*
D14*
X452077500Y-52280000D03*
X454617500Y-52280000D03*
X457157500Y-52280000D03*
X459697500Y-52280000D03*
D21*
X462237500Y-52280000D03*
D14*
X464777500Y-52280000D03*
X467317500Y-52280000D03*
%TD*%
D10*
%TO.C,SW79*%
X52691964Y-152278970D03*
D11*
X53961964Y-149738970D03*
D12*
X57771964Y-152278970D03*
D11*
X60311964Y-147198970D03*
D10*
X62851964Y-152278970D03*
%TD*%
D13*
%TO.C,D23*%
X93700000Y-97620000D03*
D14*
X93700000Y-90000000D03*
%TD*%
D13*
%TO.C,D3*%
X112800000Y-69000000D03*
D14*
X112800000Y-61380000D03*
%TD*%
D13*
%TO.C,D77*%
X427100000Y-135810000D03*
D14*
X427100000Y-128190000D03*
%TD*%
D10*
%TO.C,SW56*%
X331526374Y-114177603D03*
D11*
X332796374Y-111637603D03*
D12*
X336606374Y-114177603D03*
D11*
X339146374Y-109097603D03*
D10*
X341686374Y-114177603D03*
%TD*%
%TO.C,SW38*%
X393414630Y-95062451D03*
D11*
X394684630Y-92522451D03*
D12*
X398494630Y-95062451D03*
D11*
X401034630Y-89982451D03*
D10*
X403574630Y-95062451D03*
%TD*%
%TO.C,SW74*%
X264720000Y-133200000D03*
D11*
X265990000Y-130660000D03*
D12*
X269800000Y-133200000D03*
D11*
X272340000Y-128120000D03*
D10*
X274880000Y-133200000D03*
%TD*%
D14*
%TO.C,R3*%
X401600000Y-36545000D03*
X401600000Y-34005000D03*
%TD*%
D13*
%TO.C,D102*%
X295600000Y-173810000D03*
D14*
X295600000Y-166190000D03*
%TD*%
D10*
%TO.C,SW35*%
X331525641Y-95069136D03*
D11*
X332795641Y-92529136D03*
D12*
X336605641Y-95069136D03*
D11*
X339145641Y-89989136D03*
D10*
X341685641Y-95069136D03*
%TD*%
%TO.C,SW72*%
X226620000Y-133200000D03*
D11*
X227890000Y-130660000D03*
D12*
X231700000Y-133200000D03*
D11*
X234240000Y-128120000D03*
D10*
X236780000Y-133200000D03*
%TD*%
D13*
%TO.C,D71*%
X222100000Y-135700000D03*
D14*
X222100000Y-128080000D03*
%TD*%
D10*
%TO.C,SW22*%
X59903415Y-95049899D03*
D11*
X61173415Y-92509899D03*
D12*
X64983415Y-95049899D03*
D11*
X67523415Y-89969899D03*
D10*
X70063415Y-95049899D03*
%TD*%
%TO.C,SW6*%
X164828687Y-66534126D03*
D11*
X166098687Y-63994126D03*
D12*
X169908687Y-66534126D03*
D11*
X172448687Y-61454126D03*
D10*
X174988687Y-66534126D03*
%TD*%
D13*
%TO.C,D27*%
X169900000Y-97620000D03*
D14*
X169900000Y-90000000D03*
%TD*%
%TO.C,C2*%
X397760000Y-49000000D03*
X402840000Y-49000000D03*
%TD*%
D10*
%TO.C,SW21*%
X40836758Y-95049899D03*
D11*
X42106758Y-92509899D03*
D12*
X45916758Y-95049899D03*
D11*
X48456758Y-89969899D03*
D10*
X50996758Y-95049899D03*
%TD*%
%TO.C,SW103*%
X305220000Y-171300000D03*
D11*
X306490000Y-168760000D03*
D12*
X310300000Y-171300000D03*
D11*
X312840000Y-166220000D03*
D10*
X315380000Y-171300000D03*
%TD*%
%TO.C,SW58*%
X369639465Y-114146026D03*
D11*
X370909465Y-111606026D03*
D12*
X374719465Y-114146026D03*
D11*
X377259465Y-109066026D03*
D10*
X379799465Y-114146026D03*
%TD*%
D13*
%TO.C,D35*%
X346200000Y-97720000D03*
D14*
X346200000Y-90100000D03*
%TD*%
D13*
%TO.C,D6*%
X179400000Y-69310000D03*
D14*
X179400000Y-61690000D03*
%TD*%
D13*
%TO.C,D24*%
X112600000Y-97620000D03*
D14*
X112600000Y-90000000D03*
%TD*%
D10*
%TO.C,SW69*%
X169370509Y-133162456D03*
D11*
X170640509Y-130622456D03*
D12*
X174450509Y-133162456D03*
D11*
X176990509Y-128082456D03*
D10*
X179530509Y-133162456D03*
%TD*%
%TO.C,SW5*%
X136283733Y-66523628D03*
D11*
X137553733Y-63983628D03*
D12*
X141363733Y-66523628D03*
D11*
X143903733Y-61443628D03*
D10*
X146443733Y-66523628D03*
%TD*%
%TO.C,SW87*%
X217039430Y-152250223D03*
D11*
X218309430Y-149710223D03*
D12*
X222119430Y-152250223D03*
D11*
X224659430Y-147170223D03*
D10*
X227199430Y-152250223D03*
%TD*%
%TO.C,SW55*%
X302862500Y-114100000D03*
D11*
X304132500Y-111560000D03*
D12*
X307942500Y-114100000D03*
D11*
X310482500Y-109020000D03*
D10*
X313022500Y-114100000D03*
%TD*%
D13*
%TO.C,D45*%
X122300000Y-116620000D03*
D14*
X122300000Y-109000000D03*
%TD*%
D10*
%TO.C,SW23*%
X78973967Y-95049899D03*
D11*
X80243967Y-92509899D03*
D12*
X84053967Y-95049899D03*
D11*
X86593967Y-89969899D03*
D10*
X89133967Y-95049899D03*
%TD*%
%TO.C,SW17*%
X393479361Y-66546744D03*
D11*
X394749361Y-64006744D03*
D12*
X398559361Y-66546744D03*
D11*
X401099361Y-61466744D03*
D10*
X403639361Y-66546744D03*
%TD*%
%TO.C,SW60*%
X412462500Y-114100000D03*
D11*
X413732500Y-111560000D03*
D12*
X417542500Y-114100000D03*
D11*
X420082500Y-109020000D03*
D10*
X422622500Y-114100000D03*
%TD*%
%TO.C,SW41*%
X450552642Y-95075064D03*
D11*
X451822642Y-92535064D03*
D12*
X455632642Y-95075064D03*
D11*
X458172642Y-89995064D03*
D10*
X460712642Y-95075064D03*
%TD*%
D13*
%TO.C,D18*%
X427100000Y-69310000D03*
D14*
X427100000Y-61690000D03*
%TD*%
D13*
%TO.C,D61*%
X445500000Y-117510000D03*
D14*
X445500000Y-109890000D03*
%TD*%
D13*
%TO.C,D64*%
X88700000Y-135710000D03*
D14*
X88700000Y-128090000D03*
%TD*%
D10*
%TO.C,SW43*%
X69420000Y-114100000D03*
D11*
X70690000Y-111560000D03*
D12*
X74500000Y-114100000D03*
D11*
X77040000Y-109020000D03*
D10*
X79580000Y-114100000D03*
%TD*%
D13*
%TO.C,D81*%
X117300000Y-154810000D03*
D14*
X117300000Y-147190000D03*
%TD*%
D10*
%TO.C,SW53*%
X259862500Y-114100000D03*
D11*
X261132500Y-111560000D03*
D12*
X264942500Y-114100000D03*
D11*
X267482500Y-109020000D03*
D10*
X270022500Y-114100000D03*
%TD*%
%TO.C,SW33*%
X269622197Y-95070082D03*
D11*
X270892197Y-92530082D03*
D12*
X274702197Y-95070082D03*
D11*
X277242197Y-89990082D03*
D10*
X279782197Y-95070082D03*
%TD*%
D13*
%TO.C,D68*%
X164900000Y-135710000D03*
D14*
X164900000Y-128090000D03*
%TD*%
D10*
%TO.C,SW88*%
X236130000Y-152240000D03*
D11*
X237400000Y-149700000D03*
D12*
X241210000Y-152240000D03*
D11*
X243750000Y-147160000D03*
D10*
X246290000Y-152240000D03*
%TD*%
D13*
%TO.C,D63*%
X62500000Y-135710000D03*
D14*
X62500000Y-128090000D03*
%TD*%
D10*
%TO.C,SW26*%
X136170045Y-95049899D03*
D11*
X137440045Y-92509899D03*
D12*
X141250045Y-95049899D03*
D11*
X143790045Y-89969899D03*
D10*
X146330045Y-95049899D03*
%TD*%
D13*
%TO.C,D47*%
X160300000Y-116610000D03*
D14*
X160300000Y-108990000D03*
%TD*%
D10*
%TO.C,SW40*%
X431510280Y-95075861D03*
D11*
X432780280Y-92535861D03*
D12*
X436590280Y-95075861D03*
D11*
X439130280Y-89995861D03*
D10*
X441670280Y-95075861D03*
%TD*%
%TO.C,SW82*%
X121746598Y-152259363D03*
D11*
X123016598Y-149719363D03*
D12*
X126826598Y-152259363D03*
D11*
X129366598Y-147179363D03*
D10*
X131906598Y-152259363D03*
%TD*%
%TO.C,SW51*%
X221762500Y-114100000D03*
D11*
X223032500Y-111560000D03*
D12*
X226842500Y-114100000D03*
D11*
X229382500Y-109020000D03*
D10*
X231922500Y-114100000D03*
%TD*%
D13*
%TO.C,D89*%
X269900000Y-154810000D03*
D14*
X269900000Y-147190000D03*
%TD*%
D13*
%TO.C,D21*%
X55500000Y-97720000D03*
D14*
X55500000Y-90100000D03*
%TD*%
D10*
%TO.C,SW45*%
X107562500Y-114100000D03*
D11*
X108832500Y-111560000D03*
D12*
X112642500Y-114100000D03*
D11*
X115182500Y-109020000D03*
D10*
X117722500Y-114100000D03*
%TD*%
D13*
%TO.C,D53*%
X274500000Y-116700000D03*
D14*
X274500000Y-109080000D03*
%TD*%
D10*
%TO.C,SW46*%
X126562500Y-114100000D03*
D11*
X127832500Y-111560000D03*
D12*
X131642500Y-114100000D03*
D11*
X134182500Y-109020000D03*
D10*
X136722500Y-114100000D03*
%TD*%
%TO.C,SW67*%
X131220000Y-133200000D03*
D11*
X132490000Y-130660000D03*
D12*
X136300000Y-133200000D03*
D11*
X138840000Y-128120000D03*
D10*
X141380000Y-133200000D03*
%TD*%
%TO.C,SW99*%
X162262500Y-171400000D03*
D11*
X163532500Y-168860000D03*
D12*
X167342500Y-171400000D03*
D11*
X169882500Y-166320000D03*
D10*
X172422500Y-171400000D03*
%TD*%
D13*
%TO.C,D78*%
X445900000Y-135800000D03*
D14*
X445900000Y-128180000D03*
%TD*%
D13*
%TO.C,D59*%
X408100000Y-116710000D03*
D14*
X408100000Y-109090000D03*
%TD*%
D10*
%TO.C,SW32*%
X250567055Y-95059152D03*
D11*
X251837055Y-92519152D03*
D12*
X255647055Y-95059152D03*
D11*
X258187055Y-89979152D03*
D10*
X260727055Y-95059152D03*
%TD*%
D13*
%TO.C,D49*%
X198200000Y-116610000D03*
D14*
X198200000Y-108990000D03*
%TD*%
D13*
%TO.C,D76*%
X408000000Y-135720000D03*
D14*
X408000000Y-128100000D03*
%TD*%
D13*
%TO.C,D57*%
X365200000Y-116710000D03*
D14*
X365200000Y-109090000D03*
%TD*%
D10*
%TO.C,SW13*%
X307778874Y-66561771D03*
D11*
X309048874Y-64021771D03*
D12*
X312858874Y-66561771D03*
D11*
X315398874Y-61481771D03*
D10*
X317938874Y-66561771D03*
%TD*%
D13*
%TO.C,D10*%
X265100000Y-69310000D03*
D14*
X265100000Y-61690000D03*
%TD*%
D10*
%TO.C,SW15*%
X350633592Y-66555156D03*
D11*
X351903592Y-64015156D03*
D12*
X355713592Y-66555156D03*
D11*
X358253592Y-61475156D03*
D10*
X360793592Y-66555156D03*
%TD*%
%TO.C,SW61*%
X431506395Y-114119686D03*
D11*
X432776395Y-111579686D03*
D12*
X436586395Y-114119686D03*
D11*
X439126395Y-109039686D03*
D10*
X441666395Y-114119686D03*
%TD*%
%TO.C,SW84*%
X159840000Y-152300000D03*
D11*
X161110000Y-149760000D03*
D12*
X164920000Y-152300000D03*
D11*
X167460000Y-147220000D03*
D10*
X170000000Y-152300000D03*
%TD*%
%TO.C,SW91*%
X350340000Y-152247386D03*
D11*
X351610000Y-149707386D03*
D12*
X355420000Y-152247386D03*
D11*
X357960000Y-147167386D03*
D10*
X360500000Y-152247386D03*
%TD*%
D11*
%TO.C,REF\u002A\u002A*%
X288860000Y-126180000D03*
D12*
X288860000Y-141420000D03*
D11*
X312660000Y-126180000D03*
D12*
X312660000Y-141420000D03*
%TD*%
D10*
%TO.C,SW81*%
X102691487Y-152270105D03*
D11*
X103961487Y-149730105D03*
D12*
X107771487Y-152270105D03*
D11*
X110311487Y-147190105D03*
D10*
X112851487Y-152270105D03*
%TD*%
D13*
%TO.C,D80*%
X98300000Y-154810000D03*
D14*
X98300000Y-147190000D03*
%TD*%
D13*
%TO.C,D60*%
X427100000Y-116610000D03*
D14*
X427100000Y-108990000D03*
%TD*%
D10*
%TO.C,SW16*%
X369689413Y-66555156D03*
D11*
X370959413Y-64015156D03*
D12*
X374769413Y-66555156D03*
D11*
X377309413Y-61475156D03*
D10*
X379849413Y-66555156D03*
%TD*%
%TO.C,SW68*%
X150280913Y-133136827D03*
D11*
X151550913Y-130596827D03*
D12*
X155360913Y-133136827D03*
D11*
X157900913Y-128056827D03*
D10*
X160440913Y-133136827D03*
%TD*%
%TO.C,SW94*%
X431490198Y-152250905D03*
D11*
X432760198Y-149710905D03*
D12*
X436570198Y-152250905D03*
D11*
X439110198Y-147170905D03*
D10*
X441650198Y-152250905D03*
%TD*%
%TO.C,SW4*%
X117232082Y-66515570D03*
D11*
X118502082Y-63975570D03*
D12*
X122312082Y-66515570D03*
D11*
X124852082Y-61435570D03*
D10*
X127392082Y-66515570D03*
%TD*%
%TO.C,SW24*%
X98036730Y-95049899D03*
D11*
X99306730Y-92509899D03*
D12*
X103116730Y-95049899D03*
D11*
X105656730Y-89969899D03*
D10*
X108196730Y-95049899D03*
%TD*%
%TO.C,SW65*%
X93120000Y-133200000D03*
D11*
X94390000Y-130660000D03*
D12*
X98200000Y-133200000D03*
D11*
X100740000Y-128120000D03*
D10*
X103280000Y-133200000D03*
%TD*%
D13*
%TO.C,D94*%
X445400000Y-155410000D03*
D14*
X445400000Y-147790000D03*
%TD*%
D13*
%TO.C,D52*%
X255400000Y-116610000D03*
D14*
X255400000Y-108990000D03*
%TD*%
M02*
